<svg viewBox="0 50 718.8 210" xmlns="http://www.w3.org/2000/svg"><g class="graph" transform="translate(4 340.35)"><title>G</title><g class="node"><title>Renewables</title><path fill="none" stroke="transparent" d="M164.041-260.716H-.014v164.055h164.055v-164.055z"/><text text-anchor="middle" x="82.014" y="-171.488" font-family="Helvetica,sans-Serif" font-size="24" fill="#fff">Renewables</text></g><g class="node"><title>Electrolysis</title><path fill="none" stroke="transparent" d="M417.537-336.514H279.886v137.651h137.651v-137.651z"/><text text-anchor="middle" x="348.712" y="-260.488" font-family="Helvetica,sans-Serif" font-size="24" fill="#fff">Electrolysis</text></g><g class="edge"><title>Renewables-&gt;Electrolysis</title><path fill="none" stroke="#fff" d="M164.208-206.118l105.893-35.337"/><path fill="#fff" stroke="#fff" d="M269.206-244.846l10.594.154-8.378 6.486-2.216-6.64z"/><text text-anchor="middle" x="211.025" y="-234.288" font-family="Helvetica,sans-Serif" font-size="12" fill="#fff">Electricity</text></g><g class="node"><title>Carbon capture</title><path fill="none" stroke="transparent" d="M439.589-181.566H257.834V.189h181.755v-181.755z"/><text text-anchor="middle" x="348.712" y="-83.488" font-family="Helvetica,sans-Serif" font-size="24" fill="#fff">Carbon capture</text></g><g class="edge"><title>Renewables-&gt;Carbon capture</title><path fill="none" stroke="#fff" d="M164.208-151.567l84.04 27.73"/><path fill="#fff" stroke="#fff" d="M249.564-127.089l8.399 6.457-10.593.19 2.194-6.647z"/><text text-anchor="middle" x="211.025" y="-148.288" font-family="Helvetica,sans-Serif" font-size="12" fill="#fff">Electricity</text></g><g class="node"><title>Hydrogenation</title><path fill="none" stroke="transparent" d="M710.822-252.734H562.731v148.091h148.091v-148.091z"/><text text-anchor="middle" x="636.777" y="-171.488" font-family="Helvetica,sans-Serif" font-size="24" fill="#fff">Hydrogenation</text></g><g class="edge"><title>Electrolysis-&gt;Hydrogenation</title><path fill="none" stroke="#fff" d="M417.71-246.37l135.243 41.784"/><path fill="#fff" stroke="#fff" d="M554.02-207.92l8.521 6.296-10.588.392 2.067-6.688z"/><text text-anchor="middle" x="501.077" y="-237.288" font-family="Helvetica,sans-Serif" font-size="12" fill="#fff">Hydrogen</text></g><g class="edge"><title>Carbon capture-&gt;Hydrogenation</title><path fill="none" stroke="#fff" d="M439.462-118.411l113.083-34.546"/><path fill="#fff" stroke="#fff" d="M551.808-156.391l10.586.426-8.541 6.269-2.045-6.695z"/><text text-anchor="middle" x="501.077" y="-153.288" font-family="Helvetica,sans-Serif" font-size="12" fill="#fff">Carbon dioxide</text></g></g></svg>