<?xml version="1.0" encoding="UTF-8" standalone="no"?>
<!DOCTYPE svg PUBLIC "-//W3C//DTD SVG 1.1//EN" "http://www.w3.org/Graphics/SVG/1.1/DTD/svg11.dtd">
<svg xmlns="http://www.w3.org/2000/svg" xmlns:xlink="http://www.w3.org/1999/xlink" version="1.1" width="839.225pt" height="325.84077pt" viewBox="0 0 839.225 325.84077">
<g enable-background="new">
<g>
<path transform="matrix(1,0,0,-1,0,325.84077)" d="M 0 0 L 839.225 0 L 839.225 325.84077 L 0 325.84077 Z " fill="#ffffff"/>
<path transform="matrix(1,0,0,-1,0,325.84077)" d="M 50.825 83.0445 L 294.95 83.0445 L 294.95 300.4845 L 50.825 300.4845 Z " fill="#ffffff"/>
<clipPath id="cp0">
<path transform="matrix(1,0,0,-1,0,325.84077)" d="M 50.825 83.0445 L 294.95 83.0445 L 294.95 300.4845 L 50.825 300.4845 Z "/>
</clipPath>
<g clip-path="url(#cp0)">
<path transform="matrix(1,0,0,-1,0,325.84077)" d="M 71.16875 83.0445 L 111.85625 83.0445 L 111.85625 223.38838 L 71.16875 223.38838 Z " fill="#1f77b4"/>
</g>
<clipPath id="cp1">
<path transform="matrix(1,0,0,-1,0,325.84077)" d="M 50.825 83.0445 L 294.95 83.0445 L 294.95 300.4845 L 50.825 300.4845 Z "/>
</clipPath>
<g clip-path="url(#cp1)">
<path transform="matrix(1,0,0,-1,0,325.84077)" d="M 152.54375 83.0445 L 193.23125 83.0445 L 193.23125 223.07733 L 152.54375 223.07733 Z " fill="#1f77b4"/>
</g>
<clipPath id="cp2">
<path transform="matrix(1,0,0,-1,0,325.84077)" d="M 50.825 83.0445 L 294.95 83.0445 L 294.95 300.4845 L 50.825 300.4845 Z "/>
</clipPath>
<g clip-path="url(#cp2)">
<path transform="matrix(1,0,0,-1,0,325.84077)" d="M 233.91875 83.0445 L 274.60627 83.0445 L 274.60627 223.22173 L 233.91875 223.22173 Z " fill="#1f77b4"/>
</g>
<clipPath id="cp3">
<path transform="matrix(1,0,0,-1,0,325.84077)" d="M 50.825 83.0445 L 294.95 83.0445 L 294.95 300.4845 L 50.825 300.4845 Z "/>
</clipPath>
<g clip-path="url(#cp3)">
<path transform="matrix(1,0,0,-1,0,325.84077)" d="M 71.16875 223.38838 L 111.85625 223.38838 L 111.85625 235.79926 L 71.16875 235.79926 Z " fill="#ff7f0e"/>
</g>
<clipPath id="cp4">
<path transform="matrix(1,0,0,-1,0,325.84077)" d="M 50.825 83.0445 L 294.95 83.0445 L 294.95 300.4845 L 50.825 300.4845 Z "/>
</clipPath>
<g clip-path="url(#cp4)">
<path transform="matrix(1,0,0,-1,0,325.84077)" d="M 152.54375 223.07733 L 193.23125 223.07733 L 193.23125 243.43936 L 152.54375 243.43936 Z " fill="#ff7f0e"/>
</g>
<clipPath id="cp5">
<path transform="matrix(1,0,0,-1,0,325.84077)" d="M 50.825 83.0445 L 294.95 83.0445 L 294.95 300.4845 L 50.825 300.4845 Z "/>
</clipPath>
<g clip-path="url(#cp5)">
<path transform="matrix(1,0,0,-1,0,325.84077)" d="M 233.91875 223.22173 L 274.60627 223.22173 L 274.60627 235.09769 L 233.91875 235.09769 Z " fill="#ff7f0e"/>
</g>
<clipPath id="cp6">
<path transform="matrix(1,0,0,-1,0,325.84077)" d="M 50.825 83.0445 L 294.95 83.0445 L 294.95 300.4845 L 50.825 300.4845 Z "/>
</clipPath>
<g clip-path="url(#cp6)">
<path transform="matrix(1,0,0,-1,0,325.84077)" d="M 71.16875 235.79926 L 111.85625 235.79926 L 111.85625 236.00127 L 71.16875 236.00127 Z " fill="#2ca02c"/>
</g>
<clipPath id="cp7">
<path transform="matrix(1,0,0,-1,0,325.84077)" d="M 50.825 83.0445 L 294.95 83.0445 L 294.95 300.4845 L 50.825 300.4845 Z "/>
</clipPath>
<g clip-path="url(#cp7)">
<path transform="matrix(1,0,0,-1,0,325.84077)" d="M 152.54375 243.43936 L 193.23125 243.43936 L 193.23125 244.40637 L 152.54375 244.40637 Z " fill="#2ca02c"/>
</g>
<clipPath id="cp8">
<path transform="matrix(1,0,0,-1,0,325.84077)" d="M 50.825 83.0445 L 294.95 83.0445 L 294.95 300.4845 L 50.825 300.4845 Z "/>
</clipPath>
<g clip-path="url(#cp8)">
<path transform="matrix(1,0,0,-1,0,325.84077)" d="M 233.91875 83.0445 L 274.60627 83.0445 L 233.91875 83.0445 Z " fill="#2ca02c"/>
</g>
<clipPath id="cp9">
<path transform="matrix(1,0,0,-1,0,325.84077)" d="M 50.825 83.0445 L 294.95 83.0445 L 294.95 300.4845 L 50.825 300.4845 Z "/>
</clipPath>
<g clip-path="url(#cp9)">
<path transform="matrix(1,0,0,-1,0,325.84077)" d="M 71.16875 236.00127 L 111.85625 236.00127 L 111.85625 237.11588 L 71.16875 237.11588 Z " fill="#d62728"/>
</g>
<clipPath id="cp10">
<path transform="matrix(1,0,0,-1,0,325.84077)" d="M 50.825 83.0445 L 294.95 83.0445 L 294.95 300.4845 L 50.825 300.4845 Z "/>
</clipPath>
<g clip-path="url(#cp10)">
<path transform="matrix(1,0,0,-1,0,325.84077)" d="M 152.54375 244.40637 L 193.23125 244.40637 L 193.23125 246.58013 L 152.54375 246.58013 Z " fill="#d62728"/>
</g>
<clipPath id="cp11">
<path transform="matrix(1,0,0,-1,0,325.84077)" d="M 50.825 83.0445 L 294.95 83.0445 L 294.95 300.4845 L 50.825 300.4845 Z "/>
</clipPath>
<g clip-path="url(#cp11)">
<path transform="matrix(1,0,0,-1,0,325.84077)" d="M 233.91875 83.0445 L 274.60627 83.0445 L 233.91875 83.0445 Z " fill="#d62728"/>
</g>
<clipPath id="cp12">
<path transform="matrix(1,0,0,-1,0,325.84077)" d="M 50.825 83.0445 L 294.95 83.0445 L 294.95 300.4845 L 50.825 300.4845 Z "/>
</clipPath>
<g clip-path="url(#cp12)">
<path transform="matrix(1,0,0,-1,0,325.84077)" d="M 71.16875 237.11588 L 111.85625 237.11588 L 111.85625 300.4845 L 71.16875 300.4845 Z " fill="#9467bd"/>
</g>
<clipPath id="cp13">
<path transform="matrix(1,0,0,-1,0,325.84077)" d="M 50.825 83.0445 L 294.95 83.0445 L 294.95 300.4845 L 50.825 300.4845 Z "/>
</clipPath>
<g clip-path="url(#cp13)">
<path transform="matrix(1,0,0,-1,0,325.84077)" d="M 152.54375 246.58013 L 193.23125 246.58013 L 193.23125 300.4845 L 152.54375 300.4845 Z " fill="#9467bd"/>
</g>
<clipPath id="cp14">
<path transform="matrix(1,0,0,-1,0,325.84077)" d="M 50.825 83.0445 L 294.95 83.0445 L 294.95 300.4845 L 50.825 300.4845 Z "/>
</clipPath>
<g clip-path="url(#cp14)">
<path transform="matrix(1,0,0,-1,0,325.84077)" d="M 233.91875 235.09769 L 274.60627 235.09769 L 274.60627 300.4845 L 233.91875 300.4845 Z " fill="#9467bd"/>
</g>
<path transform="matrix(1,0,0,-1,0,325.84077)" d="M 91.5125 83.0445 L 91.5125 79.5445 "/>
<path transform="matrix(1,0,0,-1,0,325.84077)" stroke-width=".8" stroke-linecap="butt" stroke-linejoin="round" fill="none" stroke="#000000" d="M 91.5125 83.0445 L 91.5125 79.5445 "/>
<symbol id="font_f_49">
<path transform="matrix(.001,0,0,.001,-.098000008,0)" d="M 98 729 L 197 729 L 197 0 L 98 0 L 98 729 "/>
</symbol>
<symbol id="font_f_6e">
<path transform="matrix(.001,0,0,.001,-.091000009,0)" d="M 549 330 L 549 0 L 459 0 L 459 327 C 459 379 448 417 428 443 C 408 469 378 482 338 482 C 289 482 251 466 223 435 C 195 404 181 362 181 309 L 181 0 L 91 0 L 91 547 L 181 547 L 181 462 C 202 494 227 519 257 535 C 286 551 320 560 358 560 C 420 560 468 540 500 501 C 532 462 549 405 549 330 "/>
</symbol>
<symbol id="font_f_74">
<path transform="matrix(.001,0,0,.001,-.027,0)" d="M 183 702 L 183 547 L 368 547 L 368 477 L 183 477 L 183 180 C 183 135 189 106 201 94 C 213 81 238 75 276 75 L 368 75 L 368 0 L 276 0 C 206 0 158 13 132 39 C 106 65 93 112 93 180 L 93 477 L 27 477 L 27 547 L 93 547 L 93 702 L 183 702 "/>
</symbol>
<symbol id="font_f_65">
<path transform="matrix(.001,0,0,.001,-.055000005,.013)" d="M 562 296 L 562 252 L 149 252 C 153 190 171 142 205 110 C 238 78 284 62 344 62 C 378 62 412 66 444 74 C 476 82 509 95 541 113 L 541 28 C 509 14 476 3 442 -3 C 408 -9 373 -13 339 -13 C 251 -13 182 12 131 62 C 80 112 55 181 55 268 C 55 357 79 428 127 481 C 175 533 241 560 323 560 C 397 560 455 536 498 489 C 540 441 562 377 562 296 M 472 322 C 471 371 457 410 431 440 C 404 469 368 484 324 484 C 274 484 234 469 204 441 C 174 413 156 373 152 322 L 472 322 "/>
</symbol>
<symbol id="font_f_67">
<path transform="matrix(.001,0,0,.001,-.055000005,.20700002)" d="M 454 280 C 454 344 440 395 414 431 C 387 467 349 485 301 485 C 253 485 215 467 188 431 C 161 395 148 344 148 280 C 148 215 161 165 188 129 C 215 93 253 75 301 75 C 349 75 387 93 414 129 C 440 165 454 215 454 280 M 544 68 C 544 -24 523 -93 482 -139 C 440 -184 377 -207 292 -207 C 260 -207 231 -204 203 -200 C 175 -195 147 -188 121 -178 L 121 -91 C 147 -105 173 -115 199 -122 C 225 -129 251 -133 278 -133 C 336 -133 380 -117 410 -87 C 439 -56 454 -10 454 52 L 454 96 C 435 64 411 40 382 24 C 353 8 319 0 279 0 C 211 0 157 25 116 76 C 75 127 55 195 55 280 C 55 364 75 432 116 483 C 157 534 211 560 279 560 C 319 560 353 552 382 536 C 411 520 435 496 454 464 L 454 547 L 544 547 L 544 68 "/>
</symbol>
<symbol id="font_f_72">
<path transform="matrix(.001,0,0,.001,-.091000009,0)" d="M 411 463 C 401 469 390 473 378 476 C 366 478 353 480 339 480 C 288 480 249 463 222 430 C 194 397 181 350 181 288 L 181 0 L 91 0 L 91 547 L 181 547 L 181 462 C 199 495 224 520 254 536 C 284 552 321 560 365 560 C 371 560 378 559 386 559 C 393 558 401 557 411 555 L 411 463 "/>
</symbol>
<symbol id="font_f_61">
<path transform="matrix(.001,0,0,.001,-.060000004,.013)" d="M 343 275 C 270 275 220 266 192 250 C 164 233 150 205 150 165 C 150 133 160 107 181 89 C 202 70 231 61 267 61 C 317 61 357 78 387 114 C 417 149 432 196 432 255 L 432 275 L 343 275 M 522 312 L 522 0 L 432 0 L 432 83 C 411 49 385 25 355 10 C 325 -5 287 -13 243 -13 C 187 -13 142 2 109 33 C 76 64 60 106 60 159 C 60 220 80 266 122 298 C 163 329 224 345 306 345 L 432 345 L 432 354 C 432 395 418 427 391 450 C 364 472 326 484 277 484 C 245 484 215 480 185 472 C 155 464 127 453 100 439 L 100 522 C 132 534 164 544 195 550 C 226 556 256 560 286 560 C 365 560 424 539 463 498 C 502 457 522 395 522 312 "/>
</symbol>
<symbol id="font_f_64">
<path transform="matrix(.001,0,0,.001,-.055000005,.013)" d="M 454 464 L 454 760 L 544 760 L 544 0 L 454 0 L 454 82 C 435 49 411 25 382 10 C 353 -5 319 -13 279 -13 C 213 -13 159 13 117 65 C 75 117 55 187 55 273 C 55 359 75 428 117 481 C 159 533 213 560 279 560 C 319 560 353 552 382 536 C 411 520 435 496 454 464 M 148 273 C 148 207 161 155 188 117 C 215 79 253 61 301 61 C 348 61 385 79 413 117 C 440 155 454 207 454 273 C 454 339 440 390 413 428 C 385 466 348 485 301 485 C 253 485 215 466 188 428 C 161 390 148 339 148 273 "/>
</symbol>
<use xlink:href="#font_f_49" transform="matrix(10,0,0,-10,66.305,257.39)"/>
<use xlink:href="#font_f_6e" transform="matrix(10,0,0,-10,69.185,257.39)"/>
<use xlink:href="#font_f_74" transform="matrix(10,0,0,-10,74.88499,257.39)"/>
<use xlink:href="#font_f_65" transform="matrix(10,0,0,-10,79.08499,257.52003)"/>
<use xlink:href="#font_f_67" transform="matrix(10,0,0,-10,85.23499,259.46003)"/>
<use xlink:href="#font_f_72" transform="matrix(10,0,0,-10,91.94499,257.39)"/>
<use xlink:href="#font_f_61" transform="matrix(10,0,0,-10,95.74499,257.52003)"/>
<use xlink:href="#font_f_74" transform="matrix(10,0,0,-10,101.54498,257.39)"/>
<use xlink:href="#font_f_65" transform="matrix(10,0,0,-10,105.74499,257.52003)"/>
<use xlink:href="#font_f_64" transform="matrix(10,0,0,-10,111.89499,257.52003)"/>
<path transform="matrix(1,0,0,-1,0,325.84077)" d="M 172.8875 83.0445 L 172.8875 79.5445 "/>
<path transform="matrix(1,0,0,-1,0,325.84077)" stroke-width=".8" stroke-linecap="butt" stroke-linejoin="round" fill="none" stroke="#000000" d="M 172.8875 83.0445 L 172.8875 79.5445 "/>
<symbol id="font_f_4f">
<path transform="matrix(.001,0,0,.001,-.056,.013)" d="M 394 662 C 322 662 265 635 223 582 C 181 528 160 456 160 364 C 160 272 181 199 223 146 C 265 92 322 66 394 66 C 465 66 522 92 564 146 C 606 199 627 272 627 364 C 627 456 606 528 564 582 C 522 635 465 662 394 662 M 394 742 C 496 742 577 707 639 639 C 700 571 731 479 731 364 C 731 248 700 157 639 89 C 577 21 496 -13 394 -13 C 291 -13 209 21 148 89 C 86 157 56 248 56 364 C 56 479 86 571 148 639 C 209 707 291 742 394 742 "/>
</symbol>
<symbol id="font_f_66">
<path transform="matrix(.001,0,0,.001,-.023000002,0)" d="M 371 760 L 371 685 L 285 685 C 253 685 230 678 218 665 C 205 652 199 629 199 595 L 199 547 L 347 547 L 347 477 L 199 477 L 199 0 L 109 0 L 109 477 L 23 477 L 23 547 L 109 547 L 109 585 C 109 645 123 690 151 718 C 179 746 224 760 286 760 L 371 760 "/>
</symbol>
<symbol id="font_f_73">
<path transform="matrix(.001,0,0,.001,-.054,.013)" d="M 443 531 L 443 446 C 417 458 391 468 364 475 C 336 481 308 485 279 485 C 234 485 200 478 178 464 C 156 450 145 430 145 403 C 145 382 153 366 169 354 C 185 342 217 330 265 320 L 296 313 C 360 299 405 279 432 255 C 458 230 472 195 472 151 C 472 100 452 60 412 31 C 372 1 316 -13 246 -13 C 216 -13 186 -10 154 -5 C 122 0 89 8 54 20 L 54 113 C 87 95 120 82 152 74 C 184 65 216 61 248 61 C 290 61 323 68 346 82 C 368 96 380 117 380 144 C 380 168 371 187 355 200 C 339 213 303 226 247 238 L 216 245 C 160 257 119 275 95 299 C 70 323 58 356 58 399 C 58 450 76 490 112 518 C 148 546 200 560 268 560 C 301 560 332 557 362 552 C 391 547 418 540 443 531 "/>
</symbol>
<symbol id="font_f_68">
<path transform="matrix(.001,0,0,.001,-.091000009,0)" d="M 549 330 L 549 0 L 459 0 L 459 327 C 459 379 448 417 428 443 C 408 469 378 482 338 482 C 289 482 251 466 223 435 C 195 404 181 362 181 309 L 181 0 L 91 0 L 91 760 L 181 760 L 181 462 C 202 494 227 519 257 535 C 286 551 320 560 358 560 C 420 560 468 540 500 501 C 532 462 549 405 549 330 "/>
</symbol>
<symbol id="font_f_6f">
<path transform="matrix(.001,0,0,.001,-.055000005,.013)" d="M 306 484 C 258 484 220 465 192 427 C 164 389 150 338 150 273 C 150 207 163 156 191 118 C 219 80 257 62 306 62 C 354 62 392 80 420 118 C 448 156 462 207 462 273 C 462 337 448 389 420 427 C 392 465 354 484 306 484 M 306 560 C 384 560 445 534 490 484 C 534 433 557 363 557 273 C 557 183 534 113 490 63 C 445 12 384 -13 306 -13 C 227 -13 165 12 121 63 C 77 113 55 183 55 273 C 55 363 77 433 121 484 C 165 534 227 560 306 560 "/>
</symbol>
<use xlink:href="#font_f_4f" transform="matrix(10,0,0,-10,152.1428,257.52003)"/>
<use xlink:href="#font_f_66" transform="matrix(10,0,0,-10,159.6828,257.39)"/>
<use xlink:href="#font_f_66" transform="matrix(10,0,0,-10,163.2028,257.39)"/>
<use xlink:href="#font_f_73" transform="matrix(10,0,0,-10,167.0328,257.52003)"/>
<use xlink:href="#font_f_68" transform="matrix(10,0,0,-10,172.61283,257.39)"/>
<use xlink:href="#font_f_6f" transform="matrix(10,0,0,-10,178.59282,257.52003)"/>
<use xlink:href="#font_f_72" transform="matrix(10,0,0,-10,185.07282,257.39)"/>
<use xlink:href="#font_f_65" transform="matrix(10,0,0,-10,188.82282,257.52003)"/>
<path transform="matrix(1,0,0,-1,0,325.84077)" d="M 254.2625 83.0445 L 254.2625 79.5445 "/>
<path transform="matrix(1,0,0,-1,0,325.84077)" stroke-width=".8" stroke-linecap="butt" stroke-linejoin="round" fill="none" stroke="#000000" d="M 254.2625 83.0445 L 254.2625 79.5445 "/>
<symbol id="font_f_4c">
<path transform="matrix(.001,0,0,.001,-.098000008,0)" d="M 98 729 L 197 729 L 197 83 L 552 83 L 552 0 L 98 0 L 98 729 "/>
</symbol>
<symbol id="font_f_2d">
<path transform="matrix(.001,0,0,.001,-.049000004,-.23400001)" d="M 49 314 L 312 314 L 312 234 L 49 234 L 49 314 "/>
</symbol>
<symbol id="font_f_62">
<path transform="matrix(.001,0,0,.001,-.091000009,.013)" d="M 487 273 C 487 339 473 390 446 428 C 418 466 381 485 334 485 C 286 485 249 466 222 428 C 194 390 181 339 181 273 C 181 207 194 155 222 117 C 249 79 286 61 334 61 C 381 61 418 79 446 117 C 473 155 487 207 487 273 M 181 464 C 199 496 223 520 252 536 C 281 552 316 560 356 560 C 422 560 476 533 518 481 C 559 428 580 359 580 273 C 580 187 559 117 518 65 C 476 13 422 -13 356 -13 C 316 -13 281 -5 252 10 C 223 25 199 49 181 82 L 181 0 L 91 0 L 91 760 L 181 760 L 181 464 "/>
</symbol>
<use xlink:href="#font_f_4c" transform="matrix(10,0,0,-10,226.14875,257.39)"/>
<use xlink:href="#font_f_61" transform="matrix(10,0,0,-10,231.33876,257.52003)"/>
<use xlink:href="#font_f_6e" transform="matrix(10,0,0,-10,237.77877,257.39)"/>
<use xlink:href="#font_f_64" transform="matrix(10,0,0,-10,243.75876,257.52003)"/>
<use xlink:href="#font_f_2d" transform="matrix(10,0,0,-10,250.04877,255.05002)"/>
<use xlink:href="#font_f_62" transform="matrix(10,0,0,-10,254.07877,257.52003)"/>
<use xlink:href="#font_f_61" transform="matrix(10,0,0,-10,260.11878,257.52003)"/>
<use xlink:href="#font_f_73" transform="matrix(10,0,0,-10,266.18879,257.52003)"/>
<use xlink:href="#font_f_65" transform="matrix(10,0,0,-10,271.40876,257.52003)"/>
<use xlink:href="#font_f_64" transform="matrix(10,0,0,-10,277.55876,257.52003)"/>
<symbol id="font_f_53">
<path transform="matrix(.001,0,0,.001,-.066,.013)" d="M 535 705 L 535 609 C 497 627 462 640 429 649 C 395 657 363 662 333 662 C 279 662 237 651 208 631 C 179 610 165 580 165 542 C 165 510 174 485 194 469 C 213 452 250 439 304 429 L 364 417 C 437 403 491 378 526 343 C 561 307 579 260 579 201 C 579 130 555 77 508 41 C 460 5 391 -13 300 -13 C 265 -13 228 -9 189 -2 C 150 5 110 16 69 32 L 69 134 C 109 111 148 94 186 83 C 224 71 262 66 300 66 C 356 66 399 77 430 99 C 460 121 476 152 476 194 C 476 230 465 258 443 278 C 421 298 385 313 335 323 L 275 335 C 201 349 148 372 115 404 C 82 435 66 478 66 534 C 66 598 88 649 134 686 C 179 723 242 742 322 742 C 356 742 390 739 426 733 C 461 727 497 717 535 705 "/>
</symbol>
<symbol id="font_f_63">
<path transform="matrix(.001,0,0,.001,-.055000005,.013)" d="M 488 526 L 488 442 C 462 456 437 466 411 473 C 385 480 360 484 334 484 C 276 484 230 465 198 428 C 166 391 150 339 150 273 C 150 206 166 154 198 117 C 230 80 276 62 334 62 C 360 62 385 65 411 72 C 437 79 462 90 488 104 L 488 21 C 462 9 436 0 410 -5 C 383 -10 354 -13 324 -13 C 242 -13 176 12 128 64 C 79 115 55 185 55 273 C 55 362 79 432 128 483 C 177 534 244 560 330 560 C 358 560 385 557 411 551 C 437 545 463 537 488 526 "/>
</symbol>
<symbol id="font_f_69">
<path transform="matrix(.001,0,0,.001,-.094000007,0)" d="M 94 547 L 184 547 L 184 0 L 94 0 L 94 547 M 94 760 L 184 760 L 184 646 L 94 646 L 94 760 "/>
</symbol>
<use xlink:href="#font_f_53" transform="matrix(14,0,0,-14,143.3818,274.29078)"/>
<use xlink:href="#font_f_63" transform="matrix(14,0,0,-14,152.11782,274.29078)"/>
<use xlink:href="#font_f_65" transform="matrix(14,0,0,-14,159.81781,274.29078)"/>
<use xlink:href="#font_f_6e" transform="matrix(14,0,0,-14,168.93181,274.10877)"/>
<use xlink:href="#font_f_61" transform="matrix(14,0,0,-14,177.37381,274.29078)"/>
<use xlink:href="#font_f_72" transform="matrix(14,0,0,-14,186.38982,274.10877)"/>
<use xlink:href="#font_f_69" transform="matrix(14,0,0,-14,192.1858,274.10877)"/>
<use xlink:href="#font_f_6f" transform="matrix(14,0,0,-14,195.53182,274.29078)"/>
<path transform="matrix(1,0,0,-1,0,325.84077)" d="M 50.825 83.0445 L 47.325 83.0445 "/>
<path transform="matrix(1,0,0,-1,0,325.84077)" stroke-width=".8" stroke-linecap="butt" stroke-linejoin="round" fill="none" stroke="#000000" d="M 50.825 83.0445 L 47.325 83.0445 "/>
<symbol id="font_f_30">
<path transform="matrix(.001,0,0,.001,-.066,.013)" d="M 318 664 C 267 664 229 639 203 589 C 177 539 165 464 165 364 C 165 264 177 189 203 139 C 229 89 267 64 318 64 C 369 64 407 89 433 139 C 458 189 471 264 471 364 C 471 464 458 539 433 589 C 407 639 369 664 318 664 M 318 742 C 399 742 461 709 505 645 C 548 580 570 486 570 364 C 570 241 548 147 505 83 C 461 19 399 -13 318 -13 C 236 -13 173 19 130 83 C 87 147 66 241 66 364 C 66 486 87 580 130 645 C 173 709 236 742 318 742 "/>
</symbol>
<use xlink:href="#font_f_30" transform="matrix(10,0,0,-10,38.125627,246.72315)"/>
<path transform="matrix(1,0,0,-1,0,325.84077)" d="M 50.825 126.5325 L 47.325 126.5325 "/>
<path transform="matrix(1,0,0,-1,0,325.84077)" stroke-width=".8" stroke-linecap="butt" stroke-linejoin="round" fill="none" stroke="#000000" d="M 50.825 126.5325 L 47.325 126.5325 "/>
<symbol id="font_f_32">
<path transform="matrix(.001,0,0,.001,-.07300001,0)" d="M 192 83 L 536 83 L 536 0 L 73 0 L 73 83 C 110 121 161 173 226 239 C 290 304 331 346 348 365 C 380 400 402 430 414 455 C 426 479 433 504 433 528 C 433 566 419 598 392 622 C 365 646 330 659 286 659 C 255 659 222 653 188 643 C 154 632 117 616 78 594 L 78 694 C 118 710 155 722 189 730 C 223 738 255 742 284 742 C 359 742 419 723 464 685 C 509 647 532 597 532 534 C 532 504 526 475 515 449 C 504 422 484 390 454 354 C 446 344 420 317 376 272 C 332 227 271 164 192 83 "/>
</symbol>
<use xlink:href="#font_f_32" transform="matrix(10,0,0,-10,31.83625,203.10514)"/>
<use xlink:href="#font_f_30" transform="matrix(10,0,0,-10,38.12625,203.23514)"/>
<path transform="matrix(1,0,0,-1,0,325.84077)" d="M 50.825 170.0205 L 47.325 170.0205 "/>
<path transform="matrix(1,0,0,-1,0,325.84077)" stroke-width=".8" stroke-linecap="butt" stroke-linejoin="round" fill="none" stroke="#000000" d="M 50.825 170.0205 L 47.325 170.0205 "/>
<symbol id="font_f_34">
<path transform="matrix(.001,0,0,.001,-.049000004,0)" d="M 378 643 L 129 254 L 378 254 L 378 643 M 352 729 L 476 729 L 476 254 L 580 254 L 580 172 L 476 172 L 476 0 L 378 0 L 378 172 L 49 172 L 49 267 L 352 729 "/>
</symbol>
<use xlink:href="#font_f_34" transform="matrix(10,0,0,-10,31.59625,159.61714)"/>
<use xlink:href="#font_f_30" transform="matrix(10,0,0,-10,38.12625,159.74715)"/>
<path transform="matrix(1,0,0,-1,0,325.84077)" d="M 50.825 213.5085 L 47.325 213.5085 "/>
<path transform="matrix(1,0,0,-1,0,325.84077)" stroke-width=".8" stroke-linecap="butt" stroke-linejoin="round" fill="none" stroke="#000000" d="M 50.825 213.5085 L 47.325 213.5085 "/>
<symbol id="font_f_36">
<path transform="matrix(.001,0,0,.001,-.07,.013)" d="M 330 404 C 286 404 251 388 225 358 C 199 328 186 286 186 234 C 186 181 199 139 225 109 C 251 79 286 64 330 64 C 374 64 409 79 435 109 C 461 139 474 181 474 234 C 474 286 461 328 435 358 C 409 388 374 404 330 404 M 526 713 L 526 623 C 501 635 476 644 451 650 C 425 656 400 659 376 659 C 310 659 260 637 226 593 C 192 549 172 482 168 394 C 187 422 211 444 240 459 C 269 474 301 482 336 482 C 409 482 467 459 509 415 C 551 371 573 310 573 234 C 573 159 550 99 506 54 C 462 9 403 -13 330 -13 C 246 -13 181 19 137 83 C 92 147 70 241 70 364 C 70 479 97 571 152 639 C 206 707 280 742 372 742 C 396 742 421 739 447 735 C 472 730 498 723 526 713 "/>
</symbol>
<use xlink:href="#font_f_36" transform="matrix(10,0,0,-10,31.806252,116.25913)"/>
<use xlink:href="#font_f_30" transform="matrix(10,0,0,-10,38.12625,116.25913)"/>
<path transform="matrix(1,0,0,-1,0,325.84077)" d="M 50.825 256.9965 L 47.325 256.9965 "/>
<path transform="matrix(1,0,0,-1,0,325.84077)" stroke-width=".8" stroke-linecap="butt" stroke-linejoin="round" fill="none" stroke="#000000" d="M 50.825 256.9965 L 47.325 256.9965 "/>
<symbol id="font_f_38">
<path transform="matrix(.001,0,0,.001,-.068,.013)" d="M 318 346 C 271 346 234 333 207 308 C 180 283 167 249 167 205 C 167 161 180 126 207 101 C 234 76 271 64 318 64 C 364 64 401 76 428 102 C 455 127 469 161 469 205 C 469 249 455 283 429 308 C 402 333 365 346 318 346 M 219 388 C 177 398 144 418 120 447 C 96 476 85 511 85 553 C 85 611 105 657 147 691 C 188 725 245 742 318 742 C 390 742 447 725 489 691 C 530 657 551 611 551 553 C 551 511 539 476 515 447 C 491 418 459 398 417 388 C 464 377 501 355 528 323 C 554 291 568 251 568 205 C 568 134 546 80 503 43 C 459 5 398 -13 318 -13 C 237 -13 175 5 132 43 C 89 80 68 134 68 205 C 68 251 81 291 108 323 C 134 355 171 377 219 388 M 183 544 C 183 506 194 476 218 455 C 242 434 275 424 318 424 C 360 424 393 434 417 455 C 441 476 453 506 453 544 C 453 582 441 611 417 632 C 393 653 360 664 318 664 C 275 664 242 653 218 632 C 194 611 183 582 183 544 "/>
</symbol>
<use xlink:href="#font_f_38" transform="matrix(10,0,0,-10,31.786252,72.771129)"/>
<use xlink:href="#font_f_30" transform="matrix(10,0,0,-10,38.12625,72.771129)"/>
<path transform="matrix(1,0,0,-1,0,325.84077)" d="M 50.825 300.4845 L 47.325 300.4845 "/>
<path transform="matrix(1,0,0,-1,0,325.84077)" stroke-width=".8" stroke-linecap="butt" stroke-linejoin="round" fill="none" stroke="#000000" d="M 50.825 300.4845 L 47.325 300.4845 "/>
<symbol id="font_f_31">
<path transform="matrix(.001,0,0,.001,-.11000001,0)" d="M 124 83 L 285 83 L 285 639 L 110 604 L 110 694 L 284 729 L 383 729 L 383 83 L 544 83 L 544 0 L 124 0 L 124 83 "/>
</symbol>
<use xlink:href="#font_f_31" transform="matrix(10,0,0,-10,25.846877,29.153138)"/>
<use xlink:href="#font_f_30" transform="matrix(10,0,0,-10,31.766877,29.283137)"/>
<use xlink:href="#font_f_30" transform="matrix(10,0,0,-10,38.126878,29.283137)"/>
<symbol id="font_f_54">
<path transform="matrix(.001,0,0,.001,.002,0)" d="M -2 729 L 614 729 L 614 646 L 355 646 L 355 0 L 256 0 L 256 646 L -2 646 L -2 729 "/>
</symbol>
<symbol id="font_f_6c">
<path transform="matrix(.001,0,0,.001,-.094000007,0)" d="M 94 760 L 184 760 L 184 0 L 94 0 L 94 760 "/>
</symbol>
<symbol id="font_f_20">
</symbol>
<symbol id="font_f_28">
<path transform="matrix(.001,0,0,.001,-.086,.13100001)" d="M 310 759 C 266 683 234 609 213 536 C 191 463 181 389 181 314 C 181 238 191 164 213 91 C 234 17 266 -56 310 -131 L 232 -131 C 183 -54 146 20 122 94 C 98 168 86 241 86 314 C 86 386 98 459 122 533 C 146 607 182 682 232 759 L 310 759 "/>
</symbol>
<symbol id="font_f_25">
<path transform="matrix(.001,0,0,.001,-.055000005,.013)" d="M 727 321 C 699 321 676 309 660 285 C 644 261 636 227 636 184 C 636 142 644 108 660 84 C 676 60 699 48 727 48 C 755 48 777 60 793 84 C 809 108 817 142 817 184 C 817 226 809 260 793 284 C 777 308 755 321 727 321 M 727 383 C 778 383 819 365 849 329 C 879 293 895 244 895 184 C 895 123 879 75 849 40 C 819 4 778 -13 727 -13 C 675 -13 633 4 603 40 C 573 75 558 123 558 184 C 558 245 573 293 603 329 C 633 365 675 383 727 383 M 223 680 C 195 680 173 667 157 643 C 141 619 133 586 133 544 C 133 500 141 467 157 443 C 173 419 195 407 223 407 C 251 407 274 419 290 443 C 306 467 314 500 314 544 C 314 586 305 619 289 643 C 273 667 251 680 223 680 M 664 742 L 742 742 L 286 -13 L 208 -13 L 664 742 M 223 742 C 274 742 315 724 346 688 C 376 652 392 604 392 544 C 392 482 376 434 346 398 C 316 362 275 345 223 345 C 171 345 130 362 100 398 C 70 434 55 482 55 544 C 55 604 70 652 100 688 C 130 724 171 742 223 742 "/>
</symbol>
<symbol id="font_f_29">
<path transform="matrix(.001,0,0,.001,-.080000009,.13100001)" d="M 80 759 L 158 759 C 206 682 243 607 267 533 C 291 459 304 386 304 314 C 304 241 291 168 267 94 C 243 20 206 -54 158 -131 L 80 -131 C 123 -56 155 17 177 91 C 198 164 209 238 209 314 C 209 389 198 463 177 536 C 155 609 123 683 80 759 "/>
</symbol>
<use xlink:href="#font_f_54" transform="matrix(0,-14,-14,-0,17.840626,185.1902)"/>
<use xlink:href="#font_f_6f" transform="matrix(0,-14,-14,-0,18.022625,175.8382)"/>
<use xlink:href="#font_f_74" transform="matrix(0,-14,-14,-0,17.840626,167.66219)"/>
<use xlink:href="#font_f_61" transform="matrix(0,-14,-14,-0,18.022625,161.71219)"/>
<use xlink:href="#font_f_6c" transform="matrix(0,-14,-14,-0,17.840626,152.65419)"/>
<use xlink:href="#font_f_20" transform="matrix(0,-14,-14,-0,24.322627,164.3722)"/>
<use xlink:href="#font_f_63" transform="matrix(0,-14,-14,-0,18.022625,144.85619)"/>
<use xlink:href="#font_f_6f" transform="matrix(0,-14,-14,-0,18.022625,137.15619)"/>
<use xlink:href="#font_f_73" transform="matrix(0,-14,-14,-0,18.022625,128.60219)"/>
<use xlink:href="#font_f_74" transform="matrix(0,-14,-14,-0,17.840626,121.68618)"/>
<use xlink:href="#font_f_73" transform="matrix(0,-14,-14,-0,18.022625,115.820178)"/>
<use xlink:href="#font_f_20" transform="matrix(0,-14,-14,-0,24.322627,123.576168)"/>
<use xlink:href="#font_f_28" transform="matrix(0,-14,-14,-0,19.674626,103.62617)"/>
<use xlink:href="#font_f_25" transform="matrix(0,-14,-14,-0,18.022625,98.60017)"/>
<use xlink:href="#font_f_29" transform="matrix(0,-14,-14,-0,19.674626,84.95016)"/>
<path transform="matrix(1,0,0,-1,0,325.84077)" stroke-width=".8" stroke-linecap="square" stroke-miterlimit="10" stroke-linejoin="miter" fill="none" stroke="#000000" d="M 50.825 83.0445 L 50.825 300.4845 "/>
<path transform="matrix(1,0,0,-1,0,325.84077)" stroke-width=".8" stroke-linecap="square" stroke-miterlimit="10" stroke-linejoin="miter" fill="none" stroke="#000000" d="M 294.95 83.0445 L 294.95 300.4845 "/>
<path transform="matrix(1,0,0,-1,0,325.84077)" stroke-width=".8" stroke-linecap="square" stroke-miterlimit="10" stroke-linejoin="miter" fill="none" stroke="#000000" d="M 50.825 83.0445 L 294.95 83.0445 "/>
<path transform="matrix(1,0,0,-1,0,325.84077)" stroke-width=".8" stroke-linecap="square" stroke-miterlimit="10" stroke-linejoin="miter" fill="none" stroke="#000000" d="M 50.825 300.4845 L 294.95 300.4845 "/>
<symbol id="font_f_57">
<path transform="matrix(.001,0,0,.001,-.033,0)" d="M 33 729 L 133 729 L 286 113 L 439 729 L 550 729 L 703 113 L 856 729 L 956 729 L 773 0 L 649 0 L 495 633 L 340 0 L 216 0 L 33 729 "/>
</symbol>
<use xlink:href="#font_f_57" transform="matrix(16,0,0,-16,129.49362,19.356263)"/>
<use xlink:href="#font_f_6f" transform="matrix(16,0,0,-16,145.66963,19.564263)"/>
<use xlink:href="#font_f_72" transform="matrix(16,0,0,-16,156.03763,19.356263)"/>
<use xlink:href="#font_f_73" transform="matrix(16,0,0,-16,162.02164,19.564263)"/>
<use xlink:href="#font_f_74" transform="matrix(16,0,0,-16,169.92565,19.356263)"/>
<use xlink:href="#font_f_20" transform="matrix(16,0,0,-16,159.42964,26.764264)"/>
<use xlink:href="#font_f_63" transform="matrix(16,0,0,-16,181.73365,19.564263)"/>
<use xlink:href="#font_f_61" transform="matrix(16,0,0,-16,190.61365,19.564263)"/>
<use xlink:href="#font_f_73" transform="matrix(16,0,0,-16,200.32564,19.564263)"/>
<use xlink:href="#font_f_65" transform="matrix(16,0,0,-16,208.67765,19.564263)"/>
<path transform="matrix(1,0,0,-1,0,325.84077)" d="M 319.3625 83.0445 L 563.4875 83.0445 L 563.4875 300.4845 L 319.3625 300.4845 Z " fill="#ffffff"/>
<clipPath id="cp16">
<path transform="matrix(1,0,0,-1,0,325.84077)" d="M 319.3625 83.0445 L 563.4875 83.0445 L 563.4875 300.4845 L 319.3625 300.4845 Z "/>
</clipPath>
<g clip-path="url(#cp16)">
<path transform="matrix(1,0,0,-1,0,325.84077)" d="M 339.70625 83.0445 L 380.39375 83.0445 L 380.39375 223.16448 L 339.70625 223.16448 Z " fill="#1f77b4"/>
</g>
<clipPath id="cp17">
<path transform="matrix(1,0,0,-1,0,325.84077)" d="M 319.3625 83.0445 L 563.4875 83.0445 L 563.4875 300.4845 L 319.3625 300.4845 Z "/>
</clipPath>
<g clip-path="url(#cp17)">
<path transform="matrix(1,0,0,-1,0,325.84077)" d="M 421.08125 83.0445 L 461.76875 83.0445 L 461.76875 222.77034 L 421.08125 222.77034 Z " fill="#1f77b4"/>
</g>
<clipPath id="cp18">
<path transform="matrix(1,0,0,-1,0,325.84077)" d="M 319.3625 83.0445 L 563.4875 83.0445 L 563.4875 300.4845 L 319.3625 300.4845 Z "/>
</clipPath>
<g clip-path="url(#cp18)">
<path transform="matrix(1,0,0,-1,0,325.84077)" d="M 502.45625 83.0445 L 543.14376 83.0445 L 543.14376 223.1108 L 502.45625 223.1108 Z " fill="#1f77b4"/>
</g>
<clipPath id="cp19">
<path transform="matrix(1,0,0,-1,0,325.84077)" d="M 319.3625 83.0445 L 563.4875 83.0445 L 563.4875 300.4845 L 319.3625 300.4845 Z "/>
</clipPath>
<g clip-path="url(#cp19)">
<path transform="matrix(1,0,0,-1,0,325.84077)" d="M 339.70625 223.16448 L 380.39375 223.16448 L 380.39375 235.65357 L 339.70625 235.65357 Z " fill="#ff7f0e"/>
</g>
<clipPath id="cp20">
<path transform="matrix(1,0,0,-1,0,325.84077)" d="M 319.3625 83.0445 L 563.4875 83.0445 L 563.4875 300.4845 L 319.3625 300.4845 Z "/>
</clipPath>
<g clip-path="url(#cp20)">
<path transform="matrix(1,0,0,-1,0,325.84077)" d="M 421.08125 222.77034 L 461.76875 222.77034 L 461.76875 243.73006 L 421.08125 243.73006 Z " fill="#ff7f0e"/>
</g>
<clipPath id="cp21">
<path transform="matrix(1,0,0,-1,0,325.84077)" d="M 319.3625 83.0445 L 563.4875 83.0445 L 563.4875 300.4845 L 319.3625 300.4845 Z "/>
</clipPath>
<g clip-path="url(#cp21)">
<path transform="matrix(1,0,0,-1,0,325.84077)" d="M 502.45625 223.1108 L 543.14376 223.1108 L 543.14376 234.70589 L 502.45625 234.70589 Z " fill="#ff7f0e"/>
</g>
<clipPath id="cp22">
<path transform="matrix(1,0,0,-1,0,325.84077)" d="M 319.3625 83.0445 L 563.4875 83.0445 L 563.4875 300.4845 L 319.3625 300.4845 Z "/>
</clipPath>
<g clip-path="url(#cp22)">
<path transform="matrix(1,0,0,-1,0,325.84077)" d="M 339.70625 235.65357 L 380.39375 235.65357 L 380.39375 235.85706 L 339.70625 235.85706 Z " fill="#2ca02c"/>
</g>
<clipPath id="cp23">
<path transform="matrix(1,0,0,-1,0,325.84077)" d="M 319.3625 83.0445 L 563.4875 83.0445 L 563.4875 300.4845 L 319.3625 300.4845 Z "/>
</clipPath>
<g clip-path="url(#cp23)">
<path transform="matrix(1,0,0,-1,0,325.84077)" d="M 421.08125 243.73006 L 461.76875 243.73006 L 461.76875 244.74608 L 421.08125 244.74608 Z " fill="#2ca02c"/>
</g>
<clipPath id="cp24">
<path transform="matrix(1,0,0,-1,0,325.84077)" d="M 319.3625 83.0445 L 563.4875 83.0445 L 563.4875 300.4845 L 319.3625 300.4845 Z "/>
</clipPath>
<g clip-path="url(#cp24)">
<path transform="matrix(1,0,0,-1,0,325.84077)" d="M 502.45625 83.0445 L 543.14376 83.0445 L 502.45625 83.0445 Z " fill="#2ca02c"/>
</g>
<clipPath id="cp25">
<path transform="matrix(1,0,0,-1,0,325.84077)" d="M 319.3625 83.0445 L 563.4875 83.0445 L 563.4875 300.4845 L 319.3625 300.4845 Z "/>
</clipPath>
<g clip-path="url(#cp25)">
<path transform="matrix(1,0,0,-1,0,325.84077)" d="M 339.70625 235.85706 L 380.39375 235.85706 L 380.39375 236.78345 L 339.70625 236.78345 Z " fill="#d62728"/>
</g>
<clipPath id="cp26">
<path transform="matrix(1,0,0,-1,0,325.84077)" d="M 319.3625 83.0445 L 563.4875 83.0445 L 563.4875 300.4845 L 319.3625 300.4845 Z "/>
</clipPath>
<g clip-path="url(#cp26)">
<path transform="matrix(1,0,0,-1,0,325.84077)" d="M 421.08125 244.74608 L 461.76875 244.74608 L 461.76875 246.874 L 421.08125 246.874 Z " fill="#d62728"/>
</g>
<clipPath id="cp27">
<path transform="matrix(1,0,0,-1,0,325.84077)" d="M 319.3625 83.0445 L 563.4875 83.0445 L 563.4875 300.4845 L 319.3625 300.4845 Z "/>
</clipPath>
<g clip-path="url(#cp27)">
<path transform="matrix(1,0,0,-1,0,325.84077)" d="M 502.45625 83.0445 L 543.14376 83.0445 L 502.45625 83.0445 Z " fill="#d62728"/>
</g>
<clipPath id="cp28">
<path transform="matrix(1,0,0,-1,0,325.84077)" d="M 319.3625 83.0445 L 563.4875 83.0445 L 563.4875 300.4845 L 319.3625 300.4845 Z "/>
</clipPath>
<g clip-path="url(#cp28)">
<path transform="matrix(1,0,0,-1,0,325.84077)" d="M 339.70625 236.78345 L 380.39375 236.78345 L 380.39375 300.4845 L 339.70625 300.4845 Z " fill="#9467bd"/>
</g>
<clipPath id="cp29">
<path transform="matrix(1,0,0,-1,0,325.84077)" d="M 319.3625 83.0445 L 563.4875 83.0445 L 563.4875 300.4845 L 319.3625 300.4845 Z "/>
</clipPath>
<g clip-path="url(#cp29)">
<path transform="matrix(1,0,0,-1,0,325.84077)" d="M 421.08125 246.874 L 461.76875 246.874 L 461.76875 300.4845 L 421.08125 300.4845 Z " fill="#9467bd"/>
</g>
<clipPath id="cp30">
<path transform="matrix(1,0,0,-1,0,325.84077)" d="M 319.3625 83.0445 L 563.4875 83.0445 L 563.4875 300.4845 L 319.3625 300.4845 Z "/>
</clipPath>
<g clip-path="url(#cp30)">
<path transform="matrix(1,0,0,-1,0,325.84077)" d="M 502.45625 234.70589 L 543.14376 234.70589 L 543.14376 300.4845 L 502.45625 300.4845 Z " fill="#9467bd"/>
</g>
<path transform="matrix(1,0,0,-1,0,325.84077)" d="M 360.05 83.0445 L 360.05 79.5445 "/>
<path transform="matrix(1,0,0,-1,0,325.84077)" stroke-width=".8" stroke-linecap="butt" stroke-linejoin="round" fill="none" stroke="#000000" d="M 360.05 83.0445 L 360.05 79.5445 "/>
<use xlink:href="#font_f_49" transform="matrix(10,0,0,-10,334.8425,257.39)"/>
<use xlink:href="#font_f_6e" transform="matrix(10,0,0,-10,337.7225,257.39)"/>
<use xlink:href="#font_f_74" transform="matrix(10,0,0,-10,343.4225,257.39)"/>
<use xlink:href="#font_f_65" transform="matrix(10,0,0,-10,347.6225,257.52003)"/>
<use xlink:href="#font_f_67" transform="matrix(10,0,0,-10,353.7725,259.46003)"/>
<use xlink:href="#font_f_72" transform="matrix(10,0,0,-10,360.4825,257.39)"/>
<use xlink:href="#font_f_61" transform="matrix(10,0,0,-10,364.2825,257.52003)"/>
<use xlink:href="#font_f_74" transform="matrix(10,0,0,-10,370.0825,257.39)"/>
<use xlink:href="#font_f_65" transform="matrix(10,0,0,-10,374.2825,257.52003)"/>
<use xlink:href="#font_f_64" transform="matrix(10,0,0,-10,380.4325,257.52003)"/>
<path transform="matrix(1,0,0,-1,0,325.84077)" d="M 441.425 83.0445 L 441.425 79.5445 "/>
<path transform="matrix(1,0,0,-1,0,325.84077)" stroke-width=".8" stroke-linecap="butt" stroke-linejoin="round" fill="none" stroke="#000000" d="M 441.425 83.0445 L 441.425 79.5445 "/>
<use xlink:href="#font_f_4f" transform="matrix(10,0,0,-10,420.6803,257.52003)"/>
<use xlink:href="#font_f_66" transform="matrix(10,0,0,-10,428.2203,257.39)"/>
<use xlink:href="#font_f_66" transform="matrix(10,0,0,-10,431.7403,257.39)"/>
<use xlink:href="#font_f_73" transform="matrix(10,0,0,-10,435.57029,257.52003)"/>
<use xlink:href="#font_f_68" transform="matrix(10,0,0,-10,441.15028,257.39)"/>
<use xlink:href="#font_f_6f" transform="matrix(10,0,0,-10,447.13026,257.52003)"/>
<use xlink:href="#font_f_72" transform="matrix(10,0,0,-10,453.61027,257.39)"/>
<use xlink:href="#font_f_65" transform="matrix(10,0,0,-10,457.36024,257.52003)"/>
<path transform="matrix(1,0,0,-1,0,325.84077)" d="M 522.8 83.0445 L 522.8 79.5445 "/>
<path transform="matrix(1,0,0,-1,0,325.84077)" stroke-width=".8" stroke-linecap="butt" stroke-linejoin="round" fill="none" stroke="#000000" d="M 522.8 83.0445 L 522.8 79.5445 "/>
<use xlink:href="#font_f_4c" transform="matrix(10,0,0,-10,494.68626,257.39)"/>
<use xlink:href="#font_f_61" transform="matrix(10,0,0,-10,499.87626,257.52003)"/>
<use xlink:href="#font_f_6e" transform="matrix(10,0,0,-10,506.31626,257.39)"/>
<use xlink:href="#font_f_64" transform="matrix(10,0,0,-10,512.29629,257.52003)"/>
<use xlink:href="#font_f_2d" transform="matrix(10,0,0,-10,518.58627,255.05002)"/>
<use xlink:href="#font_f_62" transform="matrix(10,0,0,-10,522.6162,257.52003)"/>
<use xlink:href="#font_f_61" transform="matrix(10,0,0,-10,528.6562,257.52003)"/>
<use xlink:href="#font_f_73" transform="matrix(10,0,0,-10,534.7262,257.52003)"/>
<use xlink:href="#font_f_65" transform="matrix(10,0,0,-10,539.9462,257.52003)"/>
<use xlink:href="#font_f_64" transform="matrix(10,0,0,-10,546.09628,257.52003)"/>
<use xlink:href="#font_f_53" transform="matrix(14,0,0,-14,411.9193,274.29078)"/>
<use xlink:href="#font_f_63" transform="matrix(14,0,0,-14,420.6553,274.29078)"/>
<use xlink:href="#font_f_65" transform="matrix(14,0,0,-14,428.35533,274.29078)"/>
<use xlink:href="#font_f_6e" transform="matrix(14,0,0,-14,437.4693,274.10877)"/>
<use xlink:href="#font_f_61" transform="matrix(14,0,0,-14,445.91133,274.29078)"/>
<use xlink:href="#font_f_72" transform="matrix(14,0,0,-14,454.9273,274.10877)"/>
<use xlink:href="#font_f_69" transform="matrix(14,0,0,-14,460.72334,274.10877)"/>
<use xlink:href="#font_f_6f" transform="matrix(14,0,0,-14,464.0693,274.29078)"/>
<path transform="matrix(1,0,0,-1,0,325.84077)" d="M 319.3625 83.0445 L 315.8625 83.0445 "/>
<path transform="matrix(1,0,0,-1,0,325.84077)" stroke-width=".8" stroke-linecap="butt" stroke-linejoin="round" fill="none" stroke="#000000" d="M 319.3625 83.0445 L 315.8625 83.0445 "/>
<path transform="matrix(1,0,0,-1,0,325.84077)" d="M 319.3625 126.5325 L 315.8625 126.5325 "/>
<path transform="matrix(1,0,0,-1,0,325.84077)" stroke-width=".8" stroke-linecap="butt" stroke-linejoin="round" fill="none" stroke="#000000" d="M 319.3625 126.5325 L 315.8625 126.5325 "/>
<path transform="matrix(1,0,0,-1,0,325.84077)" d="M 319.3625 170.0205 L 315.8625 170.0205 "/>
<path transform="matrix(1,0,0,-1,0,325.84077)" stroke-width=".8" stroke-linecap="butt" stroke-linejoin="round" fill="none" stroke="#000000" d="M 319.3625 170.0205 L 315.8625 170.0205 "/>
<path transform="matrix(1,0,0,-1,0,325.84077)" d="M 319.3625 213.5085 L 315.8625 213.5085 "/>
<path transform="matrix(1,0,0,-1,0,325.84077)" stroke-width=".8" stroke-linecap="butt" stroke-linejoin="round" fill="none" stroke="#000000" d="M 319.3625 213.5085 L 315.8625 213.5085 "/>
<path transform="matrix(1,0,0,-1,0,325.84077)" d="M 319.3625 256.9965 L 315.8625 256.9965 "/>
<path transform="matrix(1,0,0,-1,0,325.84077)" stroke-width=".8" stroke-linecap="butt" stroke-linejoin="round" fill="none" stroke="#000000" d="M 319.3625 256.9965 L 315.8625 256.9965 "/>
<path transform="matrix(1,0,0,-1,0,325.84077)" d="M 319.3625 300.4845 L 315.8625 300.4845 "/>
<path transform="matrix(1,0,0,-1,0,325.84077)" stroke-width=".8" stroke-linecap="butt" stroke-linejoin="round" fill="none" stroke="#000000" d="M 319.3625 300.4845 L 315.8625 300.4845 "/>
<path transform="matrix(1,0,0,-1,0,325.84077)" stroke-width=".8" stroke-linecap="square" stroke-miterlimit="10" stroke-linejoin="miter" fill="none" stroke="#000000" d="M 319.3625 83.0445 L 319.3625 300.4845 "/>
<path transform="matrix(1,0,0,-1,0,325.84077)" stroke-width=".8" stroke-linecap="square" stroke-miterlimit="10" stroke-linejoin="miter" fill="none" stroke="#000000" d="M 563.4875 83.0445 L 563.4875 300.4845 "/>
<path transform="matrix(1,0,0,-1,0,325.84077)" stroke-width=".8" stroke-linecap="square" stroke-miterlimit="10" stroke-linejoin="miter" fill="none" stroke="#000000" d="M 319.3625 83.0445 L 563.4875 83.0445 "/>
<path transform="matrix(1,0,0,-1,0,325.84077)" stroke-width=".8" stroke-linecap="square" stroke-miterlimit="10" stroke-linejoin="miter" fill="none" stroke="#000000" d="M 319.3625 300.4845 L 563.4875 300.4845 "/>
<symbol id="font_f_41">
<path transform="matrix(.001,0,0,.001,-.008,0)" d="M 342 632 L 208 269 L 476 269 L 342 632 M 286 729 L 398 729 L 676 0 L 573 0 L 507 187 L 178 187 L 112 0 L 8 0 L 286 729 "/>
</symbol>
<symbol id="font_f_76">
<path transform="matrix(.001,0,0,.001,-.030000002,0)" d="M 30 547 L 125 547 L 296 88 L 467 547 L 562 547 L 357 0 L 235 0 L 30 547 "/>
</symbol>
<use xlink:href="#font_f_41" transform="matrix(16,0,0,-16,387.71705,19.356263)"/>
<use xlink:href="#font_f_76" transform="matrix(16,0,0,-16,399.01307,19.356263)"/>
<use xlink:href="#font_f_65" transform="matrix(16,0,0,-16,408.88508,19.564263)"/>
<use xlink:href="#font_f_72" transform="matrix(16,0,0,-16,419.30107,19.356263)"/>
<use xlink:href="#font_f_61" transform="matrix(16,0,0,-16,425.38105,19.564263)"/>
<use xlink:href="#font_f_67" transform="matrix(16,0,0,-16,435.10908,22.668263)"/>
<use xlink:href="#font_f_65" transform="matrix(16,0,0,-16,445.26908,19.564263)"/>
<use xlink:href="#font_f_20" transform="matrix(16,0,0,-16,437.89308,26.764264)"/>
<use xlink:href="#font_f_63" transform="matrix(16,0,0,-16,460.19709,19.564263)"/>
<use xlink:href="#font_f_61" transform="matrix(16,0,0,-16,469.07707,19.564263)"/>
<use xlink:href="#font_f_73" transform="matrix(16,0,0,-16,478.7891,19.564263)"/>
<use xlink:href="#font_f_65" transform="matrix(16,0,0,-16,487.14109,19.564263)"/>
<g>
<path transform="matrix(1,0,0,-1,0,325.84077)" d="M 84.10313 7.2 L 798.7469 7.2 C 800.34689 7.2 801.14688 8 801.14688 9.6 L 801.14688 26.025 C 801.14688 27.625 800.34689 28.425 798.7469 28.425 L 84.10313 28.425 C 82.50313 28.425 81.703128 27.625 81.703128 26.025 L 81.703128 9.6 C 81.703128 8 82.50313 7.2 84.10313 7.2 Z " fill="#ffffff" fill-opacity=".8"/>
<path transform="matrix(1,0,0,-1,0,325.84077)" stroke-width="1" stroke-linecap="butt" stroke-miterlimit="10" stroke-linejoin="miter" fill="none" stroke="#d5d6d5" stroke-opacity=".8" d="M 84.10313 7.2 L 798.7469 7.2 C 800.34689 7.2 801.14688 8 801.14688 9.6 L 801.14688 26.025 C 801.14688 27.625 800.34689 28.425 798.7469 28.425 L 84.10313 28.425 C 82.50313 28.425 81.703128 27.625 81.703128 26.025 L 81.703128 9.6 C 81.703128 8 82.50313 7.2 84.10313 7.2 Z "/>
</g>
<path transform="matrix(1,0,0,-1,0,325.84077)" d="M 86.50313 14.5 L 110.50313 14.5 L 110.50313 22.9 L 86.50313 22.9 Z " fill="#1f77b4"/>
<symbol id="font_f_70">
<path transform="matrix(.001,0,0,.001,-.091000009,.20700002)" d="M 181 82 L 181 -207 L 91 -207 L 91 547 L 181 547 L 181 464 C 199 496 223 520 252 536 C 281 552 316 560 356 560 C 422 560 476 533 518 481 C 559 428 580 359 580 273 C 580 187 559 117 518 65 C 476 13 422 -13 356 -13 C 316 -13 281 -5 252 10 C 223 25 199 49 181 82 M 487 273 C 487 339 473 390 446 428 C 418 466 381 485 334 485 C 286 485 249 466 222 428 C 194 390 181 339 181 273 C 181 207 194 155 222 117 C 249 79 286 61 334 61 C 381 61 418 79 446 117 C 473 155 487 207 487 273 "/>
</symbol>
<symbol id="font_f_6b">
<path transform="matrix(.001,0,0,.001,-.091000009,0)" d="M 91 760 L 181 760 L 181 311 L 449 547 L 564 547 L 274 291 L 576 0 L 459 0 L 181 267 L 181 0 L 91 0 L 91 760 "/>
</symbol>
<use xlink:href="#font_f_57" transform="matrix(12,0,0,-12,120.49913,311.34077)"/>
<use xlink:href="#font_f_69" transform="matrix(12,0,0,-12,133.09914,311.34077)"/>
<use xlink:href="#font_f_6e" transform="matrix(12,0,0,-12,136.39913,311.34077)"/>
<use xlink:href="#font_f_64" transform="matrix(12,0,0,-12,143.57514,311.49678)"/>
<use xlink:href="#font_f_20" transform="matrix(12,0,0,-12,138.28313,316.89677)"/>
<use xlink:href="#font_f_70" transform="matrix(12,0,0,-12,155.44312,313.82478)"/>
<use xlink:href="#font_f_61" transform="matrix(12,0,0,-12,162.69112,311.49678)"/>
<use xlink:href="#font_f_72" transform="matrix(12,0,0,-12,170.41912,311.34077)"/>
<use xlink:href="#font_f_6b" transform="matrix(12,0,0,-12,175.35112,311.34077)"/>
<use xlink:href="#font_f_73" transform="matrix(12,0,0,-12,181.85512,311.49678)"/>
<path transform="matrix(1,0,0,-1,0,325.84077)" d="M 211.2125 14.5 L 235.2125 14.5 L 235.2125 22.9 L 211.2125 22.9 Z " fill="#ff7f0e"/>
<symbol id="font_f_45">
<path transform="matrix(.001,0,0,.001,-.098000008,0)" d="M 98 729 L 559 729 L 559 646 L 197 646 L 197 430 L 544 430 L 544 347 L 197 347 L 197 83 L 568 83 L 568 0 L 98 0 L 98 729 "/>
</symbol>
<use xlink:href="#font_f_45" transform="matrix(12,0,0,-12,245.9885,311.34077)"/>
<use xlink:href="#font_f_6c" transform="matrix(12,0,0,-12,253.5245,311.34077)"/>
<use xlink:href="#font_f_65" transform="matrix(12,0,0,-12,256.3925,311.49678)"/>
<use xlink:href="#font_f_63" transform="matrix(12,0,0,-12,263.7725,311.49678)"/>
<use xlink:href="#font_f_74" transform="matrix(12,0,0,-12,270.0365,311.34077)"/>
<use xlink:href="#font_f_72" transform="matrix(12,0,0,-12,275.5085,311.34077)"/>
<use xlink:href="#font_f_69" transform="matrix(12,0,0,-12,280.4765,311.34077)"/>
<use xlink:href="#font_f_63" transform="matrix(12,0,0,-12,283.3445,311.49678)"/>
<use xlink:href="#font_f_61" transform="matrix(12,0,0,-12,290.00453,311.49678)"/>
<use xlink:href="#font_f_6c" transform="matrix(12,0,0,-12,297.7685,311.34077)"/>
<use xlink:href="#font_f_20" transform="matrix(12,0,0,-12,287.7245,316.89677)"/>
<use xlink:href="#font_f_63" transform="matrix(12,0,0,-12,304.4525,311.49678)"/>
<use xlink:href="#font_f_61" transform="matrix(12,0,0,-12,311.11253,311.49678)"/>
<use xlink:href="#font_f_62" transform="matrix(12,0,0,-12,318.8405,311.49678)"/>
<use xlink:href="#font_f_6c" transform="matrix(12,0,0,-12,326.4965,311.34077)"/>
<use xlink:href="#font_f_65" transform="matrix(12,0,0,-12,329.3645,311.49678)"/>
<use xlink:href="#font_f_73" transform="matrix(12,0,0,-12,336.7325,311.49678)"/>
<path transform="matrix(1,0,0,-1,0,325.84077)" d="M 366.3125 14.5 L 390.3125 14.5 L 390.3125 22.9 L 366.3125 22.9 Z " fill="#2ca02c"/>
<symbol id="font_f_52">
<path transform="matrix(.001,0,0,.001,-.098000008,0)" d="M 444 342 C 465 334 486 319 506 296 C 526 272 546 240 566 199 L 666 0 L 560 0 L 467 187 C 443 235 419 268 397 284 C 374 300 343 308 304 308 L 197 308 L 197 0 L 98 0 L 98 729 L 321 729 C 404 729 466 711 507 677 C 548 642 569 589 569 519 C 569 473 558 434 537 404 C 515 374 484 353 444 342 M 197 648 L 197 389 L 321 389 C 368 389 404 400 428 422 C 452 444 465 476 465 519 C 465 561 452 593 428 615 C 404 637 368 648 321 648 L 197 648 "/>
</symbol>
<symbol id="font_f_75">
<path transform="matrix(.001,0,0,.001,-.085,.013)" d="M 85 216 L 85 547 L 175 547 L 175 219 C 175 167 185 129 205 103 C 225 77 255 64 296 64 C 344 64 383 79 411 110 C 439 141 453 183 453 237 L 453 547 L 543 547 L 543 0 L 453 0 L 453 84 C 431 50 405 26 377 10 C 348 -5 315 -13 277 -13 C 214 -13 166 6 134 45 C 101 83 85 140 85 216 M 311 560 L 311 560 "/>
</symbol>
<symbol id="font_f_6d">
<path transform="matrix(.001,0,0,.001,-.091000009,0)" d="M 520 442 C 542 482 569 511 600 531 C 631 550 668 560 711 560 C 767 560 811 540 842 500 C 873 460 889 403 889 330 L 889 0 L 799 0 L 799 327 C 799 379 789 418 771 444 C 752 469 724 482 686 482 C 639 482 602 466 575 435 C 548 404 535 362 535 309 L 535 0 L 445 0 L 445 327 C 445 379 435 418 417 444 C 398 469 369 482 331 482 C 285 482 248 466 221 435 C 194 404 181 362 181 309 L 181 0 L 91 0 L 91 547 L 181 547 L 181 462 C 201 495 226 520 255 536 C 283 552 317 560 357 560 C 397 560 430 550 458 530 C 486 510 506 480 520 442 "/>
</symbol>
<use xlink:href="#font_f_52" transform="matrix(12,0,0,-12,401.0885,311.34077)"/>
<use xlink:href="#font_f_65" transform="matrix(12,0,0,-12,408.9125,311.49678)"/>
<use xlink:href="#font_f_2d" transform="matrix(12,0,0,-12,416.22053,308.53276)"/>
<use xlink:href="#font_f_75" transform="matrix(12,0,0,-12,420.9845,311.49678)"/>
<use xlink:href="#font_f_73" transform="matrix(12,0,0,-12,428.22053,311.49678)"/>
<use xlink:href="#font_f_65" transform="matrix(12,0,0,-12,434.48454,311.49678)"/>
<use xlink:href="#font_f_64" transform="matrix(12,0,0,-12,441.86454,311.49678)"/>
<use xlink:href="#font_f_20" transform="matrix(12,0,0,-12,436.5725,316.89677)"/>
<use xlink:href="#font_f_70" transform="matrix(12,0,0,-12,453.73255,313.82478)"/>
<use xlink:href="#font_f_6c" transform="matrix(12,0,0,-12,461.38853,311.34077)"/>
<use xlink:href="#font_f_61" transform="matrix(12,0,0,-12,464.31654,311.49678)"/>
<use xlink:href="#font_f_74" transform="matrix(12,0,0,-12,471.27653,311.34077)"/>
<use xlink:href="#font_f_66" transform="matrix(12,0,0,-12,475.93254,311.34077)"/>
<use xlink:href="#font_f_6f" transform="matrix(12,0,0,-12,480.54054,311.49678)"/>
<use xlink:href="#font_f_72" transform="matrix(12,0,0,-12,488.31654,311.34077)"/>
<use xlink:href="#font_f_6d" transform="matrix(12,0,0,-12,493.24855,311.34077)"/>
<use xlink:href="#font_f_73" transform="matrix(12,0,0,-12,504.49253,311.49678)"/>
<path transform="matrix(1,0,0,-1,0,325.84077)" d="M 533.3656 14.5 L 557.3656 14.5 L 557.3656 22.9 L 533.3656 22.9 Z " fill="#d62728"/>
<use xlink:href="#font_f_41" transform="matrix(12,0,0,-12,567.06167,311.34077)"/>
<use xlink:href="#font_f_72" transform="matrix(12,0,0,-12,576.2656,311.34077)"/>
<use xlink:href="#font_f_74" transform="matrix(12,0,0,-12,580.4296,311.34077)"/>
<use xlink:href="#font_f_69" transform="matrix(12,0,0,-12,585.9376,311.34077)"/>
<use xlink:href="#font_f_66" transform="matrix(12,0,0,-12,588.42166,311.34077)"/>
<use xlink:href="#font_f_69" transform="matrix(12,0,0,-12,593.4976,311.34077)"/>
<use xlink:href="#font_f_63" transform="matrix(12,0,0,-12,596.3656,311.49678)"/>
<use xlink:href="#font_f_69" transform="matrix(12,0,0,-12,603.4336,311.34077)"/>
<use xlink:href="#font_f_61" transform="matrix(12,0,0,-12,606.3616,311.49678)"/>
<use xlink:href="#font_f_6c" transform="matrix(12,0,0,-12,614.1256,311.34077)"/>
<use xlink:href="#font_f_20" transform="matrix(12,0,0,-12,604.0816,316.89677)"/>
<use xlink:href="#font_f_69" transform="matrix(12,0,0,-12,621.2776,311.34077)"/>
<use xlink:href="#font_f_73" transform="matrix(12,0,0,-12,624.1336,311.49678)"/>
<use xlink:href="#font_f_6c" transform="matrix(12,0,0,-12,630.8656,311.34077)"/>
<use xlink:href="#font_f_61" transform="matrix(12,0,0,-12,633.7936,311.49678)"/>
<use xlink:href="#font_f_6e" transform="matrix(12,0,0,-12,641.5216,311.34077)"/>
<use xlink:href="#font_f_64" transform="matrix(12,0,0,-12,648.6976,311.49678)"/>
<use xlink:href="#font_f_73" transform="matrix(12,0,0,-12,656.3056,311.49678)"/>
<path transform="matrix(1,0,0,-1,0,325.84077)" d="M 685.85629 14.5 L 709.85629 14.5 L 709.85629 22.9 L 685.85629 22.9 Z " fill="#9467bd"/>
<symbol id="font_f_79">
<path transform="matrix(.001,0,0,.001,-.030000002,.20700002)" d="M 322 -50 C 296 -114 271 -157 247 -177 C 223 -197 191 -207 151 -207 L 79 -207 L 79 -132 L 132 -132 C 156 -132 175 -126 189 -114 C 203 -102 218 -75 235 -31 L 251 9 L 30 547 L 125 547 L 296 119 L 467 547 L 562 547 L 322 -50 "/>
</symbol>
<use xlink:href="#font_f_45" transform="matrix(12,0,0,-12,720.63229,311.34077)"/>
<use xlink:href="#font_f_6c" transform="matrix(12,0,0,-12,728.1682,311.34077)"/>
<use xlink:href="#font_f_65" transform="matrix(12,0,0,-12,731.0362,311.49678)"/>
<use xlink:href="#font_f_63" transform="matrix(12,0,0,-12,738.4162,311.49678)"/>
<use xlink:href="#font_f_74" transform="matrix(12,0,0,-12,744.6802,311.34077)"/>
<use xlink:href="#font_f_72" transform="matrix(12,0,0,-12,750.15219,311.34077)"/>
<use xlink:href="#font_f_6f" transform="matrix(12,0,0,-12,754.65219,311.49678)"/>
<use xlink:href="#font_f_6c" transform="matrix(12,0,0,-12,762.4642,311.34077)"/>
<use xlink:href="#font_f_79" transform="matrix(12,0,0,-12,765.03219,313.82478)"/>
<use xlink:href="#font_f_73" transform="matrix(12,0,0,-12,772.4242,311.49678)"/>
<use xlink:href="#font_f_65" transform="matrix(12,0,0,-12,778.6882,311.49678)"/>
<use xlink:href="#font_f_72" transform="matrix(12,0,0,-12,786.5002,311.34077)"/>
<use xlink:href="#font_f_73" transform="matrix(12,0,0,-12,790.9882,311.49678)"/>
<path transform="matrix(1,0,0,-1,0,325.84077)" d="M 587.9 83.0445 L 832.025 83.0445 L 832.025 300.4845 L 587.9 300.4845 Z " fill="#ffffff"/>
<clipPath id="cp31">
<path transform="matrix(1,0,0,-1,0,325.84077)" d="M 587.9 83.0445 L 832.025 83.0445 L 832.025 300.4845 L 587.9 300.4845 Z "/>
</clipPath>
<g clip-path="url(#cp31)">
<path transform="matrix(1,0,0,-1,0,325.84077)" d="M 608.2438 83.0445 L 648.9313 83.0445 L 648.9313 222.41075 L 608.2438 222.41075 Z " fill="#1f77b4"/>
</g>
<clipPath id="cp32">
<path transform="matrix(1,0,0,-1,0,325.84077)" d="M 587.9 83.0445 L 832.025 83.0445 L 832.025 300.4845 L 587.9 300.4845 Z "/>
</clipPath>
<g clip-path="url(#cp32)">
<path transform="matrix(1,0,0,-1,0,325.84077)" d="M 689.6188 83.0445 L 730.3063 83.0445 L 730.3063 221.96927 L 689.6188 221.96927 Z " fill="#1f77b4"/>
</g>
<clipPath id="cp33">
<path transform="matrix(1,0,0,-1,0,325.84077)" d="M 587.9 83.0445 L 832.025 83.0445 L 832.025 300.4845 L 587.9 300.4845 Z "/>
</clipPath>
<g clip-path="url(#cp33)">
<path transform="matrix(1,0,0,-1,0,325.84077)" d="M 770.9938 83.0445 L 811.6813 83.0445 L 811.6813 222.90334 L 770.9938 222.90334 Z " fill="#1f77b4"/>
</g>
<clipPath id="cp34">
<path transform="matrix(1,0,0,-1,0,325.84077)" d="M 587.9 83.0445 L 832.025 83.0445 L 832.025 300.4845 L 587.9 300.4845 Z "/>
</clipPath>
<g clip-path="url(#cp34)">
<path transform="matrix(1,0,0,-1,0,325.84077)" d="M 608.2438 222.41075 L 648.9313 222.41075 L 648.9313 236.76677 L 608.2438 236.76677 Z " fill="#ff7f0e"/>
</g>
<clipPath id="cp35">
<path transform="matrix(1,0,0,-1,0,325.84077)" d="M 587.9 83.0445 L 832.025 83.0445 L 832.025 300.4845 L 587.9 300.4845 Z "/>
</clipPath>
<g clip-path="url(#cp35)">
<path transform="matrix(1,0,0,-1,0,325.84077)" d="M 689.6188 221.96927 L 730.3063 221.96927 L 730.3063 250.68476 L 689.6188 250.68476 Z " fill="#ff7f0e"/>
</g>
<clipPath id="cp36">
<path transform="matrix(1,0,0,-1,0,325.84077)" d="M 587.9 83.0445 L 832.025 83.0445 L 832.025 300.4845 L 587.9 300.4845 Z "/>
</clipPath>
<g clip-path="url(#cp36)">
<path transform="matrix(1,0,0,-1,0,325.84077)" d="M 770.9938 222.90334 L 811.6813 222.90334 L 811.6813 234.0903 L 770.9938 234.0903 Z " fill="#ff7f0e"/>
</g>
<clipPath id="cp37">
<path transform="matrix(1,0,0,-1,0,325.84077)" d="M 587.9 83.0445 L 832.025 83.0445 L 832.025 300.4845 L 587.9 300.4845 Z "/>
</clipPath>
<g clip-path="url(#cp37)">
<path transform="matrix(1,0,0,-1,0,325.84077)" d="M 608.2438 236.76677 L 648.9313 236.76677 L 648.9313 237.08032 L 608.2438 237.08032 Z " fill="#2ca02c"/>
</g>
<clipPath id="cp38">
<path transform="matrix(1,0,0,-1,0,325.84077)" d="M 587.9 83.0445 L 832.025 83.0445 L 832.025 300.4845 L 587.9 300.4845 Z "/>
</clipPath>
<g clip-path="url(#cp38)">
<path transform="matrix(1,0,0,-1,0,325.84077)" d="M 689.6188 250.68476 L 730.3063 250.68476 L 730.3063 252.35254 L 689.6188 252.35254 Z " fill="#2ca02c"/>
</g>
<clipPath id="cp39">
<path transform="matrix(1,0,0,-1,0,325.84077)" d="M 587.9 83.0445 L 832.025 83.0445 L 832.025 300.4845 L 587.9 300.4845 Z "/>
</clipPath>
<g clip-path="url(#cp39)">
<path transform="matrix(1,0,0,-1,0,325.84077)" d="M 770.9938 83.0445 L 811.6813 83.0445 L 770.9938 83.0445 Z " fill="#2ca02c"/>
</g>
<clipPath id="cp40">
<path transform="matrix(1,0,0,-1,0,325.84077)" d="M 587.9 83.0445 L 832.025 83.0445 L 832.025 300.4845 L 587.9 300.4845 Z "/>
</clipPath>
<g clip-path="url(#cp40)">
<path transform="matrix(1,0,0,-1,0,325.84077)" d="M 608.2438 237.08032 L 648.9313 237.08032 L 648.9313 237.31954 L 608.2438 237.31954 Z " fill="#d62728"/>
</g>
<clipPath id="cp41">
<path transform="matrix(1,0,0,-1,0,325.84077)" d="M 587.9 83.0445 L 832.025 83.0445 L 832.025 300.4845 L 587.9 300.4845 Z "/>
</clipPath>
<g clip-path="url(#cp41)">
<path transform="matrix(1,0,0,-1,0,325.84077)" d="M 689.6188 252.35254 L 730.3063 252.35254 L 730.3063 254.20146 L 689.6188 254.20146 Z " fill="#d62728"/>
</g>
<clipPath id="cp42">
<path transform="matrix(1,0,0,-1,0,325.84077)" d="M 587.9 83.0445 L 832.025 83.0445 L 832.025 300.4845 L 587.9 300.4845 Z "/>
</clipPath>
<g clip-path="url(#cp42)">
<path transform="matrix(1,0,0,-1,0,325.84077)" d="M 770.9938 83.0445 L 811.6813 83.0445 L 770.9938 83.0445 Z " fill="#d62728"/>
</g>
<clipPath id="cp43">
<path transform="matrix(1,0,0,-1,0,325.84077)" d="M 587.9 83.0445 L 832.025 83.0445 L 832.025 300.4845 L 587.9 300.4845 Z "/>
</clipPath>
<g clip-path="url(#cp43)">
<path transform="matrix(1,0,0,-1,0,325.84077)" d="M 608.2438 237.31954 L 648.9313 237.31954 L 648.9313 300.4845 L 608.2438 300.4845 Z " fill="#9467bd"/>
</g>
<clipPath id="cp44">
<path transform="matrix(1,0,0,-1,0,325.84077)" d="M 587.9 83.0445 L 832.025 83.0445 L 832.025 300.4845 L 587.9 300.4845 Z "/>
</clipPath>
<g clip-path="url(#cp44)">
<path transform="matrix(1,0,0,-1,0,325.84077)" d="M 689.6188 254.20146 L 730.3063 254.20146 L 730.3063 300.4845 L 689.6188 300.4845 Z " fill="#9467bd"/>
</g>
<clipPath id="cp45">
<path transform="matrix(1,0,0,-1,0,325.84077)" d="M 587.9 83.0445 L 832.025 83.0445 L 832.025 300.4845 L 587.9 300.4845 Z "/>
</clipPath>
<g clip-path="url(#cp45)">
<path transform="matrix(1,0,0,-1,0,325.84077)" d="M 770.9938 234.0903 L 811.6813 234.0903 L 811.6813 300.4845 L 770.9938 300.4845 Z " fill="#9467bd"/>
</g>
<path transform="matrix(1,0,0,-1,0,325.84077)" d="M 628.5875 83.0445 L 628.5875 79.5445 "/>
<path transform="matrix(1,0,0,-1,0,325.84077)" stroke-width=".8" stroke-linecap="butt" stroke-linejoin="round" fill="none" stroke="#000000" d="M 628.5875 83.0445 L 628.5875 79.5445 "/>
<use xlink:href="#font_f_49" transform="matrix(10,0,0,-10,603.38,257.39)"/>
<use xlink:href="#font_f_6e" transform="matrix(10,0,0,-10,606.26,257.39)"/>
<use xlink:href="#font_f_74" transform="matrix(10,0,0,-10,611.9601,257.39)"/>
<use xlink:href="#font_f_65" transform="matrix(10,0,0,-10,616.16006,257.52003)"/>
<use xlink:href="#font_f_67" transform="matrix(10,0,0,-10,622.31008,259.46003)"/>
<use xlink:href="#font_f_72" transform="matrix(10,0,0,-10,629.02,257.39)"/>
<use xlink:href="#font_f_61" transform="matrix(10,0,0,-10,632.82,257.52003)"/>
<use xlink:href="#font_f_74" transform="matrix(10,0,0,-10,638.62008,257.39)"/>
<use xlink:href="#font_f_65" transform="matrix(10,0,0,-10,642.82,257.52003)"/>
<use xlink:href="#font_f_64" transform="matrix(10,0,0,-10,648.97006,257.52003)"/>
<path transform="matrix(1,0,0,-1,0,325.84077)" d="M 709.9625 83.0445 L 709.9625 79.5445 "/>
<path transform="matrix(1,0,0,-1,0,325.84077)" stroke-width=".8" stroke-linecap="butt" stroke-linejoin="round" fill="none" stroke="#000000" d="M 709.9625 83.0445 L 709.9625 79.5445 "/>
<use xlink:href="#font_f_4f" transform="matrix(10,0,0,-10,689.21786,257.52003)"/>
<use xlink:href="#font_f_66" transform="matrix(10,0,0,-10,696.7578,257.39)"/>
<use xlink:href="#font_f_66" transform="matrix(10,0,0,-10,700.27786,257.39)"/>
<use xlink:href="#font_f_73" transform="matrix(10,0,0,-10,704.10787,257.52003)"/>
<use xlink:href="#font_f_68" transform="matrix(10,0,0,-10,709.68789,257.39)"/>
<use xlink:href="#font_f_6f" transform="matrix(10,0,0,-10,715.6679,257.52003)"/>
<use xlink:href="#font_f_72" transform="matrix(10,0,0,-10,722.1479,257.39)"/>
<use xlink:href="#font_f_65" transform="matrix(10,0,0,-10,725.8979,257.52003)"/>
<path transform="matrix(1,0,0,-1,0,325.84077)" d="M 791.3375 83.0445 L 791.3375 79.5445 "/>
<path transform="matrix(1,0,0,-1,0,325.84077)" stroke-width=".8" stroke-linecap="butt" stroke-linejoin="round" fill="none" stroke="#000000" d="M 791.3375 83.0445 L 791.3375 79.5445 "/>
<use xlink:href="#font_f_4c" transform="matrix(10,0,0,-10,763.22378,257.39)"/>
<use xlink:href="#font_f_61" transform="matrix(10,0,0,-10,768.41378,257.52003)"/>
<use xlink:href="#font_f_6e" transform="matrix(10,0,0,-10,774.85379,257.39)"/>
<use xlink:href="#font_f_64" transform="matrix(10,0,0,-10,780.8338,257.52003)"/>
<use xlink:href="#font_f_2d" transform="matrix(10,0,0,-10,787.1238,255.05002)"/>
<use xlink:href="#font_f_62" transform="matrix(10,0,0,-10,791.15377,257.52003)"/>
<use xlink:href="#font_f_61" transform="matrix(10,0,0,-10,797.1937,257.52003)"/>
<use xlink:href="#font_f_73" transform="matrix(10,0,0,-10,803.26376,257.52003)"/>
<use xlink:href="#font_f_65" transform="matrix(10,0,0,-10,808.48379,257.52003)"/>
<use xlink:href="#font_f_64" transform="matrix(10,0,0,-10,814.6338,257.52003)"/>
<use xlink:href="#font_f_53" transform="matrix(14,0,0,-14,680.45687,274.29078)"/>
<use xlink:href="#font_f_63" transform="matrix(14,0,0,-14,689.1929,274.29078)"/>
<use xlink:href="#font_f_65" transform="matrix(14,0,0,-14,696.8929,274.29078)"/>
<use xlink:href="#font_f_6e" transform="matrix(14,0,0,-14,706.00686,274.10877)"/>
<use xlink:href="#font_f_61" transform="matrix(14,0,0,-14,714.44888,274.29078)"/>
<use xlink:href="#font_f_72" transform="matrix(14,0,0,-14,723.4648,274.10877)"/>
<use xlink:href="#font_f_69" transform="matrix(14,0,0,-14,729.2608,274.10877)"/>
<use xlink:href="#font_f_6f" transform="matrix(14,0,0,-14,732.6069,274.29078)"/>
<path transform="matrix(1,0,0,-1,0,325.84077)" d="M 587.9 83.0445 L 584.4 83.0445 "/>
<path transform="matrix(1,0,0,-1,0,325.84077)" stroke-width=".8" stroke-linecap="butt" stroke-linejoin="round" fill="none" stroke="#000000" d="M 587.9 83.0445 L 584.4 83.0445 "/>
<path transform="matrix(1,0,0,-1,0,325.84077)" d="M 587.9 126.5325 L 584.4 126.5325 "/>
<path transform="matrix(1,0,0,-1,0,325.84077)" stroke-width=".8" stroke-linecap="butt" stroke-linejoin="round" fill="none" stroke="#000000" d="M 587.9 126.5325 L 584.4 126.5325 "/>
<path transform="matrix(1,0,0,-1,0,325.84077)" d="M 587.9 170.0205 L 584.4 170.0205 "/>
<path transform="matrix(1,0,0,-1,0,325.84077)" stroke-width=".8" stroke-linecap="butt" stroke-linejoin="round" fill="none" stroke="#000000" d="M 587.9 170.0205 L 584.4 170.0205 "/>
<path transform="matrix(1,0,0,-1,0,325.84077)" d="M 587.9 213.5085 L 584.4 213.5085 "/>
<path transform="matrix(1,0,0,-1,0,325.84077)" stroke-width=".8" stroke-linecap="butt" stroke-linejoin="round" fill="none" stroke="#000000" d="M 587.9 213.5085 L 584.4 213.5085 "/>
<path transform="matrix(1,0,0,-1,0,325.84077)" d="M 587.9 256.9965 L 584.4 256.9965 "/>
<path transform="matrix(1,0,0,-1,0,325.84077)" stroke-width=".8" stroke-linecap="butt" stroke-linejoin="round" fill="none" stroke="#000000" d="M 587.9 256.9965 L 584.4 256.9965 "/>
<path transform="matrix(1,0,0,-1,0,325.84077)" d="M 587.9 300.4845 L 584.4 300.4845 "/>
<path transform="matrix(1,0,0,-1,0,325.84077)" stroke-width=".8" stroke-linecap="butt" stroke-linejoin="round" fill="none" stroke="#000000" d="M 587.9 300.4845 L 584.4 300.4845 "/>
<path transform="matrix(1,0,0,-1,0,325.84077)" stroke-width=".8" stroke-linecap="square" stroke-miterlimit="10" stroke-linejoin="miter" fill="none" stroke="#000000" d="M 587.9 83.0445 L 587.9 300.4845 "/>
<path transform="matrix(1,0,0,-1,0,325.84077)" stroke-width=".8" stroke-linecap="square" stroke-miterlimit="10" stroke-linejoin="miter" fill="none" stroke="#000000" d="M 832.025 83.0445 L 832.025 300.4845 "/>
<path transform="matrix(1,0,0,-1,0,325.84077)" stroke-width=".8" stroke-linecap="square" stroke-miterlimit="10" stroke-linejoin="miter" fill="none" stroke="#000000" d="M 587.9 83.0445 L 832.025 83.0445 "/>
<path transform="matrix(1,0,0,-1,0,325.84077)" stroke-width=".8" stroke-linecap="square" stroke-miterlimit="10" stroke-linejoin="miter" fill="none" stroke="#000000" d="M 587.9 300.4845 L 832.025 300.4845 "/>
<symbol id="font_f_42">
<path transform="matrix(.001,0,0,.001,-.098000008,0)" d="M 197 348 L 197 81 L 355 81 C 408 81 447 92 473 114 C 498 136 511 169 511 215 C 511 260 498 293 473 315 C 447 337 408 348 355 348 L 197 348 M 197 648 L 197 428 L 343 428 C 391 428 426 437 450 455 C 474 473 486 500 486 538 C 486 574 474 602 450 620 C 426 638 391 648 343 648 L 197 648 M 98 729 L 350 729 C 425 729 483 713 524 682 C 564 650 585 606 585 549 C 585 504 574 468 553 442 C 532 416 502 399 462 393 C 510 382 548 360 575 327 C 601 294 615 253 615 204 C 615 138 592 88 548 53 C 504 17 441 0 360 0 L 98 0 L 98 729 "/>
</symbol>
<use xlink:href="#font_f_42" transform="matrix(16,0,0,-16,672.85867,19.356263)"/>
<use xlink:href="#font_f_65" transform="matrix(16,0,0,-16,683.14669,19.564263)"/>
<use xlink:href="#font_f_73" transform="matrix(16,0,0,-16,692.9707,19.564263)"/>
<use xlink:href="#font_f_74" transform="matrix(16,0,0,-16,700.8747,19.356263)"/>
<use xlink:href="#font_f_20" transform="matrix(16,0,0,-16,690.37869,26.764264)"/>
<use xlink:href="#font_f_63" transform="matrix(16,0,0,-16,712.6827,19.564263)"/>
<use xlink:href="#font_f_61" transform="matrix(16,0,0,-16,721.5627,19.564263)"/>
<use xlink:href="#font_f_73" transform="matrix(16,0,0,-16,731.27468,19.564263)"/>
<use xlink:href="#font_f_65" transform="matrix(16,0,0,-16,739.62667,19.564263)"/>
</g>
</g>
</svg>
