<?xml version="1.0" encoding="utf-8"?>
<!-- Generator: Adobe Illustrator 25.1.0, SVG Export Plug-In . SVG Version: 6.00 Build 0)  -->
<svg version="1.1" id="Laag_1" xmlns="http://www.w3.org/2000/svg" xmlns:xlink="http://www.w3.org/1999/xlink" x="0px" y="0px"
	 viewBox="0 0 841.9 595.3" style="enable-background:new 0 0 841.9 595.3;" xml:space="preserve">
<style type="text/css">
	.st0{fill:#E8F5FB;}
	.st1{fill:#375564;stroke:#020203;stroke-width:0.2293;stroke-miterlimit:10;}
	.st2{fill:#375564;stroke:#030304;stroke-width:0.2676;stroke-miterlimit:10;}
	.st3{fill:#CBDDD1;}
	.st4{fill:#375564;}
	.st5{fill:#FFFFFF;}
	.st6{fill:none;}
	.st7{font-family:'BrownStd-Regular';}
	.st8{font-size:15.84px;}
	.st9{fill:#939FA7;}
	.st10{fill:#385664;}
	.st11{fill:none;stroke:#5198D3;stroke-width:4;stroke-miterlimit:10;}
	.st12{fill:none;stroke:#F49F72;stroke-width:4;stroke-miterlimit:10;}
</style>
<g>
	<rect x="-0.4" y="0" class="st0" width="841.9" height="595.3"/>
</g>
<g>
	<g>
		<polygon class="st1" points="167.1,191.1 167.1,273.4 171.8,273.4 170.7,191.1 		"/>
		<path class="st2" d="M165.7,190.9c0,0-4.1,3.3-7.4,7.5s-28.7,36.8-28.7,36.8s-0.8,2.8,1.2,0.9c2-1.9,31.2-31.8,31.5-32.2
			s1.4-1.4,1.7-3.3c0.3-2,0.2-2.8,0.8-4.7s2.3-3.2,2.3-3.2L165.7,190.9z"/>
		<path class="st2" d="M168.3,185.4c0,0-0.5-4-0.6-5.3s-0.2-2.9-0.9-4.2s-12.5-30.1-12.5-30.1l-6.2-14.5c0,0-1.2-1.1-0.8,0.7
			s11.7,41.9,11.7,41.9l0.5,2.3c0,0,0.3,1.2,1.4,1.7s2.9,1.8,3.6,2.8c0.6,1,1.5,1.9,1.8,3.2c0.3,1.4,0.9,2.2,0.9,2.2L168.3,185.4z"
			/>
		<path class="st2" d="M171.8,190.6c0,0,1.8-0.5,3.6,0s4.1,2.1,4.9,2.1c0.8,0,49.2,6.8,49.2,6.8s2.4-0.8,0-1.5s-45.2-11.1-45.2-11.1
			s-1.1-0.4-3.2,0.5c-2,0.9-2.2,1.1-3.7,1.1c-1.5,0.1-4.7-0.1-4.7-0.1L171.8,190.6z"/>
		<circle class="st2" cx="168.8" cy="188.8" r="3.9"/>
	</g>
	<g>
		<path class="st2" d="M125.5,339.2c0,0-5.3,0-10.5,1.2S69.6,351,69.6,351s-2.4,1.7,0.3,1.5c2.7-0.2,44.2-5.2,44.7-5.3
			c0.5-0.1,1.9-0.2,3.4-1.6c1.5-1.3,1.9-2.1,3.6-3.1c1.7-1.1,3.8-1,3.8-1L125.5,339.2z"/>
		<path class="st2" d="M130.9,336.5c0,0,2.1-3.4,2.9-4.5c0.8-1.1,1.6-2.4,2-3.8c0.3-1.4,9.2-31.3,9.2-31.3l4.3-15.2
			c0,0-0.2-1.7-1.1,0c-0.8,1.7-17.2,40-17.2,40l-1,2.1c0,0-0.5,1.1,0,2.2s1.2,3.2,1,4.4s0,2.4-0.7,3.6c-0.6,1.3-0.7,2.2-0.7,2.2
			L130.9,336.5z"/>
		<path class="st2" d="M130.4,342.8c0,0,1.7,0.7,2.8,2.3c1.1,1.5,1.8,4.2,2.5,4.7c0.6,0.5,34,36.2,34,36.2s2.4,0.9,0.9-1.2
			s-28.2-37.1-28.2-37.1s-0.7-1-2.8-1.6s-2.4-0.6-3.6-1.4c-1.2-0.9-3.6-3.1-3.6-3.1L130.4,342.8z"/>
		<polygon class="st1" points="127.3,342.3 127.3,424.5 132,424.5 130.9,342.3 		"/>
		<circle class="st2" cx="129" cy="340" r="3.9"/>
	</g>
	<g>
		<polygon class="st1" points="90.6,241 90.6,323.3 95.2,323.3 94.1,241 		"/>
		<path class="st2" d="M88.9,236.6c0,0-4.9-2-10.2-2.9s-46.1-7.5-46.1-7.5s-2.9,0.6-0.3,1.5c2.6,0.8,42.9,12.1,43.4,12.2
			c0.5,0.1,1.8,0.5,3.7-0.1c1.9-0.7,2.6-1.2,4.5-1.5s3.9,0.5,3.9,0.5L88.9,236.6z"/>
		<path class="st2" d="M95,236.3c0,0,3.3-2.3,4.4-3s2.4-1.6,3.3-2.8c0.8-1.2,20.4-25.4,20.4-25.4l9.8-12.4c0,0,0.4-1.6-1-0.4
			c-1.4,1.2-31.2,30.4-31.2,30.4l-1.8,1.6c0,0-0.9,0.8-0.8,2c0,1.2-0.2,3.4-0.8,4.5c-0.6,1.1-1,2.2-2,3.1c-1,0.9-1.5,1.8-1.5,1.8
			L95,236.3z"/>
		<path class="st2" d="M92.1,241.9c0,0,1.3,1.3,1.7,3.1c0.4,1.8,0.1,4.6,0.5,5.3s17.6,46.4,17.6,46.4s1.9,1.8,1.3-0.7s-12-45-12-45
			s-0.2-1.2-1.9-2.5c-1.7-1.3-2-1.4-2.8-2.7s-2.2-4.2-2.2-4.2L92.1,241.9z"/>
		<circle class="st2" cx="92.2" cy="238.7" r="3.9"/>
	</g>
</g>
<path class="st3" d="M807.6,0c0,0-2.7,14.4-10.6,74.3s-11.5,79.1-20.8,107.8s-35.1,100.9-38,124.7s-5,60.9-5,83.7s-5,71.9-6.4,88.6
	c-1.4,16.8-10.7,52.7-8.2,69.5s5.3,46.7,5.3,46.7h117.5V0H807.6z"/>
<path class="st3" d="M462,104.7c18.9,6.1,37.5,15.8,41.2,37.5c3.6,21.7-8.2,34.4-26.3,44.7c-18.1,10.3-43.2,5-68.1-5.5
	c-25-10.4-50-3.6-50-28.7c-0.8-16.4,22.5-33.7,43.9-45C423.9,96.3,443.2,98.7,462,104.7z"/>
<polygon class="st4" points="455.4,108.6 455.4,98.3 435.8,108.6 435.8,98.3 417,108.6 413.7,53.4 413.4,53.4 406.2,53.4 
	405.8,53.4 402.5,108.6 394.1,108.6 394.1,163.9 474.3,163.9 474.3,108.6 474.3,98.3 "/>
<polygon class="st5" points="407.9,142.4 413,135.9 410.1,134.6 412.5,128.3 406.5,134.8 409.7,136.8 "/>
<rect x="442.5" y="130.7" class="st6" width="53.3" height="30.3"/>
<text transform="matrix(1 0 0 1 442.542 141.9453)" class="st5 st7 st8">H₂</text>
<g>
	<line class="st6" x1="418.8" y1="135.4" x2="437.5" y2="135.4"/>
	<g>
		<g>
			<polygon class="st5" points="418.8,135.8 430.6,135.8 430.6,139.3 437.5,135.4 430.6,131.4 430.6,134.9 418.8,134.9 			"/>
		</g>
	</g>
</g>
<g>
	<rect x="341.1" y="496.8" class="st9" width="7.8" height="22.6"/>
	<rect x="385.4" y="496.8" class="st9" width="7.8" height="22.6"/>
	<path class="st10" d="M396.6,497.8h-57.2c-3.1,0-5.7-2.3-5.7-5.1l-0.9-41.8c0-2.8,2.5-5.1,5.7-5.1h59c3.1,0,5.7,2.3,5.7,5.1
		l-0.9,41.8C402.2,495.5,399.7,497.8,396.6,497.8z"/>
	<polygon class="st5" points="343.3,477.8 348.4,471.3 345.6,470 347.9,463.7 341.9,470.2 345.2,472.2 	"/>
	<rect x="378" y="466.1" class="st6" width="53.3" height="30.3"/>
	<text transform="matrix(1 0 0 1 377.9786 477.3347)" class="st5 st7 st8">H₂</text>
	<g>
		<line class="st6" x1="354" y1="470.7" x2="373.3" y2="470.7"/>
		<g>
			<g>
				<polygon class="st5" points="354,471.2 366.5,471.2 366.5,474.7 373.3,470.7 366.5,466.8 366.5,470.3 354,470.3 				"/>
			</g>
		</g>
	</g>
</g>
<line class="st11" x1="514.6" y1="135.4" x2="841.9" y2="222.4"/>
<line class="st11" x1="418.8" y1="477.3" x2="841.9" y2="334.7"/>
<polyline class="st12" points="348.4,163.9 164.8,302.6 323,477.3 "/>
</svg>
