<?xml version="1.0" encoding="utf-8"?>
<!-- Generator: Adobe Illustrator 25.1.0, SVG Export Plug-In . SVG Version: 6.00 Build 0)  -->
<svg version="1.1" id="Laag_1" xmlns="http://www.w3.org/2000/svg" xmlns:xlink="http://www.w3.org/1999/xlink" x="0px" y="0px"
	 viewBox="0 0 841.9 595.3" style="enable-background:new 0 0 841.9 595.3;" xml:space="preserve">
<style type="text/css">
	.st0{fill:#E8F5FB;}
	.st1{fill:#375564;stroke:#020203;stroke-width:0.2293;stroke-miterlimit:10;}
	.st2{fill:#375564;stroke:#030304;stroke-width:0.2676;stroke-miterlimit:10;}
	.st3{fill:#CBDDD1;}
	.st4{fill:#375564;}
	.st5{fill:#FFFFFF;}
	.st6{fill:none;}
	.st7{font-family:'BrownStd-Regular';}
	.st8{font-size:15.84px;}
	.st9{fill:none;stroke:#F49F72;stroke-width:4;stroke-miterlimit:10;}
	.st10{fill:none;stroke:#5198D3;stroke-width:4;stroke-miterlimit:10;}
</style>
<g>
	<rect x="-0.4" y="0" class="st0" width="841.9" height="595.3"/>
</g>
<g>
	<g>
		<polygon class="st1" points="170.3,198.2 170.3,280.5 175,280.5 173.9,198.2 		"/>
		<path class="st2" d="M168.9,198c0,0-4.1,3.3-7.4,7.5c-3.3,4.2-28.7,36.8-28.7,36.8s-0.8,2.8,1.2,0.9c2-1.9,31.2-31.8,31.5-32.2
			s1.4-1.4,1.7-3.3s0.2-2.8,0.8-4.7s2.3-3.2,2.3-3.2L168.9,198z"/>
		<path class="st2" d="M171.5,192.5c0,0-0.5-4-0.6-5.3s-0.2-2.9-0.9-4.2s-12.5-30.1-12.5-30.1l-6.2-14.5c0,0-1.2-1.1-0.8,0.7
			s11.7,41.9,11.7,41.9l0.5,2.3c0,0,0.3,1.2,1.4,1.7s2.9,1.8,3.6,2.8s1.5,1.9,1.8,3.2s0.9,2.2,0.9,2.2L171.5,192.5z"/>
		<path class="st2" d="M175,197.7c0,0,1.8-0.5,3.6,0s4.1,2.1,4.9,2.1c0.8,0,49.2,6.8,49.2,6.8s2.4-0.8,0-1.5S187.5,194,187.5,194
			s-1.1-0.4-3.2,0.5c-2,0.9-2.2,1.1-3.7,1.1c-1.5,0.1-4.7-0.1-4.7-0.1L175,197.7z"/>
		<circle class="st2" cx="171.9" cy="195.9" r="3.9"/>
	</g>
	<g>
		<path class="st2" d="M128.7,346.2c0,0-5.3,0-10.5,1.2S72.8,358,72.8,358s-2.4,1.7,0.3,1.5c2.7-0.2,44.2-5.2,44.7-5.3
			c0.5-0.1,1.9-0.2,3.4-1.6c1.5-1.3,1.9-2.1,3.6-3.1c1.7-1.1,3.8-1,3.8-1L128.7,346.2z"/>
		<path class="st2" d="M134.1,343.6c0,0,2.1-3.4,2.9-4.5s1.6-2.4,2-3.8c0.3-1.4,9.2-31.3,9.2-31.3l4.3-15.2c0,0-0.2-1.7-1.1,0
			c-0.8,1.7-17.2,40-17.2,40l-1,2.1c0,0-0.5,1.1,0,2.2s1.2,3.2,1,4.4c-0.2,1.2,0,2.4-0.7,3.6c-0.6,1.3-0.7,2.2-0.7,2.2L134.1,343.6z
			"/>
		<path class="st2" d="M133.6,349.8c0,0,1.7,0.7,2.8,2.3s1.8,4.2,2.5,4.7s34,36.2,34,36.2s2.4,0.9,0.9-1.2s-28.2-37.1-28.2-37.1
			s-0.7-1-2.8-1.6s-2.4-0.6-3.6-1.4c-1.2-0.9-3.6-3.1-3.6-3.1L133.6,349.8z"/>
		<polygon class="st1" points="130.5,349.3 130.5,431.6 135.2,431.6 134.1,349.3 		"/>
		<circle class="st2" cx="132.2" cy="347" r="3.9"/>
	</g>
	<g>
		<polygon class="st1" points="93.8,248.1 93.8,330.3 98.4,330.3 97.3,248.1 		"/>
		<path class="st2" d="M92.1,243.7c0,0-4.9-2-10.2-2.9s-46.1-7.5-46.1-7.5s-2.9,0.6-0.3,1.5c2.6,0.8,42.9,12.1,43.4,12.2
			s1.8,0.5,3.7-0.1c1.9-0.7,2.6-1.2,4.5-1.5c2-0.4,3.9,0.5,3.9,0.5L92.1,243.7z"/>
		<path class="st2" d="M98.1,243.3c0,0,3.3-2.3,4.4-3s2.4-1.6,3.3-2.8c0.8-1.2,20.4-25.4,20.4-25.4l9.8-12.4c0,0,0.4-1.6-1-0.4
			s-31.2,30.4-31.2,30.4l-1.8,1.6c0,0-0.9,0.8-0.8,2c0,1.2-0.2,3.4-0.8,4.5c-0.6,1.1-1,2.2-2,3.1c-1,0.9-1.5,1.8-1.5,1.8L98.1,243.3
			z"/>
		<path class="st2" d="M95.3,248.9c0,0,1.3,1.3,1.7,3.1c0.4,1.8,0.1,4.6,0.5,5.3c0.4,0.7,17.6,46.4,17.6,46.4s1.9,1.8,1.3-0.7
			s-12-45-12-45s-0.2-1.2-1.9-2.5c-1.7-1.3-2-1.4-2.8-2.7s-2.2-4.2-2.2-4.2L95.3,248.9z"/>
		<circle class="st2" cx="95.4" cy="245.7" r="3.9"/>
	</g>
</g>
<path class="st3" d="M618.5,0c0,0-5,14.4-19.7,74.3s-21.3,79.1-38.7,107.8c-17.3,28.7-65.3,100.9-70.7,124.7s-9.3,60.9-9.3,83.7
	s-9.3,71.9-12,88.6c-2.7,16.8-19.9,52.7-15.3,69.5s9.9,46.7,9.9,46.7h379.1V0H618.5z"/>
<polygon class="st4" points="673.6,256.1 673.6,245.8 654,256.1 654,245.8 635.2,256.1 631.9,200.8 631.6,200.8 624.4,200.8 
	624,200.8 620.7,256.1 612.3,256.1 612.3,311.4 692.5,311.4 692.5,256.1 692.5,245.8 "/>
<g>
	<polygon class="st5" points="626.1,289.9 631.2,283.4 628.3,282.1 630.7,275.8 624.7,282.3 627.9,284.2 	"/>
	<rect x="660.7" y="278.2" class="st6" width="53.3" height="30.3"/>
	<text transform="matrix(1 0 0 1 660.7364 289.416)" class="st5 st7 st8">H₂</text>
	<g>
		<line class="st6" x1="637" y1="282.8" x2="655.7" y2="282.8"/>
		<g>
			<g>
				<polygon class="st5" points="637,283.3 648.8,283.3 648.8,286.8 655.7,282.8 648.8,278.9 648.8,282.3 637,282.3 				"/>
			</g>
		</g>
	</g>
</g>
<line class="st9" x1="161" y1="324.4" x2="595.6" y2="283.6"/>
<line class="st10" x1="705.9" y1="283.6" x2="841.9" y2="365.3"/>
</svg>
