<?xml version="1.0" encoding="UTF-8" standalone="no"?>
<!DOCTYPE svg PUBLIC "-//W3C//DTD SVG 1.1//EN" "http://www.w3.org/Graphics/SVG/1.1/DTD/svg11.dtd">
<svg xmlns="http://www.w3.org/2000/svg" xmlns:xlink="http://www.w3.org/1999/xlink" version="1.1" width="442.35939pt" height="375.23188pt" viewBox="0 0 442.35939 375.23188">
<g enable-background="new">
<g>
<path transform="matrix(1,0,0,-1,0,375.23188)" d="M 44.559377 41.871877 L 435.15937 41.871877 L 435.15937 368.03187 L 44.559377 368.03187 Z " fill="#ffffff"/>
<clipPath id="cp0">
<path transform="matrix(1,0,0,-1,0,375.23188)" d="M 44.559377 41.871877 L 435.1594 41.871877 L 435.1594 368.0319 L 44.559377 368.0319 Z "/>
</clipPath>
<g clip-path="url(#cp0)">
<g>
<path transform="matrix(1,0,0,-1,0,375.23188)" d="M 44.559377 205.71192 L 44.559377 205.71192 L 65.11727 218.03072 L 85.67516 268.5849 L 106.23306 154.71054 L 126.790958 197.86269 L 147.34885 223.30458 L 167.90674 229.89006 L 188.46465 224.55988 L 209.02254 228.64459 L 229.58043 234.07234 L 270.69624 231.64524 L 311.812 232.52428 L 332.3699 234.73348 L 352.9278 231.31627 L 373.4857 223.1625 L 373.4857 253.71649 L 352.9278 261.78929 L 332.3699 266.53419 L 311.812 263.8935 L 270.69624 265.88725 L 229.58043 270.2921 L 209.02254 266.51969 L 188.46465 262.15873 L 167.90674 268.8999 L 147.34885 263.0819 L 126.790958 239.8116 L 106.23306 235.7866 L 85.67516 286.37113 L 65.11727 218.03072 L 44.559377 205.71192 Z " fill="#1f77b4" fill-opacity=".02"/>
<path transform="matrix(1,0,0,-1,0,375.23188)" stroke-width="1" stroke-linecap="butt" stroke-linejoin="round" fill="none" stroke="#1f77b4" stroke-opacity=".02" d="M 44.559377 205.71192 L 44.559377 205.71192 L 65.11727 218.03072 L 85.67516 268.5849 L 106.23306 154.71054 L 126.790958 197.86269 L 147.34885 223.30458 L 167.90674 229.89006 L 188.46465 224.55988 L 209.02254 228.64459 L 229.58043 234.07234 L 270.69624 231.64524 L 311.812 232.52428 L 332.3699 234.73348 L 352.9278 231.31627 L 373.4857 223.1625 L 373.4857 253.71649 L 352.9278 261.78929 L 332.3699 266.53419 L 311.812 263.8935 L 270.69624 265.88725 L 229.58043 270.2921 L 209.02254 266.51969 L 188.46465 262.15873 L 167.90674 268.8999 L 147.34885 263.0819 L 126.790958 239.8116 L 106.23306 235.7866 L 85.67516 286.37113 L 65.11727 218.03072 L 44.559377 205.71192 Z "/>
</g>
</g>
<clipPath id="cp1">
<path transform="matrix(1,0,0,-1,0,375.23188)" d="M 44.559377 41.871877 L 435.1594 41.871877 L 435.1594 368.0319 L 44.559377 368.0319 Z "/>
</clipPath>
<g clip-path="url(#cp1)">
<g>
<path transform="matrix(1,0,0,-1,0,375.23188)" d="M 44.559377 205.71192 L 44.559377 205.71192 L 65.11727 218.03072 L 85.67516 230.34952 L 106.23306 235.50873 L 126.790958 224.00203 L 147.34885 235.10466 L 167.90674 225.05175 L 188.46465 235.14244 L 209.02254 228.474 L 229.58043 228.83266 L 250.13832 245.76636 L 291.25413 233.0367 L 311.812 235.37786 L 332.3699 238.42275 L 352.9278 240.65476 L 394.04359 237.86128 L 394.04359 266.8216 L 352.9278 271.12779 L 332.3699 270.22346 L 311.812 266.74708 L 291.25413 266.43489 L 250.13832 280.76414 L 229.58043 265.05247 L 209.02254 266.3491 L 188.46465 272.7413 L 167.90674 264.06159 L 147.34885 274.882 L 126.790958 265.95097 L 106.23306 316.5848 L 85.67516 230.34952 L 65.11727 218.03072 L 44.559377 205.71192 Z " fill="#1f77b4" fill-opacity=".02"/>
<path transform="matrix(1,0,0,-1,0,375.23188)" stroke-width="1" stroke-linecap="butt" stroke-linejoin="round" fill="none" stroke="#1f77b4" stroke-opacity=".02" d="M 44.559377 205.71192 L 44.559377 205.71192 L 65.11727 218.03072 L 85.67516 230.34952 L 106.23306 235.50873 L 126.790958 224.00203 L 147.34885 235.10466 L 167.90674 225.05175 L 188.46465 235.14244 L 209.02254 228.474 L 229.58043 228.83266 L 250.13832 245.76636 L 291.25413 233.0367 L 311.812 235.37786 L 332.3699 238.42275 L 352.9278 240.65476 L 394.04359 237.86128 L 394.04359 266.8216 L 352.9278 271.12779 L 332.3699 270.22346 L 311.812 266.74708 L 291.25413 266.43489 L 250.13832 280.76414 L 229.58043 265.05247 L 209.02254 266.3491 L 188.46465 272.7413 L 167.90674 264.06159 L 147.34885 274.882 L 126.790958 265.95097 L 106.23306 316.5848 L 85.67516 230.34952 L 65.11727 218.03072 L 44.559377 205.71192 Z "/>
</g>
</g>
<clipPath id="cp2">
<path transform="matrix(1,0,0,-1,0,375.23188)" d="M 44.559377 41.871877 L 435.1594 41.871877 L 435.1594 368.0319 L 44.559377 368.0319 Z "/>
</clipPath>
<g clip-path="url(#cp2)">
<g>
<path transform="matrix(1,0,0,-1,0,375.23188)" d="M 44.559377 205.71192 L 44.559377 205.71192 L 65.11727 218.03072 L 85.67516 230.34952 L 106.23306 195.97531 L 126.790958 230.68795 L 147.34885 221.78023 L 167.90674 230.20519 L 209.02254 229.8483 L 229.58043 219.9149 L 250.13832 228.49118 L 291.25413 232.64568 L 311.812 237.26737 L 332.3699 234.28376 L 332.3699 266.08445 L 311.812 268.6366 L 291.25413 266.04389 L 250.13832 263.48896 L 229.58043 256.1347 L 209.02254 267.7234 L 167.90674 269.21504 L 147.34885 261.55757 L 126.790958 272.63685 L 106.23306 277.0514 L 85.67516 230.34952 L 65.11727 218.03072 L 44.559377 205.71192 Z " fill="#1f77b4" fill-opacity=".02"/>
<path transform="matrix(1,0,0,-1,0,375.23188)" stroke-width="1" stroke-linecap="butt" stroke-linejoin="round" fill="none" stroke="#1f77b4" stroke-opacity=".02" d="M 44.559377 205.71192 L 44.559377 205.71192 L 65.11727 218.03072 L 85.67516 230.34952 L 106.23306 195.97531 L 126.790958 230.68795 L 147.34885 221.78023 L 167.90674 230.20519 L 209.02254 229.8483 L 229.58043 219.9149 L 250.13832 228.49118 L 291.25413 232.64568 L 311.812 237.26737 L 332.3699 234.28376 L 332.3699 266.08445 L 311.812 268.6366 L 291.25413 266.04389 L 250.13832 263.48896 L 229.58043 256.1347 L 209.02254 267.7234 L 167.90674 269.21504 L 147.34885 261.55757 L 126.790958 272.63685 L 106.23306 277.0514 L 85.67516 230.34952 L 65.11727 218.03072 L 44.559377 205.71192 Z "/>
</g>
</g>
<clipPath id="cp3">
<path transform="matrix(1,0,0,-1,0,375.23188)" d="M 44.559377 41.871877 L 435.1594 41.871877 L 435.1594 368.0319 L 44.559377 368.0319 Z "/>
</clipPath>
<g clip-path="url(#cp3)">
<g>
<path transform="matrix(1,0,0,-1,0,375.23188)" d="M 44.559377 205.71192 L 44.559377 205.71192 L 65.11727 218.03072 L 85.67516 230.34952 L 106.23306 221.07791 L 126.790958 222.9569 L 147.34885 229.64107 L 167.90674 227.47975 L 188.46465 228.21846 L 209.02254 224.34598 L 250.13832 236.32129 L 270.69624 234.17792 L 311.812 237.17577 L 332.3699 232.92284 L 352.9278 232.44329 L 373.4857 231.34587 L 414.60148 238.65712 L 414.60148 268.1275 L 373.4857 261.89985 L 352.9278 262.9163 L 332.3699 264.72355 L 311.812 268.54499 L 270.69624 268.41993 L 250.13832 271.31907 L 209.02254 262.22108 L 188.46465 265.81733 L 167.90674 266.4896 L 147.34885 269.41844 L 126.790958 264.90583 L 106.23306 302.154 L 85.67516 230.34952 L 65.11727 218.03072 L 44.559377 205.71192 Z " fill="#1f77b4" fill-opacity=".02"/>
<path transform="matrix(1,0,0,-1,0,375.23188)" stroke-width="1" stroke-linecap="butt" stroke-linejoin="round" fill="none" stroke="#1f77b4" stroke-opacity=".02" d="M 44.559377 205.71192 L 44.559377 205.71192 L 65.11727 218.03072 L 85.67516 230.34952 L 106.23306 221.07791 L 126.790958 222.9569 L 147.34885 229.64107 L 167.90674 227.47975 L 188.46465 228.21846 L 209.02254 224.34598 L 250.13832 236.32129 L 270.69624 234.17792 L 311.812 237.17577 L 332.3699 232.92284 L 352.9278 232.44329 L 373.4857 231.34587 L 414.60148 238.65712 L 414.60148 268.1275 L 373.4857 261.89985 L 352.9278 262.9163 L 332.3699 264.72355 L 311.812 268.54499 L 270.69624 268.41993 L 250.13832 271.31907 L 209.02254 262.22108 L 188.46465 265.81733 L 167.90674 266.4896 L 147.34885 269.41844 L 126.790958 264.90583 L 106.23306 302.154 L 85.67516 230.34952 L 65.11727 218.03072 L 44.559377 205.71192 Z "/>
</g>
</g>
<clipPath id="cp4">
<path transform="matrix(1,0,0,-1,0,375.23188)" d="M 44.559377 41.871877 L 435.1594 41.871877 L 435.1594 368.0319 L 44.559377 368.0319 Z "/>
</clipPath>
<g clip-path="url(#cp4)">
<g>
<path transform="matrix(1,0,0,-1,0,375.23188)" d="M 44.559377 205.71192 L 44.559377 205.71192 L 65.11727 218.03072 L 85.67516 230.34952 L 106.23306 221.72066 L 126.790958 221.1753 L 147.34885 229.96643 L 167.90674 236.98378 L 188.46465 235.08739 L 209.02254 229.88881 L 229.58043 230.2497 L 250.13832 226.9218 L 270.69624 230.32555 L 291.25413 235.27358 L 311.812 236.46395 L 332.3699 235.82469 L 352.9278 235.0343 L 373.4857 236.39235 L 414.60148 234.6283 L 435.15937 234.61815 L 435.15937 263.14036 L 414.60148 264.0987 L 373.4857 266.94636 L 352.9278 265.50733 L 332.3699 267.6254 L 311.812 267.83317 L 291.25413 268.67179 L 270.69624 264.56758 L 250.13832 261.9196 L 229.58043 266.46949 L 209.02254 267.7639 L 188.46465 272.68623 L 167.90674 275.99363 L 147.34885 269.74378 L 126.790958 263.1242 L 106.23306 302.79673 L 85.67516 230.34952 L 65.11727 218.03072 L 44.559377 205.71192 Z " fill="#1f77b4" fill-opacity=".02"/>
<path transform="matrix(1,0,0,-1,0,375.23188)" stroke-width="1" stroke-linecap="butt" stroke-linejoin="round" fill="none" stroke="#1f77b4" stroke-opacity=".02" d="M 44.559377 205.71192 L 44.559377 205.71192 L 65.11727 218.03072 L 85.67516 230.34952 L 106.23306 221.72066 L 126.790958 221.1753 L 147.34885 229.96643 L 167.90674 236.98378 L 188.46465 235.08739 L 209.02254 229.88881 L 229.58043 230.2497 L 250.13832 226.9218 L 270.69624 230.32555 L 291.25413 235.27358 L 311.812 236.46395 L 332.3699 235.82469 L 352.9278 235.0343 L 373.4857 236.39235 L 414.60148 234.6283 L 435.15937 234.61815 L 435.15937 263.14036 L 414.60148 264.0987 L 373.4857 266.94636 L 352.9278 265.50733 L 332.3699 267.6254 L 311.812 267.83317 L 291.25413 268.67179 L 270.69624 264.56758 L 250.13832 261.9196 L 229.58043 266.46949 L 209.02254 267.7639 L 188.46465 272.68623 L 167.90674 275.99363 L 147.34885 269.74378 L 126.790958 263.1242 L 106.23306 302.79673 L 85.67516 230.34952 L 65.11727 218.03072 L 44.559377 205.71192 Z "/>
</g>
</g>
<clipPath id="cp5">
<path transform="matrix(1,0,0,-1,0,375.23188)" d="M 44.559377 41.871877 L 435.1594 41.871877 L 435.1594 368.0319 L 44.559377 368.0319 Z "/>
</clipPath>
<g clip-path="url(#cp5)">
<g>
<path transform="matrix(1,0,0,-1,0,375.23188)" d="M 44.559377 205.71192 L 44.559377 205.71192 L 65.11727 218.03072 L 85.67516 230.34952 L 106.23306 249.07234 L 126.790958 232.75054 L 188.46465 228.45137 L 209.02254 233.54534 L 229.58043 224.87709 L 250.13832 227.81949 L 270.69624 232.66513 L 291.25413 233.69771 L 311.812 233.26979 L 332.3699 230.66333 L 352.9278 236.40885 L 414.60148 235.15697 L 435.15937 238.43137 L 435.15937 266.95356 L 414.60148 264.62736 L 352.9278 266.88188 L 332.3699 262.46403 L 311.812 264.63905 L 291.25413 267.09593 L 270.69624 266.90715 L 250.13832 262.81727 L 229.58043 261.0969 L 209.02254 271.4204 L 188.46465 266.05024 L 126.790958 274.69947 L 106.23306 330.1484 L 85.67516 230.34952 L 65.11727 218.03072 L 44.559377 205.71192 Z " fill="#1f77b4" fill-opacity=".02"/>
<path transform="matrix(1,0,0,-1,0,375.23188)" stroke-width="1" stroke-linecap="butt" stroke-linejoin="round" fill="none" stroke="#1f77b4" stroke-opacity=".02" d="M 44.559377 205.71192 L 44.559377 205.71192 L 65.11727 218.03072 L 85.67516 230.34952 L 106.23306 249.07234 L 126.790958 232.75054 L 188.46465 228.45137 L 209.02254 233.54534 L 229.58043 224.87709 L 250.13832 227.81949 L 270.69624 232.66513 L 291.25413 233.69771 L 311.812 233.26979 L 332.3699 230.66333 L 352.9278 236.40885 L 414.60148 235.15697 L 435.15937 238.43137 L 435.15937 266.95356 L 414.60148 264.62736 L 352.9278 266.88188 L 332.3699 262.46403 L 311.812 264.63905 L 291.25413 267.09593 L 270.69624 266.90715 L 250.13832 262.81727 L 229.58043 261.0969 L 209.02254 271.4204 L 188.46465 266.05024 L 126.790958 274.69947 L 106.23306 330.1484 L 85.67516 230.34952 L 65.11727 218.03072 L 44.559377 205.71192 Z "/>
</g>
</g>
<clipPath id="cp6">
<path transform="matrix(1,0,0,-1,0,375.23188)" d="M 44.559377 41.871877 L 435.1594 41.871877 L 435.1594 368.0319 L 44.559377 368.0319 Z "/>
</clipPath>
<g clip-path="url(#cp6)">
<g>
<path transform="matrix(1,0,0,-1,0,375.23188)" d="M 44.559377 205.71192 L 44.559377 205.71192 L 65.11727 218.03072 L 85.67516 230.34952 L 106.23306 199.77185 L 126.790958 226.05622 L 147.34885 225.8669 L 167.90674 218.01015 L 209.02254 231.84346 L 229.58043 226.67842 L 250.13832 231.23229 L 270.69624 226.87815 L 291.25413 243.35356 L 332.3699 228.87393 L 352.9278 234.32976 L 394.04359 235.12651 L 394.04359 264.08683 L 352.9278 264.8028 L 332.3699 260.67463 L 291.25413 276.75175 L 270.69624 261.12016 L 250.13832 266.23008 L 229.58043 262.89823 L 209.02254 269.71855 L 167.90674 257.02 L 147.34885 265.64424 L 126.790958 268.00514 L 106.23306 280.84794 L 85.67516 230.34952 L 65.11727 218.03072 L 44.559377 205.71192 Z " fill="#1f77b4" fill-opacity=".02"/>
<path transform="matrix(1,0,0,-1,0,375.23188)" stroke-width="1" stroke-linecap="butt" stroke-linejoin="round" fill="none" stroke="#1f77b4" stroke-opacity=".02" d="M 44.559377 205.71192 L 44.559377 205.71192 L 65.11727 218.03072 L 85.67516 230.34952 L 106.23306 199.77185 L 126.790958 226.05622 L 147.34885 225.8669 L 167.90674 218.01015 L 209.02254 231.84346 L 229.58043 226.67842 L 250.13832 231.23229 L 270.69624 226.87815 L 291.25413 243.35356 L 332.3699 228.87393 L 352.9278 234.32976 L 394.04359 235.12651 L 394.04359 264.08683 L 352.9278 264.8028 L 332.3699 260.67463 L 291.25413 276.75175 L 270.69624 261.12016 L 250.13832 266.23008 L 229.58043 262.89823 L 209.02254 269.71855 L 167.90674 257.02 L 147.34885 265.64424 L 126.790958 268.00514 L 106.23306 280.84794 L 85.67516 230.34952 L 65.11727 218.03072 L 44.559377 205.71192 Z "/>
</g>
</g>
<clipPath id="cp7">
<path transform="matrix(1,0,0,-1,0,375.23188)" d="M 44.559377 41.871877 L 435.1594 41.871877 L 435.1594 368.0319 L 44.559377 368.0319 Z "/>
</clipPath>
<g clip-path="url(#cp7)">
<g>
<path transform="matrix(1,0,0,-1,0,375.23188)" d="M 44.559377 205.71192 L 44.559377 205.71192 L 65.11727 218.03072 L 85.67516 230.34952 L 106.23306 226.79383 L 126.790958 232.46683 L 147.34885 224.85375 L 167.90674 219.97225 L 188.46465 233.3029 L 229.58043 234.61757 L 250.13832 227.60697 L 291.25413 231.58003 L 352.9278 232.59769 L 414.60148 240.12042 L 414.60148 269.5908 L 352.9278 263.0707 L 291.25413 264.97825 L 250.13832 262.60475 L 229.58043 270.83735 L 188.46465 270.90174 L 167.90674 258.9821 L 147.34885 264.63108 L 126.790958 274.41575 L 106.23306 307.8699 L 85.67516 230.34952 L 65.11727 218.03072 L 44.559377 205.71192 Z " fill="#1f77b4" fill-opacity=".02"/>
<path transform="matrix(1,0,0,-1,0,375.23188)" stroke-width="1" stroke-linecap="butt" stroke-linejoin="round" fill="none" stroke="#1f77b4" stroke-opacity=".02" d="M 44.559377 205.71192 L 44.559377 205.71192 L 65.11727 218.03072 L 85.67516 230.34952 L 106.23306 226.79383 L 126.790958 232.46683 L 147.34885 224.85375 L 167.90674 219.97225 L 188.46465 233.3029 L 229.58043 234.61757 L 250.13832 227.60697 L 291.25413 231.58003 L 352.9278 232.59769 L 414.60148 240.12042 L 414.60148 269.5908 L 352.9278 263.0707 L 291.25413 264.97825 L 250.13832 262.60475 L 229.58043 270.83735 L 188.46465 270.90174 L 167.90674 258.9821 L 147.34885 264.63108 L 126.790958 274.41575 L 106.23306 307.8699 L 85.67516 230.34952 L 65.11727 218.03072 L 44.559377 205.71192 Z "/>
</g>
</g>
<clipPath id="cp8">
<path transform="matrix(1,0,0,-1,0,375.23188)" d="M 44.559377 41.871877 L 435.1594 41.871877 L 435.1594 368.0319 L 44.559377 368.0319 Z "/>
</clipPath>
<g clip-path="url(#cp8)">
<g>
<path transform="matrix(1,0,0,-1,0,375.23188)" d="M 44.559377 205.71192 L 44.559377 205.71192 L 65.11727 218.03072 L 85.67516 230.34952 L 106.23306 276.79765 L 126.790958 225.45876 L 147.34885 223.93318 L 167.90674 230.88466 L 188.46465 222.26932 L 209.02254 232.99166 L 229.58043 230.87822 L 250.13832 227.51726 L 291.25413 228.17298 L 311.812 229.78829 L 332.3699 233.28574 L 332.3699 265.08644 L 311.812 261.1575 L 291.25413 261.57118 L 250.13832 262.51506 L 229.58043 267.09803 L 209.02254 270.86674 L 188.46465 259.86817 L 167.90674 269.8945 L 147.34885 263.7105 L 126.790958 267.40769 L 106.23306 357.87373 L 85.67516 230.34952 L 65.11727 218.03072 L 44.559377 205.71192 Z " fill="#1f77b4" fill-opacity=".02"/>
<path transform="matrix(1,0,0,-1,0,375.23188)" stroke-width="1" stroke-linecap="butt" stroke-linejoin="round" fill="none" stroke="#1f77b4" stroke-opacity=".02" d="M 44.559377 205.71192 L 44.559377 205.71192 L 65.11727 218.03072 L 85.67516 230.34952 L 106.23306 276.79765 L 126.790958 225.45876 L 147.34885 223.93318 L 167.90674 230.88466 L 188.46465 222.26932 L 209.02254 232.99166 L 229.58043 230.87822 L 250.13832 227.51726 L 291.25413 228.17298 L 311.812 229.78829 L 332.3699 233.28574 L 332.3699 265.08644 L 311.812 261.1575 L 291.25413 261.57118 L 250.13832 262.51506 L 229.58043 267.09803 L 209.02254 270.86674 L 188.46465 259.86817 L 167.90674 269.8945 L 147.34885 263.7105 L 126.790958 267.40769 L 106.23306 357.87373 L 85.67516 230.34952 L 65.11727 218.03072 L 44.559377 205.71192 Z "/>
</g>
</g>
<clipPath id="cp9">
<path transform="matrix(1,0,0,-1,0,375.23188)" d="M 44.559377 41.871877 L 435.1594 41.871877 L 435.1594 368.0319 L 44.559377 368.0319 Z "/>
</clipPath>
<g clip-path="url(#cp9)">
<g>
<path transform="matrix(1,0,0,-1,0,375.23188)" d="M 44.559377 205.71192 L 44.559377 205.71192 L 65.11727 218.03072 L 85.67516 230.34952 L 106.23306 199.93546 L 126.790958 233.8492 L 147.34885 226.0476 L 167.90674 231.45763 L 188.46465 231.78144 L 209.02254 229.74466 L 229.58043 228.93726 L 250.13832 223.60182 L 270.69624 226.88455 L 291.25413 222.27887 L 311.812 227.27555 L 332.3699 234.15959 L 373.4857 231.37058 L 394.04359 238.01723 L 414.60148 233.21541 L 414.60148 262.6858 L 394.04359 266.97755 L 373.4857 261.92457 L 332.3699 265.9603 L 311.812 258.64479 L 291.25413 255.67707 L 270.69624 261.12657 L 250.13832 258.5996 L 229.58043 265.15705 L 209.02254 267.61976 L 188.46465 269.38029 L 167.90674 270.46748 L 147.34885 265.82496 L 126.790958 275.79814 L 106.23306 281.01155 L 85.67516 230.34952 L 65.11727 218.03072 L 44.559377 205.71192 Z " fill="#1f77b4" fill-opacity=".02"/>
<path transform="matrix(1,0,0,-1,0,375.23188)" stroke-width="1" stroke-linecap="butt" stroke-linejoin="round" fill="none" stroke="#1f77b4" stroke-opacity=".02" d="M 44.559377 205.71192 L 44.559377 205.71192 L 65.11727 218.03072 L 85.67516 230.34952 L 106.23306 199.93546 L 126.790958 233.8492 L 147.34885 226.0476 L 167.90674 231.45763 L 188.46465 231.78144 L 209.02254 229.74466 L 229.58043 228.93726 L 250.13832 223.60182 L 270.69624 226.88455 L 291.25413 222.27887 L 311.812 227.27555 L 332.3699 234.15959 L 373.4857 231.37058 L 394.04359 238.01723 L 414.60148 233.21541 L 414.60148 262.6858 L 394.04359 266.97755 L 373.4857 261.92457 L 332.3699 265.9603 L 311.812 258.64479 L 291.25413 255.67707 L 270.69624 261.12657 L 250.13832 258.5996 L 229.58043 265.15705 L 209.02254 267.61976 L 188.46465 269.38029 L 167.90674 270.46748 L 147.34885 265.82496 L 126.790958 275.79814 L 106.23306 281.01155 L 85.67516 230.34952 L 65.11727 218.03072 L 44.559377 205.71192 Z "/>
</g>
</g>
<clipPath id="cp10">
<path transform="matrix(1,0,0,-1,0,375.23188)" d="M 44.559377 41.871877 L 435.1594 41.871877 L 435.1594 368.0319 L 44.559377 368.0319 Z "/>
</clipPath>
<g clip-path="url(#cp10)">
<g>
<path transform="matrix(1,0,0,-1,0,375.23188)" d="M 44.559377 205.71192 L 44.559377 205.71192 L 65.11727 218.03072 L 85.67516 230.34952 L 106.23306 228.68265 L 126.790958 227.76216 L 147.34885 232.54227 L 167.90674 225.81079 L 188.46465 227.14284 L 209.02254 229.01895 L 250.13832 226.73777 L 291.25413 234.51734 L 311.812 232.6443 L 332.3699 232.82474 L 352.9278 234.60962 L 373.4857 232.60637 L 394.04359 238.18793 L 414.60148 239.04962 L 435.15937 233.09796 L 435.15937 261.62016 L 414.60148 268.52 L 394.04359 267.14826 L 373.4857 263.16038 L 352.9278 265.08265 L 332.3699 264.62544 L 311.812 264.01353 L 291.25413 267.91554 L 250.13832 261.73554 L 209.02254 266.89405 L 188.46465 264.7417 L 167.90674 264.82066 L 147.34885 272.3196 L 126.790958 269.7111 L 106.23306 309.75874 L 85.67516 230.34952 L 65.11727 218.03072 L 44.559377 205.71192 Z " fill="#1f77b4" fill-opacity=".02"/>
<path transform="matrix(1,0,0,-1,0,375.23188)" stroke-width="1" stroke-linecap="butt" stroke-linejoin="round" fill="none" stroke="#1f77b4" stroke-opacity=".02" d="M 44.559377 205.71192 L 44.559377 205.71192 L 65.11727 218.03072 L 85.67516 230.34952 L 106.23306 228.68265 L 126.790958 227.76216 L 147.34885 232.54227 L 167.90674 225.81079 L 188.46465 227.14284 L 209.02254 229.01895 L 250.13832 226.73777 L 291.25413 234.51734 L 311.812 232.6443 L 332.3699 232.82474 L 352.9278 234.60962 L 373.4857 232.60637 L 394.04359 238.18793 L 414.60148 239.04962 L 435.15937 233.09796 L 435.15937 261.62016 L 414.60148 268.52 L 394.04359 267.14826 L 373.4857 263.16038 L 352.9278 265.08265 L 332.3699 264.62544 L 311.812 264.01353 L 291.25413 267.91554 L 250.13832 261.73554 L 209.02254 266.89405 L 188.46465 264.7417 L 167.90674 264.82066 L 147.34885 272.3196 L 126.790958 269.7111 L 106.23306 309.75874 L 85.67516 230.34952 L 65.11727 218.03072 L 44.559377 205.71192 Z "/>
</g>
</g>
<clipPath id="cp11">
<path transform="matrix(1,0,0,-1,0,375.23188)" d="M 44.559377 41.871877 L 435.1594 41.871877 L 435.1594 368.0319 L 44.559377 368.0319 Z "/>
</clipPath>
<g clip-path="url(#cp11)">
<g>
<path transform="matrix(1,0,0,-1,0,375.23188)" d="M 44.559377 205.71192 L 44.559377 205.71192 L 65.11727 218.03072 L 85.67516 283.854 L 106.23306 255.14072 L 126.790958 227.38182 L 147.34885 234.35526 L 167.90674 230.7908 L 188.46465 225.68231 L 209.02254 229.99269 L 229.58043 228.03849 L 250.13832 232.67272 L 270.69624 235.47972 L 311.812 228.72995 L 373.4857 234.01682 L 394.04359 232.36457 L 414.60148 240.7695 L 435.15937 232.11849 L 435.15937 260.6407 L 414.60148 270.23988 L 394.04359 261.3249 L 373.4857 264.5708 L 311.812 260.09919 L 270.69624 269.72175 L 250.13832 267.6705 L 229.58043 264.25828 L 209.02254 267.86778 L 188.46465 263.28117 L 167.90674 269.80067 L 147.34885 274.1326 L 126.790958 269.33076 L 106.23306 336.2168 L 85.67516 301.64024 L 65.11727 218.03072 L 44.559377 205.71192 Z " fill="#1f77b4" fill-opacity=".02"/>
<path transform="matrix(1,0,0,-1,0,375.23188)" stroke-width="1" stroke-linecap="butt" stroke-linejoin="round" fill="none" stroke="#1f77b4" stroke-opacity=".02" d="M 44.559377 205.71192 L 44.559377 205.71192 L 65.11727 218.03072 L 85.67516 283.854 L 106.23306 255.14072 L 126.790958 227.38182 L 147.34885 234.35526 L 167.90674 230.7908 L 188.46465 225.68231 L 209.02254 229.99269 L 229.58043 228.03849 L 250.13832 232.67272 L 270.69624 235.47972 L 311.812 228.72995 L 373.4857 234.01682 L 394.04359 232.36457 L 414.60148 240.7695 L 435.15937 232.11849 L 435.15937 260.6407 L 414.60148 270.23988 L 394.04359 261.3249 L 373.4857 264.5708 L 311.812 260.09919 L 270.69624 269.72175 L 250.13832 267.6705 L 229.58043 264.25828 L 209.02254 267.86778 L 188.46465 263.28117 L 167.90674 269.80067 L 147.34885 274.1326 L 126.790958 269.33076 L 106.23306 336.2168 L 85.67516 301.64024 L 65.11727 218.03072 L 44.559377 205.71192 Z "/>
</g>
</g>
<clipPath id="cp12">
<path transform="matrix(1,0,0,-1,0,375.23188)" d="M 44.559377 41.871877 L 435.1594 41.871877 L 435.1594 368.0319 L 44.559377 368.0319 Z "/>
</clipPath>
<g clip-path="url(#cp12)">
<g>
<path transform="matrix(1,0,0,-1,0,375.23188)" d="M 44.559377 205.71192 L 44.559377 205.71192 L 65.11727 218.03072 L 85.67516 287.16383 L 106.23306 193.53069 L 126.790958 225.26688 L 147.34885 222.56508 L 167.90674 219.7211 L 188.46465 225.36544 L 229.58043 230.06932 L 270.69624 229.39525 L 291.25413 226.35147 L 311.812 229.91844 L 332.3699 235.58858 L 352.9278 229.40222 L 373.4857 236.91004 L 414.60148 234.25345 L 435.15937 240.56974 L 435.15937 269.09196 L 414.60148 263.72386 L 373.4857 267.46403 L 352.9278 259.87525 L 332.3699 267.38929 L 311.812 261.2877 L 291.25413 259.74967 L 270.69624 263.63728 L 229.58043 266.28913 L 188.46465 262.96427 L 167.90674 258.73097 L 147.34885 262.3424 L 126.790958 267.2158 L 106.23306 274.60676 L 85.67516 304.95005 L 65.11727 218.03072 L 44.559377 205.71192 Z " fill="#1f77b4" fill-opacity=".02"/>
<path transform="matrix(1,0,0,-1,0,375.23188)" stroke-width="1" stroke-linecap="butt" stroke-linejoin="round" fill="none" stroke="#1f77b4" stroke-opacity=".02" d="M 44.559377 205.71192 L 44.559377 205.71192 L 65.11727 218.03072 L 85.67516 287.16383 L 106.23306 193.53069 L 126.790958 225.26688 L 147.34885 222.56508 L 167.90674 219.7211 L 188.46465 225.36544 L 229.58043 230.06932 L 270.69624 229.39525 L 291.25413 226.35147 L 311.812 229.91844 L 332.3699 235.58858 L 352.9278 229.40222 L 373.4857 236.91004 L 414.60148 234.25345 L 435.15937 240.56974 L 435.15937 269.09196 L 414.60148 263.72386 L 373.4857 267.46403 L 352.9278 259.87525 L 332.3699 267.38929 L 311.812 261.2877 L 291.25413 259.74967 L 270.69624 263.63728 L 229.58043 266.28913 L 188.46465 262.96427 L 167.90674 258.73097 L 147.34885 262.3424 L 126.790958 267.2158 L 106.23306 274.60676 L 85.67516 304.95005 L 65.11727 218.03072 L 44.559377 205.71192 Z "/>
</g>
</g>
<clipPath id="cp13">
<path transform="matrix(1,0,0,-1,0,375.23188)" d="M 44.559377 41.871877 L 435.1594 41.871877 L 435.1594 368.0319 L 44.559377 368.0319 Z "/>
</clipPath>
<g clip-path="url(#cp13)">
<g>
<path transform="matrix(1,0,0,-1,0,375.23188)" d="M 44.559377 205.71192 L 44.559377 205.71192 L 65.11727 218.03072 L 85.67516 230.34952 L 106.23306 266.4222 L 126.790958 228.35681 L 147.34885 230.0786 L 167.90674 227.13121 L 188.46465 232.39156 L 209.02254 231.92214 L 229.58043 235.76163 L 291.25413 235.31288 L 311.812 238.79644 L 373.4857 240.20829 L 394.04359 241.94339 L 435.15937 231.34452 L 435.15937 259.86674 L 394.04359 270.90373 L 373.4857 270.76228 L 311.812 270.16566 L 291.25413 268.71107 L 229.58043 271.9814 L 209.02254 269.7972 L 188.46465 269.99043 L 167.90674 266.14106 L 147.34885 269.85594 L 126.790958 270.30574 L 106.23306 347.4983 L 85.67516 230.34952 L 65.11727 218.03072 L 44.559377 205.71192 Z " fill="#1f77b4" fill-opacity=".02"/>
<path transform="matrix(1,0,0,-1,0,375.23188)" stroke-width="1" stroke-linecap="butt" stroke-linejoin="round" fill="none" stroke="#1f77b4" stroke-opacity=".02" d="M 44.559377 205.71192 L 44.559377 205.71192 L 65.11727 218.03072 L 85.67516 230.34952 L 106.23306 266.4222 L 126.790958 228.35681 L 147.34885 230.0786 L 167.90674 227.13121 L 188.46465 232.39156 L 209.02254 231.92214 L 229.58043 235.76163 L 291.25413 235.31288 L 311.812 238.79644 L 373.4857 240.20829 L 394.04359 241.94339 L 435.15937 231.34452 L 435.15937 259.86674 L 394.04359 270.90373 L 373.4857 270.76228 L 311.812 270.16566 L 291.25413 268.71107 L 229.58043 271.9814 L 209.02254 269.7972 L 188.46465 269.99043 L 167.90674 266.14106 L 147.34885 269.85594 L 126.790958 270.30574 L 106.23306 347.4983 L 85.67516 230.34952 L 65.11727 218.03072 L 44.559377 205.71192 Z "/>
</g>
</g>
<clipPath id="cp14">
<path transform="matrix(1,0,0,-1,0,375.23188)" d="M 44.559377 41.871877 L 435.1594 41.871877 L 435.1594 368.0319 L 44.559377 368.0319 Z "/>
</clipPath>
<g clip-path="url(#cp14)">
<g>
<path transform="matrix(1,0,0,-1,0,375.23188)" d="M 44.559377 205.71192 L 44.559377 205.71192 L 65.11727 218.03072 L 85.67516 230.34952 L 106.23306 186.72884 L 126.790958 228.11994 L 147.34885 215.05834 L 167.90674 227.47055 L 188.46465 229.89144 L 209.02254 225.86582 L 229.58043 232.92353 L 250.13832 220.75812 L 270.69624 231.87239 L 291.25413 230.92237 L 311.812 230.93795 L 332.3699 231.66712 L 352.9278 237.9209 L 394.04359 232.37863 L 394.04359 261.33897 L 352.9278 268.39393 L 332.3699 263.4678 L 311.812 262.30717 L 291.25413 264.32057 L 270.69624 266.1144 L 250.13832 255.75589 L 229.58043 269.1433 L 209.02254 263.7409 L 188.46465 267.4903 L 167.90674 266.48039 L 147.34885 254.83568 L 126.790958 270.06886 L 106.23306 267.8049 L 85.67516 230.34952 L 65.11727 218.03072 L 44.559377 205.71192 Z " fill="#1f77b4" fill-opacity=".02"/>
<path transform="matrix(1,0,0,-1,0,375.23188)" stroke-width="1" stroke-linecap="butt" stroke-linejoin="round" fill="none" stroke="#1f77b4" stroke-opacity=".02" d="M 44.559377 205.71192 L 44.559377 205.71192 L 65.11727 218.03072 L 85.67516 230.34952 L 106.23306 186.72884 L 126.790958 228.11994 L 147.34885 215.05834 L 167.90674 227.47055 L 188.46465 229.89144 L 209.02254 225.86582 L 229.58043 232.92353 L 250.13832 220.75812 L 270.69624 231.87239 L 291.25413 230.92237 L 311.812 230.93795 L 332.3699 231.66712 L 352.9278 237.9209 L 394.04359 232.37863 L 394.04359 261.33897 L 352.9278 268.39393 L 332.3699 263.4678 L 311.812 262.30717 L 291.25413 264.32057 L 270.69624 266.1144 L 250.13832 255.75589 L 229.58043 269.1433 L 209.02254 263.7409 L 188.46465 267.4903 L 167.90674 266.48039 L 147.34885 254.83568 L 126.790958 270.06886 L 106.23306 267.8049 L 85.67516 230.34952 L 65.11727 218.03072 L 44.559377 205.71192 Z "/>
</g>
</g>
<clipPath id="cp15">
<path transform="matrix(1,0,0,-1,0,375.23188)" d="M 44.559377 41.871877 L 435.1594 41.871877 L 435.1594 368.0319 L 44.559377 368.0319 Z "/>
</clipPath>
<g clip-path="url(#cp15)">
<g>
<path transform="matrix(1,0,0,-1,0,375.23188)" d="M 44.559377 205.71192 L 44.559377 205.71192 L 65.11727 218.03072 L 85.67516 274.12809 L 106.23306 188.37587 L 126.790958 229.16162 L 147.34885 230.12451 L 167.90674 228.0048 L 188.46465 224.36533 L 209.02254 219.59284 L 229.58043 237.65583 L 250.13832 241.42078 L 291.25413 228.27832 L 311.812 237.43764 L 332.3699 233.71184 L 394.04359 241.29897 L 414.60148 234.86475 L 414.60148 264.3351 L 394.04359 270.25929 L 332.3699 265.51255 L 311.812 268.8069 L 291.25413 261.6765 L 250.13832 276.41856 L 229.58043 273.8756 L 209.02254 257.46794 L 188.46465 261.96418 L 167.90674 267.01466 L 147.34885 269.90187 L 126.790958 271.11054 L 106.23306 269.45195 L 85.67516 291.9143 L 65.11727 218.03072 L 44.559377 205.71192 Z " fill="#1f77b4" fill-opacity=".02"/>
<path transform="matrix(1,0,0,-1,0,375.23188)" stroke-width="1" stroke-linecap="butt" stroke-linejoin="round" fill="none" stroke="#1f77b4" stroke-opacity=".02" d="M 44.559377 205.71192 L 44.559377 205.71192 L 65.11727 218.03072 L 85.67516 274.12809 L 106.23306 188.37587 L 126.790958 229.16162 L 147.34885 230.12451 L 167.90674 228.0048 L 188.46465 224.36533 L 209.02254 219.59284 L 229.58043 237.65583 L 250.13832 241.42078 L 291.25413 228.27832 L 311.812 237.43764 L 332.3699 233.71184 L 394.04359 241.29897 L 414.60148 234.86475 L 414.60148 264.3351 L 394.04359 270.25929 L 332.3699 265.51255 L 311.812 268.8069 L 291.25413 261.6765 L 250.13832 276.41856 L 229.58043 273.8756 L 209.02254 257.46794 L 188.46465 261.96418 L 167.90674 267.01466 L 147.34885 269.90187 L 126.790958 271.11054 L 106.23306 269.45195 L 85.67516 291.9143 L 65.11727 218.03072 L 44.559377 205.71192 Z "/>
</g>
</g>
<clipPath id="cp16">
<path transform="matrix(1,0,0,-1,0,375.23188)" d="M 44.559377 41.871877 L 435.1594 41.871877 L 435.1594 368.0319 L 44.559377 368.0319 Z "/>
</clipPath>
<g clip-path="url(#cp16)">
<g>
<path transform="matrix(1,0,0,-1,0,375.23188)" d="M 44.559377 205.71192 L 44.559377 205.71192 L 65.11727 218.03072 L 85.67516 230.34952 L 106.23306 157.40082 L 126.790958 235.52478 L 147.34885 230.39035 L 209.02254 224.48552 L 229.58043 234.74098 L 250.13832 227.0151 L 291.25413 235.54785 L 311.812 235.98148 L 352.9278 230.9535 L 373.4857 238.50612 L 435.15937 241.2413 L 435.15937 269.7635 L 373.4857 269.0601 L 352.9278 261.4265 L 311.812 267.3507 L 291.25413 268.94606 L 250.13832 262.01289 L 229.58043 270.9608 L 209.02254 262.3606 L 147.34885 270.1677 L 126.790958 277.4737 L 106.23306 238.4769 L 85.67516 230.34952 L 65.11727 218.03072 L 44.559377 205.71192 Z " fill="#1f77b4" fill-opacity=".02"/>
<path transform="matrix(1,0,0,-1,0,375.23188)" stroke-width="1" stroke-linecap="butt" stroke-linejoin="round" fill="none" stroke="#1f77b4" stroke-opacity=".02" d="M 44.559377 205.71192 L 44.559377 205.71192 L 65.11727 218.03072 L 85.67516 230.34952 L 106.23306 157.40082 L 126.790958 235.52478 L 147.34885 230.39035 L 209.02254 224.48552 L 229.58043 234.74098 L 250.13832 227.0151 L 291.25413 235.54785 L 311.812 235.98148 L 352.9278 230.9535 L 373.4857 238.50612 L 435.15937 241.2413 L 435.15937 269.7635 L 373.4857 269.0601 L 352.9278 261.4265 L 311.812 267.3507 L 291.25413 268.94606 L 250.13832 262.01289 L 229.58043 270.9608 L 209.02254 262.3606 L 147.34885 270.1677 L 126.790958 277.4737 L 106.23306 238.4769 L 85.67516 230.34952 L 65.11727 218.03072 L 44.559377 205.71192 Z "/>
</g>
</g>
<clipPath id="cp17">
<path transform="matrix(1,0,0,-1,0,375.23188)" d="M 44.559377 41.871877 L 435.1594 41.871877 L 435.1594 368.0319 L 44.559377 368.0319 Z "/>
</clipPath>
<g clip-path="url(#cp17)">
<g>
<path transform="matrix(1,0,0,-1,0,375.23188)" d="M 44.559377 205.71192 L 44.559377 205.71192 L 65.11727 218.03072 L 85.67516 230.34952 L 106.23306 249.1083 L 126.790958 229.25505 L 147.34885 222.7134 L 188.46465 224.41678 L 209.02254 227.30086 L 229.58043 224.05397 L 250.13832 233.61724 L 291.25413 239.59838 L 311.812 238.59416 L 332.3699 233.3804 L 352.9278 236.49686 L 394.04359 241.46265 L 414.60148 240.32599 L 435.15937 234.91446 L 435.15937 263.43666 L 414.60148 269.79637 L 394.04359 270.42298 L 352.9278 266.96989 L 332.3699 265.1811 L 311.812 269.9634 L 291.25413 272.99656 L 250.13832 268.61503 L 229.58043 260.27378 L 209.02254 265.17594 L 188.46465 262.01564 L 147.34885 262.49073 L 126.790958 271.20399 L 106.23306 330.1844 L 85.67516 230.34952 L 65.11727 218.03072 L 44.559377 205.71192 Z " fill="#1f77b4" fill-opacity=".02"/>
<path transform="matrix(1,0,0,-1,0,375.23188)" stroke-width="1" stroke-linecap="butt" stroke-linejoin="round" fill="none" stroke="#1f77b4" stroke-opacity=".02" d="M 44.559377 205.71192 L 44.559377 205.71192 L 65.11727 218.03072 L 85.67516 230.34952 L 106.23306 249.1083 L 126.790958 229.25505 L 147.34885 222.7134 L 188.46465 224.41678 L 209.02254 227.30086 L 229.58043 224.05397 L 250.13832 233.61724 L 291.25413 239.59838 L 311.812 238.59416 L 332.3699 233.3804 L 352.9278 236.49686 L 394.04359 241.46265 L 414.60148 240.32599 L 435.15937 234.91446 L 435.15937 263.43666 L 414.60148 269.79637 L 394.04359 270.42298 L 352.9278 266.96989 L 332.3699 265.1811 L 311.812 269.9634 L 291.25413 272.99656 L 250.13832 268.61503 L 229.58043 260.27378 L 209.02254 265.17594 L 188.46465 262.01564 L 147.34885 262.49073 L 126.790958 271.20399 L 106.23306 330.1844 L 85.67516 230.34952 L 65.11727 218.03072 L 44.559377 205.71192 Z "/>
</g>
</g>
<clipPath id="cp18">
<path transform="matrix(1,0,0,-1,0,375.23188)" d="M 44.559377 41.871877 L 435.1594 41.871877 L 435.1594 368.0319 L 44.559377 368.0319 Z "/>
</clipPath>
<g clip-path="url(#cp18)">
<g>
<path transform="matrix(1,0,0,-1,0,375.23188)" d="M 44.559377 205.71192 L 44.559377 205.71192 L 65.11727 218.03072 L 85.67516 230.34952 L 106.23306 215.82752 L 126.790958 224.10341 L 147.34885 225.86307 L 167.90674 231.98465 L 188.46465 227.9345 L 229.58043 233.16083 L 270.69624 231.9312 L 291.25413 236.51073 L 311.812 232.49665 L 332.3699 232.12793 L 373.4857 238.5217 L 394.04359 238.18672 L 414.60148 244.09546 L 435.15937 234.78699 L 435.15937 263.30918 L 414.60148 273.56584 L 394.04359 267.14704 L 373.4857 269.07569 L 332.3699 263.92863 L 311.812 263.86589 L 291.25413 269.9089 L 270.69624 266.17323 L 229.58043 269.3806 L 188.46465 265.53334 L 167.90674 270.9945 L 147.34885 265.6404 L 126.790958 266.05235 L 106.23306 296.9036 L 85.67516 230.34952 L 65.11727 218.03072 L 44.559377 205.71192 Z " fill="#1f77b4" fill-opacity=".02"/>
<path transform="matrix(1,0,0,-1,0,375.23188)" stroke-width="1" stroke-linecap="butt" stroke-linejoin="round" fill="none" stroke="#1f77b4" stroke-opacity=".02" d="M 44.559377 205.71192 L 44.559377 205.71192 L 65.11727 218.03072 L 85.67516 230.34952 L 106.23306 215.82752 L 126.790958 224.10341 L 147.34885 225.86307 L 167.90674 231.98465 L 188.46465 227.9345 L 229.58043 233.16083 L 270.69624 231.9312 L 291.25413 236.51073 L 311.812 232.49665 L 332.3699 232.12793 L 373.4857 238.5217 L 394.04359 238.18672 L 414.60148 244.09546 L 435.15937 234.78699 L 435.15937 263.30918 L 414.60148 273.56584 L 394.04359 267.14704 L 373.4857 269.07569 L 332.3699 263.92863 L 311.812 263.86589 L 291.25413 269.9089 L 270.69624 266.17323 L 229.58043 269.3806 L 188.46465 265.53334 L 167.90674 270.9945 L 147.34885 265.6404 L 126.790958 266.05235 L 106.23306 296.9036 L 85.67516 230.34952 L 65.11727 218.03072 L 44.559377 205.71192 Z "/>
</g>
</g>
<clipPath id="cp19">
<path transform="matrix(1,0,0,-1,0,375.23188)" d="M 44.559377 41.871877 L 435.1594 41.871877 L 435.1594 368.0319 L 44.559377 368.0319 Z "/>
</clipPath>
<g clip-path="url(#cp19)">
<g>
<path transform="matrix(1,0,0,-1,0,375.23188)" d="M 44.559377 205.71192 L 44.559377 205.71192 L 85.67516 273.37294 L 106.23306 192.77446 L 126.790958 227.51453 L 147.34885 226.97246 L 167.90674 228.86676 L 188.46465 231.59236 L 229.58043 225.54245 L 250.13832 230.6837 L 270.69624 224.94493 L 311.812 235.27169 L 352.9278 233.81813 L 394.04359 238.94948 L 435.15937 239.0897 L 435.15937 267.6119 L 394.04359 267.9098 L 352.9278 264.29118 L 311.812 266.64094 L 270.69624 259.18696 L 250.13832 265.6815 L 229.58043 261.76225 L 188.46465 269.19123 L 167.90674 267.87663 L 147.34885 266.7498 L 126.790958 269.46345 L 106.23306 273.85054 L 85.67516 291.15916 L 44.559377 205.71192 Z " fill="#1f77b4" fill-opacity=".02"/>
<path transform="matrix(1,0,0,-1,0,375.23188)" stroke-width="1" stroke-linecap="butt" stroke-linejoin="round" fill="none" stroke="#1f77b4" stroke-opacity=".02" d="M 44.559377 205.71192 L 44.559377 205.71192 L 85.67516 273.37294 L 106.23306 192.77446 L 126.790958 227.51453 L 147.34885 226.97246 L 167.90674 228.86676 L 188.46465 231.59236 L 229.58043 225.54245 L 250.13832 230.6837 L 270.69624 224.94493 L 311.812 235.27169 L 352.9278 233.81813 L 394.04359 238.94948 L 435.15937 239.0897 L 435.15937 267.6119 L 394.04359 267.9098 L 352.9278 264.29118 L 311.812 266.64094 L 270.69624 259.18696 L 250.13832 265.6815 L 229.58043 261.76225 L 188.46465 269.19123 L 167.90674 267.87663 L 147.34885 266.7498 L 126.790958 269.46345 L 106.23306 273.85054 L 85.67516 291.15916 L 44.559377 205.71192 Z "/>
</g>
</g>
<clipPath id="cp20">
<path transform="matrix(1,0,0,-1,0,375.23188)" d="M 44.559377 41.871877 L 435.1594 41.871877 L 435.1594 368.0319 L 44.559377 368.0319 Z "/>
</clipPath>
<g clip-path="url(#cp20)">
<g>
<path transform="matrix(1,0,0,-1,0,375.23188)" d="M 44.559377 205.71192 L 44.559377 205.71192 L 65.11727 218.03072 L 85.67516 230.34952 L 106.23306 235.77603 L 126.790958 237.4945 L 147.34885 238.0252 L 167.90674 237.71173 L 188.46465 238.327 L 209.02254 237.64994 L 229.58043 238.37299 L 250.13832 237.6926 L 270.69624 238.25635 L 291.25413 237.92407 L 311.812 238.67523 L 332.3699 238.2013 L 352.9278 238.22835 L 373.4857 238.43926 L 394.04359 238.47185 L 414.60148 238.2497 L 435.15937 238.21842 L 435.15937 264.18315 L 414.60148 265.19813 L 394.04359 263.95957 L 373.4857 265.83387 L 352.9278 265.81559 L 332.3699 263.99147 L 311.812 265.26524 L 291.25413 263.49043 L 270.69624 264.5144 L 250.13832 264.47795 L 229.58043 264.90498 L 209.02254 263.45439 L 188.46465 264.88163 L 167.90674 264.0584 L 147.34885 264.36744 L 126.790958 264.1418 L 106.23306 267.37608 L 85.67516 230.34952 L 65.11727 218.03072 L 44.559377 205.71192 Z " fill="#ff7f0e" fill-opacity=".5"/>
<path transform="matrix(1,0,0,-1,0,375.23188)" stroke-width="1" stroke-linecap="butt" stroke-linejoin="round" fill="none" stroke="#ff7f0e" stroke-opacity=".5" d="M 44.559377 205.71192 L 44.559377 205.71192 L 65.11727 218.03072 L 85.67516 230.34952 L 106.23306 235.77603 L 126.790958 237.4945 L 147.34885 238.0252 L 167.90674 237.71173 L 188.46465 238.327 L 209.02254 237.64994 L 229.58043 238.37299 L 250.13832 237.6926 L 270.69624 238.25635 L 291.25413 237.92407 L 311.812 238.67523 L 332.3699 238.2013 L 352.9278 238.22835 L 373.4857 238.43926 L 394.04359 238.47185 L 414.60148 238.2497 L 435.15937 238.21842 L 435.15937 264.18315 L 414.60148 265.19813 L 394.04359 263.95957 L 373.4857 265.83387 L 352.9278 265.81559 L 332.3699 263.99147 L 311.812 265.26524 L 291.25413 263.49043 L 270.69624 264.5144 L 250.13832 264.47795 L 229.58043 264.90498 L 209.02254 263.45439 L 188.46465 264.88163 L 167.90674 264.0584 L 147.34885 264.36744 L 126.790958 264.1418 L 106.23306 267.37608 L 85.67516 230.34952 L 65.11727 218.03072 L 44.559377 205.71192 Z "/>
</g>
</g>
<path transform="matrix(1,0,0,-1,0,375.23188)" d="M 83.61938 41.871877 L 83.61938 38.371877 "/>
<path transform="matrix(1,0,0,-1,0,375.23188)" stroke-width=".8" stroke-linecap="butt" stroke-linejoin="round" fill="none" stroke="#000000" d="M 83.61938 41.871877 L 83.61938 38.371877 "/>
<symbol id="font_15_34">
<path transform="matrix(.001,0,0,.001,-.049000004,0)" d="M 378 643 L 129 254 L 378 254 L 378 643 M 352 729 L 476 729 L 476 254 L 580 254 L 580 172 L 476 172 L 476 0 L 378 0 L 378 172 L 49 172 L 49 267 L 352 729 "/>
</symbol>
<use xlink:href="#font_15_34" transform="matrix(10,0,0,-10,80.92969,347.95375)"/>
<path transform="matrix(1,0,0,-1,0,375.23188)" d="M 161.73938 41.871877 L 161.73938 38.371877 "/>
<path transform="matrix(1,0,0,-1,0,375.23188)" stroke-width=".8" stroke-linecap="butt" stroke-linejoin="round" fill="none" stroke="#000000" d="M 161.73938 41.871877 L 161.73938 38.371877 "/>
<symbol id="font_15_35">
<path transform="matrix(.001,0,0,.001,-.07700001,.013)" d="M 108 729 L 495 729 L 495 646 L 198 646 L 198 467 C 212 472 227 476 241 478 C 255 480 270 482 284 482 C 365 482 429 459 477 415 C 525 370 549 310 549 234 C 549 155 524 94 475 51 C 426 8 357 -13 269 -13 C 238 -13 207 -10 175 -6 C 143 -1 111 6 77 17 L 77 116 C 106 100 136 88 168 80 C 199 72 232 69 267 69 C 323 69 368 83 401 113 C 433 143 450 183 450 234 C 450 284 433 324 401 354 C 368 384 323 399 267 399 C 241 399 214 396 188 390 C 162 384 135 375 108 363 L 108 729 "/>
</symbol>
<use xlink:href="#font_15_35" transform="matrix(10,0,0,-10,159.3297,348.08375)"/>
<path transform="matrix(1,0,0,-1,0,375.23188)" d="M 239.85938 41.871877 L 239.85938 38.371877 "/>
<path transform="matrix(1,0,0,-1,0,375.23188)" stroke-width=".8" stroke-linecap="butt" stroke-linejoin="round" fill="none" stroke="#000000" d="M 239.85938 41.871877 L 239.85938 38.371877 "/>
<symbol id="font_15_36">
<path transform="matrix(.001,0,0,.001,-.07,.013)" d="M 330 404 C 286 404 251 388 225 358 C 199 328 186 286 186 234 C 186 181 199 139 225 109 C 251 79 286 64 330 64 C 374 64 409 79 435 109 C 461 139 474 181 474 234 C 474 286 461 328 435 358 C 409 388 374 404 330 404 M 526 713 L 526 623 C 501 635 476 644 451 650 C 425 656 400 659 376 659 C 310 659 260 637 226 593 C 192 549 172 482 168 394 C 187 422 211 444 240 459 C 269 474 301 482 336 482 C 409 482 467 459 509 415 C 551 371 573 310 573 234 C 573 159 550 99 506 54 C 462 9 403 -13 330 -13 C 246 -13 181 19 137 83 C 92 147 70 241 70 364 C 70 479 97 571 152 639 C 206 707 280 742 372 742 C 396 742 421 739 447 735 C 472 730 498 723 526 713 "/>
</symbol>
<use xlink:href="#font_15_36" transform="matrix(10,0,0,-10,237.37969,348.08375)"/>
<path transform="matrix(1,0,0,-1,0,375.23188)" d="M 317.97938 41.871877 L 317.97938 38.371877 "/>
<path transform="matrix(1,0,0,-1,0,375.23188)" stroke-width=".8" stroke-linecap="butt" stroke-linejoin="round" fill="none" stroke="#000000" d="M 317.97938 41.871877 L 317.97938 38.371877 "/>
<symbol id="font_15_37">
<path transform="matrix(.001,0,0,.001,-.082,0)" d="M 82 729 L 551 729 L 551 687 L 286 0 L 183 0 L 432 646 L 82 646 L 82 729 "/>
</symbol>
<use xlink:href="#font_15_37" transform="matrix(10,0,0,-10,315.6197,347.95375)"/>
<path transform="matrix(1,0,0,-1,0,375.23188)" d="M 396.09938 41.871877 L 396.09938 38.371877 "/>
<path transform="matrix(1,0,0,-1,0,375.23188)" stroke-width=".8" stroke-linecap="butt" stroke-linejoin="round" fill="none" stroke="#000000" d="M 396.09938 41.871877 L 396.09938 38.371877 "/>
<symbol id="font_15_38">
<path transform="matrix(.001,0,0,.001,-.068,.013)" d="M 318 346 C 271 346 234 333 207 308 C 180 283 167 249 167 205 C 167 161 180 126 207 101 C 234 76 271 64 318 64 C 364 64 401 76 428 102 C 455 127 469 161 469 205 C 469 249 455 283 429 308 C 402 333 365 346 318 346 M 219 388 C 177 398 144 418 120 447 C 96 476 85 511 85 553 C 85 611 105 657 147 691 C 188 725 245 742 318 742 C 390 742 447 725 489 691 C 530 657 551 611 551 553 C 551 511 539 476 515 447 C 491 418 459 398 417 388 C 464 377 501 355 528 323 C 554 291 568 251 568 205 C 568 134 546 80 503 43 C 459 5 398 -13 318 -13 C 237 -13 175 5 132 43 C 89 80 68 134 68 205 C 68 251 81 291 108 323 C 134 355 171 377 219 388 M 183 544 C 183 506 194 476 218 455 C 242 434 275 424 318 424 C 360 424 393 434 417 455 C 441 476 453 506 453 544 C 453 582 441 611 417 632 C 393 653 360 664 318 664 C 275 664 242 653 218 632 C 194 611 183 582 183 544 "/>
</symbol>
<use xlink:href="#font_15_38" transform="matrix(10,0,0,-10,393.59968,348.08375)"/>
<symbol id="font_15_20">
</symbol>
<symbol id="font_15_28">
<path transform="matrix(.001,0,0,.001,-.086,.13100001)" d="M 310 759 C 266 683 234 609 213 536 C 191 463 181 389 181 314 C 181 238 191 164 213 91 C 234 17 266 -56 310 -131 L 232 -131 C 183 -54 146 20 122 94 C 98 168 86 241 86 314 C 86 386 98 459 122 533 C 146 607 182 682 232 759 L 310 759 "/>
</symbol>
<symbol id="font_15_2f">
<path transform="matrix(.001,0,0,.001,0,.09200001)" d="M 254 729 L 337 729 L 83 -92 L 0 -92 L 254 729 "/>
</symbol>
<symbol id="font_15_6b">
<path transform="matrix(.001,0,0,.001,-.091000009,0)" d="M 91 760 L 181 760 L 181 311 L 449 547 L 564 547 L 274 291 L 576 0 L 459 0 L 181 267 L 181 0 L 91 0 L 91 760 "/>
</symbol>
<symbol id="font_15_67">
<path transform="matrix(.001,0,0,.001,-.055000005,.20700002)" d="M 454 280 C 454 344 440 395 414 431 C 387 467 349 485 301 485 C 253 485 215 467 188 431 C 161 395 148 344 148 280 C 148 215 161 165 188 129 C 215 93 253 75 301 75 C 349 75 387 93 414 129 C 440 165 454 215 454 280 M 544 68 C 544 -24 523 -93 482 -139 C 440 -184 377 -207 292 -207 C 260 -207 231 -204 203 -200 C 175 -195 147 -188 121 -178 L 121 -91 C 147 -105 173 -115 199 -122 C 225 -129 251 -133 278 -133 C 336 -133 380 -117 410 -87 C 439 -56 454 -10 454 52 L 454 96 C 435 64 411 40 382 24 C 353 8 319 0 279 0 C 211 0 157 25 116 76 C 75 127 55 195 55 280 C 55 364 75 432 116 483 C 157 534 211 560 279 560 C 319 560 353 552 382 536 C 411 520 435 496 454 464 L 454 547 L 544 547 L 544 68 "/>
</symbol>
<symbol id="font_15_29">
<path transform="matrix(.001,0,0,.001,-.080000009,.13100001)" d="M 80 759 L 158 759 C 206 682 243 607 267 533 C 291 459 304 386 304 314 C 304 241 291 168 267 94 C 243 20 206 -54 158 -131 L 80 -131 C 123 -56 155 17 177 91 C 198 164 209 238 209 314 C 209 389 198 463 177 536 C 155 609 123 683 80 759 "/>
</symbol>
<use xlink:href="#font_15_20" transform="matrix(14,0,0,-14,206.35053,371.15449)"/>
<use xlink:href="#font_15_28" transform="matrix(14,0,0,-14,226.29872,366.5065)"/>
<use xlink:href="#font_15_2f" transform="matrix(14,0,0,-14,239.46387,365.96049)"/>
<use xlink:href="#font_15_6b" transform="matrix(14,0,0,-14,245.45467,364.6725)"/>
<use xlink:href="#font_15_67" transform="matrix(14,0,0,-14,253.05809,367.5705)"/>
<use xlink:href="#font_15_29" transform="matrix(14,0,0,-14,262.2948,366.5065)"/>
<clipPath id="cp22">
<path transform="matrix(.014,0,0,-.014,212.35938,364.6725)" d="M -1016 -351 L 1660 -351 L 1660 1068 L -1016 1068 Z "/>
</clipPath>
<g clip-path="url(#cp22)">
<path transform="matrix(.014,0,0,-.014,212.35938,364.6725)" d="M 367 674 L 488 0 L 393 0 L 318 404 L 51 0 L -43 0 L 297 524 L 280 621 C 273 662 252 683 217 683 L 170 683 L 185 760 L 242 759 C 315 757 357 729 367 674 "/>
</g>
<clipPath id="cp23">
<path transform="matrix(.014,0,0,-.014,230.55664,364.6725)" d="M -1021 -463 L 1794 -463 L 1794 1233 L -1021 1233 Z "/>
</clipPath>
<g clip-path="url(#cp23)">
<path transform="matrix(.014,0,0,-.014,230.55664,364.6725)" d="M 570 673 L 570 569 C 540 603 511 627 484 642 C 456 656 426 664 393 664 C 341 664 299 647 267 615 C 234 582 212 535 202 475 L 484 475 L 457 415 L 194 415 C 193 407 193 399 193 392 C 193 384 193 375 193 364 C 193 353 193 344 193 337 C 193 329 193 322 194 314 L 412 314 L 385 254 L 202 254 C 212 193 234 146 267 113 C 299 80 341 64 393 64 C 426 64 456 71 484 86 C 511 100 540 125 570 159 L 570 56 C 540 32 511 15 481 4 C 451 -7 420 -13 389 -13 C 311 -13 248 10 198 57 C 148 103 116 169 103 254 L 0 254 L 27 314 L 95 314 C 95 321 94 328 94 336 C 94 344 94 353 94 364 C 94 375 94 384 94 392 C 94 400 95 407 95 415 L 0 415 L 27 475 L 103 475 C 116 559 148 624 198 671 C 248 718 312 742 389 742 C 421 742 452 736 482 725 C 512 713 541 696 570 673 "/>
</g>
<path transform="matrix(1,0,0,-1,0,375.23188)" d="M 44.559377 41.871877 L 41.059377 41.871877 "/>
<path transform="matrix(1,0,0,-1,0,375.23188)" stroke-width=".8" stroke-linecap="butt" stroke-linejoin="round" fill="none" stroke="#000000" d="M 44.559377 41.871877 L 41.059377 41.871877 "/>
<symbol id="font_15_30">
<path transform="matrix(.001,0,0,.001,-.066,.013)" d="M 318 664 C 267 664 229 639 203 589 C 177 539 165 464 165 364 C 165 264 177 189 203 139 C 229 89 267 64 318 64 C 369 64 407 89 433 139 C 458 189 471 264 471 364 C 471 464 458 539 433 589 C 407 639 369 664 318 664 M 318 742 C 399 742 461 709 505 645 C 548 580 570 486 570 364 C 570 241 548 147 505 83 C 461 19 399 -13 318 -13 C 236 -13 173 19 130 83 C 87 147 66 241 66 364 C 66 486 87 580 130 645 C 173 709 236 742 318 742 "/>
</symbol>
<use xlink:href="#font_15_30" transform="matrix(10,0,0,-10,31.86,337.28688)"/>
<path transform="matrix(1,0,0,-1,0,375.23188)" d="M 44.559377 88.68331 L 41.059377 88.68331 "/>
<path transform="matrix(1,0,0,-1,0,375.23188)" stroke-width=".8" stroke-linecap="butt" stroke-linejoin="round" fill="none" stroke="#000000" d="M 44.559377 88.68331 L 41.059377 88.68331 "/>
<symbol id="font_15_31">
<path transform="matrix(.001,0,0,.001,-.11000001,0)" d="M 124 83 L 285 83 L 285 639 L 110 604 L 110 694 L 284 729 L 383 729 L 383 83 L 544 83 L 544 0 L 124 0 L 124 83 "/>
</symbol>
<use xlink:href="#font_15_31" transform="matrix(10,0,0,-10,32.3,290.34544)"/>
<path transform="matrix(1,0,0,-1,0,375.23188)" d="M 44.559377 135.49475 L 41.059377 135.49475 "/>
<path transform="matrix(1,0,0,-1,0,375.23188)" stroke-width=".8" stroke-linecap="butt" stroke-linejoin="round" fill="none" stroke="#000000" d="M 44.559377 135.49475 L 41.059377 135.49475 "/>
<symbol id="font_15_32">
<path transform="matrix(.001,0,0,.001,-.07300001,0)" d="M 192 83 L 536 83 L 536 0 L 73 0 L 73 83 C 110 121 161 173 226 239 C 290 304 331 346 348 365 C 380 400 402 430 414 455 C 426 479 433 504 433 528 C 433 566 419 598 392 622 C 365 646 330 659 286 659 C 255 659 222 653 188 643 C 154 632 117 616 78 594 L 78 694 C 118 710 155 722 189 730 C 223 738 255 742 284 742 C 359 742 419 723 464 685 C 509 647 532 597 532 534 C 532 504 526 475 515 449 C 504 422 484 390 454 354 C 446 344 420 317 376 272 C 332 227 271 164 192 83 "/>
</symbol>
<use xlink:href="#font_15_32" transform="matrix(10,0,0,-10,31.93,243.534)"/>
<path transform="matrix(1,0,0,-1,0,375.23188)" d="M 44.559377 182.3062 L 41.059377 182.3062 "/>
<path transform="matrix(1,0,0,-1,0,375.23188)" stroke-width=".8" stroke-linecap="butt" stroke-linejoin="round" fill="none" stroke="#000000" d="M 44.559377 182.3062 L 41.059377 182.3062 "/>
<symbol id="font_15_33">
<path transform="matrix(.001,0,0,.001,-.076000008,.013)" d="M 406 393 C 453 383 490 362 516 330 C 542 298 556 258 556 212 C 556 140 531 84 482 45 C 432 6 362 -13 271 -13 C 240 -13 208 -10 176 -4 C 144 1 110 10 76 22 L 76 117 C 103 101 133 89 166 81 C 198 73 232 69 268 69 C 330 69 377 81 409 105 C 441 129 458 165 458 212 C 458 254 443 288 413 312 C 383 336 341 349 287 349 L 202 349 L 202 430 L 291 430 C 339 430 376 439 402 459 C 428 478 441 506 441 543 C 441 580 427 609 401 629 C 374 649 336 659 287 659 C 260 659 231 656 200 650 C 169 644 135 635 98 623 L 98 711 C 135 721 170 729 203 734 C 235 739 266 742 296 742 C 370 742 429 725 473 691 C 517 657 539 611 539 553 C 539 513 527 479 504 451 C 481 423 448 403 406 393 "/>
</symbol>
<use xlink:href="#font_15_33" transform="matrix(10,0,0,-10,31.960001,196.85256)"/>
<path transform="matrix(1,0,0,-1,0,375.23188)" d="M 44.559377 229.11763 L 41.059377 229.11763 "/>
<path transform="matrix(1,0,0,-1,0,375.23188)" stroke-width=".8" stroke-linecap="butt" stroke-linejoin="round" fill="none" stroke="#000000" d="M 44.559377 229.11763 L 41.059377 229.11763 "/>
<use xlink:href="#font_15_34" transform="matrix(10,0,0,-10,31.69,149.91112)"/>
<path transform="matrix(1,0,0,-1,0,375.23188)" d="M 44.559377 275.92909 L 41.059377 275.92909 "/>
<path transform="matrix(1,0,0,-1,0,375.23188)" stroke-width=".8" stroke-linecap="butt" stroke-linejoin="round" fill="none" stroke="#000000" d="M 44.559377 275.92909 L 41.059377 275.92909 "/>
<use xlink:href="#font_15_35" transform="matrix(10,0,0,-10,31.970002,103.22967)"/>
<path transform="matrix(1,0,0,-1,0,375.23188)" d="M 44.559377 322.7405 L 41.059377 322.7405 "/>
<path transform="matrix(1,0,0,-1,0,375.23188)" stroke-width=".8" stroke-linecap="butt" stroke-linejoin="round" fill="none" stroke="#000000" d="M 44.559377 322.7405 L 41.059377 322.7405 "/>
<use xlink:href="#font_15_36" transform="matrix(10,0,0,-10,31.900002,56.41824)"/>
<symbol id="font_15_4c">
<path transform="matrix(.001,0,0,.001,-.098000008,0)" d="M 98 729 L 197 729 L 197 83 L 552 83 L 552 0 L 98 0 L 98 729 "/>
</symbol>
<symbol id="font_15_43">
<path transform="matrix(.001,0,0,.001,-.056,.013)" d="M 644 673 L 644 569 C 610 599 575 622 537 638 C 499 653 460 661 418 661 C 334 661 270 635 226 584 C 182 533 160 460 160 364 C 160 268 182 194 226 143 C 270 92 334 67 418 67 C 460 67 499 74 537 90 C 575 105 610 128 644 159 L 644 56 C 609 32 572 15 534 4 C 496 -7 455 -13 412 -13 C 302 -13 215 20 151 87 C 87 154 56 246 56 364 C 56 481 87 573 151 641 C 215 708 302 742 412 742 C 456 742 497 736 535 725 C 573 713 610 696 644 673 "/>
</symbol>
<symbol id="font_15_6f">
<path transform="matrix(.001,0,0,.001,-.055000005,.013)" d="M 306 484 C 258 484 220 465 192 427 C 164 389 150 338 150 273 C 150 207 163 156 191 118 C 219 80 257 62 306 62 C 354 62 392 80 420 118 C 448 156 462 207 462 273 C 462 337 448 389 420 427 C 392 465 354 484 306 484 M 306 560 C 384 560 445 534 490 484 C 534 433 557 363 557 273 C 557 183 534 113 490 63 C 445 12 384 -13 306 -13 C 227 -13 165 12 121 63 C 77 113 55 183 55 273 C 55 363 77 433 121 484 C 165 534 227 560 306 560 "/>
</symbol>
<symbol id="font_15_48">
<path transform="matrix(.001,0,0,.001,-.098000008,0)" d="M 98 729 L 197 729 L 197 430 L 555 430 L 555 729 L 654 729 L 654 0 L 555 0 L 555 347 L 197 347 L 197 0 L 98 0 L 98 729 "/>
</symbol>
<use xlink:href="#font_15_4c" transform="matrix(0,-14,-14,-0,17.840626,213.908)"/>
<use xlink:href="#font_15_43" transform="matrix(0,-14,-14,-0,18.022625,206.6962)"/>
<use xlink:href="#font_15_6f" transform="matrix(0,-14,-14,-0,18.022625,196.9348)"/>
<use xlink:href="#font_15_48" transform="matrix(0,-14,-14,-0,17.840626,187.76738)"/>
<use xlink:href="#font_15_32" transform="matrix(0,-9.8,-9.8,-0,20.1375,177.76265)"/>
<use xlink:href="#font_15_20" transform="matrix(0,-14,-14,-0,24.322627,186.15418)"/>
<use xlink:href="#font_15_28" transform="matrix(0,-14,-14,-0,19.674626,166.20598)"/>
<use xlink:href="#font_15_2f" transform="matrix(0,-14,-14,-0,19.128626,153.04084)"/>
<use xlink:href="#font_15_6b" transform="matrix(0,-14,-14,-0,17.840626,147.05004)"/>
<use xlink:href="#font_15_67" transform="matrix(0,-14,-14,-0,20.738627,139.44661)"/>
<use xlink:href="#font_15_29" transform="matrix(0,-14,-14,-0,19.674626,130.2099)"/>
<clipPath id="cp24">
<path transform="matrix(0,-.014,-.014,-0,17.840626,161.94806)" d="M -1021 -463 L 1794 -463 L 1794 1233 L -1021 1233 Z "/>
</clipPath>
<g clip-path="url(#cp24)">
<path transform="matrix(0,-.014,-.014,-0,17.840626,161.94806)" d="M 570 673 L 570 569 C 540 603 511 627 484 642 C 456 656 426 664 393 664 C 341 664 299 647 267 615 C 234 582 212 535 202 475 L 484 475 L 457 415 L 194 415 C 193 407 193 399 193 392 C 193 384 193 375 193 364 C 193 353 193 344 193 337 C 193 329 193 322 194 314 L 412 314 L 385 254 L 202 254 C 212 193 234 146 267 113 C 299 80 341 64 393 64 C 426 64 456 71 484 86 C 511 100 540 125 570 159 L 570 56 C 540 32 511 15 481 4 C 451 -7 420 -13 389 -13 C 311 -13 248 10 198 57 C 148 103 116 169 103 254 L 0 254 L 27 314 L 95 314 C 95 321 94 328 94 336 C 94 344 94 353 94 364 C 94 375 94 384 94 392 C 94 400 95 407 95 415 L 0 415 L 27 475 L 103 475 C 116 559 148 624 198 671 C 248 718 312 742 389 742 C 421 742 452 736 482 725 C 512 713 541 696 570 673 "/>
</g>
<clipPath id="cp25">
<path transform="matrix(1,0,0,-1,0,375.23188)" d="M 44.559377 41.871877 L 435.1594 41.871877 L 435.1594 368.0319 L 44.559377 368.0319 Z "/>
</clipPath>
<g clip-path="url(#cp25)">
<path transform="matrix(1,0,0,-1,0,375.23188)" stroke-width="2" stroke-linecap="square" stroke-linejoin="round" fill="none" stroke="#1f77b4" stroke-opacity=".75" d="M 44.559377 205.71192 L 65.11727 218.03072 L 85.67516 277.478 L 106.23306 195.24858 L 126.790958 218.83715 L 147.34885 243.19326 L 167.90674 249.39499 L 188.46465 243.3593 L 209.02254 247.58214 L 229.58043 252.18224 L 270.69624 248.76624 L 311.812 248.2089 L 332.3699 250.63382 L 352.9278 246.55278 L 373.4857 238.4395 "/>
</g>
<clipPath id="cp26">
<path transform="matrix(1,0,0,-1,0,375.23188)" d="M 44.559377 41.871877 L 435.1594 41.871877 L 435.1594 368.0319 L 44.559377 368.0319 Z "/>
</clipPath>
<g clip-path="url(#cp26)">
<path transform="matrix(1,0,0,-1,0,375.23188)" stroke-width="2" stroke-linecap="square" stroke-linejoin="round" fill="none" stroke="#1f77b4" stroke-opacity=".75" d="M 44.559377 205.71192 L 65.11727 218.03072 L 85.67516 230.34952 L 106.23306 276.04676 L 126.790958 244.97649 L 147.34885 254.99333 L 167.90674 244.55666 L 188.46465 253.94187 L 209.02254 247.41155 L 229.58043 246.94255 L 250.13832 263.26527 L 291.25413 249.7358 L 311.812 251.06247 L 332.3699 254.32309 L 352.9278 255.89127 L 394.04359 252.34145 "/>
</g>
<clipPath id="cp27">
<path transform="matrix(1,0,0,-1,0,375.23188)" d="M 44.559377 41.871877 L 435.1594 41.871877 L 435.1594 368.0319 L 44.559377 368.0319 Z "/>
</clipPath>
<g clip-path="url(#cp27)">
<path transform="matrix(1,0,0,-1,0,375.23188)" stroke-width="2" stroke-linecap="square" stroke-linejoin="round" fill="none" stroke="#1f77b4" stroke-opacity=".75" d="M 44.559377 205.71192 L 65.11727 218.03072 L 85.67516 230.34952 L 106.23306 236.51335 L 126.790958 251.6624 L 147.34885 241.66889 L 167.90674 249.71012 L 209.02254 248.78585 L 229.58043 238.0248 L 250.13832 245.99007 L 291.25413 249.34477 L 311.812 252.95198 L 332.3699 250.18412 "/>
</g>
<clipPath id="cp28">
<path transform="matrix(1,0,0,-1,0,375.23188)" d="M 44.559377 41.871877 L 435.1594 41.871877 L 435.1594 368.0319 L 44.559377 368.0319 Z "/>
</clipPath>
<g clip-path="url(#cp28)">
<path transform="matrix(1,0,0,-1,0,375.23188)" stroke-width="2" stroke-linecap="square" stroke-linejoin="round" fill="none" stroke="#1f77b4" stroke-opacity=".75" d="M 44.559377 205.71192 L 65.11727 218.03072 L 85.67516 230.34952 L 106.23306 261.61595 L 126.790958 243.93135 L 147.34885 249.52974 L 167.90674 246.98467 L 188.46465 247.01789 L 209.02254 243.28353 L 250.13832 253.82018 L 270.69624 251.29892 L 311.812 252.86038 L 332.3699 248.82318 L 352.9278 247.6798 L 373.4857 246.62287 L 414.60148 253.39232 "/>
</g>
<clipPath id="cp29">
<path transform="matrix(1,0,0,-1,0,375.23188)" d="M 44.559377 41.871877 L 435.1594 41.871877 L 435.1594 368.0319 L 44.559377 368.0319 Z "/>
</clipPath>
<g clip-path="url(#cp29)">
<path transform="matrix(1,0,0,-1,0,375.23188)" stroke-width="2" stroke-linecap="square" stroke-linejoin="round" fill="none" stroke="#1f77b4" stroke-opacity=".75" d="M 44.559377 205.71192 L 65.11727 218.03072 L 85.67516 230.34952 L 106.23306 262.2587 L 126.790958 242.14975 L 147.34885 249.8551 L 167.90674 256.4887 L 188.46465 253.88681 L 209.02254 248.82636 L 229.58043 248.35959 L 250.13832 244.42069 L 270.69624 247.44655 L 291.25413 251.97267 L 311.812 252.14856 L 332.3699 251.72504 L 352.9278 250.27082 L 373.4857 251.66934 L 414.60148 249.3635 L 435.15937 248.87926 "/>
</g>
<clipPath id="cp30">
<path transform="matrix(1,0,0,-1,0,375.23188)" d="M 44.559377 41.871877 L 435.1594 41.871877 L 435.1594 368.0319 L 44.559377 368.0319 Z "/>
</clipPath>
<g clip-path="url(#cp30)">
<path transform="matrix(1,0,0,-1,0,375.23188)" stroke-width="2" stroke-linecap="square" stroke-linejoin="round" fill="none" stroke="#1f77b4" stroke-opacity=".75" d="M 44.559377 205.71192 L 65.11727 218.03072 L 85.67516 230.34952 L 106.23306 289.61039 L 126.790958 253.72499 L 188.46465 247.2508 L 209.02254 252.48288 L 229.58043 242.98699 L 250.13832 245.31838 L 270.69624 249.78614 L 291.25413 250.3968 L 311.812 248.9544 L 332.3699 246.56368 L 352.9278 251.64536 L 414.60148 249.89215 L 435.15937 252.69246 "/>
</g>
<clipPath id="cp31">
<path transform="matrix(1,0,0,-1,0,375.23188)" d="M 44.559377 41.871877 L 435.1594 41.871877 L 435.1594 368.0319 L 44.559377 368.0319 Z "/>
</clipPath>
<g clip-path="url(#cp31)">
<path transform="matrix(1,0,0,-1,0,375.23188)" stroke-width="2" stroke-linecap="square" stroke-linejoin="round" fill="none" stroke="#1f77b4" stroke-opacity=".75" d="M 44.559377 205.71192 L 65.11727 218.03072 L 85.67516 230.34952 L 106.23306 240.30989 L 126.790958 247.03067 L 147.34885 245.75556 L 167.90674 237.51506 L 209.02254 250.781 L 229.58043 244.78833 L 250.13832 248.73117 L 270.69624 243.99915 L 291.25413 260.05265 L 332.3699 244.77428 L 352.9278 249.56627 L 394.04359 249.60666 "/>
</g>
<clipPath id="cp32">
<path transform="matrix(1,0,0,-1,0,375.23188)" d="M 44.559377 41.871877 L 435.1594 41.871877 L 435.1594 368.0319 L 44.559377 368.0319 Z "/>
</clipPath>
<g clip-path="url(#cp32)">
<path transform="matrix(1,0,0,-1,0,375.23188)" stroke-width="2" stroke-linecap="square" stroke-linejoin="round" fill="none" stroke="#1f77b4" stroke-opacity=".75" d="M 44.559377 205.71192 L 65.11727 218.03072 L 85.67516 230.34952 L 106.23306 267.33186 L 126.790958 253.44129 L 147.34885 244.74242 L 167.90674 239.47716 L 188.46465 252.10233 L 229.58043 252.72747 L 250.13832 245.10585 L 291.25413 248.27913 L 352.9278 247.8342 L 414.60148 254.8556 "/>
</g>
<clipPath id="cp33">
<path transform="matrix(1,0,0,-1,0,375.23188)" d="M 44.559377 41.871877 L 435.1594 41.871877 L 435.1594 368.0319 L 44.559377 368.0319 Z "/>
</clipPath>
<g clip-path="url(#cp33)">
<path transform="matrix(1,0,0,-1,0,375.23188)" stroke-width="2" stroke-linecap="square" stroke-linejoin="round" fill="none" stroke="#1f77b4" stroke-opacity=".75" d="M 44.559377 205.71192 L 65.11727 218.03072 L 85.67516 230.34952 L 106.23306 317.3357 L 126.790958 246.43321 L 147.34885 243.82186 L 167.90674 250.38957 L 188.46465 241.06874 L 209.02254 251.9292 L 229.58043 248.98812 L 250.13832 245.01616 L 291.25413 244.87207 L 311.812 245.4729 L 332.3699 249.18608 "/>
</g>
<clipPath id="cp34">
<path transform="matrix(1,0,0,-1,0,375.23188)" d="M 44.559377 41.871877 L 435.1594 41.871877 L 435.1594 368.0319 L 44.559377 368.0319 Z "/>
</clipPath>
<g clip-path="url(#cp34)">
<path transform="matrix(1,0,0,-1,0,375.23188)" stroke-width="2" stroke-linecap="square" stroke-linejoin="round" fill="none" stroke="#1f77b4" stroke-opacity=".75" d="M 44.559377 205.71192 L 65.11727 218.03072 L 85.67516 230.34952 L 106.23306 240.4735 L 126.790958 254.82367 L 147.34885 245.93628 L 167.90674 250.96254 L 188.46465 250.58086 L 209.02254 248.6822 L 229.58043 247.04715 L 250.13832 241.10071 L 270.69624 244.00556 L 291.25413 238.97797 L 311.812 242.96016 L 332.3699 250.05994 L 373.4857 246.64757 L 394.04359 252.49739 L 414.60148 247.9506 "/>
</g>
<clipPath id="cp35">
<path transform="matrix(1,0,0,-1,0,375.23188)" d="M 44.559377 41.871877 L 435.1594 41.871877 L 435.1594 368.0319 L 44.559377 368.0319 Z "/>
</clipPath>
<g clip-path="url(#cp35)">
<path transform="matrix(1,0,0,-1,0,375.23188)" stroke-width="2" stroke-linecap="square" stroke-linejoin="round" fill="none" stroke="#1f77b4" stroke-opacity=".75" d="M 44.559377 205.71192 L 65.11727 218.03072 L 85.67516 230.34952 L 106.23306 269.22068 L 126.790958 248.73662 L 147.34885 252.43094 L 167.90674 245.31572 L 188.46465 245.94226 L 209.02254 247.9565 L 250.13832 244.23665 L 291.25413 251.21643 L 311.812 248.32892 L 332.3699 248.72509 L 352.9278 249.84613 L 373.4857 247.88336 L 394.04359 252.66809 L 414.60148 253.7848 L 435.15937 247.35906 "/>
</g>
<clipPath id="cp36">
<path transform="matrix(1,0,0,-1,0,375.23188)" d="M 44.559377 41.871877 L 435.1594 41.871877 L 435.1594 368.0319 L 44.559377 368.0319 Z "/>
</clipPath>
<g clip-path="url(#cp36)">
<path transform="matrix(1,0,0,-1,0,375.23188)" stroke-width="2" stroke-linecap="square" stroke-linejoin="round" fill="none" stroke="#1f77b4" stroke-opacity=".75" d="M 44.559377 205.71192 L 65.11727 218.03072 L 85.67516 292.74714 L 106.23306 295.67878 L 126.790958 248.35628 L 147.34885 254.24393 L 167.90674 250.29573 L 188.46465 244.48174 L 209.02254 248.93024 L 229.58043 246.14838 L 250.13832 250.17162 L 270.69624 252.60073 L 311.812 244.41457 L 373.4857 249.29381 L 394.04359 246.84473 L 414.60148 255.50469 L 435.15937 246.37958 "/>
</g>
<clipPath id="cp37">
<path transform="matrix(1,0,0,-1,0,375.23188)" d="M 44.559377 41.871877 L 435.1594 41.871877 L 435.1594 368.0319 L 44.559377 368.0319 Z "/>
</clipPath>
<g clip-path="url(#cp37)">
<path transform="matrix(1,0,0,-1,0,375.23188)" stroke-width="2" stroke-linecap="square" stroke-linejoin="round" fill="none" stroke="#1f77b4" stroke-opacity=".75" d="M 44.559377 205.71192 L 65.11727 218.03072 L 85.67516 296.05696 L 106.23306 234.06871 L 126.790958 246.24134 L 147.34885 242.45375 L 167.90674 239.22603 L 188.46465 244.16486 L 229.58043 248.17922 L 270.69624 246.51627 L 291.25413 243.05057 L 311.812 245.60306 L 332.3699 251.48892 L 352.9278 244.63874 L 373.4857 252.18703 L 414.60148 248.98865 L 435.15937 254.83084 "/>
</g>
<clipPath id="cp38">
<path transform="matrix(1,0,0,-1,0,375.23188)" d="M 44.559377 41.871877 L 435.1594 41.871877 L 435.1594 368.0319 L 44.559377 368.0319 Z "/>
</clipPath>
<g clip-path="url(#cp38)">
<path transform="matrix(1,0,0,-1,0,375.23188)" stroke-width="2" stroke-linecap="square" stroke-linejoin="round" fill="none" stroke="#1f77b4" stroke-opacity=".75" d="M 44.559377 205.71192 L 65.11727 218.03072 L 85.67516 230.34952 L 106.23306 306.96028 L 126.790958 249.33127 L 147.34885 249.96726 L 167.90674 246.63614 L 188.46465 251.19098 L 209.02254 250.85968 L 229.58043 253.87152 L 291.25413 252.01198 L 311.812 254.48105 L 373.4857 255.48528 L 394.04359 256.42356 L 435.15937 245.60562 "/>
</g>
<clipPath id="cp39">
<path transform="matrix(1,0,0,-1,0,375.23188)" d="M 44.559377 41.871877 L 435.1594 41.871877 L 435.1594 368.0319 L 44.559377 368.0319 Z "/>
</clipPath>
<g clip-path="url(#cp39)">
<path transform="matrix(1,0,0,-1,0,375.23188)" stroke-width="2" stroke-linecap="square" stroke-linejoin="round" fill="none" stroke="#1f77b4" stroke-opacity=".75" d="M 44.559377 205.71192 L 65.11727 218.03072 L 85.67516 230.34952 L 106.23306 227.26688 L 126.790958 249.09439 L 147.34885 234.947 L 167.90674 246.97547 L 188.46465 248.69086 L 209.02254 244.80336 L 229.58043 251.03343 L 250.13832 238.257 L 270.69624 248.9934 L 291.25413 247.62146 L 311.812 246.62256 L 332.3699 247.56746 L 352.9278 253.15741 L 394.04359 246.8588 "/>
</g>
<clipPath id="cp40">
<path transform="matrix(1,0,0,-1,0,375.23188)" d="M 44.559377 41.871877 L 435.1594 41.871877 L 435.1594 368.0319 L 44.559377 368.0319 Z "/>
</clipPath>
<g clip-path="url(#cp40)">
<path transform="matrix(1,0,0,-1,0,375.23188)" stroke-width="2" stroke-linecap="square" stroke-linejoin="round" fill="none" stroke="#1f77b4" stroke-opacity=".75" d="M 44.559377 205.71192 L 65.11727 218.03072 L 85.67516 283.0212 L 106.23306 228.91391 L 126.790958 250.13608 L 147.34885 250.01319 L 167.90674 247.50972 L 188.46465 243.16475 L 209.02254 238.53038 L 229.58043 255.76572 L 250.13832 258.91966 L 291.25413 244.97742 L 311.812 253.12226 L 332.3699 249.61219 L 394.04359 255.77913 L 414.60148 249.59993 "/>
</g>
<clipPath id="cp41">
<path transform="matrix(1,0,0,-1,0,375.23188)" d="M 44.559377 41.871877 L 435.1594 41.871877 L 435.1594 368.0319 L 44.559377 368.0319 Z "/>
</clipPath>
<g clip-path="url(#cp41)">
<path transform="matrix(1,0,0,-1,0,375.23188)" stroke-width="2" stroke-linecap="square" stroke-linejoin="round" fill="none" stroke="#1f77b4" stroke-opacity=".75" d="M 44.559377 205.71192 L 65.11727 218.03072 L 85.67516 230.34952 L 106.23306 197.93886 L 126.790958 256.49925 L 147.34885 250.27902 L 209.02254 243.42307 L 229.58043 252.85088 L 250.13832 244.51399 L 291.25413 252.24695 L 311.812 251.66609 L 352.9278 246.19 L 373.4857 253.78311 L 435.15937 255.5024 "/>
</g>
<clipPath id="cp42">
<path transform="matrix(1,0,0,-1,0,375.23188)" d="M 44.559377 41.871877 L 435.1594 41.871877 L 435.1594 368.0319 L 44.559377 368.0319 Z "/>
</clipPath>
<g clip-path="url(#cp42)">
<path transform="matrix(1,0,0,-1,0,375.23188)" stroke-width="2" stroke-linecap="square" stroke-linejoin="round" fill="none" stroke="#1f77b4" stroke-opacity=".75" d="M 44.559377 205.71192 L 65.11727 218.03072 L 85.67516 230.34952 L 106.23306 289.64634 L 126.790958 250.22953 L 147.34885 242.60205 L 188.46465 243.2162 L 209.02254 246.2384 L 229.58043 242.16387 L 250.13832 251.11612 L 291.25413 256.29747 L 311.812 254.27878 L 332.3699 249.28075 L 352.9278 251.73337 L 394.04359 255.94281 L 414.60148 255.06118 L 435.15937 249.17557 "/>
</g>
<clipPath id="cp43">
<path transform="matrix(1,0,0,-1,0,375.23188)" d="M 44.559377 41.871877 L 435.1594 41.871877 L 435.1594 368.0319 L 44.559377 368.0319 Z "/>
</clipPath>
<g clip-path="url(#cp43)">
<path transform="matrix(1,0,0,-1,0,375.23188)" stroke-width="2" stroke-linecap="square" stroke-linejoin="round" fill="none" stroke="#1f77b4" stroke-opacity=".75" d="M 44.559377 205.71192 L 65.11727 218.03072 L 85.67516 230.34952 L 106.23306 256.36558 L 126.790958 245.07787 L 147.34885 245.75173 L 167.90674 251.48958 L 188.46465 246.73392 L 229.58043 251.27072 L 270.69624 249.0522 L 291.25413 253.20983 L 311.812 248.18126 L 332.3699 248.02828 L 373.4857 253.79868 L 394.04359 252.66687 L 414.60148 258.83064 L 435.15937 249.0481 "/>
</g>
<clipPath id="cp44">
<path transform="matrix(1,0,0,-1,0,375.23188)" d="M 44.559377 41.871877 L 435.1594 41.871877 L 435.1594 368.0319 L 44.559377 368.0319 Z "/>
</clipPath>
<g clip-path="url(#cp44)">
<path transform="matrix(1,0,0,-1,0,375.23188)" stroke-width="2" stroke-linecap="square" stroke-linejoin="round" fill="none" stroke="#1f77b4" stroke-opacity=".75" d="M 44.559377 205.71192 L 85.67516 282.26603 L 106.23306 233.3125 L 126.790958 248.48899 L 147.34885 246.86113 L 167.90674 248.37169 L 188.46465 250.39179 L 229.58043 243.65235 L 250.13832 248.1826 L 270.69624 242.06595 L 311.812 250.9563 L 352.9278 249.05464 L 394.04359 253.42964 L 435.15937 253.35082 "/>
</g>
<clipPath id="cp45">
<path transform="matrix(1,0,0,-1,0,375.23188)" d="M 44.559377 41.871877 L 435.1594 41.871877 L 435.1594 368.0319 L 44.559377 368.0319 Z "/>
</clipPath>
<g clip-path="url(#cp45)">
<path transform="matrix(1,0,0,-1,0,375.23188)" stroke-width="2" stroke-linecap="square" stroke-linejoin="round" fill="none" stroke="#ff7f0e" d="M 44.559377 205.71192 L 65.11727 218.03072 L 85.67516 230.34952 L 106.23306 251.57605 L 126.790958 250.81818 L 147.34885 251.19632 L 167.90674 250.88507 L 188.46465 251.6043 L 209.02254 250.55216 L 229.58043 251.63898 L 250.13832 251.08527 L 270.69624 251.38538 L 291.25413 250.70725 L 311.812 251.97023 L 332.3699 251.09638 L 352.9278 252.02196 L 373.4857 252.13657 L 394.04359 251.2157 L 414.60148 251.7239 L 435.15937 251.20078 "/>
</g>
<path transform="matrix(1,0,0,-1,0,375.23188)" stroke-width=".8" stroke-linecap="square" stroke-miterlimit="10" stroke-linejoin="miter" fill="none" stroke="#000000" d="M 44.559377 41.871877 L 44.559377 368.03187 "/>
<path transform="matrix(1,0,0,-1,0,375.23188)" stroke-width=".8" stroke-linecap="square" stroke-miterlimit="10" stroke-linejoin="miter" fill="none" stroke="#000000" d="M 44.559377 41.871877 L 435.15937 41.871877 "/>
<g>
<path transform="matrix(1,0,0,-1,0,375.23188)" d="M 308.125 323.1819 L 426.75938 323.1819 C 428.35939 323.1819 429.15937 323.98188 429.15937 325.58189 L 429.15937 359.63188 C 429.15937 361.23188 428.35939 362.03187 426.75938 362.03187 L 308.125 362.03187 C 306.525 362.03187 305.725 361.23188 305.725 359.63188 L 305.725 325.58189 C 305.725 323.98188 306.525 323.1819 308.125 323.1819 Z " fill="#ffffff" fill-opacity=".8"/>
<path transform="matrix(1,0,0,-1,0,375.23188)" stroke-width="1" stroke-linecap="butt" stroke-miterlimit="10" stroke-linejoin="miter" fill="none" stroke="#ffffff" stroke-opacity=".8" d="M 308.125 323.1819 L 426.75938 323.1819 C 428.35939 323.1819 429.15937 323.98188 429.15937 325.58189 L 429.15937 359.63188 C 429.15937 361.23188 428.35939 362.03187 426.75938 362.03187 L 308.125 362.03187 C 306.525 362.03187 305.725 361.23188 305.725 359.63188 L 305.725 325.58189 C 305.725 323.98188 306.525 323.1819 308.125 323.1819 Z "/>
</g>
<path transform="matrix(1,0,0,-1,0,375.23188)" stroke-width="2" stroke-linecap="square" stroke-linejoin="round" fill="none" stroke="#1f77b4" stroke-opacity=".75" d="M 310.525 352.3069 L 334.525 352.3069 "/>
<symbol id="font_15_52">
<path transform="matrix(.001,0,0,.001,-.098000008,0)" d="M 444 342 C 465 334 486 319 506 296 C 526 272 546 240 566 199 L 666 0 L 560 0 L 467 187 C 443 235 419 268 397 284 C 374 300 343 308 304 308 L 197 308 L 197 0 L 98 0 L 98 729 L 321 729 C 404 729 466 711 507 677 C 548 642 569 589 569 519 C 569 473 558 434 537 404 C 515 374 484 353 444 342 M 197 648 L 197 389 L 321 389 C 368 389 404 400 428 422 C 452 444 465 476 465 519 C 465 561 452 593 428 615 C 404 637 368 648 321 648 L 197 648 "/>
</symbol>
<symbol id="font_15_65">
<path transform="matrix(.001,0,0,.001,-.055000005,.013)" d="M 562 296 L 562 252 L 149 252 C 153 190 171 142 205 110 C 238 78 284 62 344 62 C 378 62 412 66 444 74 C 476 82 509 95 541 113 L 541 28 C 509 14 476 3 442 -3 C 408 -9 373 -13 339 -13 C 251 -13 182 12 131 62 C 80 112 55 181 55 268 C 55 357 79 428 127 481 C 175 533 241 560 323 560 C 397 560 455 536 498 489 C 540 441 562 377 562 296 M 472 322 C 471 371 457 410 431 440 C 404 469 368 484 324 484 C 274 484 234 469 204 441 C 174 413 156 373 152 322 L 472 322 "/>
</symbol>
<symbol id="font_15_63">
<path transform="matrix(.001,0,0,.001,-.055000005,.013)" d="M 488 526 L 488 442 C 462 456 437 466 411 473 C 385 480 360 484 334 484 C 276 484 230 465 198 428 C 166 391 150 339 150 273 C 150 206 166 154 198 117 C 230 80 276 62 334 62 C 360 62 385 65 411 72 C 437 79 462 90 488 104 L 488 21 C 462 9 436 0 410 -5 C 383 -10 354 -13 324 -13 C 242 -13 176 12 128 64 C 79 115 55 185 55 273 C 55 362 79 432 128 483 C 177 534 244 560 330 560 C 358 560 385 557 411 551 C 437 545 463 537 488 526 "/>
</symbol>
<symbol id="font_15_75">
<path transform="matrix(.001,0,0,.001,-.085,.013)" d="M 85 216 L 85 547 L 175 547 L 175 219 C 175 167 185 129 205 103 C 225 77 255 64 296 64 C 344 64 383 79 411 110 C 439 141 453 183 453 237 L 453 547 L 543 547 L 543 0 L 453 0 L 453 84 C 431 50 405 26 377 10 C 348 -5 315 -13 277 -13 C 214 -13 166 6 134 45 C 101 83 85 140 85 216 M 311 560 L 311 560 "/>
</symbol>
<symbol id="font_15_72">
<path transform="matrix(.001,0,0,.001,-.091000009,0)" d="M 411 463 C 401 469 390 473 378 476 C 366 478 353 480 339 480 C 288 480 249 463 222 430 C 194 397 181 350 181 288 L 181 0 L 91 0 L 91 547 L 181 547 L 181 462 C 199 495 224 520 254 536 C 284 552 321 560 365 560 C 371 560 378 559 386 559 C 393 558 401 557 411 555 L 411 463 "/>
</symbol>
<symbol id="font_15_73">
<path transform="matrix(.001,0,0,.001,-.054,.013)" d="M 443 531 L 443 446 C 417 458 391 468 364 475 C 336 481 308 485 279 485 C 234 485 200 478 178 464 C 156 450 145 430 145 403 C 145 382 153 366 169 354 C 185 342 217 330 265 320 L 296 313 C 360 299 405 279 432 255 C 458 230 472 195 472 151 C 472 100 452 60 412 31 C 372 1 316 -13 246 -13 C 216 -13 186 -10 154 -5 C 122 0 89 8 54 20 L 54 113 C 87 95 120 82 152 74 C 184 65 216 61 248 61 C 290 61 323 68 346 82 C 368 96 380 117 380 144 C 380 168 371 187 355 200 C 339 213 303 226 247 238 L 216 245 C 160 257 119 275 95 299 C 70 323 58 356 58 399 C 58 450 76 490 112 518 C 148 546 200 560 268 560 C 301 560 332 557 362 552 C 391 547 418 540 443 531 "/>
</symbol>
<use xlink:href="#font_15_52" transform="matrix(12,0,0,-12,345.301,27.125)"/>
<use xlink:href="#font_15_65" transform="matrix(12,0,0,-12,353.125,27.281)"/>
<use xlink:href="#font_15_63" transform="matrix(12,0,0,-12,360.505,27.281)"/>
<use xlink:href="#font_15_6f" transform="matrix(12,0,0,-12,367.105,27.281)"/>
<use xlink:href="#font_15_75" transform="matrix(12,0,0,-12,374.809,27.281)"/>
<use xlink:href="#font_15_72" transform="matrix(12,0,0,-12,382.489,27.125)"/>
<use xlink:href="#font_15_73" transform="matrix(12,0,0,-12,386.97703,27.281)"/>
<use xlink:href="#font_15_65" transform="matrix(12,0,0,-12,393.24104,27.281)"/>
<path transform="matrix(1,0,0,-1,0,375.23188)" stroke-width="2" stroke-linecap="square" stroke-linejoin="round" fill="none" stroke="#ff7f0e" d="M 310.525 334.6819 L 334.525 334.6819 "/>
<symbol id="font_15_44">
<path transform="matrix(.001,0,0,.001,-.098000008,0)" d="M 197 648 L 197 81 L 316 81 C 416 81 490 103 537 149 C 583 195 607 267 607 365 C 607 463 583 534 537 580 C 490 625 416 648 316 648 L 197 648 M 98 729 L 301 729 C 442 729 546 699 612 641 C 678 582 711 490 711 365 C 711 239 677 147 611 88 C 545 29 441 0 301 0 L 98 0 L 98 729 "/>
</symbol>
<symbol id="font_15_74">
<path transform="matrix(.001,0,0,.001,-.027,0)" d="M 183 702 L 183 547 L 368 547 L 368 477 L 183 477 L 183 180 C 183 135 189 106 201 94 C 213 81 238 75 276 75 L 368 75 L 368 0 L 276 0 C 206 0 158 13 132 39 C 106 65 93 112 93 180 L 93 477 L 27 477 L 27 547 L 93 547 L 93 702 L 183 702 "/>
</symbol>
<symbol id="font_15_6d">
<path transform="matrix(.001,0,0,.001,-.091000009,0)" d="M 520 442 C 542 482 569 511 600 531 C 631 550 668 560 711 560 C 767 560 811 540 842 500 C 873 460 889 403 889 330 L 889 0 L 799 0 L 799 327 C 799 379 789 418 771 444 C 752 469 724 482 686 482 C 639 482 602 466 575 435 C 548 404 535 362 535 309 L 535 0 L 445 0 L 445 327 C 445 379 435 418 417 444 C 398 469 369 482 331 482 C 285 482 248 466 221 435 C 194 404 181 362 181 309 L 181 0 L 91 0 L 91 547 L 181 547 L 181 462 C 201 495 226 520 255 536 C 283 552 317 560 357 560 C 397 560 430 550 458 530 C 486 510 506 480 520 442 "/>
</symbol>
<symbol id="font_15_69">
<path transform="matrix(.001,0,0,.001,-.094000007,0)" d="M 94 547 L 184 547 L 184 0 L 94 0 L 94 547 M 94 760 L 184 760 L 184 646 L 94 646 L 94 760 "/>
</symbol>
<symbol id="font_15_6e">
<path transform="matrix(.001,0,0,.001,-.091000009,0)" d="M 549 330 L 549 0 L 459 0 L 459 327 C 459 379 448 417 428 443 C 408 469 378 482 338 482 C 289 482 251 466 223 435 C 195 404 181 362 181 309 L 181 0 L 91 0 L 91 547 L 181 547 L 181 462 C 202 494 227 519 257 535 C 286 551 320 560 358 560 C 420 560 468 540 500 501 C 532 462 549 405 549 330 "/>
</symbol>
<use xlink:href="#font_15_44" transform="matrix(12,0,0,-12,345.301,44.75)"/>
<use xlink:href="#font_15_65" transform="matrix(12,0,0,-12,354.025,44.906)"/>
<use xlink:href="#font_15_74" transform="matrix(12,0,0,-12,361.069,44.75)"/>
<use xlink:href="#font_15_65" transform="matrix(12,0,0,-12,366.109,44.906)"/>
<use xlink:href="#font_15_72" transform="matrix(12,0,0,-12,373.92103,44.75)"/>
<use xlink:href="#font_15_6d" transform="matrix(12,0,0,-12,378.85304,44.75)"/>
<use xlink:href="#font_15_69" transform="matrix(12,0,0,-12,390.577,44.75)"/>
<use xlink:href="#font_15_6e" transform="matrix(12,0,0,-12,393.877,44.75)"/>
<use xlink:href="#font_15_69" transform="matrix(12,0,0,-12,401.521,44.75)"/>
<use xlink:href="#font_15_73" transform="matrix(12,0,0,-12,404.377,44.906)"/>
<use xlink:href="#font_15_74" transform="matrix(12,0,0,-12,410.30503,44.75)"/>
<use xlink:href="#font_15_69" transform="matrix(12,0,0,-12,415.81303,44.75)"/>
<use xlink:href="#font_15_63" transform="matrix(12,0,0,-12,418.68104,44.906)"/>
</g>
</g>
</svg>
