<?xml version="1.0" encoding="UTF-8" standalone="no"?>
<!DOCTYPE svg PUBLIC "-//W3C//DTD SVG 1.1//EN" "http://www.w3.org/Graphics/SVG/1.1/DTD/svg11.dtd">
<svg xmlns="http://www.w3.org/2000/svg" xmlns:xlink="http://www.w3.org/1999/xlink" version="1.1" width="826.95938pt" height="314.96876pt" viewBox="0 0 826.95938 314.96876">
<g enable-background="new">
<g>
<path transform="matrix(1,0,0,-1,0,314.96876)" d="M 38.559377 72.1725 L 282.6844 72.1725 L 282.6844 289.6125 L 38.559377 289.6125 Z " fill="#ffffff"/>
<path transform="matrix(1,0,0,-1,0,314.96876)" d="M 38.559377 72.1725 L 38.559377 68.6725 "/>
<path transform="matrix(1,0,0,-1,0,314.96876)" stroke-width=".8" stroke-linecap="butt" stroke-linejoin="round" fill="none" stroke="#000000" d="M 38.559377 72.1725 L 38.559377 68.6725 "/>
<symbol id="font_0_30">
<path transform="matrix(.001,0,0,.001,-.066,.013)" d="M 318 664 C 267 664 229 639 203 589 C 177 539 165 464 165 364 C 165 264 177 189 203 139 C 229 89 267 64 318 64 C 369 64 407 89 433 139 C 458 189 471 264 471 364 C 471 464 458 539 433 589 C 407 639 369 664 318 664 M 318 742 C 399 742 461 709 505 645 C 548 580 570 486 570 364 C 570 241 548 147 505 83 C 461 19 399 -13 318 -13 C 236 -13 173 19 130 83 C 87 147 66 241 66 364 C 66 486 87 580 130 645 C 173 709 236 742 318 742 "/>
</symbol>
<use xlink:href="#font_0_30" transform="matrix(10,0,0,-10,36.03969,257.52003)"/>
<path transform="matrix(1,0,0,-1,0,314.96876)" d="M 82.94574 72.1725 L 82.94574 68.6725 "/>
<path transform="matrix(1,0,0,-1,0,314.96876)" stroke-width=".8" stroke-linecap="butt" stroke-linejoin="round" fill="none" stroke="#000000" d="M 82.94574 72.1725 L 82.94574 68.6725 "/>
<symbol id="font_0_35">
<path transform="matrix(.001,0,0,.001,-.07700001,.013)" d="M 108 729 L 495 729 L 495 646 L 198 646 L 198 467 C 212 472 227 476 241 478 C 255 480 270 482 284 482 C 365 482 429 459 477 415 C 525 370 549 310 549 234 C 549 155 524 94 475 51 C 426 8 357 -13 269 -13 C 238 -13 207 -10 175 -6 C 143 -1 111 6 77 17 L 77 116 C 106 100 136 88 168 80 C 199 72 232 69 267 69 C 323 69 368 83 401 113 C 433 143 450 183 450 234 C 450 284 433 324 401 354 C 368 384 323 399 267 399 C 241 399 214 396 188 390 C 162 384 135 375 108 363 L 108 729 "/>
</symbol>
<use xlink:href="#font_0_35" transform="matrix(10,0,0,-10,77.35636,257.52003)"/>
<use xlink:href="#font_0_30" transform="matrix(10,0,0,-10,83.60637,257.52003)"/>
<path transform="matrix(1,0,0,-1,0,314.96876)" d="M 127.3321 72.1725 L 127.3321 68.6725 "/>
<path transform="matrix(1,0,0,-1,0,314.96876)" stroke-width=".8" stroke-linecap="butt" stroke-linejoin="round" fill="none" stroke="#000000" d="M 127.3321 72.1725 L 127.3321 68.6725 "/>
<symbol id="font_0_31">
<path transform="matrix(.001,0,0,.001,-.11000001,0)" d="M 124 83 L 285 83 L 285 639 L 110 604 L 110 694 L 284 729 L 383 729 L 383 83 L 544 83 L 544 0 L 124 0 L 124 83 "/>
</symbol>
<use xlink:href="#font_0_31" transform="matrix(10,0,0,-10,118.893039,257.39)"/>
<use xlink:href="#font_0_30" transform="matrix(10,0,0,-10,124.81304,257.52003)"/>
<use xlink:href="#font_0_30" transform="matrix(10,0,0,-10,131.17304,257.52003)"/>
<path transform="matrix(1,0,0,-1,0,314.96876)" d="M 171.71846 72.1725 L 171.71846 68.6725 "/>
<path transform="matrix(1,0,0,-1,0,314.96876)" stroke-width=".8" stroke-linecap="butt" stroke-linejoin="round" fill="none" stroke="#000000" d="M 171.71846 72.1725 L 171.71846 68.6725 "/>
<use xlink:href="#font_0_31" transform="matrix(10,0,0,-10,163.2794,257.39)"/>
<use xlink:href="#font_0_35" transform="matrix(10,0,0,-10,169.3094,257.52003)"/>
<use xlink:href="#font_0_30" transform="matrix(10,0,0,-10,175.5594,257.52003)"/>
<path transform="matrix(1,0,0,-1,0,314.96876)" d="M 216.10483 72.1725 L 216.10483 68.6725 "/>
<path transform="matrix(1,0,0,-1,0,314.96876)" stroke-width=".8" stroke-linecap="butt" stroke-linejoin="round" fill="none" stroke="#000000" d="M 216.10483 72.1725 L 216.10483 68.6725 "/>
<symbol id="font_0_32">
<path transform="matrix(.001,0,0,.001,-.07300001,0)" d="M 192 83 L 536 83 L 536 0 L 73 0 L 73 83 C 110 121 161 173 226 239 C 290 304 331 346 348 365 C 380 400 402 430 414 455 C 426 479 433 504 433 528 C 433 566 419 598 392 622 C 365 646 330 659 286 659 C 255 659 222 653 188 643 C 154 632 117 616 78 594 L 78 694 C 118 710 155 722 189 730 C 223 738 255 742 284 742 C 359 742 419 723 464 685 C 509 647 532 597 532 534 C 532 504 526 475 515 449 C 504 422 484 390 454 354 C 446 344 420 317 376 272 C 332 227 271 164 192 83 "/>
</symbol>
<use xlink:href="#font_0_32" transform="matrix(10,0,0,-10,207.29576,257.39)"/>
<use xlink:href="#font_0_30" transform="matrix(10,0,0,-10,213.58577,257.52003)"/>
<use xlink:href="#font_0_30" transform="matrix(10,0,0,-10,219.94577,257.52003)"/>
<path transform="matrix(1,0,0,-1,0,314.96876)" d="M 260.49119 72.1725 L 260.49119 68.6725 "/>
<path transform="matrix(1,0,0,-1,0,314.96876)" stroke-width=".8" stroke-linecap="butt" stroke-linejoin="round" fill="none" stroke="#000000" d="M 260.49119 72.1725 L 260.49119 68.6725 "/>
<use xlink:href="#font_0_32" transform="matrix(10,0,0,-10,251.68213,257.39)"/>
<use xlink:href="#font_0_35" transform="matrix(10,0,0,-10,258.08213,257.52003)"/>
<use xlink:href="#font_0_30" transform="matrix(10,0,0,-10,264.33213,257.52003)"/>
<symbol id="font_0_44">
<path transform="matrix(.001,0,0,.001,-.098000008,0)" d="M 197 648 L 197 81 L 316 81 C 416 81 490 103 537 149 C 583 195 607 267 607 365 C 607 463 583 534 537 580 C 490 625 416 648 316 648 L 197 648 M 98 729 L 301 729 C 442 729 546 699 612 641 C 678 582 711 490 711 365 C 711 239 677 147 611 88 C 545 29 441 0 301 0 L 98 0 L 98 729 "/>
</symbol>
<symbol id="font_0_65">
<path transform="matrix(.001,0,0,.001,-.055000005,.013)" d="M 562 296 L 562 252 L 149 252 C 153 190 171 142 205 110 C 238 78 284 62 344 62 C 378 62 412 66 444 74 C 476 82 509 95 541 113 L 541 28 C 509 14 476 3 442 -3 C 408 -9 373 -13 339 -13 C 251 -13 182 12 131 62 C 80 112 55 181 55 268 C 55 357 79 428 127 481 C 175 533 241 560 323 560 C 397 560 455 536 498 489 C 540 441 562 377 562 296 M 472 322 C 471 371 457 410 431 440 C 404 469 368 484 324 484 C 274 484 234 469 204 441 C 174 413 156 373 152 322 L 472 322 "/>
</symbol>
<symbol id="font_0_6d">
<path transform="matrix(.001,0,0,.001,-.091000009,0)" d="M 520 442 C 542 482 569 511 600 531 C 631 550 668 560 711 560 C 767 560 811 540 842 500 C 873 460 889 403 889 330 L 889 0 L 799 0 L 799 327 C 799 379 789 418 771 444 C 752 469 724 482 686 482 C 639 482 602 466 575 435 C 548 404 535 362 535 309 L 535 0 L 445 0 L 445 327 C 445 379 435 418 417 444 C 398 469 369 482 331 482 C 285 482 248 466 221 435 C 194 404 181 362 181 309 L 181 0 L 91 0 L 91 547 L 181 547 L 181 462 C 201 495 226 520 255 536 C 283 552 317 560 357 560 C 397 560 430 550 458 530 C 486 510 506 480 520 442 "/>
</symbol>
<symbol id="font_0_61">
<path transform="matrix(.001,0,0,.001,-.060000004,.013)" d="M 343 275 C 270 275 220 266 192 250 C 164 233 150 205 150 165 C 150 133 160 107 181 89 C 202 70 231 61 267 61 C 317 61 357 78 387 114 C 417 149 432 196 432 255 L 432 275 L 343 275 M 522 312 L 522 0 L 432 0 L 432 83 C 411 49 385 25 355 10 C 325 -5 287 -13 243 -13 C 187 -13 142 2 109 33 C 76 64 60 106 60 159 C 60 220 80 266 122 298 C 163 329 224 345 306 345 L 432 345 L 432 354 C 432 395 418 427 391 450 C 364 472 326 484 277 484 C 245 484 215 480 185 472 C 155 464 127 453 100 439 L 100 522 C 132 534 164 544 195 550 C 226 556 256 560 286 560 C 365 560 424 539 463 498 C 502 457 522 395 522 312 "/>
</symbol>
<symbol id="font_0_6e">
<path transform="matrix(.001,0,0,.001,-.091000009,0)" d="M 549 330 L 549 0 L 459 0 L 459 327 C 459 379 448 417 428 443 C 408 469 378 482 338 482 C 289 482 251 466 223 435 C 195 404 181 362 181 309 L 181 0 L 91 0 L 91 547 L 181 547 L 181 462 C 202 494 227 519 257 535 C 286 551 320 560 358 560 C 420 560 468 540 500 501 C 532 462 549 405 549 330 "/>
</symbol>
<symbol id="font_0_64">
<path transform="matrix(.001,0,0,.001,-.055000005,.013)" d="M 454 464 L 454 760 L 544 760 L 544 0 L 454 0 L 454 82 C 435 49 411 25 382 10 C 353 -5 319 -13 279 -13 C 213 -13 159 13 117 65 C 75 117 55 187 55 273 C 55 359 75 428 117 481 C 159 533 213 560 279 560 C 319 560 353 552 382 536 C 411 520 435 496 454 464 M 148 273 C 148 207 161 155 188 117 C 215 79 253 61 301 61 C 348 61 385 79 413 117 C 440 155 454 207 454 273 C 454 339 440 390 413 428 C 385 466 348 485 301 485 C 253 485 215 466 188 428 C 161 390 148 339 148 273 "/>
</symbol>
<symbol id="font_0_20">
</symbol>
<symbol id="font_0_28">
<path transform="matrix(.001,0,0,.001,-.086,.13100001)" d="M 310 759 C 266 683 234 609 213 536 C 191 463 181 389 181 314 C 181 238 191 164 213 91 C 234 17 266 -56 310 -131 L 232 -131 C 183 -54 146 20 122 94 C 98 168 86 241 86 314 C 86 386 98 459 122 533 C 146 607 182 682 232 759 L 310 759 "/>
</symbol>
<symbol id="font_0_54">
<path transform="matrix(.001,0,0,.001,.002,0)" d="M -2 729 L 614 729 L 614 646 L 355 646 L 355 0 L 256 0 L 256 646 L -2 646 L -2 729 "/>
</symbol>
<symbol id="font_0_57">
<path transform="matrix(.001,0,0,.001,-.033,0)" d="M 33 729 L 133 729 L 286 113 L 439 729 L 550 729 L 703 113 L 856 729 L 956 729 L 773 0 L 649 0 L 495 633 L 340 0 L 216 0 L 33 729 "/>
</symbol>
<symbol id="font_0_68">
<path transform="matrix(.001,0,0,.001,-.091000009,0)" d="M 549 330 L 549 0 L 459 0 L 459 327 C 459 379 448 417 428 443 C 408 469 378 482 338 482 C 289 482 251 466 223 435 C 195 404 181 362 181 309 L 181 0 L 91 0 L 91 760 L 181 760 L 181 462 C 202 494 227 519 257 535 C 286 551 320 560 358 560 C 420 560 468 540 500 501 C 532 462 549 405 549 330 "/>
</symbol>
<symbol id="font_0_2f">
<path transform="matrix(.001,0,0,.001,0,.09200001)" d="M 254 729 L 337 729 L 83 -92 L 0 -92 L 254 729 "/>
</symbol>
<symbol id="font_0_79">
<path transform="matrix(.001,0,0,.001,-.030000002,.20700002)" d="M 322 -50 C 296 -114 271 -157 247 -177 C 223 -197 191 -207 151 -207 L 79 -207 L 79 -132 L 132 -132 C 156 -132 175 -126 189 -114 C 203 -102 218 -75 235 -31 L 251 9 L 30 547 L 125 547 L 296 119 L 467 547 L 562 547 L 322 -50 "/>
</symbol>
<symbol id="font_0_29">
<path transform="matrix(.001,0,0,.001,-.080000009,.13100001)" d="M 80 759 L 158 759 C 206 682 243 607 267 533 C 291 459 304 386 304 314 C 304 241 291 168 267 94 C 243 20 206 -54 158 -131 L 80 -131 C 123 -56 155 17 177 91 C 198 164 209 238 209 314 C 209 389 198 463 177 536 C 155 609 123 683 80 759 "/>
</symbol>
<use xlink:href="#font_0_44" transform="matrix(14,0,0,-14,102.47825,274.10877)"/>
<use xlink:href="#font_0_65" transform="matrix(14,0,0,-14,112.65624,274.29078)"/>
<use xlink:href="#font_0_6d" transform="matrix(14,0,0,-14,121.77025,274.10877)"/>
<use xlink:href="#font_0_61" transform="matrix(14,0,0,-14,134.97225,274.29078)"/>
<use xlink:href="#font_0_6e" transform="matrix(14,0,0,-14,143.98825,274.10877)"/>
<use xlink:href="#font_0_64" transform="matrix(14,0,0,-14,152.36026,274.29078)"/>
<use xlink:href="#font_0_20" transform="matrix(14,0,0,-14,146.18625,280.59077)"/>
<use xlink:href="#font_0_28" transform="matrix(14,0,0,-14,166.13625,275.94279)"/>
<use xlink:href="#font_0_54" transform="matrix(14,0,0,-14,170.36426,274.10877)"/>
<use xlink:href="#font_0_57" transform="matrix(14,0,0,-14,179.40827,274.10877)"/>
<use xlink:href="#font_0_68" transform="matrix(14,0,0,-14,194.06627,274.10877)"/>
<use xlink:href="#font_0_2f" transform="matrix(14,0,0,-14,201.66828,275.39677)"/>
<use xlink:href="#font_0_79" transform="matrix(14,0,0,-14,206.80628,277.00679)"/>
<use xlink:href="#font_0_29" transform="matrix(14,0,0,-14,215.79427,275.94279)"/>
<path transform="matrix(1,0,0,-1,0,314.96876)" d="M 38.559377 72.1725 L 35.059377 72.1725 "/>
<path transform="matrix(1,0,0,-1,0,314.96876)" stroke-width=".8" stroke-linecap="butt" stroke-linejoin="round" fill="none" stroke="#000000" d="M 38.559377 72.1725 L 35.059377 72.1725 "/>
<use xlink:href="#font_0_30" transform="matrix(10,0,0,-10,25.86,246.72313)"/>
<path transform="matrix(1,0,0,-1,0,314.96876)" d="M 38.559377 105.62481 L 35.059377 105.62481 "/>
<path transform="matrix(1,0,0,-1,0,314.96876)" stroke-width=".8" stroke-linecap="butt" stroke-linejoin="round" fill="none" stroke="#000000" d="M 38.559377 105.62481 L 35.059377 105.62481 "/>
<use xlink:href="#font_0_31" transform="matrix(10,0,0,-10,26.300002,213.14081)"/>
<path transform="matrix(1,0,0,-1,0,314.96876)" d="M 38.559377 139.07712 L 35.059377 139.07712 "/>
<path transform="matrix(1,0,0,-1,0,314.96876)" stroke-width=".8" stroke-linecap="butt" stroke-linejoin="round" fill="none" stroke="#000000" d="M 38.559377 139.07712 L 35.059377 139.07712 "/>
<use xlink:href="#font_0_32" transform="matrix(10,0,0,-10,25.93,179.6885)"/>
<path transform="matrix(1,0,0,-1,0,314.96876)" d="M 38.559377 172.52942 L 35.059377 172.52942 "/>
<path transform="matrix(1,0,0,-1,0,314.96876)" stroke-width=".8" stroke-linecap="butt" stroke-linejoin="round" fill="none" stroke="#000000" d="M 38.559377 172.52942 L 35.059377 172.52942 "/>
<symbol id="font_0_33">
<path transform="matrix(.001,0,0,.001,-.076000008,.013)" d="M 406 393 C 453 383 490 362 516 330 C 542 298 556 258 556 212 C 556 140 531 84 482 45 C 432 6 362 -13 271 -13 C 240 -13 208 -10 176 -4 C 144 1 110 10 76 22 L 76 117 C 103 101 133 89 166 81 C 198 73 232 69 268 69 C 330 69 377 81 409 105 C 441 129 458 165 458 212 C 458 254 443 288 413 312 C 383 336 341 349 287 349 L 202 349 L 202 430 L 291 430 C 339 430 376 439 402 459 C 428 478 441 506 441 543 C 441 580 427 609 401 629 C 374 649 336 659 287 659 C 260 659 231 656 200 650 C 169 644 135 635 98 623 L 98 711 C 135 721 170 729 203 734 C 235 739 266 742 296 742 C 370 742 429 725 473 691 C 517 657 539 611 539 553 C 539 513 527 479 504 451 C 481 423 448 403 406 393 "/>
</symbol>
<use xlink:href="#font_0_33" transform="matrix(10,0,0,-10,25.960001,146.36621)"/>
<path transform="matrix(1,0,0,-1,0,314.96876)" d="M 38.559377 205.98174 L 35.059377 205.98174 "/>
<path transform="matrix(1,0,0,-1,0,314.96876)" stroke-width=".8" stroke-linecap="butt" stroke-linejoin="round" fill="none" stroke="#000000" d="M 38.559377 205.98174 L 35.059377 205.98174 "/>
<symbol id="font_0_34">
<path transform="matrix(.001,0,0,.001,-.049000004,0)" d="M 378 643 L 129 254 L 378 254 L 378 643 M 352 729 L 476 729 L 476 254 L 580 254 L 580 172 L 476 172 L 476 0 L 378 0 L 378 172 L 49 172 L 49 267 L 352 729 "/>
</symbol>
<use xlink:href="#font_0_34" transform="matrix(10,0,0,-10,25.69,112.78389)"/>
<path transform="matrix(1,0,0,-1,0,314.96876)" d="M 38.559377 239.43404 L 35.059377 239.43404 "/>
<path transform="matrix(1,0,0,-1,0,314.96876)" stroke-width=".8" stroke-linecap="butt" stroke-linejoin="round" fill="none" stroke="#000000" d="M 38.559377 239.43404 L 35.059377 239.43404 "/>
<use xlink:href="#font_0_35" transform="matrix(10,0,0,-10,25.970002,79.461589)"/>
<path transform="matrix(1,0,0,-1,0,314.96876)" d="M 38.559377 272.88636 L 35.059377 272.88636 "/>
<path transform="matrix(1,0,0,-1,0,314.96876)" stroke-width=".8" stroke-linecap="butt" stroke-linejoin="round" fill="none" stroke="#000000" d="M 38.559377 272.88636 L 35.059377 272.88636 "/>
<symbol id="font_0_36">
<path transform="matrix(.001,0,0,.001,-.07,.013)" d="M 330 404 C 286 404 251 388 225 358 C 199 328 186 286 186 234 C 186 181 199 139 225 109 C 251 79 286 64 330 64 C 374 64 409 79 435 109 C 461 139 474 181 474 234 C 474 286 461 328 435 358 C 409 388 374 404 330 404 M 526 713 L 526 623 C 501 635 476 644 451 650 C 425 656 400 659 376 659 C 310 659 260 637 226 593 C 192 549 172 482 168 394 C 187 422 211 444 240 459 C 269 474 301 482 336 482 C 409 482 467 459 509 415 C 551 371 573 310 573 234 C 573 159 550 99 506 54 C 462 9 403 -13 330 -13 C 246 -13 181 19 137 83 C 92 147 70 241 70 364 C 70 479 97 571 152 639 C 206 707 280 742 372 742 C 396 742 421 739 447 735 C 472 730 498 723 526 713 "/>
</symbol>
<use xlink:href="#font_0_36" transform="matrix(10,0,0,-10,25.900002,46.009275)"/>
<symbol id="font_0_4c">
<path transform="matrix(.001,0,0,.001,-.098000008,0)" d="M 98 729 L 197 729 L 197 83 L 552 83 L 552 0 L 98 0 L 98 729 "/>
</symbol>
<symbol id="font_0_43">
<path transform="matrix(.001,0,0,.001,-.056,.013)" d="M 644 673 L 644 569 C 610 599 575 622 537 638 C 499 653 460 661 418 661 C 334 661 270 635 226 584 C 182 533 160 460 160 364 C 160 268 182 194 226 143 C 270 92 334 67 418 67 C 460 67 499 74 537 90 C 575 105 610 128 644 159 L 644 56 C 609 32 572 15 534 4 C 496 -7 455 -13 412 -13 C 302 -13 215 20 151 87 C 87 154 56 246 56 364 C 56 481 87 573 151 641 C 215 708 302 742 412 742 C 456 742 497 736 535 725 C 573 713 610 696 644 673 "/>
</symbol>
<symbol id="font_0_6f">
<path transform="matrix(.001,0,0,.001,-.055000005,.013)" d="M 306 484 C 258 484 220 465 192 427 C 164 389 150 338 150 273 C 150 207 163 156 191 118 C 219 80 257 62 306 62 C 354 62 392 80 420 118 C 448 156 462 207 462 273 C 462 337 448 389 420 427 C 392 465 354 484 306 484 M 306 560 C 384 560 445 534 490 484 C 534 433 557 363 557 273 C 557 183 534 113 490 63 C 445 12 384 -13 306 -13 C 227 -13 165 12 121 63 C 77 113 55 183 55 273 C 55 363 77 433 121 484 C 165 534 227 560 306 560 "/>
</symbol>
<symbol id="font_0_48">
<path transform="matrix(.001,0,0,.001,-.098000008,0)" d="M 98 729 L 197 729 L 197 430 L 555 430 L 555 729 L 654 729 L 654 0 L 555 0 L 555 347 L 197 347 L 197 0 L 98 0 L 98 729 "/>
</symbol>
<use xlink:href="#font_0_4c" transform="matrix(0,-14,-14,-0,17.840626,177.70426)"/>
<use xlink:href="#font_0_43" transform="matrix(0,-14,-14,-0,18.022625,170.49245)"/>
<use xlink:href="#font_0_6f" transform="matrix(0,-14,-14,-0,18.022625,160.73105)"/>
<use xlink:href="#font_0_48" transform="matrix(0,-14,-14,-0,17.840626,151.56363)"/>
<use xlink:href="#font_0_32" transform="matrix(0,-9.8,-9.8,-0,20.1375,141.5589)"/>
<symbol id="font_0_6b">
<path transform="matrix(.001,0,0,.001,-.091000009,0)" d="M 91 760 L 181 760 L 181 311 L 449 547 L 564 547 L 274 291 L 576 0 L 459 0 L 181 267 L 181 0 L 91 0 L 91 760 "/>
</symbol>
<symbol id="font_0_67">
<path transform="matrix(.001,0,0,.001,-.055000005,.20700002)" d="M 454 280 C 454 344 440 395 414 431 C 387 467 349 485 301 485 C 253 485 215 467 188 431 C 161 395 148 344 148 280 C 148 215 161 165 188 129 C 215 93 253 75 301 75 C 349 75 387 93 414 129 C 440 165 454 215 454 280 M 544 68 C 544 -24 523 -93 482 -139 C 440 -184 377 -207 292 -207 C 260 -207 231 -204 203 -200 C 175 -195 147 -188 121 -178 L 121 -91 C 147 -105 173 -115 199 -122 C 225 -129 251 -133 278 -133 C 336 -133 380 -117 410 -87 C 439 -56 454 -10 454 52 L 454 96 C 435 64 411 40 382 24 C 353 8 319 0 279 0 C 211 0 157 25 116 76 C 75 127 55 195 55 280 C 55 364 75 432 116 483 C 157 534 211 560 279 560 C 319 560 353 552 382 536 C 411 520 435 496 454 464 L 454 547 L 544 547 L 544 68 "/>
</symbol>
<use xlink:href="#font_0_20" transform="matrix(0,-14,-14,-0,24.322627,149.95044)"/>
<use xlink:href="#font_0_28" transform="matrix(0,-14,-14,-0,19.674626,130.00225)"/>
<use xlink:href="#font_0_2f" transform="matrix(0,-14,-14,-0,19.128626,116.83709)"/>
<use xlink:href="#font_0_6b" transform="matrix(0,-14,-14,-0,17.840626,110.84629)"/>
<use xlink:href="#font_0_67" transform="matrix(0,-14,-14,-0,20.738627,103.242877)"/>
<use xlink:href="#font_0_29" transform="matrix(0,-14,-14,-0,19.674626,94.00615)"/>
<clipPath id="cp1">
<path transform="matrix(0,-.014,-.014,-0,17.840626,125.744319)" d="M -1021 -463 L 1794 -463 L 1794 1233 L -1021 1233 Z "/>
</clipPath>
<g clip-path="url(#cp1)">
<path transform="matrix(0,-.014,-.014,-0,17.840626,125.744319)" d="M 570 673 L 570 569 C 540 603 511 627 484 642 C 456 656 426 664 393 664 C 341 664 299 647 267 615 C 234 582 212 535 202 475 L 484 475 L 457 415 L 194 415 C 193 407 193 399 193 392 C 193 384 193 375 193 364 C 193 353 193 344 193 337 C 193 329 193 322 194 314 L 412 314 L 385 254 L 202 254 C 212 193 234 146 267 113 C 299 80 341 64 393 64 C 426 64 456 71 484 86 C 511 100 540 125 570 159 L 570 56 C 540 32 511 15 481 4 C 451 -7 420 -13 389 -13 C 311 -13 248 10 198 57 C 148 103 116 169 103 254 L 0 254 L 27 314 L 95 314 C 95 321 94 328 94 336 C 94 344 94 353 94 364 C 94 375 94 384 94 392 C 94 400 95 407 95 415 L 0 415 L 27 475 L 103 475 C 116 559 148 624 198 671 C 248 718 312 742 389 742 C 421 742 452 736 482 725 C 512 713 541 696 570 673 "/>
</g>
<clipPath id="cp2">
<path transform="matrix(1,0,0,-1,0,314.96876)" d="M 38.559377 72.1725 L 282.6844 72.1725 L 282.6844 289.6125 L 38.559377 289.6125 Z "/>
</clipPath>
<g clip-path="url(#cp2)">
<path transform="matrix(1,0,0,-1,0,314.96876)" stroke-width="2" stroke-linecap="square" stroke-linejoin="round" fill="none" stroke="#1f77b4" d="M 46.340307 264.04075 L 54.121236 265.35896 L 61.902166 266.61039 L 69.68309 267.2624 L 77.46402 268.09895 L 85.24495 269.25007 L 93.02588 270.5157 L 100.80681 271.52687 L 108.58774 272.4527 L 170.83518 277.78028 L 178.6161 278.12059 L 186.39704 278.64555 L 194.17797 278.94126 L 201.9589 279.26734 L 209.73983 279.46186 L 217.52075 279.76506 L 225.30168 280.09153 L 233.08261 280.469 "/>
</g>
<clipPath id="cp3">
<path transform="matrix(1,0,0,-1,0,314.96876)" d="M 38.559377 72.1725 L 282.6844 72.1725 L 282.6844 289.6125 L 38.559377 289.6125 Z "/>
</clipPath>
<g clip-path="url(#cp3)">
<path transform="matrix(1,0,0,-1,0,314.96876)" stroke-width="2" stroke-linecap="square" stroke-linejoin="round" fill="none" stroke="#ff7f0e" d="M 46.340307 264.99479 L 54.121236 266.43135 L 61.902166 266.39244 L 69.68309 267.47898 L 77.46402 268.35896 L 85.24495 270.20277 L 93.02588 271.2547 L 100.80681 272.344 L 108.58774 274.16795 L 116.36867 275.3508 L 124.1496 276.77619 L 131.93053 277.67466 L 139.71146 278.53788 L 147.49239 279.08128 L 155.27332 279.76029 L 163.05425 280.21907 L 170.83518 280.7642 L 178.6161 281.1457 L 186.39704 281.7273 L 194.17797 282.17936 L 201.9589 282.63356 L 209.73983 283.09336 L 217.52075 283.4567 L 225.30168 283.96253 L 233.08261 284.5845 "/>
</g>
<clipPath id="cp4">
<path transform="matrix(1,0,0,-1,0,314.96876)" d="M 38.559377 72.1725 L 282.6844 72.1725 L 282.6844 289.6125 L 38.559377 289.6125 Z "/>
</clipPath>
<g clip-path="url(#cp4)">
<path transform="matrix(1,0,0,-1,0,314.96876)" stroke-width="2" stroke-linecap="square" stroke-linejoin="round" fill="none" stroke="#2ca02c" d="M 46.340307 269.70375 L 54.121236 271.56098 L 61.902166 269.58628 L 69.68309 269.35066 L 77.46402 270.3825 L 85.24495 271.1057 L 93.02588 272.68003 L 100.80681 273.03044 L 116.36867 274.62574 L 131.93053 276.32414 L 163.05425 278.35865 L 170.83518 278.57057 L 178.6161 278.84364 L 186.39704 279.15159 L 194.17797 279.56736 L 201.9589 279.9185 L 209.73983 280.09449 L 217.52075 280.26344 L 225.30168 280.59696 L 233.08261 280.91804 "/>
</g>
<path transform="matrix(1,0,0,-1,0,314.96876)" stroke-width=".8" stroke-linecap="square" stroke-miterlimit="10" stroke-linejoin="miter" fill="none" stroke="#000000" d="M 38.559377 72.1725 L 38.559377 289.6125 "/>
<path transform="matrix(1,0,0,-1,0,314.96876)" stroke-width=".8" stroke-linecap="square" stroke-miterlimit="10" stroke-linejoin="miter" fill="none" stroke="#000000" d="M 38.559377 72.1725 L 282.6844 72.1725 "/>
<symbol id="font_0_72">
<path transform="matrix(.001,0,0,.001,-.091000009,0)" d="M 411 463 C 401 469 390 473 378 476 C 366 478 353 480 339 480 C 288 480 249 463 222 430 C 194 397 181 350 181 288 L 181 0 L 91 0 L 91 547 L 181 547 L 181 462 C 199 495 224 520 254 536 C 284 552 321 560 365 560 C 371 560 378 559 386 559 C 393 558 401 557 411 555 L 411 463 "/>
</symbol>
<symbol id="font_0_73">
<path transform="matrix(.001,0,0,.001,-.054,.013)" d="M 443 531 L 443 446 C 417 458 391 468 364 475 C 336 481 308 485 279 485 C 234 485 200 478 178 464 C 156 450 145 430 145 403 C 145 382 153 366 169 354 C 185 342 217 330 265 320 L 296 313 C 360 299 405 279 432 255 C 458 230 472 195 472 151 C 472 100 452 60 412 31 C 372 1 316 -13 246 -13 C 216 -13 186 -10 154 -5 C 122 0 89 8 54 20 L 54 113 C 87 95 120 82 152 74 C 184 65 216 61 248 61 C 290 61 323 68 346 82 C 368 96 380 117 380 144 C 380 168 371 187 355 200 C 339 213 303 226 247 238 L 216 245 C 160 257 119 275 95 299 C 70 323 58 356 58 399 C 58 450 76 490 112 518 C 148 546 200 560 268 560 C 301 560 332 557 362 552 C 391 547 418 540 443 531 "/>
</symbol>
<symbol id="font_0_74">
<path transform="matrix(.001,0,0,.001,-.027,0)" d="M 183 702 L 183 547 L 368 547 L 368 477 L 183 477 L 183 180 C 183 135 189 106 201 94 C 213 81 238 75 276 75 L 368 75 L 368 0 L 276 0 C 206 0 158 13 132 39 C 106 65 93 112 93 180 L 93 477 L 27 477 L 27 547 L 93 547 L 93 702 L 183 702 "/>
</symbol>
<symbol id="font_0_63">
<path transform="matrix(.001,0,0,.001,-.055000005,.013)" d="M 488 526 L 488 442 C 462 456 437 466 411 473 C 385 480 360 484 334 484 C 276 484 230 465 198 428 C 166 391 150 339 150 273 C 150 206 166 154 198 117 C 230 80 276 62 334 62 C 360 62 385 65 411 72 C 437 79 462 90 488 104 L 488 21 C 462 9 436 0 410 -5 C 383 -10 354 -13 324 -13 C 242 -13 176 12 128 64 C 79 115 55 185 55 273 C 55 362 79 432 128 483 C 177 534 244 560 330 560 C 358 560 385 557 411 551 C 437 545 463 537 488 526 "/>
</symbol>
<use xlink:href="#font_0_57" transform="matrix(16,0,0,-16,117.228,19.356263)"/>
<use xlink:href="#font_0_6f" transform="matrix(16,0,0,-16,133.404,19.564263)"/>
<use xlink:href="#font_0_72" transform="matrix(16,0,0,-16,143.772,19.356263)"/>
<use xlink:href="#font_0_73" transform="matrix(16,0,0,-16,149.75601,19.564263)"/>
<use xlink:href="#font_0_74" transform="matrix(16,0,0,-16,157.66002,19.356263)"/>
<use xlink:href="#font_0_20" transform="matrix(16,0,0,-16,147.16402,26.764264)"/>
<use xlink:href="#font_0_63" transform="matrix(16,0,0,-16,169.46802,19.564263)"/>
<use xlink:href="#font_0_61" transform="matrix(16,0,0,-16,178.34803,19.564263)"/>
<use xlink:href="#font_0_73" transform="matrix(16,0,0,-16,188.06002,19.564263)"/>
<use xlink:href="#font_0_65" transform="matrix(16,0,0,-16,196.41202,19.564263)"/>
<path transform="matrix(1,0,0,-1,0,314.96876)" d="M 307.09687 72.1725 L 551.22189 72.1725 L 551.22189 289.6125 L 307.09687 289.6125 Z " fill="#ffffff"/>
<path transform="matrix(1,0,0,-1,0,314.96876)" d="M 307.09687 72.1725 L 307.09687 68.6725 "/>
<path transform="matrix(1,0,0,-1,0,314.96876)" stroke-width=".8" stroke-linecap="butt" stroke-linejoin="round" fill="none" stroke="#000000" d="M 307.09687 72.1725 L 307.09687 68.6725 "/>
<use xlink:href="#font_0_30" transform="matrix(10,0,0,-10,304.57719,257.52003)"/>
<path transform="matrix(1,0,0,-1,0,314.96876)" d="M 351.48326 72.1725 L 351.48326 68.6725 "/>
<path transform="matrix(1,0,0,-1,0,314.96876)" stroke-width=".8" stroke-linecap="butt" stroke-linejoin="round" fill="none" stroke="#000000" d="M 351.48326 72.1725 L 351.48326 68.6725 "/>
<use xlink:href="#font_0_35" transform="matrix(10,0,0,-10,345.89387,257.52003)"/>
<use xlink:href="#font_0_30" transform="matrix(10,0,0,-10,352.1439,257.52003)"/>
<path transform="matrix(1,0,0,-1,0,314.96876)" d="M 395.8696 72.1725 L 395.8696 68.6725 "/>
<path transform="matrix(1,0,0,-1,0,314.96876)" stroke-width=".8" stroke-linecap="butt" stroke-linejoin="round" fill="none" stroke="#000000" d="M 395.8696 72.1725 L 395.8696 68.6725 "/>
<use xlink:href="#font_0_31" transform="matrix(10,0,0,-10,387.43055,257.39)"/>
<use xlink:href="#font_0_30" transform="matrix(10,0,0,-10,393.35057,257.52003)"/>
<use xlink:href="#font_0_30" transform="matrix(10,0,0,-10,399.71055,257.52003)"/>
<path transform="matrix(1,0,0,-1,0,314.96876)" d="M 440.25596 72.1725 L 440.25596 68.6725 "/>
<path transform="matrix(1,0,0,-1,0,314.96876)" stroke-width=".8" stroke-linecap="butt" stroke-linejoin="round" fill="none" stroke="#000000" d="M 440.25596 72.1725 L 440.25596 68.6725 "/>
<use xlink:href="#font_0_31" transform="matrix(10,0,0,-10,431.8169,257.39)"/>
<use xlink:href="#font_0_35" transform="matrix(10,0,0,-10,437.8469,257.52003)"/>
<use xlink:href="#font_0_30" transform="matrix(10,0,0,-10,444.0969,257.52003)"/>
<path transform="matrix(1,0,0,-1,0,314.96876)" d="M 484.64234 72.1725 L 484.64234 68.6725 "/>
<path transform="matrix(1,0,0,-1,0,314.96876)" stroke-width=".8" stroke-linecap="butt" stroke-linejoin="round" fill="none" stroke="#000000" d="M 484.64234 72.1725 L 484.64234 68.6725 "/>
<use xlink:href="#font_0_32" transform="matrix(10,0,0,-10,475.83329,257.39)"/>
<use xlink:href="#font_0_30" transform="matrix(10,0,0,-10,482.12327,257.52003)"/>
<use xlink:href="#font_0_30" transform="matrix(10,0,0,-10,488.48326,257.52003)"/>
<path transform="matrix(1,0,0,-1,0,314.96876)" d="M 529.0287 72.1725 L 529.0287 68.6725 "/>
<path transform="matrix(1,0,0,-1,0,314.96876)" stroke-width=".8" stroke-linecap="butt" stroke-linejoin="round" fill="none" stroke="#000000" d="M 529.0287 72.1725 L 529.0287 68.6725 "/>
<use xlink:href="#font_0_32" transform="matrix(10,0,0,-10,520.2196,257.39)"/>
<use xlink:href="#font_0_35" transform="matrix(10,0,0,-10,526.6196,257.52003)"/>
<use xlink:href="#font_0_30" transform="matrix(10,0,0,-10,532.86959,257.52003)"/>
<use xlink:href="#font_0_44" transform="matrix(14,0,0,-14,371.01576,274.10877)"/>
<use xlink:href="#font_0_65" transform="matrix(14,0,0,-14,381.19374,274.29078)"/>
<use xlink:href="#font_0_6d" transform="matrix(14,0,0,-14,390.30775,274.10877)"/>
<use xlink:href="#font_0_61" transform="matrix(14,0,0,-14,403.50975,274.29078)"/>
<use xlink:href="#font_0_6e" transform="matrix(14,0,0,-14,412.52574,274.10877)"/>
<use xlink:href="#font_0_64" transform="matrix(14,0,0,-14,420.89775,274.29078)"/>
<use xlink:href="#font_0_20" transform="matrix(14,0,0,-14,414.72377,280.59077)"/>
<use xlink:href="#font_0_28" transform="matrix(14,0,0,-14,434.67378,275.94279)"/>
<use xlink:href="#font_0_54" transform="matrix(14,0,0,-14,438.90174,274.10877)"/>
<use xlink:href="#font_0_57" transform="matrix(14,0,0,-14,447.94575,274.10877)"/>
<use xlink:href="#font_0_68" transform="matrix(14,0,0,-14,462.60374,274.10877)"/>
<use xlink:href="#font_0_2f" transform="matrix(14,0,0,-14,470.20576,275.39677)"/>
<use xlink:href="#font_0_79" transform="matrix(14,0,0,-14,475.34376,277.00679)"/>
<use xlink:href="#font_0_29" transform="matrix(14,0,0,-14,484.33174,275.94279)"/>
<path transform="matrix(1,0,0,-1,0,314.96876)" d="M 307.09687 72.1725 L 303.59687 72.1725 "/>
<path transform="matrix(1,0,0,-1,0,314.96876)" stroke-width=".8" stroke-linecap="butt" stroke-linejoin="round" fill="none" stroke="#000000" d="M 307.09687 72.1725 L 303.59687 72.1725 "/>
<path transform="matrix(1,0,0,-1,0,314.96876)" d="M 307.09687 105.62481 L 303.59687 105.62481 "/>
<path transform="matrix(1,0,0,-1,0,314.96876)" stroke-width=".8" stroke-linecap="butt" stroke-linejoin="round" fill="none" stroke="#000000" d="M 307.09687 105.62481 L 303.59687 105.62481 "/>
<path transform="matrix(1,0,0,-1,0,314.96876)" d="M 307.09687 139.07712 L 303.59687 139.07712 "/>
<path transform="matrix(1,0,0,-1,0,314.96876)" stroke-width=".8" stroke-linecap="butt" stroke-linejoin="round" fill="none" stroke="#000000" d="M 307.09687 139.07712 L 303.59687 139.07712 "/>
<path transform="matrix(1,0,0,-1,0,314.96876)" d="M 307.09687 172.52942 L 303.59687 172.52942 "/>
<path transform="matrix(1,0,0,-1,0,314.96876)" stroke-width=".8" stroke-linecap="butt" stroke-linejoin="round" fill="none" stroke="#000000" d="M 307.09687 172.52942 L 303.59687 172.52942 "/>
<path transform="matrix(1,0,0,-1,0,314.96876)" d="M 307.09687 205.98174 L 303.59687 205.98174 "/>
<path transform="matrix(1,0,0,-1,0,314.96876)" stroke-width=".8" stroke-linecap="butt" stroke-linejoin="round" fill="none" stroke="#000000" d="M 307.09687 205.98174 L 303.59687 205.98174 "/>
<path transform="matrix(1,0,0,-1,0,314.96876)" d="M 307.09687 239.43404 L 303.59687 239.43404 "/>
<path transform="matrix(1,0,0,-1,0,314.96876)" stroke-width=".8" stroke-linecap="butt" stroke-linejoin="round" fill="none" stroke="#000000" d="M 307.09687 239.43404 L 303.59687 239.43404 "/>
<path transform="matrix(1,0,0,-1,0,314.96876)" d="M 307.09687 272.88636 L 303.59687 272.88636 "/>
<path transform="matrix(1,0,0,-1,0,314.96876)" stroke-width=".8" stroke-linecap="butt" stroke-linejoin="round" fill="none" stroke="#000000" d="M 307.09687 272.88636 L 303.59687 272.88636 "/>
<clipPath id="cp5">
<path transform="matrix(1,0,0,-1,0,314.96876)" d="M 307.09687 72.1725 L 551.22189 72.1725 L 551.22189 289.6125 L 307.09687 289.6125 Z "/>
</clipPath>
<g clip-path="url(#cp5)">
<path transform="matrix(1,0,0,-1,0,314.96876)" stroke-width="2" stroke-linecap="square" stroke-linejoin="round" fill="none" stroke="#1f77b4" d="M 314.8778 211.07637 L 322.65873 210.66289 L 330.43968 211.24974 L 338.22059 211.90938 L 346.00154 212.13228 L 353.78245 212.6205 L 361.5634 213.03588 L 369.3443 213.64537 L 377.12525 214.5467 L 384.90617 215.16056 L 392.6871 215.545 L 400.46803 216.0658 L 447.1536 218.71108 L 486.05827 220.0791 L 493.83918 220.24922 L 501.62013 220.45676 L 509.40104 220.69445 L 517.18197 220.98279 L 524.9629 221.06627 L 532.74386 221.18968 L 540.5248 221.32523 "/>
</g>
<clipPath id="cp6">
<path transform="matrix(1,0,0,-1,0,314.96876)" d="M 307.09687 72.1725 L 551.22189 72.1725 L 551.22189 289.6125 L 307.09687 289.6125 Z "/>
</clipPath>
<g clip-path="url(#cp6)">
<path transform="matrix(1,0,0,-1,0,314.96876)" stroke-width="2" stroke-linecap="square" stroke-linejoin="round" fill="none" stroke="#ff7f0e" d="M 314.8778 211.33425 L 322.65873 211.27971 L 330.43968 211.99059 L 338.22059 212.28234 L 346.00154 213.16478 L 353.78245 213.50165 L 361.5634 213.69643 L 369.3443 214.48632 L 377.12525 214.85143 L 384.90617 215.53495 L 392.6871 216.13896 L 400.46803 216.765 L 408.24897 217.43666 L 416.02989 218.25327 L 423.81083 218.99942 L 431.59175 219.3219 L 439.37269 219.71205 L 447.1536 220.20764 L 454.93455 220.9717 L 462.71546 221.0938 L 470.4964 221.45125 L 478.2773 221.66559 L 486.05827 222.02823 L 493.83918 222.4795 L 501.62013 222.63321 L 509.40104 222.91339 L 517.18197 223.15233 L 524.9629 223.56887 L 532.74386 223.6641 L 540.5248 223.82335 "/>
</g>
<clipPath id="cp7">
<path transform="matrix(1,0,0,-1,0,314.96876)" d="M 307.09687 72.1725 L 551.22189 72.1725 L 551.22189 289.6125 L 307.09687 289.6125 Z "/>
</clipPath>
<g clip-path="url(#cp7)">
<path transform="matrix(1,0,0,-1,0,314.96876)" stroke-width="2" stroke-linecap="square" stroke-linejoin="round" fill="none" stroke="#2ca02c" d="M 322.65873 216.7379 L 330.43968 215.065 L 338.22059 214.2731 L 346.00154 214.22875 L 353.78245 214.218 L 361.5634 214.72965 L 369.3443 215.26784 L 377.12525 215.79901 L 384.90617 216.58284 L 392.6871 216.81517 L 400.46803 217.13913 L 447.1536 219.44342 L 486.05827 220.67642 L 493.83918 220.83652 L 501.62013 221.11705 L 509.40104 221.16353 L 517.18197 221.31426 L 524.9629 221.53099 L 532.74386 221.6823 L 540.5248 221.79048 "/>
</g>
<path transform="matrix(1,0,0,-1,0,314.96876)" stroke-width=".8" stroke-linecap="square" stroke-miterlimit="10" stroke-linejoin="miter" fill="none" stroke="#000000" d="M 307.09687 72.1725 L 307.09687 289.6125 "/>
<path transform="matrix(1,0,0,-1,0,314.96876)" stroke-width=".8" stroke-linecap="square" stroke-miterlimit="10" stroke-linejoin="miter" fill="none" stroke="#000000" d="M 307.09687 72.1725 L 551.22189 72.1725 "/>
<symbol id="font_0_41">
<path transform="matrix(.001,0,0,.001,-.008,0)" d="M 342 632 L 208 269 L 476 269 L 342 632 M 286 729 L 398 729 L 676 0 L 573 0 L 507 187 L 178 187 L 112 0 L 8 0 L 286 729 "/>
</symbol>
<symbol id="font_0_76">
<path transform="matrix(.001,0,0,.001,-.030000002,0)" d="M 30 547 L 125 547 L 296 88 L 467 547 L 562 547 L 357 0 L 235 0 L 30 547 "/>
</symbol>
<use xlink:href="#font_0_41" transform="matrix(16,0,0,-16,375.45143,19.356263)"/>
<use xlink:href="#font_0_76" transform="matrix(16,0,0,-16,386.74745,19.356263)"/>
<use xlink:href="#font_0_65" transform="matrix(16,0,0,-16,396.61946,19.564263)"/>
<use xlink:href="#font_0_72" transform="matrix(16,0,0,-16,407.03544,19.356263)"/>
<use xlink:href="#font_0_61" transform="matrix(16,0,0,-16,413.11543,19.564263)"/>
<use xlink:href="#font_0_67" transform="matrix(16,0,0,-16,422.84346,22.668263)"/>
<use xlink:href="#font_0_65" transform="matrix(16,0,0,-16,433.00346,19.564263)"/>
<use xlink:href="#font_0_20" transform="matrix(16,0,0,-16,425.62745,26.764264)"/>
<use xlink:href="#font_0_63" transform="matrix(16,0,0,-16,447.93147,19.564263)"/>
<use xlink:href="#font_0_61" transform="matrix(16,0,0,-16,456.81144,19.564263)"/>
<use xlink:href="#font_0_73" transform="matrix(16,0,0,-16,466.52348,19.564263)"/>
<use xlink:href="#font_0_65" transform="matrix(16,0,0,-16,474.87547,19.564263)"/>
<g>
<path transform="matrix(1,0,0,-1,0,314.96876)" d="M 260.39845 7.2 L 597.9203 7.2 C 599.5203 7.2 600.3203 8 600.3203 9.6 L 600.3203 26.025 C 600.3203 27.625 599.5203 28.425 597.9203 28.425 L 260.39845 28.425 C 258.79844 28.425 257.99845 27.625 257.99845 26.025 L 257.99845 9.6 C 257.99845 8 258.79844 7.2 260.39845 7.2 Z " fill="#ffffff" fill-opacity=".8"/>
<path transform="matrix(1,0,0,-1,0,314.96876)" stroke-width="1" stroke-linecap="butt" stroke-miterlimit="10" stroke-linejoin="miter" fill="none" stroke="#ffffff" stroke-opacity=".8" d="M 260.39845 7.2 L 597.9203 7.2 C 599.5203 7.2 600.3203 8 600.3203 9.6 L 600.3203 26.025 C 600.3203 27.625 599.5203 28.425 597.9203 28.425 L 260.39845 28.425 C 258.79844 28.425 257.99845 27.625 257.99845 26.025 L 257.99845 9.6 C 257.99845 8 258.79844 7.2 260.39845 7.2 Z "/>
</g>
<path transform="matrix(1,0,0,-1,0,314.96876)" stroke-width="2" stroke-linecap="square" stroke-linejoin="round" fill="none" stroke="#1f77b4" d="M 262.79844 18.7 L 286.79844 18.7 "/>
<symbol id="font_0_49">
<path transform="matrix(.001,0,0,.001,-.098000008,0)" d="M 98 729 L 197 729 L 197 0 L 98 0 L 98 729 "/>
</symbol>
<use xlink:href="#font_0_49" transform="matrix(12,0,0,-12,297.57444,300.46876)"/>
<use xlink:href="#font_0_6e" transform="matrix(12,0,0,-12,301.03047,300.46876)"/>
<use xlink:href="#font_0_74" transform="matrix(12,0,0,-12,307.87046,300.46876)"/>
<use xlink:href="#font_0_65" transform="matrix(12,0,0,-12,312.91047,300.62477)"/>
<use xlink:href="#font_0_67" transform="matrix(12,0,0,-12,320.29048,302.95277)"/>
<use xlink:href="#font_0_72" transform="matrix(12,0,0,-12,328.34248,300.46876)"/>
<use xlink:href="#font_0_61" transform="matrix(12,0,0,-12,332.90248,300.62477)"/>
<use xlink:href="#font_0_74" transform="matrix(12,0,0,-12,339.86247,300.46876)"/>
<use xlink:href="#font_0_65" transform="matrix(12,0,0,-12,344.90248,300.62477)"/>
<use xlink:href="#font_0_64" transform="matrix(12,0,0,-12,352.28248,300.62477)"/>
<path transform="matrix(1,0,0,-1,0,314.96876)" stroke-width="2" stroke-linecap="square" stroke-linejoin="round" fill="none" stroke="#ff7f0e" d="M 383.28907 18.7 L 407.28907 18.7 "/>
<symbol id="font_0_2d">
<path transform="matrix(.001,0,0,.001,-.049000004,-.23400001)" d="M 49 314 L 312 314 L 312 234 L 49 234 L 49 314 "/>
</symbol>
<symbol id="font_0_62">
<path transform="matrix(.001,0,0,.001,-.091000009,.013)" d="M 487 273 C 487 339 473 390 446 428 C 418 466 381 485 334 485 C 286 485 249 466 222 428 C 194 390 181 339 181 273 C 181 207 194 155 222 117 C 249 79 286 61 334 61 C 381 61 418 79 446 117 C 473 155 487 207 487 273 M 181 464 C 199 496 223 520 252 536 C 281 552 316 560 356 560 C 422 560 476 533 518 481 C 559 428 580 359 580 273 C 580 187 559 117 518 65 C 476 13 422 -13 356 -13 C 316 -13 281 -5 252 10 C 223 25 199 49 181 82 L 181 0 L 91 0 L 91 760 L 181 760 L 181 464 "/>
</symbol>
<use xlink:href="#font_0_4c" transform="matrix(12,0,0,-12,418.06507,300.46876)"/>
<use xlink:href="#font_0_61" transform="matrix(12,0,0,-12,424.29307,300.62477)"/>
<use xlink:href="#font_0_6e" transform="matrix(12,0,0,-12,432.02107,300.46876)"/>
<use xlink:href="#font_0_64" transform="matrix(12,0,0,-12,439.19706,300.62477)"/>
<use xlink:href="#font_0_2d" transform="matrix(12,0,0,-12,446.74507,297.66075)"/>
<use xlink:href="#font_0_62" transform="matrix(12,0,0,-12,451.58106,300.62477)"/>
<use xlink:href="#font_0_61" transform="matrix(12,0,0,-12,458.82905,300.62477)"/>
<use xlink:href="#font_0_73" transform="matrix(12,0,0,-12,466.11305,300.62477)"/>
<use xlink:href="#font_0_65" transform="matrix(12,0,0,-12,472.37705,300.62477)"/>
<use xlink:href="#font_0_64" transform="matrix(12,0,0,-12,479.75706,300.62477)"/>
<path transform="matrix(1,0,0,-1,0,314.96876)" stroke-width="2" stroke-linecap="square" stroke-linejoin="round" fill="none" stroke="#2ca02c" d="M 510.74845 18.7 L 534.7484 18.7 "/>
<symbol id="font_0_4f">
<path transform="matrix(.001,0,0,.001,-.056,.013)" d="M 394 662 C 322 662 265 635 223 582 C 181 528 160 456 160 364 C 160 272 181 199 223 146 C 265 92 322 66 394 66 C 465 66 522 92 564 146 C 606 199 627 272 627 364 C 627 456 606 528 564 582 C 522 635 465 662 394 662 M 394 742 C 496 742 577 707 639 639 C 700 571 731 479 731 364 C 731 248 700 157 639 89 C 577 21 496 -13 394 -13 C 291 -13 209 21 148 89 C 86 157 56 248 56 364 C 56 479 86 571 148 639 C 209 707 291 742 394 742 "/>
</symbol>
<symbol id="font_0_66">
<path transform="matrix(.001,0,0,.001,-.023000002,0)" d="M 371 760 L 371 685 L 285 685 C 253 685 230 678 218 665 C 205 652 199 629 199 595 L 199 547 L 347 547 L 347 477 L 199 477 L 199 0 L 109 0 L 109 477 L 23 477 L 23 547 L 109 547 L 109 585 C 109 645 123 690 151 718 C 179 746 224 760 286 760 L 371 760 "/>
</symbol>
<use xlink:href="#font_0_4f" transform="matrix(12,0,0,-12,545.02047,300.62477)"/>
<use xlink:href="#font_0_66" transform="matrix(12,0,0,-12,554.0685,300.46876)"/>
<use xlink:href="#font_0_66" transform="matrix(12,0,0,-12,558.2925,300.46876)"/>
<use xlink:href="#font_0_73" transform="matrix(12,0,0,-12,562.8885,300.62477)"/>
<use xlink:href="#font_0_68" transform="matrix(12,0,0,-12,569.5845,300.46876)"/>
<use xlink:href="#font_0_6f" transform="matrix(12,0,0,-12,576.76046,300.62477)"/>
<use xlink:href="#font_0_72" transform="matrix(12,0,0,-12,584.53646,300.46876)"/>
<use xlink:href="#font_0_65" transform="matrix(12,0,0,-12,589.03646,300.62477)"/>
<path transform="matrix(1,0,0,-1,0,314.96876)" d="M 575.6344 72.1725 L 819.7594 72.1725 L 819.7594 289.6125 L 575.6344 289.6125 Z " fill="#ffffff"/>
<path transform="matrix(1,0,0,-1,0,314.96876)" d="M 575.6344 72.1725 L 575.6344 68.6725 "/>
<path transform="matrix(1,0,0,-1,0,314.96876)" stroke-width=".8" stroke-linecap="butt" stroke-linejoin="round" fill="none" stroke="#000000" d="M 575.6344 72.1725 L 575.6344 68.6725 "/>
<use xlink:href="#font_0_30" transform="matrix(10,0,0,-10,573.1147,257.52003)"/>
<path transform="matrix(1,0,0,-1,0,314.96876)" d="M 620.02078 72.1725 L 620.02078 68.6725 "/>
<path transform="matrix(1,0,0,-1,0,314.96876)" stroke-width=".8" stroke-linecap="butt" stroke-linejoin="round" fill="none" stroke="#000000" d="M 620.02078 72.1725 L 620.02078 68.6725 "/>
<use xlink:href="#font_0_35" transform="matrix(10,0,0,-10,614.4314,257.52003)"/>
<use xlink:href="#font_0_30" transform="matrix(10,0,0,-10,620.68136,257.52003)"/>
<path transform="matrix(1,0,0,-1,0,314.96876)" d="M 664.4071 72.1725 L 664.4071 68.6725 "/>
<path transform="matrix(1,0,0,-1,0,314.96876)" stroke-width=".8" stroke-linecap="butt" stroke-linejoin="round" fill="none" stroke="#000000" d="M 664.4071 72.1725 L 664.4071 68.6725 "/>
<use xlink:href="#font_0_31" transform="matrix(10,0,0,-10,655.968,257.39)"/>
<use xlink:href="#font_0_30" transform="matrix(10,0,0,-10,661.888,257.52003)"/>
<use xlink:href="#font_0_30" transform="matrix(10,0,0,-10,668.248,257.52003)"/>
<path transform="matrix(1,0,0,-1,0,314.96876)" d="M 708.79348 72.1725 L 708.79348 68.6725 "/>
<path transform="matrix(1,0,0,-1,0,314.96876)" stroke-width=".8" stroke-linecap="butt" stroke-linejoin="round" fill="none" stroke="#000000" d="M 708.79348 72.1725 L 708.79348 68.6725 "/>
<use xlink:href="#font_0_31" transform="matrix(10,0,0,-10,700.3544,257.39)"/>
<use xlink:href="#font_0_35" transform="matrix(10,0,0,-10,706.3844,257.52003)"/>
<use xlink:href="#font_0_30" transform="matrix(10,0,0,-10,712.63436,257.52003)"/>
<path transform="matrix(1,0,0,-1,0,314.96876)" d="M 753.1798 72.1725 L 753.1798 68.6725 "/>
<path transform="matrix(1,0,0,-1,0,314.96876)" stroke-width=".8" stroke-linecap="butt" stroke-linejoin="round" fill="none" stroke="#000000" d="M 753.1798 72.1725 L 753.1798 68.6725 "/>
<use xlink:href="#font_0_32" transform="matrix(10,0,0,-10,744.3707,257.39)"/>
<use xlink:href="#font_0_30" transform="matrix(10,0,0,-10,750.6607,257.52003)"/>
<use xlink:href="#font_0_30" transform="matrix(10,0,0,-10,757.0207,257.52003)"/>
<path transform="matrix(1,0,0,-1,0,314.96876)" d="M 797.5662 72.1725 L 797.5662 68.6725 "/>
<path transform="matrix(1,0,0,-1,0,314.96876)" stroke-width=".8" stroke-linecap="butt" stroke-linejoin="round" fill="none" stroke="#000000" d="M 797.5662 72.1725 L 797.5662 68.6725 "/>
<use xlink:href="#font_0_32" transform="matrix(10,0,0,-10,788.7571,257.39)"/>
<use xlink:href="#font_0_35" transform="matrix(10,0,0,-10,795.1571,257.52003)"/>
<use xlink:href="#font_0_30" transform="matrix(10,0,0,-10,801.40707,257.52003)"/>
<use xlink:href="#font_0_44" transform="matrix(14,0,0,-14,639.5533,274.10877)"/>
<use xlink:href="#font_0_65" transform="matrix(14,0,0,-14,649.7313,274.29078)"/>
<use xlink:href="#font_0_6d" transform="matrix(14,0,0,-14,658.8453,274.10877)"/>
<use xlink:href="#font_0_61" transform="matrix(14,0,0,-14,672.0473,274.29078)"/>
<use xlink:href="#font_0_6e" transform="matrix(14,0,0,-14,681.0633,274.10877)"/>
<use xlink:href="#font_0_64" transform="matrix(14,0,0,-14,689.4353,274.29078)"/>
<use xlink:href="#font_0_20" transform="matrix(14,0,0,-14,683.2613,280.59077)"/>
<use xlink:href="#font_0_28" transform="matrix(14,0,0,-14,703.2113,275.94279)"/>
<use xlink:href="#font_0_54" transform="matrix(14,0,0,-14,707.43936,274.10877)"/>
<use xlink:href="#font_0_57" transform="matrix(14,0,0,-14,716.48336,274.10877)"/>
<use xlink:href="#font_0_68" transform="matrix(14,0,0,-14,731.14138,274.10877)"/>
<use xlink:href="#font_0_2f" transform="matrix(14,0,0,-14,738.74337,275.39677)"/>
<use xlink:href="#font_0_79" transform="matrix(14,0,0,-14,743.88137,277.00679)"/>
<use xlink:href="#font_0_29" transform="matrix(14,0,0,-14,752.8694,275.94279)"/>
<path transform="matrix(1,0,0,-1,0,314.96876)" d="M 575.6344 72.1725 L 572.1344 72.1725 "/>
<path transform="matrix(1,0,0,-1,0,314.96876)" stroke-width=".8" stroke-linecap="butt" stroke-linejoin="round" fill="none" stroke="#000000" d="M 575.6344 72.1725 L 572.1344 72.1725 "/>
<path transform="matrix(1,0,0,-1,0,314.96876)" d="M 575.6344 105.62481 L 572.1344 105.62481 "/>
<path transform="matrix(1,0,0,-1,0,314.96876)" stroke-width=".8" stroke-linecap="butt" stroke-linejoin="round" fill="none" stroke="#000000" d="M 575.6344 105.62481 L 572.1344 105.62481 "/>
<path transform="matrix(1,0,0,-1,0,314.96876)" d="M 575.6344 139.07712 L 572.1344 139.07712 "/>
<path transform="matrix(1,0,0,-1,0,314.96876)" stroke-width=".8" stroke-linecap="butt" stroke-linejoin="round" fill="none" stroke="#000000" d="M 575.6344 139.07712 L 572.1344 139.07712 "/>
<path transform="matrix(1,0,0,-1,0,314.96876)" d="M 575.6344 172.52942 L 572.1344 172.52942 "/>
<path transform="matrix(1,0,0,-1,0,314.96876)" stroke-width=".8" stroke-linecap="butt" stroke-linejoin="round" fill="none" stroke="#000000" d="M 575.6344 172.52942 L 572.1344 172.52942 "/>
<path transform="matrix(1,0,0,-1,0,314.96876)" d="M 575.6344 205.98174 L 572.1344 205.98174 "/>
<path transform="matrix(1,0,0,-1,0,314.96876)" stroke-width=".8" stroke-linecap="butt" stroke-linejoin="round" fill="none" stroke="#000000" d="M 575.6344 205.98174 L 572.1344 205.98174 "/>
<path transform="matrix(1,0,0,-1,0,314.96876)" d="M 575.6344 239.43404 L 572.1344 239.43404 "/>
<path transform="matrix(1,0,0,-1,0,314.96876)" stroke-width=".8" stroke-linecap="butt" stroke-linejoin="round" fill="none" stroke="#000000" d="M 575.6344 239.43404 L 572.1344 239.43404 "/>
<path transform="matrix(1,0,0,-1,0,314.96876)" d="M 575.6344 272.88636 L 572.1344 272.88636 "/>
<path transform="matrix(1,0,0,-1,0,314.96876)" stroke-width=".8" stroke-linecap="butt" stroke-linejoin="round" fill="none" stroke="#000000" d="M 575.6344 272.88636 L 572.1344 272.88636 "/>
<clipPath id="cp8">
<path transform="matrix(1,0,0,-1,0,314.96876)" d="M 575.6344 72.1725 L 819.7594 72.1725 L 819.7594 289.6125 L 575.6344 289.6125 Z "/>
</clipPath>
<g clip-path="url(#cp8)">
<path transform="matrix(1,0,0,-1,0,314.96876)" stroke-width="2" stroke-linecap="square" stroke-linejoin="round" fill="none" stroke="#1f77b4" d="M 583.4153 177.61002 L 591.1962 177.46083 L 598.9772 177.58783 L 606.7581 177.48389 L 614.539 177.94127 L 622.31997 178.32543 L 630.1009 178.3385 L 637.88186 178.53095 L 645.6627 179.03035 L 653.44369 179.2838 L 661.2246 179.66936 L 669.00558 180.0542 L 676.78646 180.48227 L 684.5674 180.62168 L 692.3483 180.98647 L 707.91018 181.62071 "/>
</g>
<clipPath id="cp9">
<path transform="matrix(1,0,0,-1,0,314.96876)" d="M 575.6344 72.1725 L 819.7594 72.1725 L 819.7594 289.6125 L 575.6344 289.6125 Z "/>
</clipPath>
<g clip-path="url(#cp9)">
<path transform="matrix(1,0,0,-1,0,314.96876)" stroke-width="2" stroke-linecap="square" stroke-linejoin="round" fill="none" stroke="#ff7f0e" d="M 583.4153 177.93097 L 591.1962 177.46083 L 598.9772 177.74552 L 606.7581 178.02654 L 614.539 178.29114 L 622.31997 178.15743 L 630.1009 178.85047 L 637.88186 178.91825 L 645.6627 179.16303 L 653.44369 179.56107 L 661.2246 179.93053 L 669.00558 180.45792 L 676.78646 180.71483 L 684.5674 181.14354 L 692.3483 181.5618 L 700.1293 181.71254 L 707.91018 182.17522 L 715.6911 182.70444 L 723.47207 183.15761 L 731.253 183.25339 L 739.0339 183.74127 L 746.8148 184.28607 L 754.59579 184.13367 L 762.3767 184.59496 L 770.1576 185.1706 L 777.93856 184.86264 L 785.7195 185.11847 L 793.5004 185.67554 L 801.2813 185.41551 L 809.06228 185.73989 "/>
</g>
<clipPath id="cp10">
<path transform="matrix(1,0,0,-1,0,314.96876)" d="M 575.6344 72.1725 L 819.7594 72.1725 L 819.7594 289.6125 L 575.6344 289.6125 Z "/>
</clipPath>
<g clip-path="url(#cp10)">
<path transform="matrix(1,0,0,-1,0,314.96876)" stroke-width="2" stroke-linecap="square" stroke-linejoin="round" fill="none" stroke="#2ca02c" d="M 583.4153 183.24922 L 591.1962 181.20139 L 598.9772 181.08254 L 606.7581 179.80489 L 614.539 180.04425 L 622.31997 179.71825 L 630.1009 179.7363 L 637.88186 179.69745 L 645.6627 180.1369 L 653.44369 180.48844 L 661.2246 180.51204 L 669.00558 181.07044 L 676.78646 181.51607 L 684.5674 181.64348 L 692.3483 181.87055 L 700.1293 182.06417 L 715.6911 182.5312 L 809.06228 184.66535 "/>
</g>
<path transform="matrix(1,0,0,-1,0,314.96876)" stroke-width=".8" stroke-linecap="square" stroke-miterlimit="10" stroke-linejoin="miter" fill="none" stroke="#000000" d="M 575.6344 72.1725 L 575.6344 289.6125 "/>
<path transform="matrix(1,0,0,-1,0,314.96876)" stroke-width=".8" stroke-linecap="square" stroke-miterlimit="10" stroke-linejoin="miter" fill="none" stroke="#000000" d="M 575.6344 72.1725 L 819.7594 72.1725 "/>
<symbol id="font_0_42">
<path transform="matrix(.001,0,0,.001,-.098000008,0)" d="M 197 348 L 197 81 L 355 81 C 408 81 447 92 473 114 C 498 136 511 169 511 215 C 511 260 498 293 473 315 C 447 337 408 348 355 348 L 197 348 M 197 648 L 197 428 L 343 428 C 391 428 426 437 450 455 C 474 473 486 500 486 538 C 486 574 474 602 450 620 C 426 638 391 648 343 648 L 197 648 M 98 729 L 350 729 C 425 729 483 713 524 682 C 564 650 585 606 585 549 C 585 504 574 468 553 442 C 532 416 502 399 462 393 C 510 382 548 360 575 327 C 601 294 615 253 615 204 C 615 138 592 88 548 53 C 504 17 441 0 360 0 L 98 0 L 98 729 "/>
</symbol>
<use xlink:href="#font_0_42" transform="matrix(16,0,0,-16,660.593,19.356263)"/>
<use xlink:href="#font_0_65" transform="matrix(16,0,0,-16,670.88107,19.564263)"/>
<use xlink:href="#font_0_73" transform="matrix(16,0,0,-16,680.7051,19.564263)"/>
<use xlink:href="#font_0_74" transform="matrix(16,0,0,-16,688.6091,19.356263)"/>
<use xlink:href="#font_0_20" transform="matrix(16,0,0,-16,678.11306,26.764264)"/>
<use xlink:href="#font_0_63" transform="matrix(16,0,0,-16,700.41708,19.564263)"/>
<use xlink:href="#font_0_61" transform="matrix(16,0,0,-16,709.29708,19.564263)"/>
<use xlink:href="#font_0_73" transform="matrix(16,0,0,-16,719.00906,19.564263)"/>
<use xlink:href="#font_0_65" transform="matrix(16,0,0,-16,727.361,19.564263)"/>
</g>
</g>
</svg>
