<?xml version="1.0" encoding="UTF-8" standalone="no"?>
<!DOCTYPE svg PUBLIC "-//W3C//DTD SVG 1.1//EN" "http://www.w3.org/Graphics/SVG/1.1/DTD/svg11.dtd">
<svg xmlns="http://www.w3.org/2000/svg" xmlns:xlink="http://www.w3.org/1999/xlink" version="1.1" width="1015.65469pt" height="379.10688pt" viewBox="0 0 1015.65469 379.10688">
<g enable-background="new">
<g>
<path transform="matrix(1,0,0,-1,0,379.10688)" d="M 211.7 45.746877 L 992.9 45.746877 L 992.9 371.90687 L 211.7 371.90687 Z " fill="#ffffff"/>
<clipPath id="cp0">
<path transform="matrix(1,0,0,-1,0,379.10688)" d="M 211.7 45.746877 L 992.9 45.746877 L 992.9 371.9069 L 211.7 371.9069 Z "/>
</clipPath>
<g clip-path="url(#cp0)">
<path transform="matrix(1,0,0,-1,0,379.10688)" d="M 602.3 55.939378 L 564.74209 55.939378 L 564.74209 76.32437 L 602.3 76.32437 Z " fill="#008000"/>
</g>
<clipPath id="cp1">
<path transform="matrix(1,0,0,-1,0,379.10688)" d="M 211.7 45.746877 L 992.9 45.746877 L 992.9 371.9069 L 211.7 371.9069 Z "/>
</clipPath>
<g clip-path="url(#cp1)">
<path transform="matrix(1,0,0,-1,0,379.10688)" d="M 602.3 96.70937 L 381.28974 96.70937 L 381.28974 117.094379 L 602.3 117.094379 Z " fill="#008000"/>
</g>
<clipPath id="cp2">
<path transform="matrix(1,0,0,-1,0,379.10688)" d="M 211.7 45.746877 L 992.9 45.746877 L 992.9 371.9069 L 211.7 371.9069 Z "/>
</clipPath>
<g clip-path="url(#cp2)">
<path transform="matrix(1,0,0,-1,0,379.10688)" d="M 602.3 137.47937 L 405.73805 137.47937 L 405.73805 157.86438 L 602.3 157.86438 Z " fill="#008000"/>
</g>
<clipPath id="cp3">
<path transform="matrix(1,0,0,-1,0,379.10688)" d="M 211.7 45.746877 L 992.9 45.746877 L 992.9 371.9069 L 211.7 371.9069 Z "/>
</clipPath>
<g clip-path="url(#cp3)">
<path transform="matrix(1,0,0,-1,0,379.10688)" d="M 602.3 178.24938 L 584.9835 178.24938 L 584.9835 198.63437 L 602.3 198.63437 Z " fill="#008000"/>
</g>
<clipPath id="cp4">
<path transform="matrix(1,0,0,-1,0,379.10688)" d="M 211.7 45.746877 L 992.9 45.746877 L 992.9 371.9069 L 211.7 371.9069 Z "/>
</clipPath>
<g clip-path="url(#cp4)">
<path transform="matrix(1,0,0,-1,0,379.10688)" d="M 602.3 219.01938 L 602.3 219.01938 L 602.3 239.40438 Z " fill="#008000"/>
</g>
<clipPath id="cp5">
<path transform="matrix(1,0,0,-1,0,379.10688)" d="M 211.7 45.746877 L 992.9 45.746877 L 992.9 371.9069 L 211.7 371.9069 Z "/>
</clipPath>
<g clip-path="url(#cp5)">
<path transform="matrix(1,0,0,-1,0,379.10688)" d="M 602.3 259.78938 L 602.3 259.78938 L 602.3 280.17439 Z " fill="#008000"/>
</g>
<clipPath id="cp6">
<path transform="matrix(1,0,0,-1,0,379.10688)" d="M 211.7 45.746877 L 992.9 45.746877 L 992.9 371.9069 L 211.7 371.9069 Z "/>
</clipPath>
<g clip-path="url(#cp6)">
<path transform="matrix(1,0,0,-1,0,379.10688)" d="M 602.3 300.5594 L 519.21896 300.5594 L 519.21896 320.94438 L 602.3 320.94438 Z " fill="#008000"/>
</g>
<clipPath id="cp7">
<path transform="matrix(1,0,0,-1,0,379.10688)" d="M 211.7 45.746877 L 992.9 45.746877 L 992.9 371.9069 L 211.7 371.9069 Z "/>
</clipPath>
<g clip-path="url(#cp7)">
<path transform="matrix(1,0,0,-1,0,379.10688)" d="M 602.3 341.32939 L 310.55995 341.32939 L 310.55995 361.7144 L 602.3 361.7144 Z " fill="#008000"/>
</g>
<clipPath id="cp8">
<path transform="matrix(1,0,0,-1,0,379.10688)" d="M 211.7 45.746877 L 992.9 45.746877 L 992.9 371.9069 L 211.7 371.9069 Z "/>
</clipPath>
<g clip-path="url(#cp8)">
<path transform="matrix(1,0,0,-1,0,379.10688)" d="M 602.3 55.939378 L 683.3619 55.939378 L 683.3619 76.32437 L 602.3 76.32437 Z " fill="#ff0000"/>
</g>
<clipPath id="cp9">
<path transform="matrix(1,0,0,-1,0,379.10688)" d="M 211.7 45.746877 L 992.9 45.746877 L 992.9 371.9069 L 211.7 371.9069 Z "/>
</clipPath>
<g clip-path="url(#cp9)">
<path transform="matrix(1,0,0,-1,0,379.10688)" d="M 381.28974 96.70937 L 381.28974 96.70937 L 381.28974 117.094379 Z " fill="#ff0000"/>
</g>
<clipPath id="cp10">
<path transform="matrix(1,0,0,-1,0,379.10688)" d="M 211.7 45.746877 L 992.9 45.746877 L 992.9 371.9069 L 211.7 371.9069 Z "/>
</clipPath>
<g clip-path="url(#cp10)">
<path transform="matrix(1,0,0,-1,0,379.10688)" d="M 602.3 137.47937 L 995.5921 137.47937 L 995.5921 157.86438 L 602.3 157.86438 Z " fill="#ff0000"/>
</g>
<clipPath id="cp11">
<path transform="matrix(1,0,0,-1,0,379.10688)" d="M 211.7 45.746877 L 992.9 45.746877 L 992.9 371.9069 L 211.7 371.9069 Z "/>
</clipPath>
<g clip-path="url(#cp11)">
<path transform="matrix(1,0,0,-1,0,379.10688)" d="M 602.3 178.24938 L 618.27108 178.24938 L 618.27108 198.63437 L 602.3 198.63437 Z " fill="#ff0000"/>
</g>
<clipPath id="cp12">
<path transform="matrix(1,0,0,-1,0,379.10688)" d="M 211.7 45.746877 L 992.9 45.746877 L 992.9 371.9069 L 211.7 371.9069 Z "/>
</clipPath>
<g clip-path="url(#cp12)">
<path transform="matrix(1,0,0,-1,0,379.10688)" d="M 602.3 219.01938 L 614.44686 219.01938 L 614.44686 239.40438 L 602.3 239.40438 Z " fill="#ff0000"/>
</g>
<clipPath id="cp13">
<path transform="matrix(1,0,0,-1,0,379.10688)" d="M 211.7 45.746877 L 992.9 45.746877 L 992.9 371.9069 L 211.7 371.9069 Z "/>
</clipPath>
<g clip-path="url(#cp13)">
<path transform="matrix(1,0,0,-1,0,379.10688)" d="M 602.3 259.78938 L 675.3344 259.78938 L 675.3344 280.17439 L 602.3 280.17439 Z " fill="#ff0000"/>
</g>
<clipPath id="cp14">
<path transform="matrix(1,0,0,-1,0,379.10688)" d="M 211.7 45.746877 L 992.9 45.746877 L 992.9 371.9069 L 211.7 371.9069 Z "/>
</clipPath>
<g clip-path="url(#cp14)">
<path transform="matrix(1,0,0,-1,0,379.10688)" d="M 519.21896 300.5594 L 519.21896 300.5594 L 519.21896 320.94438 Z " fill="#ff0000"/>
</g>
<clipPath id="cp15">
<path transform="matrix(1,0,0,-1,0,379.10688)" d="M 211.7 45.746877 L 992.9 45.746877 L 992.9 371.9069 L 211.7 371.9069 Z "/>
</clipPath>
<g clip-path="url(#cp15)">
<path transform="matrix(1,0,0,-1,0,379.10688)" d="M 310.55995 341.32939 L 310.55995 341.32939 L 310.55995 361.7144 Z " fill="#ff0000"/>
</g>
<path transform="matrix(1,0,0,-1,0,379.10688)" d="M 211.7 45.746877 L 211.7 42.246877 "/>
<path transform="matrix(1,0,0,-1,0,379.10688)" stroke-width=".8" stroke-linecap="butt" stroke-linejoin="round" fill="none" stroke="#000000" d="M 211.7 45.746877 L 211.7 42.246877 "/>
<symbol id="font_10_33">
<path transform="matrix(.001,0,0,.001,-.076000008,.013)" d="M 406 393 C 453 383 490 362 516 330 C 542 298 556 258 556 212 C 556 140 531 84 482 45 C 432 6 362 -13 271 -13 C 240 -13 208 -10 176 -4 C 144 1 110 10 76 22 L 76 117 C 103 101 133 89 166 81 C 198 73 232 69 268 69 C 330 69 377 81 409 105 C 441 129 458 165 458 212 C 458 254 443 288 413 312 C 383 336 341 349 287 349 L 202 349 L 202 430 L 291 430 C 339 430 376 439 402 459 C 428 478 441 506 441 543 C 441 580 427 609 401 629 C 374 649 336 659 287 659 C 260 659 231 656 200 650 C 169 644 135 635 98 623 L 98 711 C 135 721 170 729 203 734 C 235 739 266 742 296 742 C 370 742 429 725 473 691 C 517 657 539 611 539 553 C 539 513 527 479 504 451 C 481 423 448 403 406 393 "/>
</symbol>
<symbol id="font_10_30">
<path transform="matrix(.001,0,0,.001,-.066,.013)" d="M 318 664 C 267 664 229 639 203 589 C 177 539 165 464 165 364 C 165 264 177 189 203 139 C 229 89 267 64 318 64 C 369 64 407 89 433 139 C 458 189 471 264 471 364 C 471 464 458 539 433 589 C 407 639 369 664 318 664 M 318 742 C 399 742 461 709 505 645 C 548 580 570 486 570 364 C 570 241 548 147 505 83 C 461 19 399 -13 318 -13 C 236 -13 173 19 130 83 C 87 147 66 241 66 364 C 66 486 87 580 130 645 C 173 709 236 742 318 742 "/>
</symbol>
<symbol id="font_10_25">
<path transform="matrix(.001,0,0,.001,-.055000005,.013)" d="M 727 321 C 699 321 676 309 660 285 C 644 261 636 227 636 184 C 636 142 644 108 660 84 C 676 60 699 48 727 48 C 755 48 777 60 793 84 C 809 108 817 142 817 184 C 817 226 809 260 793 284 C 777 308 755 321 727 321 M 727 383 C 778 383 819 365 849 329 C 879 293 895 244 895 184 C 895 123 879 75 849 40 C 819 4 778 -13 727 -13 C 675 -13 633 4 603 40 C 573 75 558 123 558 184 C 558 245 573 293 603 329 C 633 365 675 383 727 383 M 223 680 C 195 680 173 667 157 643 C 141 619 133 586 133 544 C 133 500 141 467 157 443 C 173 419 195 407 223 407 C 251 407 274 419 290 443 C 306 467 314 500 314 544 C 314 586 305 619 289 643 C 273 667 251 680 223 680 M 664 742 L 742 742 L 286 -13 L 208 -13 L 664 742 M 223 742 C 274 742 315 724 346 688 C 376 652 392 604 392 544 C 392 482 376 434 346 398 C 316 362 275 345 223 345 C 171 345 130 362 100 398 C 70 434 55 482 55 544 C 55 604 70 652 100 688 C 130 724 171 742 223 742 "/>
</symbol>
<use xlink:href="#font_10_33" transform="matrix(14,0,0,-14,203.07259,351.18263)"/>
<use xlink:href="#font_10_30" transform="matrix(14,0,0,-14,211.8366,351.18263)"/>
<use xlink:href="#font_10_25" transform="matrix(14,0,0,-14,220.5866,351.18263)"/>
<clipPath id="cp17">
<path transform="matrix(.014,0,0,-.014,190.27812,351.0006)" d="M -1021 -463 L 1794 -463 L 1794 1233 L -1021 1233 Z "/>
</clipPath>
<g clip-path="url(#cp17)">
<path transform="matrix(.014,0,0,-.014,190.27812,351.0006)" d="M 106 355 L 732 355 L 732 272 L 106 272 L 106 355 "/>
</g>
<path transform="matrix(1,0,0,-1,0,379.10688)" d="M 341.9 45.746877 L 341.9 42.246877 "/>
<path transform="matrix(1,0,0,-1,0,379.10688)" stroke-width=".8" stroke-linecap="butt" stroke-linejoin="round" fill="none" stroke="#000000" d="M 341.9 45.746877 L 341.9 42.246877 "/>
<symbol id="font_10_32">
<path transform="matrix(.001,0,0,.001,-.07300001,0)" d="M 192 83 L 536 83 L 536 0 L 73 0 L 73 83 C 110 121 161 173 226 239 C 290 304 331 346 348 365 C 380 400 402 430 414 455 C 426 479 433 504 433 528 C 433 566 419 598 392 622 C 365 646 330 659 286 659 C 255 659 222 653 188 643 C 154 632 117 616 78 594 L 78 694 C 118 710 155 722 189 730 C 223 738 255 742 284 742 C 359 742 419 723 464 685 C 509 647 532 597 532 534 C 532 504 526 475 515 449 C 504 422 484 390 454 354 C 446 344 420 317 376 272 C 332 227 271 164 192 83 "/>
</symbol>
<use xlink:href="#font_10_32" transform="matrix(14,0,0,-14,333.2306,351.0006)"/>
<use xlink:href="#font_10_30" transform="matrix(14,0,0,-14,342.0366,351.18263)"/>
<use xlink:href="#font_10_25" transform="matrix(14,0,0,-14,350.7866,351.18263)"/>
<clipPath id="cp18">
<path transform="matrix(.014,0,0,-.014,320.47813,351.0006)" d="M -1021 -463 L 1794 -463 L 1794 1233 L -1021 1233 Z "/>
</clipPath>
<g clip-path="url(#cp18)">
<path transform="matrix(.014,0,0,-.014,320.47813,351.0006)" d="M 106 355 L 732 355 L 732 272 L 106 272 L 106 355 "/>
</g>
<path transform="matrix(1,0,0,-1,0,379.10688)" d="M 472.1 45.746877 L 472.1 42.246877 "/>
<path transform="matrix(1,0,0,-1,0,379.10688)" stroke-width=".8" stroke-linecap="butt" stroke-linejoin="round" fill="none" stroke="#000000" d="M 472.1 45.746877 L 472.1 42.246877 "/>
<symbol id="font_10_31">
<path transform="matrix(.001,0,0,.001,-.11000001,0)" d="M 124 83 L 285 83 L 285 639 L 110 604 L 110 694 L 284 729 L 383 729 L 383 83 L 544 83 L 544 0 L 124 0 L 124 83 "/>
</symbol>
<use xlink:href="#font_10_31" transform="matrix(14,0,0,-14,463.9486,351.0006)"/>
<use xlink:href="#font_10_30" transform="matrix(14,0,0,-14,472.2366,351.18263)"/>
<use xlink:href="#font_10_25" transform="matrix(14,0,0,-14,480.9866,351.18263)"/>
<clipPath id="cp19">
<path transform="matrix(.014,0,0,-.014,450.67814,351.0006)" d="M -1021 -463 L 1794 -463 L 1794 1233 L -1021 1233 Z "/>
</clipPath>
<g clip-path="url(#cp19)">
<path transform="matrix(.014,0,0,-.014,450.67814,351.0006)" d="M 106 355 L 732 355 L 732 272 L 106 272 L 106 355 "/>
</g>
<path transform="matrix(1,0,0,-1,0,379.10688)" d="M 602.3 45.746877 L 602.3 42.246877 "/>
<path transform="matrix(1,0,0,-1,0,379.10688)" stroke-width=".8" stroke-linecap="butt" stroke-linejoin="round" fill="none" stroke="#000000" d="M 602.3 45.746877 L 602.3 42.246877 "/>
<use xlink:href="#font_10_30" transform="matrix(14,0,0,-14,592.12246,351.18263)"/>
<use xlink:href="#font_10_25" transform="matrix(14,0,0,-14,600.87246,351.18263)"/>
<path transform="matrix(1,0,0,-1,0,379.10688)" d="M 732.5 45.746877 L 732.5 42.246877 "/>
<path transform="matrix(1,0,0,-1,0,379.10688)" stroke-width=".8" stroke-linecap="butt" stroke-linejoin="round" fill="none" stroke="#000000" d="M 732.5 45.746877 L 732.5 42.246877 "/>
<use xlink:href="#font_10_31" transform="matrix(14,0,0,-14,718.4853,351.0006)"/>
<use xlink:href="#font_10_30" transform="matrix(14,0,0,-14,726.7733,351.18263)"/>
<use xlink:href="#font_10_25" transform="matrix(14,0,0,-14,735.5233,351.18263)"/>
<path transform="matrix(1,0,0,-1,0,379.10688)" d="M 862.7 45.746877 L 862.7 42.246877 "/>
<path transform="matrix(1,0,0,-1,0,379.10688)" stroke-width=".8" stroke-linecap="butt" stroke-linejoin="round" fill="none" stroke="#000000" d="M 862.7 45.746877 L 862.7 42.246877 "/>
<use xlink:href="#font_10_32" transform="matrix(14,0,0,-14,848.1673,351.0006)"/>
<use xlink:href="#font_10_30" transform="matrix(14,0,0,-14,856.9733,351.18263)"/>
<use xlink:href="#font_10_25" transform="matrix(14,0,0,-14,865.7233,351.18263)"/>
<path transform="matrix(1,0,0,-1,0,379.10688)" d="M 992.9 45.746877 L 992.9 42.246877 "/>
<path transform="matrix(1,0,0,-1,0,379.10688)" stroke-width=".8" stroke-linecap="butt" stroke-linejoin="round" fill="none" stroke="#000000" d="M 992.9 45.746877 L 992.9 42.246877 "/>
<use xlink:href="#font_10_33" transform="matrix(14,0,0,-14,978.40939,351.18263)"/>
<use xlink:href="#font_10_30" transform="matrix(14,0,0,-14,987.17337,351.18263)"/>
<use xlink:href="#font_10_25" transform="matrix(14,0,0,-14,995.92337,351.18263)"/>
<symbol id="font_10_43">
<path transform="matrix(.001,0,0,.001,-.056,.013)" d="M 644 673 L 644 569 C 610 599 575 622 537 638 C 499 653 460 661 418 661 C 334 661 270 635 226 584 C 182 533 160 460 160 364 C 160 268 182 194 226 143 C 270 92 334 67 418 67 C 460 67 499 74 537 90 C 575 105 610 128 644 159 L 644 56 C 609 32 572 15 534 4 C 496 -7 455 -13 412 -13 C 302 -13 215 20 151 87 C 87 154 56 246 56 364 C 56 481 87 573 151 641 C 215 708 302 742 412 742 C 456 742 497 736 535 725 C 573 713 610 696 644 673 "/>
</symbol>
<symbol id="font_10_68">
<path transform="matrix(.001,0,0,.001,-.091000009,0)" d="M 549 330 L 549 0 L 459 0 L 459 327 C 459 379 448 417 428 443 C 408 469 378 482 338 482 C 289 482 251 466 223 435 C 195 404 181 362 181 309 L 181 0 L 91 0 L 91 760 L 181 760 L 181 462 C 202 494 227 519 257 535 C 286 551 320 560 358 560 C 420 560 468 540 500 501 C 532 462 549 405 549 330 "/>
</symbol>
<symbol id="font_10_61">
<path transform="matrix(.001,0,0,.001,-.060000004,.013)" d="M 343 275 C 270 275 220 266 192 250 C 164 233 150 205 150 165 C 150 133 160 107 181 89 C 202 70 231 61 267 61 C 317 61 357 78 387 114 C 417 149 432 196 432 255 L 432 275 L 343 275 M 522 312 L 522 0 L 432 0 L 432 83 C 411 49 385 25 355 10 C 325 -5 287 -13 243 -13 C 187 -13 142 2 109 33 C 76 64 60 106 60 159 C 60 220 80 266 122 298 C 163 329 224 345 306 345 L 432 345 L 432 354 C 432 395 418 427 391 450 C 364 472 326 484 277 484 C 245 484 215 480 185 472 C 155 464 127 453 100 439 L 100 522 C 132 534 164 544 195 550 C 226 556 256 560 286 560 C 365 560 424 539 463 498 C 502 457 522 395 522 312 "/>
</symbol>
<symbol id="font_10_6e">
<path transform="matrix(.001,0,0,.001,-.091000009,0)" d="M 549 330 L 549 0 L 459 0 L 459 327 C 459 379 448 417 428 443 C 408 469 378 482 338 482 C 289 482 251 466 223 435 C 195 404 181 362 181 309 L 181 0 L 91 0 L 91 547 L 181 547 L 181 462 C 202 494 227 519 257 535 C 286 551 320 560 358 560 C 420 560 468 540 500 501 C 532 462 549 405 549 330 "/>
</symbol>
<symbol id="font_10_67">
<path transform="matrix(.001,0,0,.001,-.055000005,.20700002)" d="M 454 280 C 454 344 440 395 414 431 C 387 467 349 485 301 485 C 253 485 215 467 188 431 C 161 395 148 344 148 280 C 148 215 161 165 188 129 C 215 93 253 75 301 75 C 349 75 387 93 414 129 C 440 165 454 215 454 280 M 544 68 C 544 -24 523 -93 482 -139 C 440 -184 377 -207 292 -207 C 260 -207 231 -204 203 -200 C 175 -195 147 -188 121 -178 L 121 -91 C 147 -105 173 -115 199 -122 C 225 -129 251 -133 278 -133 C 336 -133 380 -117 410 -87 C 439 -56 454 -10 454 52 L 454 96 C 435 64 411 40 382 24 C 353 8 319 0 279 0 C 211 0 157 25 116 76 C 75 127 55 195 55 280 C 55 364 75 432 116 483 C 157 534 211 560 279 560 C 319 560 353 552 382 536 C 411 520 435 496 454 464 L 454 547 L 544 547 L 544 68 "/>
</symbol>
<symbol id="font_10_65">
<path transform="matrix(.001,0,0,.001,-.055000005,.013)" d="M 562 296 L 562 252 L 149 252 C 153 190 171 142 205 110 C 238 78 284 62 344 62 C 378 62 412 66 444 74 C 476 82 509 95 541 113 L 541 28 C 509 14 476 3 442 -3 C 408 -9 373 -13 339 -13 C 251 -13 182 12 131 62 C 80 112 55 181 55 268 C 55 357 79 428 127 481 C 175 533 241 560 323 560 C 397 560 455 536 498 489 C 540 441 562 377 562 296 M 472 322 C 471 371 457 410 431 440 C 404 469 368 484 324 484 C 274 484 234 469 204 441 C 174 413 156 373 152 322 L 472 322 "/>
</symbol>
<symbol id="font_10_20">
</symbol>
<symbol id="font_10_69">
<path transform="matrix(.001,0,0,.001,-.094000007,0)" d="M 94 547 L 184 547 L 184 0 L 94 0 L 94 547 M 94 760 L 184 760 L 184 646 L 94 646 L 94 760 "/>
</symbol>
<symbol id="font_10_4c">
<path transform="matrix(.001,0,0,.001,-.098000008,0)" d="M 98 729 L 197 729 L 197 83 L 552 83 L 552 0 L 98 0 L 98 729 "/>
</symbol>
<symbol id="font_10_6f">
<path transform="matrix(.001,0,0,.001,-.055000005,.013)" d="M 306 484 C 258 484 220 465 192 427 C 164 389 150 338 150 273 C 150 207 163 156 191 118 C 219 80 257 62 306 62 C 354 62 392 80 420 118 C 448 156 462 207 462 273 C 462 337 448 389 420 427 C 392 465 354 484 306 484 M 306 560 C 384 560 445 534 490 484 C 534 433 557 363 557 273 C 557 183 534 113 490 63 C 445 12 384 -13 306 -13 C 227 -13 165 12 121 63 C 77 113 55 183 55 273 C 55 363 77 433 121 484 C 165 534 227 560 306 560 "/>
</symbol>
<symbol id="font_10_48">
<path transform="matrix(.001,0,0,.001,-.098000008,0)" d="M 98 729 L 197 729 L 197 430 L 555 430 L 555 729 L 654 729 L 654 0 L 555 0 L 555 347 L 197 347 L 197 0 L 98 0 L 98 729 "/>
</symbol>
<use xlink:href="#font_10_43" transform="matrix(14,0,0,-14,543.584,368.7295)"/>
<use xlink:href="#font_10_68" transform="matrix(14,0,0,-14,553.84939,368.5475)"/>
<use xlink:href="#font_10_61" transform="matrix(14,0,0,-14,562.28848,368.7295)"/>
<use xlink:href="#font_10_6e" transform="matrix(14,0,0,-14,571.3015,368.5475)"/>
<use xlink:href="#font_10_67" transform="matrix(14,0,0,-14,579.6706,371.4455)"/>
<use xlink:href="#font_10_65" transform="matrix(14,0,0,-14,588.5573,368.7295)"/>
<use xlink:href="#font_10_20" transform="matrix(14,0,0,-14,582.10659,375.02949)"/>
<use xlink:href="#font_10_69" transform="matrix(14,0,0,-14,602.16677,368.5475)"/>
<use xlink:href="#font_10_6e" transform="matrix(14,0,0,-14,606.0144,368.5475)"/>
<use xlink:href="#font_10_20" transform="matrix(14,0,0,-14,599.31948,375.02949)"/>
<use xlink:href="#font_10_4c" transform="matrix(14,0,0,-14,619.43569,368.5475)"/>
<use xlink:href="#font_10_43" transform="matrix(14,0,0,-14,626.64749,368.7295)"/>
<use xlink:href="#font_10_6f" transform="matrix(14,0,0,-14,636.4089,368.7295)"/>
<use xlink:href="#font_10_48" transform="matrix(14,0,0,-14,645.5763,368.5475)"/>
<use xlink:href="#font_10_32" transform="matrix(9.8,0,0,-9.8,655.581,370.84437)"/>
<symbol id="font_10_57">
<path transform="matrix(.001,0,0,.001,-.033,0)" d="M 33 729 L 133 729 L 286 113 L 439 729 L 550 729 L 703 113 L 856 729 L 956 729 L 773 0 L 649 0 L 495 633 L 340 0 L 216 0 L 33 729 "/>
</symbol>
<symbol id="font_10_64">
<path transform="matrix(.001,0,0,.001,-.055000005,.013)" d="M 454 464 L 454 760 L 544 760 L 544 0 L 454 0 L 454 82 C 435 49 411 25 382 10 C 353 -5 319 -13 279 -13 C 213 -13 159 13 117 65 C 75 117 55 187 55 273 C 55 359 75 428 117 481 C 159 533 213 560 279 560 C 319 560 353 552 382 536 C 411 520 435 496 454 464 M 148 273 C 148 207 161 155 188 117 C 215 79 253 61 301 61 C 348 61 385 79 413 117 C 440 155 454 207 454 273 C 454 339 440 390 413 428 C 385 466 348 485 301 485 C 253 485 215 466 188 428 C 161 390 148 339 148 273 "/>
</symbol>
<symbol id="font_10_70">
<path transform="matrix(.001,0,0,.001,-.091000009,.20700002)" d="M 181 82 L 181 -207 L 91 -207 L 91 547 L 181 547 L 181 464 C 199 496 223 520 252 536 C 281 552 316 560 356 560 C 422 560 476 533 518 481 C 559 428 580 359 580 273 C 580 187 559 117 518 65 C 476 13 422 -13 356 -13 C 316 -13 281 -5 252 10 C 223 25 199 49 181 82 M 487 273 C 487 339 473 390 446 428 C 418 466 381 485 334 485 C 286 485 249 466 222 428 C 194 390 181 339 181 273 C 181 207 194 155 222 117 C 249 79 286 61 334 61 C 381 61 418 79 446 117 C 473 155 487 207 487 273 "/>
</symbol>
<symbol id="font_10_77">
<path transform="matrix(.001,0,0,.001,-.042000005,0)" d="M 42 547 L 132 547 L 244 120 L 356 547 L 462 547 L 574 120 L 686 547 L 776 547 L 633 0 L 527 0 L 409 448 L 291 0 L 185 0 L 42 547 "/>
</symbol>
<symbol id="font_10_72">
<path transform="matrix(.001,0,0,.001,-.091000009,0)" d="M 411 463 C 401 469 390 473 378 476 C 366 478 353 480 339 480 C 288 480 249 463 222 430 C 194 397 181 350 181 288 L 181 0 L 91 0 L 91 547 L 181 547 L 181 462 C 199 495 224 520 254 536 C 284 552 321 560 365 560 C 371 560 378 559 386 559 C 393 558 401 557 411 555 L 411 463 "/>
</symbol>
<symbol id="font_10_73">
<path transform="matrix(.001,0,0,.001,-.054,.013)" d="M 443 531 L 443 446 C 417 458 391 468 364 475 C 336 481 308 485 279 485 C 234 485 200 478 178 464 C 156 450 145 430 145 403 C 145 382 153 366 169 354 C 185 342 217 330 265 320 L 296 313 C 360 299 405 279 432 255 C 458 230 472 195 472 151 C 472 100 452 60 412 31 C 372 1 316 -13 246 -13 C 216 -13 186 -10 154 -5 C 122 0 89 8 54 20 L 54 113 C 87 95 120 82 152 74 C 184 65 216 61 248 61 C 290 61 323 68 346 82 C 368 96 380 117 380 144 C 380 168 371 187 355 200 C 339 213 303 226 247 238 L 216 245 C 160 257 119 275 95 299 C 70 323 58 356 58 399 C 58 450 76 490 112 518 C 148 546 200 560 268 560 C 301 560 332 557 362 552 C 391 547 418 540 443 531 "/>
</symbol>
<symbol id="font_10_2e">
<path transform="matrix(.001,0,0,.001,-.10700001,0)" d="M 107 124 L 210 124 L 210 0 L 107 0 L 107 124 "/>
</symbol>
<symbol id="font_10_28">
<path transform="matrix(.001,0,0,.001,-.086,.13100001)" d="M 310 759 C 266 683 234 609 213 536 C 191 463 181 389 181 314 C 181 238 191 164 213 91 C 234 17 266 -56 310 -131 L 232 -131 C 183 -54 146 20 122 94 C 98 168 86 241 86 314 C 86 386 98 459 122 533 C 146 607 182 682 232 759 L 310 759 "/>
</symbol>
<symbol id="font_10_4d">
<path transform="matrix(.001,0,0,.001,-.098000008,0)" d="M 98 729 L 245 729 L 431 233 L 618 729 L 765 729 L 765 0 L 669 0 L 669 640 L 481 140 L 382 140 L 194 640 L 194 0 L 98 0 L 98 729 "/>
</symbol>
<symbol id="font_10_2f">
<path transform="matrix(.001,0,0,.001,0,.09200001)" d="M 254 729 L 337 729 L 83 -92 L 0 -92 L 254 729 "/>
</symbol>
<symbol id="font_10_6b">
<path transform="matrix(.001,0,0,.001,-.091000009,0)" d="M 91 760 L 181 760 L 181 311 L 449 547 L 564 547 L 274 291 L 576 0 L 459 0 L 181 267 L 181 0 L 91 0 L 91 760 "/>
</symbol>
<symbol id="font_10_6d">
<path transform="matrix(.001,0,0,.001,-.091000009,0)" d="M 520 442 C 542 482 569 511 600 531 C 631 550 668 560 711 560 C 767 560 811 540 842 500 C 873 460 889 403 889 330 L 889 0 L 799 0 L 799 327 C 799 379 789 418 771 444 C 752 469 724 482 686 482 C 639 482 602 466 575 435 C 548 404 535 362 535 309 L 535 0 L 445 0 L 445 327 C 445 379 435 418 417 444 C 398 469 369 482 331 482 C 285 482 248 466 221 435 C 194 404 181 362 181 309 L 181 0 L 91 0 L 91 547 L 181 547 L 181 462 C 201 495 226 520 255 536 C 283 552 317 560 357 560 C 397 560 430 550 458 530 C 486 510 506 480 520 442 "/>
</symbol>
<use xlink:href="#font_10_57" transform="matrix(14,0,0,-14,7.6619999,319.10783)"/>
<use xlink:href="#font_10_69" transform="matrix(14,0,0,-14,22.358775,319.10783)"/>
<use xlink:href="#font_10_6e" transform="matrix(14,0,0,-14,26.206423,319.10783)"/>
<use xlink:href="#font_10_64" transform="matrix(14,0,0,-14,34.57547,319.28984)"/>
<use xlink:href="#font_10_20" transform="matrix(14,0,0,-14,28.398188,325.5898)"/>
<use xlink:href="#font_10_70" transform="matrix(14,0,0,-14,48.41638,322.00584)"/>
<use xlink:href="#font_10_6f" transform="matrix(14,0,0,-14,56.799104,319.28984)"/>
<use xlink:href="#font_10_77" transform="matrix(14,0,0,-14,65.182529,319.10783)"/>
<use xlink:href="#font_10_65" transform="matrix(14,0,0,-14,76.81472,319.28984)"/>
<use xlink:href="#font_10_72" transform="matrix(14,0,0,-14,85.93201,319.10783)"/>
<use xlink:href="#font_10_20" transform="matrix(14,0,0,-14,76.119869,325.5898)"/>
<use xlink:href="#font_10_64" transform="matrix(14,0,0,-14,95.634059,319.28984)"/>
<use xlink:href="#font_10_65" transform="matrix(14,0,0,-14,104.520778,319.28984)"/>
<use xlink:href="#font_10_6e" transform="matrix(14,0,0,-14,113.63806,319.10783)"/>
<use xlink:href="#font_10_73" transform="matrix(14,0,0,-14,121.9931,319.28984)"/>
<use xlink:href="#font_10_2e" transform="matrix(14,0,0,-14,130.02906,319.10783)"/>
<use xlink:href="#font_10_20" transform="matrix(14,0,0,-14,118.68725,325.5898)"/>
<use xlink:href="#font_10_28" transform="matrix(14,0,0,-14,138.63544,320.94184)"/>
<use xlink:href="#font_10_4d" transform="matrix(14,0,0,-14,144.26535,319.10783)"/>
<use xlink:href="#font_10_57" transform="matrix(14,0,0,-14,155.43447,319.10783)"/>
<use xlink:href="#font_10_2f" transform="matrix(14,0,0,-14,168.81523,320.3958)"/>
<use xlink:href="#font_10_6b" transform="matrix(14,0,0,-14,174.80603,319.10783)"/>
<use xlink:href="#font_10_6d" transform="matrix(14,0,0,-14,182.91345,319.10783)"/>
<use xlink:href="#font_10_32" transform="matrix(9.8,0,0,-9.8,196.12653,313.74845)"/>
<symbol id="font_10_29">
<path transform="matrix(.001,0,0,.001,-.080000009,.13100001)" d="M 80 759 L 158 759 C 206 682 243 607 267 533 C 291 459 304 386 304 314 C 304 241 291 168 267 94 C 243 20 206 -54 158 -131 L 80 -131 C 123 -56 155 17 177 91 C 198 164 209 238 209 314 C 209 389 198 463 177 536 C 155 609 123 683 80 759 "/>
</symbol>
<use xlink:href="#font_10_29" transform="matrix(14,0,0,-14,203.149,320.94184)"/>
<symbol id="font_10_63">
<path transform="matrix(.001,0,0,.001,-.055000005,.013)" d="M 488 526 L 488 442 C 462 456 437 466 411 473 C 385 480 360 484 334 484 C 276 484 230 465 198 428 C 166 391 150 339 150 273 C 150 206 166 154 198 117 C 230 80 276 62 334 62 C 360 62 385 65 411 72 C 437 79 462 90 488 104 L 488 21 C 462 9 436 0 410 -5 C 383 -10 354 -13 324 -13 C 242 -13 176 12 128 64 C 79 115 55 185 55 273 C 55 362 79 432 128 483 C 177 534 244 560 330 560 C 358 560 385 557 411 551 C 437 545 463 537 488 526 "/>
</symbol>
<symbol id="font_10_66">
<path transform="matrix(.001,0,0,.001,-.023000002,0)" d="M 371 760 L 371 685 L 285 685 C 253 685 230 678 218 665 C 205 652 199 629 199 595 L 199 547 L 347 547 L 347 477 L 199 477 L 199 0 L 109 0 L 109 477 L 23 477 L 23 547 L 109 547 L 109 585 C 109 645 123 690 151 718 C 179 746 224 760 286 760 L 371 760 "/>
</symbol>
<symbol id="font_10_74">
<path transform="matrix(.001,0,0,.001,-.027,0)" d="M 183 702 L 183 547 L 368 547 L 368 477 L 183 477 L 183 180 C 183 135 189 106 201 94 C 213 81 238 75 276 75 L 368 75 L 368 0 L 276 0 C 206 0 158 13 132 39 C 106 65 93 112 93 180 L 93 477 L 27 477 L 27 547 L 93 547 L 93 702 L 183 702 "/>
</symbol>
<symbol id="font_10_79">
<path transform="matrix(.001,0,0,.001,-.030000002,.20700002)" d="M 322 -50 C 296 -114 271 -157 247 -177 C 223 -197 191 -207 151 -207 L 79 -207 L 79 -132 L 132 -132 C 156 -132 175 -126 189 -114 C 203 -102 218 -75 235 -31 L 251 9 L 30 547 L 125 547 L 296 119 L 467 547 L 562 547 L 322 -50 "/>
</symbol>
<use xlink:href="#font_10_57" transform="matrix(14,0,0,-14,52.177629,277.52534)"/>
<use xlink:href="#font_10_69" transform="matrix(14,0,0,-14,66.87763,277.52534)"/>
<use xlink:href="#font_10_6e" transform="matrix(14,0,0,-14,70.72763,277.52534)"/>
<use xlink:href="#font_10_64" transform="matrix(14,0,0,-14,79.099628,277.70735)"/>
<use xlink:href="#font_10_20" transform="matrix(14,0,0,-14,72.92563,284.00733)"/>
<use xlink:href="#font_10_63" transform="matrix(14,0,0,-14,92.44163,277.70735)"/>
<use xlink:href="#font_10_61" transform="matrix(14,0,0,-14,100.211627,277.70735)"/>
<use xlink:href="#font_10_70" transform="matrix(14,0,0,-14,109.22763,280.42335)"/>
<use xlink:href="#font_10_2e" transform="matrix(14,0,0,-14,118.34163,277.52534)"/>
<use xlink:href="#font_10_20" transform="matrix(14,0,0,-14,107.00163,284.00733)"/>
<use xlink:href="#font_10_66" transform="matrix(14,0,0,-14,126.06963,277.52534)"/>
<use xlink:href="#font_10_61" transform="matrix(14,0,0,-14,131.51563,277.70735)"/>
<use xlink:href="#font_10_63" transform="matrix(14,0,0,-14,140.02764,277.70735)"/>
<use xlink:href="#font_10_74" transform="matrix(14,0,0,-14,147.33563,277.52534)"/>
<use xlink:href="#font_10_6f" transform="matrix(14,0,0,-14,153.21564,277.70735)"/>
<use xlink:href="#font_10_72" transform="matrix(14,0,0,-14,162.28765,277.52534)"/>
<use xlink:href="#font_10_20" transform="matrix(14,0,0,-14,152.47364,284.00733)"/>
<use xlink:href="#font_10_28" transform="matrix(14,0,0,-14,172.42363,279.35935)"/>
<use xlink:href="#font_10_25" transform="matrix(14,0,0,-14,177.44965,277.70735)"/>
<use xlink:href="#font_10_2f" transform="matrix(14,0,0,-14,189.97965,278.81333)"/>
<use xlink:href="#font_10_79" transform="matrix(14,0,0,-14,195.11765,280.42335)"/>
<use xlink:href="#font_10_29" transform="matrix(14,0,0,-14,204.10564,279.35935)"/>
<symbol id="font_10_41">
<path transform="matrix(.001,0,0,.001,-.008,0)" d="M 342 632 L 208 269 L 476 269 L 342 632 M 286 729 L 398 729 L 676 0 L 573 0 L 507 187 L 178 187 L 112 0 L 8 0 L 286 729 "/>
</symbol>
<symbol id="font_10_50">
<path transform="matrix(.001,0,0,.001,-.098000008,0)" d="M 197 648 L 197 374 L 321 374 C 367 374 402 385 427 409 C 452 433 465 467 465 511 C 465 555 452 588 427 612 C 402 636 367 648 321 648 L 197 648 M 98 729 L 321 729 C 402 729 464 710 506 673 C 548 636 569 582 569 511 C 569 439 548 384 506 348 C 464 311 402 293 321 293 L 197 293 L 197 0 L 98 0 L 98 729 "/>
</symbol>
<symbol id="font_10_45">
<path transform="matrix(.001,0,0,.001,-.098000008,0)" d="M 98 729 L 559 729 L 559 646 L 197 646 L 197 430 L 544 430 L 544 347 L 197 347 L 197 83 L 568 83 L 568 0 L 98 0 L 98 729 "/>
</symbol>
<symbol id="font_10_58">
<path transform="matrix(.001,0,0,.001,-.030000002,0)" d="M 63 729 L 169 729 L 350 458 L 532 729 L 638 729 L 404 379 L 654 0 L 548 0 L 343 310 L 136 0 L 30 0 L 290 389 L 63 729 "/>
</symbol>
<use xlink:href="#font_10_57" transform="matrix(14,0,0,-14,55.708879,236.75531)"/>
<use xlink:href="#font_10_69" transform="matrix(14,0,0,-14,70.40888,236.75531)"/>
<use xlink:href="#font_10_6e" transform="matrix(14,0,0,-14,74.25888,236.75531)"/>
<use xlink:href="#font_10_64" transform="matrix(14,0,0,-14,82.630878,236.93732)"/>
<use xlink:href="#font_10_20" transform="matrix(14,0,0,-14,76.45688,243.2373)"/>
<use xlink:href="#font_10_43" transform="matrix(14,0,0,-14,95.98688,236.93732)"/>
<use xlink:href="#font_10_41" transform="matrix(14,0,0,-14,105.086879,236.75531)"/>
<use xlink:href="#font_10_50" transform="matrix(14,0,0,-14,115.922878,236.75531)"/>
<use xlink:href="#font_10_45" transform="matrix(14,0,0,-14,124.364879,236.75531)"/>
<use xlink:href="#font_10_58" transform="matrix(14,0,0,-14,132.26088,236.75531)"/>
<use xlink:href="#font_10_20" transform="matrix(14,0,0,-14,127.13688,243.2373)"/>
<use xlink:href="#font_10_28" transform="matrix(14,0,0,-14,147.08689,238.58931)"/>
<use xlink:href="#font_10_4d" transform="matrix(14,0,0,-14,152.71488,236.75531)"/>
<use xlink:href="#font_10_2f" transform="matrix(14,0,0,-14,172.02227,238.0433)"/>
<use xlink:href="#font_10_4d" transform="matrix(14,0,0,-14,178.11226,236.75531)"/>
<use xlink:href="#font_10_57" transform="matrix(14,0,0,-14,189.28427,236.75531)"/>
<use xlink:href="#font_10_29" transform="matrix(14,0,0,-14,203.78826,238.58931)"/>
<clipPath id="cp20">
<path transform="matrix(.014,0,0,-.014,163.11504,236.75531)" d="M -1021 -463 L 1794 -463 L 1794 1233 L -1021 1233 Z "/>
</clipPath>
<g clip-path="url(#cp20)">
<path transform="matrix(.014,0,0,-.014,163.11504,236.75531)" d="M 570 673 L 570 569 C 540 603 511 627 484 642 C 456 656 426 664 393 664 C 341 664 299 647 267 615 C 234 582 212 535 202 475 L 484 475 L 457 415 L 194 415 C 193 407 193 399 193 392 C 193 384 193 375 193 364 C 193 353 193 344 193 337 C 193 329 193 322 194 314 L 412 314 L 385 254 L 202 254 C 212 193 234 146 267 113 C 299 80 341 64 393 64 C 426 64 456 71 484 86 C 511 100 540 125 570 159 L 570 56 C 540 32 511 15 481 4 C 451 -7 420 -13 389 -13 C 311 -13 248 10 198 57 C 148 103 116 169 103 254 L 0 254 L 27 314 L 95 314 C 95 321 94 328 94 336 C 94 344 94 353 94 364 C 94 375 94 384 94 392 C 94 400 95 407 95 415 L 0 415 L 27 475 L 103 475 C 116 559 148 624 198 671 C 248 718 312 742 389 742 C 421 742 452 736 482 725 C 512 713 541 696 570 673 "/>
</g>
<symbol id="font_10_44">
<path transform="matrix(.001,0,0,.001,-.098000008,0)" d="M 197 648 L 197 81 L 316 81 C 416 81 490 103 537 149 C 583 195 607 267 607 365 C 607 463 583 534 537 580 C 490 625 416 648 316 648 L 197 648 M 98 729 L 301 729 C 442 729 546 699 612 641 C 678 582 711 490 711 365 C 711 239 677 147 611 88 C 545 29 441 0 301 0 L 98 0 L 98 729 "/>
</symbol>
<symbol id="font_10_54">
<path transform="matrix(.001,0,0,.001,.002,0)" d="M -2 729 L 614 729 L 614 646 L 355 646 L 355 0 L 256 0 L 256 646 L -2 646 L -2 729 "/>
</symbol>
<use xlink:href="#font_10_44" transform="matrix(14,0,0,-14,90.54075,195.9853)"/>
<use xlink:href="#font_10_65" transform="matrix(14,0,0,-14,100.71874,196.16732)"/>
<use xlink:href="#font_10_6d" transform="matrix(14,0,0,-14,109.83275,195.9853)"/>
<use xlink:href="#font_10_61" transform="matrix(14,0,0,-14,123.034748,196.16732)"/>
<use xlink:href="#font_10_6e" transform="matrix(14,0,0,-14,132.05075,195.9853)"/>
<use xlink:href="#font_10_64" transform="matrix(14,0,0,-14,140.42276,196.16732)"/>
<use xlink:href="#font_10_20" transform="matrix(14,0,0,-14,134.24875,202.4673)"/>
<use xlink:href="#font_10_28" transform="matrix(14,0,0,-14,154.19875,197.8193)"/>
<use xlink:href="#font_10_54" transform="matrix(14,0,0,-14,158.42676,195.9853)"/>
<use xlink:href="#font_10_57" transform="matrix(14,0,0,-14,167.47077,195.9853)"/>
<use xlink:href="#font_10_68" transform="matrix(14,0,0,-14,182.12877,195.9853)"/>
<use xlink:href="#font_10_2f" transform="matrix(14,0,0,-14,189.73078,197.2733)"/>
<use xlink:href="#font_10_79" transform="matrix(14,0,0,-14,194.86878,198.8833)"/>
<use xlink:href="#font_10_29" transform="matrix(14,0,0,-14,203.85677,197.8193)"/>
<symbol id="font_10_56">
<path transform="matrix(.001,0,0,.001,-.008,0)" d="M 286 0 L 8 729 L 111 729 L 342 115 L 573 729 L 676 729 L 398 0 L 286 0 "/>
</symbol>
<symbol id="font_10_62">
<path transform="matrix(.001,0,0,.001,-.091000009,.013)" d="M 487 273 C 487 339 473 390 446 428 C 418 466 381 485 334 485 C 286 485 249 466 222 428 C 194 390 181 339 181 273 C 181 207 194 155 222 117 C 249 79 286 61 334 61 C 381 61 418 79 446 117 C 473 155 487 207 487 273 M 181 464 C 199 496 223 520 252 536 C 281 552 316 560 356 560 C 422 560 476 533 518 481 C 559 428 580 359 580 273 C 580 187 559 117 518 65 C 476 13 422 -13 356 -13 C 316 -13 281 -5 252 10 C 223 25 199 49 181 82 L 181 0 L 91 0 L 91 760 L 181 760 L 181 464 "/>
</symbol>
<symbol id="font_10_6c">
<path transform="matrix(.001,0,0,.001,-.094000007,0)" d="M 94 760 L 184 760 L 184 0 L 94 0 L 94 760 "/>
</symbol>
<use xlink:href="#font_10_56" transform="matrix(14,0,0,-14,43.858877,155.21532)"/>
<use xlink:href="#font_10_61" transform="matrix(14,0,0,-14,54.162878,155.39733)"/>
<use xlink:href="#font_10_72" transform="matrix(14,0,0,-14,63.178876,155.21532)"/>
<use xlink:href="#font_10_2e" transform="matrix(14,0,0,-14,69.156879,155.21532)"/>
<use xlink:href="#font_10_20" transform="matrix(14,0,0,-14,57.81688,161.69731)"/>
<use xlink:href="#font_10_63" transform="matrix(14,0,0,-14,77.33288,155.39733)"/>
<use xlink:href="#font_10_61" transform="matrix(14,0,0,-14,85.102878,155.39733)"/>
<use xlink:href="#font_10_62" transform="matrix(14,0,0,-14,94.11888,155.39733)"/>
<use xlink:href="#font_10_6c" transform="matrix(14,0,0,-14,103.05088,155.21532)"/>
<use xlink:href="#font_10_65" transform="matrix(14,0,0,-14,106.39687,155.39733)"/>
<use xlink:href="#font_10_20" transform="matrix(14,0,0,-14,99.94288,161.69731)"/>
<use xlink:href="#font_10_63" transform="matrix(14,0,0,-14,119.458889,155.39733)"/>
<use xlink:href="#font_10_6f" transform="matrix(14,0,0,-14,127.15888,155.39733)"/>
<use xlink:href="#font_10_73" transform="matrix(14,0,0,-14,135.71288,155.39733)"/>
<use xlink:href="#font_10_74" transform="matrix(14,0,0,-14,142.62889,155.21532)"/>
<use xlink:href="#font_10_20" transform="matrix(14,0,0,-14,133.44487,161.69731)"/>
<use xlink:href="#font_10_28" transform="matrix(14,0,0,-14,153.39488,157.04932)"/>
<use xlink:href="#font_10_4d" transform="matrix(14,0,0,-14,159.02288,155.21532)"/>
<use xlink:href="#font_10_2f" transform="matrix(14,0,0,-14,176.26055,156.50331)"/>
<use xlink:href="#font_10_6b" transform="matrix(14,0,0,-14,182.25255,155.21532)"/>
<use xlink:href="#font_10_6d" transform="matrix(14,0,0,-14,190.35855,155.21532)"/>
<use xlink:href="#font_10_29" transform="matrix(14,0,0,-14,203.84055,157.04932)"/>
<clipPath id="cp21">
<path transform="matrix(.014,0,0,-.014,167.35332,155.21532)" d="M -1021 -463 L 1794 -463 L 1794 1233 L -1021 1233 Z "/>
</clipPath>
<g clip-path="url(#cp21)">
<path transform="matrix(.014,0,0,-.014,167.35332,155.21532)" d="M 570 673 L 570 569 C 540 603 511 627 484 642 C 456 656 426 664 393 664 C 341 664 299 647 267 615 C 234 582 212 535 202 475 L 484 475 L 457 415 L 194 415 C 193 407 193 399 193 392 C 193 384 193 375 193 364 C 193 353 193 344 193 337 C 193 329 193 322 194 314 L 412 314 L 385 254 L 202 254 C 212 193 234 146 267 113 C 299 80 341 64 393 64 C 426 64 456 71 484 86 C 511 100 540 125 570 159 L 570 56 C 540 32 511 15 481 4 C 451 -7 420 -13 389 -13 C 311 -13 248 10 198 57 C 148 103 116 169 103 254 L 0 254 L 27 314 L 95 314 C 95 321 94 328 94 336 C 94 344 94 353 94 364 C 94 375 94 384 94 392 C 94 400 95 407 95 415 L 0 415 L 27 475 L 103 475 C 116 559 148 624 198 671 C 248 718 312 742 389 742 C 421 742 452 736 482 725 C 512 713 541 696 570 673 "/>
</g>
<symbol id="font_10_46">
<path transform="matrix(.001,0,0,.001,-.098000008,0)" d="M 98 729 L 517 729 L 517 646 L 197 646 L 197 431 L 486 431 L 486 348 L 197 348 L 197 0 L 98 0 L 98 729 "/>
</symbol>
<symbol id="font_10_78">
<path transform="matrix(.001,0,0,.001,-.029000001,0)" d="M 549 547 L 351 281 L 559 0 L 453 0 L 294 215 L 135 0 L 29 0 L 241 286 L 47 547 L 153 547 L 298 352 L 443 547 L 549 547 "/>
</symbol>
<use xlink:href="#font_10_46" transform="matrix(14,0,0,-14,61.228254,114.44531)"/>
<use xlink:href="#font_10_69" transform="matrix(14,0,0,-14,69.22225,114.44531)"/>
<use xlink:href="#font_10_78" transform="matrix(14,0,0,-14,72.20425,114.44531)"/>
<use xlink:href="#font_10_65" transform="matrix(14,0,0,-14,80.85625,114.62731)"/>
<use xlink:href="#font_10_64" transform="matrix(14,0,0,-14,89.46625,114.62731)"/>
<use xlink:href="#font_10_20" transform="matrix(14,0,0,-14,83.29226,120.927318)"/>
<use xlink:href="#font_10_63" transform="matrix(14,0,0,-14,102.80825,114.62731)"/>
<use xlink:href="#font_10_61" transform="matrix(14,0,0,-14,110.57825,114.62731)"/>
<use xlink:href="#font_10_62" transform="matrix(14,0,0,-14,119.59425,114.62731)"/>
<use xlink:href="#font_10_6c" transform="matrix(14,0,0,-14,128.52625,114.44531)"/>
<use xlink:href="#font_10_65" transform="matrix(14,0,0,-14,131.87226,114.62731)"/>
<use xlink:href="#font_10_20" transform="matrix(14,0,0,-14,125.41825,120.927318)"/>
<use xlink:href="#font_10_63" transform="matrix(14,0,0,-14,144.93427,114.62731)"/>
<use xlink:href="#font_10_6f" transform="matrix(14,0,0,-14,152.63426,114.62731)"/>
<use xlink:href="#font_10_73" transform="matrix(14,0,0,-14,161.18825,114.62731)"/>
<use xlink:href="#font_10_74" transform="matrix(14,0,0,-14,168.10427,114.44531)"/>
<use xlink:href="#font_10_20" transform="matrix(14,0,0,-14,158.92024,120.927318)"/>
<use xlink:href="#font_10_28" transform="matrix(14,0,0,-14,178.87026,116.27931)"/>
<use xlink:href="#font_10_4d" transform="matrix(14,0,0,-14,184.49825,114.44531)"/>
<use xlink:href="#font_10_29" transform="matrix(14,0,0,-14,203.77703,116.27931)"/>
<clipPath id="cp22">
<path transform="matrix(.014,0,0,-.014,193.7498,114.44531)" d="M -1021 -463 L 1794 -463 L 1794 1233 L -1021 1233 Z "/>
</clipPath>
<g clip-path="url(#cp22)">
<path transform="matrix(.014,0,0,-.014,193.7498,114.44531)" d="M 570 673 L 570 569 C 540 603 511 627 484 642 C 456 656 426 664 393 664 C 341 664 299 647 267 615 C 234 582 212 535 202 475 L 484 475 L 457 415 L 194 415 C 193 407 193 399 193 392 C 193 384 193 375 193 364 C 193 353 193 344 193 337 C 193 329 193 322 194 314 L 412 314 L 385 254 L 202 254 C 212 193 234 146 267 113 C 299 80 341 64 393 64 C 426 64 456 71 484 86 C 511 100 540 125 570 159 L 570 56 C 540 32 511 15 481 4 C 451 -7 420 -13 389 -13 C 311 -13 248 10 198 57 C 148 103 116 169 103 254 L 0 254 L 27 314 L 95 314 C 95 321 94 328 94 336 C 94 344 94 353 94 364 C 94 375 94 384 94 392 C 94 400 95 407 95 415 L 0 415 L 27 475 L 103 475 C 116 559 148 624 198 671 C 248 718 312 742 389 742 C 421 742 452 736 482 725 C 512 713 541 696 570 673 "/>
</g>
<use xlink:href="#font_10_45" transform="matrix(14,0,0,-14,75.49387,73.67532)"/>
<use xlink:href="#font_10_6c" transform="matrix(14,0,0,-14,84.28587,73.67532)"/>
<use xlink:href="#font_10_65" transform="matrix(14,0,0,-14,87.63187,73.85732)"/>
<use xlink:href="#font_10_63" transform="matrix(14,0,0,-14,96.24187,73.85732)"/>
<use xlink:href="#font_10_2e" transform="matrix(14,0,0,-14,104.66987,73.67532)"/>
<use xlink:href="#font_10_20" transform="matrix(14,0,0,-14,93.32987,80.157329)"/>
<use xlink:href="#font_10_65" transform="matrix(14,0,0,-14,112.84587,73.85732)"/>
<use xlink:href="#font_10_66" transform="matrix(14,0,0,-14,121.00787,73.67532)"/>
<use xlink:href="#font_10_66" transform="matrix(14,0,0,-14,125.935878,73.67532)"/>
<use xlink:href="#font_10_69" transform="matrix(14,0,0,-14,131.85787,73.67532)"/>
<use xlink:href="#font_10_63" transform="matrix(14,0,0,-14,135.20388,73.85732)"/>
<use xlink:href="#font_10_69" transform="matrix(14,0,0,-14,143.44986,73.67532)"/>
<use xlink:href="#font_10_65" transform="matrix(14,0,0,-14,146.79587,73.85732)"/>
<use xlink:href="#font_10_6e" transform="matrix(14,0,0,-14,155.90987,73.67532)"/>
<use xlink:href="#font_10_63" transform="matrix(14,0,0,-14,164.28188,73.85732)"/>
<use xlink:href="#font_10_79" transform="matrix(14,0,0,-14,171.63187,76.573329)"/>
<use xlink:href="#font_10_20" transform="matrix(14,0,0,-14,165.20586,80.157329)"/>
<use xlink:href="#font_10_28" transform="matrix(14,0,0,-14,185.15586,75.50932)"/>
<use xlink:href="#font_10_25" transform="matrix(14,0,0,-14,190.18187,73.85732)"/>
<use xlink:href="#font_10_29" transform="matrix(14,0,0,-14,203.83187,75.50932)"/>
<use xlink:href="#font_10_45" transform="matrix(14,0,0,-14,74.41575,32.905305)"/>
<use xlink:href="#font_10_6c" transform="matrix(14,0,0,-14,83.20775,32.905305)"/>
<use xlink:href="#font_10_65" transform="matrix(14,0,0,-14,86.55374,33.087305)"/>
<use xlink:href="#font_10_63" transform="matrix(14,0,0,-14,95.16375,33.087305)"/>
<use xlink:href="#font_10_2e" transform="matrix(14,0,0,-14,103.59175,32.905305)"/>
<use xlink:href="#font_10_20" transform="matrix(14,0,0,-14,92.25175,39.387308)"/>
<use xlink:href="#font_10_43" transform="matrix(14,0,0,-14,111.781749,33.087305)"/>
<use xlink:href="#font_10_41" transform="matrix(14,0,0,-14,120.881748,32.905305)"/>
<use xlink:href="#font_10_50" transform="matrix(14,0,0,-14,131.71775,32.905305)"/>
<use xlink:href="#font_10_45" transform="matrix(14,0,0,-14,140.15975,32.905305)"/>
<use xlink:href="#font_10_58" transform="matrix(14,0,0,-14,148.05574,32.905305)"/>
<use xlink:href="#font_10_20" transform="matrix(14,0,0,-14,142.93175,39.387308)"/>
<use xlink:href="#font_10_28" transform="matrix(14,0,0,-14,162.88176,34.739305)"/>
<use xlink:href="#font_10_2f" transform="matrix(14,0,0,-14,176.04082,34.193307)"/>
<use xlink:href="#font_10_6b" transform="matrix(14,0,0,-14,182.03282,32.905305)"/>
<use xlink:href="#font_10_57" transform="matrix(14,0,0,-14,189.32683,32.905305)"/>
<use xlink:href="#font_10_29" transform="matrix(14,0,0,-14,203.83083,34.739305)"/>
<clipPath id="cp23">
<path transform="matrix(.014,0,0,-.014,167.13359,32.905305)" d="M -1021 -463 L 1794 -463 L 1794 1233 L -1021 1233 Z "/>
</clipPath>
<g clip-path="url(#cp23)">
<path transform="matrix(.014,0,0,-.014,167.13359,32.905305)" d="M 570 673 L 570 569 C 540 603 511 627 484 642 C 456 656 426 664 393 664 C 341 664 299 647 267 615 C 234 582 212 535 202 475 L 484 475 L 457 415 L 194 415 C 193 407 193 399 193 392 C 193 384 193 375 193 364 C 193 353 193 344 193 337 C 193 329 193 322 194 314 L 412 314 L 385 254 L 202 254 C 212 193 234 146 267 113 C 299 80 341 64 393 64 C 426 64 456 71 484 86 C 511 100 540 125 570 159 L 570 56 C 540 32 511 15 481 4 C 451 -7 420 -13 389 -13 C 311 -13 248 10 198 57 C 148 103 116 169 103 254 L 0 254 L 27 314 L 95 314 C 95 321 94 328 94 336 C 94 344 94 353 94 364 C 94 375 94 384 94 392 C 94 400 95 407 95 415 L 0 415 L 27 475 L 103 475 C 116 559 148 624 198 671 C 248 718 312 742 389 742 C 421 742 452 736 482 725 C 512 713 541 696 570 673 "/>
</g>
<clipPath id="cp24">
<path transform="matrix(1,0,0,-1,0,379.10688)" d="M 211.7 45.746877 L 992.9 45.746877 L 992.9 371.9069 L 211.7 371.9069 Z "/>
</clipPath>
<g clip-path="url(#cp24)">
<path transform="matrix(1,0,0,-1,0,379.10688)" stroke-width="1" stroke-linecap="butt" stroke-linejoin="round" fill="none" stroke="#929292" d="M 602.3 -1 L 602.3 359.67588 "/>
</g>
<path transform="matrix(1,0,0,-1,0,379.10688)" stroke-width=".8" stroke-linecap="square" stroke-miterlimit="10" stroke-linejoin="miter" fill="none" stroke="#000000" d="M 211.7 45.746877 L 992.9 45.746877 "/>
<path transform="matrix(1,0,0,-1,0,379.10688)" d="M 302.7098 352.02076 L 321.78794 352.02076 C 322.78794 352.02076 323.28794 352.52076 323.28794 353.52076 L 323.28794 363.19264 C 323.28794 364.19264 322.78794 364.69264 321.78794 364.69264 L 302.7098 364.69264 C 301.7098 364.69264 301.2098 364.19264 301.2098 363.19264 L 301.2098 353.52076 C 301.2098 352.52076 301.7098 352.02076 302.7098 352.02076 Z " fill="#ffffff"/>
<path transform="matrix(1,0,0,-1,0,379.10688)" stroke-width="1" stroke-linecap="butt" stroke-miterlimit="10" stroke-linejoin="miter" fill="none" stroke="#000000" d="M 302.7098 352.02076 L 321.78794 352.02076 C 322.78794 352.02076 323.28794 352.52076 323.28794 353.52076 L 323.28794 363.19264 C 323.28794 364.19264 322.78794 364.69264 321.78794 364.69264 L 302.7098 364.69264 C 301.7098 364.69264 301.2098 364.19264 301.2098 363.19264 L 301.2098 353.52076 C 301.2098 352.52076 301.7098 352.02076 302.7098 352.02076 Z "/>
<symbol id="font_10_37">
<path transform="matrix(.001,0,0,.001,-.082,0)" d="M 82 729 L 551 729 L 551 687 L 286 0 L 183 0 L 432 646 L 82 646 L 82 729 "/>
</symbol>
<symbol id="font_10_35">
<path transform="matrix(.001,0,0,.001,-.07700001,.013)" d="M 108 729 L 495 729 L 495 646 L 198 646 L 198 467 C 212 472 227 476 241 478 C 255 480 270 482 284 482 C 365 482 429 459 477 415 C 525 370 549 310 549 234 C 549 155 524 94 475 51 C 426 8 357 -13 269 -13 C 238 -13 207 -10 175 -6 C 143 -1 111 6 77 17 L 77 116 C 106 100 136 88 168 80 C 199 72 232 69 267 69 C 323 69 368 83 401 113 C 433 143 450 183 450 234 C 450 284 433 324 401 354 C 368 384 323 399 267 399 C 241 399 214 396 188 390 C 162 384 135 375 108 363 L 108 729 "/>
</symbol>
<use xlink:href="#font_10_33" transform="matrix(10,0,0,-10,303.46983,23.637995)"/>
<use xlink:href="#font_10_37" transform="matrix(10,0,0,-10,309.88984,23.507996)"/>
<use xlink:href="#font_10_35" transform="matrix(10,0,0,-10,316.1998,23.637995)"/>
<path transform="matrix(1,0,0,-1,0,379.10688)" d="M 594.488 352.02076 L 613.5661 352.02076 C 614.5661 352.02076 615.0661 352.52076 615.0661 353.52076 L 615.0661 363.19264 C 615.0661 364.19264 614.5661 364.69264 613.5661 364.69264 L 594.488 364.69264 C 593.488 364.69264 592.988 364.19264 592.988 363.19264 L 592.988 353.52076 C 592.988 352.52076 593.488 352.02076 594.488 352.02076 Z " fill="#ffffff"/>
<path transform="matrix(1,0,0,-1,0,379.10688)" stroke-width="1" stroke-linecap="butt" stroke-miterlimit="10" stroke-linejoin="miter" fill="none" stroke="#000000" d="M 594.488 352.02076 L 613.5661 352.02076 C 614.5661 352.02076 615.0661 352.52076 615.0661 353.52076 L 615.0661 363.19264 C 615.0661 364.19264 614.5661 364.69264 613.5661 364.69264 L 594.488 364.69264 C 593.488 364.69264 592.988 364.19264 592.988 363.19264 L 592.988 353.52076 C 592.988 352.52076 593.488 352.02076 594.488 352.02076 Z "/>
<use xlink:href="#font_10_37" transform="matrix(10,0,0,-10,595.308,23.507996)"/>
<use xlink:href="#font_10_35" transform="matrix(10,0,0,-10,601.618,23.637995)"/>
<use xlink:href="#font_10_30" transform="matrix(10,0,0,-10,607.8679,23.637995)"/>
<path transform="matrix(1,0,0,-1,0,379.10688)" d="M 511.4204 311.25077 L 533.63919 311.25077 C 534.63919 311.25077 535.13919 311.75077 535.13919 312.75077 L 535.13919 322.42265 C 535.13919 323.42265 534.63919 323.92265 533.63919 323.92265 L 511.4204 323.92265 C 510.4204 323.92265 509.9204 323.42265 509.9204 322.42265 L 509.9204 312.75077 C 509.9204 311.75077 510.4204 311.25077 511.4204 311.25077 Z " fill="#ffffff"/>
<path transform="matrix(1,0,0,-1,0,379.10688)" stroke-width="1" stroke-linecap="butt" stroke-miterlimit="10" stroke-linejoin="miter" fill="none" stroke="#000000" d="M 511.4204 311.25077 L 533.63919 311.25077 C 534.63919 311.25077 535.13919 311.75077 535.13919 312.75077 L 535.13919 322.42265 C 535.13919 323.42265 534.63919 323.92265 533.63919 323.92265 L 511.4204 323.92265 C 510.4204 323.92265 509.9204 323.42265 509.9204 322.42265 L 509.9204 312.75077 C 509.9204 311.75077 510.4204 311.25077 511.4204 311.25077 Z "/>
<symbol id="font_10_38">
<path transform="matrix(.001,0,0,.001,-.068,.013)" d="M 318 346 C 271 346 234 333 207 308 C 180 283 167 249 167 205 C 167 161 180 126 207 101 C 234 76 271 64 318 64 C 364 64 401 76 428 102 C 455 127 469 161 469 205 C 469 249 455 283 429 308 C 402 333 365 346 318 346 M 219 388 C 177 398 144 418 120 447 C 96 476 85 511 85 553 C 85 611 105 657 147 691 C 188 725 245 742 318 742 C 390 742 447 725 489 691 C 530 657 551 611 551 553 C 551 511 539 476 515 447 C 491 418 459 398 417 388 C 464 377 501 355 528 323 C 554 291 568 251 568 205 C 568 134 546 80 503 43 C 459 5 398 -13 318 -13 C 237 -13 175 5 132 43 C 89 80 68 134 68 205 C 68 251 81 291 108 323 C 134 355 171 377 219 388 M 183 544 C 183 506 194 476 218 455 C 242 434 275 424 318 424 C 360 424 393 434 417 455 C 441 476 453 506 453 544 C 453 582 441 611 417 632 C 393 653 360 664 318 664 C 275 664 242 653 218 632 C 194 611 183 582 183 544 "/>
</symbol>
<use xlink:href="#font_10_38" transform="matrix(10,0,0,-10,512.1004,64.40798)"/>
<use xlink:href="#font_10_30" transform="matrix(10,0,0,-10,518.44039,64.40798)"/>
<use xlink:href="#font_10_25" transform="matrix(10,0,0,-10,524.69039,64.40798)"/>
<path transform="matrix(1,0,0,-1,0,379.10688)" d="M 594.488 311.25077 L 616.7067 311.25077 C 617.7067 311.25077 618.2067 311.75077 618.2067 312.75077 L 618.2067 322.42265 C 618.2067 323.42265 617.7067 323.92265 616.7067 323.92265 L 594.488 323.92265 C 593.488 323.92265 592.988 323.42265 592.988 322.42265 L 592.988 312.75077 C 592.988 311.75077 593.488 311.25077 594.488 311.25077 Z " fill="#ffffff"/>
<path transform="matrix(1,0,0,-1,0,379.10688)" stroke-width="1" stroke-linecap="butt" stroke-miterlimit="10" stroke-linejoin="miter" fill="none" stroke="#000000" d="M 594.488 311.25077 L 616.7067 311.25077 C 617.7067 311.25077 618.2067 311.75077 618.2067 312.75077 L 618.2067 322.42265 C 618.2067 323.42265 617.7067 323.92265 616.7067 323.92265 L 594.488 323.92265 C 593.488 323.92265 592.988 323.42265 592.988 322.42265 L 592.988 312.75077 C 592.988 311.75077 593.488 311.25077 594.488 311.25077 Z "/>
<use xlink:href="#font_10_37" transform="matrix(10,0,0,-10,595.308,64.277988)"/>
<use xlink:href="#font_10_35" transform="matrix(10,0,0,-10,601.618,64.40798)"/>
<use xlink:href="#font_10_25" transform="matrix(10,0,0,-10,607.75796,64.40798)"/>
<path transform="matrix(1,0,0,-1,0,379.10688)" d="M 667.5302 270.48075 L 686.60836 270.48075 C 687.60836 270.48075 688.10836 270.98075 688.10836 271.98075 L 688.10836 281.65263 C 688.10836 282.65263 687.60836 283.15263 686.60836 283.15263 L 667.5302 283.15263 C 666.5302 283.15263 666.0302 282.65263 666.0302 281.65263 L 666.0302 271.98075 C 666.0302 270.98075 666.5302 270.48075 667.5302 270.48075 Z " fill="#ffffff"/>
<path transform="matrix(1,0,0,-1,0,379.10688)" stroke-width="1" stroke-linecap="butt" stroke-miterlimit="10" stroke-linejoin="miter" fill="none" stroke="#000000" d="M 667.5302 270.48075 L 686.60836 270.48075 C 687.60836 270.48075 688.10836 270.98075 688.10836 271.98075 L 688.10836 281.65263 C 688.10836 282.65263 687.60836 283.15263 686.60836 283.15263 L 667.5302 283.15263 C 666.5302 283.15263 666.0302 282.65263 666.0302 281.65263 L 666.0302 271.98075 C 666.0302 270.98075 666.5302 270.48075 667.5302 270.48075 Z "/>
<symbol id="font_10_34">
<path transform="matrix(.001,0,0,.001,-.049000004,0)" d="M 378 643 L 129 254 L 378 254 L 378 643 M 352 729 L 476 729 L 476 254 L 580 254 L 580 172 L 476 172 L 476 0 L 378 0 L 378 172 L 49 172 L 49 267 L 352 729 "/>
</symbol>
<use xlink:href="#font_10_34" transform="matrix(10,0,0,-10,668.0202,105.048007)"/>
<use xlink:href="#font_10_30" transform="matrix(10,0,0,-10,674.5502,105.178)"/>
<use xlink:href="#font_10_30" transform="matrix(10,0,0,-10,680.91018,105.178)"/>
<path transform="matrix(1,0,0,-1,0,379.10688)" d="M 594.488 270.48075 L 613.5661 270.48075 C 614.5661 270.48075 615.0661 270.98075 615.0661 271.98075 L 615.0661 281.65263 C 615.0661 282.65263 614.5661 283.15263 613.5661 283.15263 L 594.488 283.15263 C 593.488 283.15263 592.988 282.65263 592.988 281.65263 L 592.988 271.98075 C 592.988 270.98075 593.488 270.48075 594.488 270.48075 Z " fill="#ffffff"/>
<path transform="matrix(1,0,0,-1,0,379.10688)" stroke-width="1" stroke-linecap="butt" stroke-miterlimit="10" stroke-linejoin="miter" fill="none" stroke="#000000" d="M 594.488 270.48075 L 613.5661 270.48075 C 614.5661 270.48075 615.0661 270.98075 615.0661 271.98075 L 615.0661 281.65263 C 615.0661 282.65263 614.5661 283.15263 613.5661 283.15263 L 594.488 283.15263 C 593.488 283.15263 592.988 282.65263 592.988 281.65263 L 592.988 271.98075 C 592.988 270.98075 593.488 270.48075 594.488 270.48075 Z "/>
<use xlink:href="#font_10_32" transform="matrix(10,0,0,-10,595.21798,105.048007)"/>
<use xlink:href="#font_10_30" transform="matrix(10,0,0,-10,601.50796,105.178)"/>
<use xlink:href="#font_10_30" transform="matrix(10,0,0,-10,607.8679,105.178)"/>
<path transform="matrix(1,0,0,-1,0,379.10688)" d="M 611.8046 229.71076 L 618.164 229.71076 C 619.164 229.71076 619.664 230.21076 619.664 231.21076 L 619.664 240.88263 C 619.664 241.88263 619.164 242.38263 618.164 242.38263 L 611.8046 242.38263 C 610.8046 242.38263 610.3046 241.88263 610.3046 240.88263 L 610.3046 231.21076 C 610.3046 230.21076 610.8046 229.71076 611.8046 229.71076 Z " fill="#ffffff"/>
<path transform="matrix(1,0,0,-1,0,379.10688)" stroke-width="1" stroke-linecap="butt" stroke-miterlimit="10" stroke-linejoin="miter" fill="none" stroke="#000000" d="M 611.8046 229.71076 L 618.164 229.71076 C 619.164 229.71076 619.664 230.21076 619.664 231.21076 L 619.664 240.88263 C 619.664 241.88263 619.164 242.38263 618.164 242.38263 L 611.8046 242.38263 C 610.8046 242.38263 610.3046 241.88263 610.3046 240.88263 L 610.3046 231.21076 C 610.3046 230.21076 610.8046 229.71076 611.8046 229.71076 Z "/>
<use xlink:href="#font_10_31" transform="matrix(10,0,0,-10,612.9046,145.818)"/>
<path transform="matrix(1,0,0,-1,0,379.10688)" d="M 591.884 229.71076 L 607.7902 229.71076 C 608.7902 229.71076 609.2902 230.21076 609.2902 231.21076 L 609.2902 240.88263 C 609.2902 241.88263 608.7902 242.38263 607.7902 242.38263 L 591.884 242.38263 C 590.884 242.38263 590.384 241.88263 590.384 240.88263 L 590.384 231.21076 C 590.384 230.21076 590.884 229.71076 591.884 229.71076 Z " fill="#ffffff"/>
<path transform="matrix(1,0,0,-1,0,379.10688)" stroke-width="1" stroke-linecap="butt" stroke-miterlimit="10" stroke-linejoin="miter" fill="none" stroke="#000000" d="M 591.884 229.71076 L 607.7902 229.71076 C 608.7902 229.71076 609.2902 230.21076 609.2902 231.21076 L 609.2902 240.88263 C 609.2902 241.88263 608.7902 242.38263 607.7902 242.38263 L 591.884 242.38263 C 590.884 242.38263 590.384 241.88263 590.384 240.88263 L 590.384 231.21076 C 590.384 230.21076 590.884 229.71076 591.884 229.71076 Z "/>
<use xlink:href="#font_10_30" transform="matrix(10,0,0,-10,592.54397,145.948)"/>
<use xlink:href="#font_10_2e" transform="matrix(10,0,0,-10,599.31399,145.818)"/>
<use xlink:href="#font_10_34" transform="matrix(10,0,0,-10,601.91397,145.818)"/>
<path transform="matrix(1,0,0,-1,0,379.10688)" d="M 612.716 188.94075 L 631.7941 188.94075 C 632.7941 188.94075 633.2941 189.44075 633.2941 190.44075 L 633.2941 200.11263 C 633.2941 201.11263 632.7941 201.61263 631.7941 201.61263 L 612.716 201.61263 C 611.716 201.61263 611.216 201.11263 611.216 200.11263 L 611.216 190.44075 C 611.216 189.44075 611.716 188.94075 612.716 188.94075 Z " fill="#ffffff"/>
<path transform="matrix(1,0,0,-1,0,379.10688)" stroke-width="1" stroke-linecap="butt" stroke-miterlimit="10" stroke-linejoin="miter" fill="none" stroke="#000000" d="M 612.716 188.94075 L 631.7941 188.94075 C 632.7941 188.94075 633.2941 189.44075 633.2941 190.44075 L 633.2941 200.11263 C 633.2941 201.11263 632.7941 201.61263 631.7941 201.61263 L 612.716 201.61263 C 611.716 201.61263 611.216 201.11263 611.216 200.11263 L 611.216 190.44075 C 611.216 189.44075 611.716 188.94075 612.716 188.94075 Z "/>
<use xlink:href="#font_10_31" transform="matrix(10,0,0,-10,613.816,186.588)"/>
<use xlink:href="#font_10_33" transform="matrix(10,0,0,-10,619.836,186.718)"/>
<use xlink:href="#font_10_31" transform="matrix(10,0,0,-10,626.53598,186.588)"/>
<path transform="matrix(1,0,0,-1,0,379.10688)" d="M 596.441 188.94075 L 609.1597 188.94075 C 610.1597 188.94075 610.6597 189.44075 610.6597 190.44075 L 610.6597 200.11263 C 610.6597 201.11263 610.1597 201.61263 609.1597 201.61263 L 596.441 201.61263 C 595.441 201.61263 594.941 201.11263 594.941 200.11263 L 594.941 190.44075 C 594.941 189.44075 595.441 188.94075 596.441 188.94075 Z " fill="#ffffff"/>
<path transform="matrix(1,0,0,-1,0,379.10688)" stroke-width="1" stroke-linecap="butt" stroke-miterlimit="10" stroke-linejoin="miter" fill="none" stroke="#000000" d="M 596.441 188.94075 L 609.1597 188.94075 C 610.1597 188.94075 610.6597 189.44075 610.6597 190.44075 L 610.6597 200.11263 C 610.6597 201.11263 610.1597 201.61263 609.1597 201.61263 L 596.441 201.61263 C 595.441 201.61263 594.941 201.11263 594.941 200.11263 L 594.941 190.44075 C 594.941 189.44075 595.441 188.94075 596.441 188.94075 Z "/>
<use xlink:href="#font_10_38" transform="matrix(10,0,0,-10,597.121,186.718)"/>
<use xlink:href="#font_10_38" transform="matrix(10,0,0,-10,603.48098,186.718)"/>
<path transform="matrix(1,0,0,-1,0,379.10688)" d="M 579.7754 188.94075 L 592.49417 188.94075 C 593.49417 188.94075 593.99417 189.44075 593.99417 190.44075 L 593.99417 200.11263 C 593.99417 201.11263 593.49417 201.61263 592.49417 201.61263 L 579.7754 201.61263 C 578.7754 201.61263 578.2754 201.11263 578.2754 200.11263 L 578.2754 190.44075 C 578.2754 189.44075 578.7754 188.94075 579.7754 188.94075 Z " fill="#ffffff"/>
<path transform="matrix(1,0,0,-1,0,379.10688)" stroke-width="1" stroke-linecap="butt" stroke-miterlimit="10" stroke-linejoin="miter" fill="none" stroke="#000000" d="M 579.7754 188.94075 L 592.49417 188.94075 C 593.49417 188.94075 593.99417 189.44075 593.99417 190.44075 L 593.99417 200.11263 C 593.99417 201.11263 593.49417 201.61263 592.49417 201.61263 L 579.7754 201.61263 C 578.7754 201.61263 578.2754 201.11263 578.2754 200.11263 L 578.2754 190.44075 C 578.2754 189.44075 578.7754 188.94075 579.7754 188.94075 Z "/>
<use xlink:href="#font_10_34" transform="matrix(10,0,0,-10,580.2654,186.588)"/>
<use xlink:href="#font_10_34" transform="matrix(10,0,0,-10,586.62539,186.588)"/>
<path transform="matrix(1,0,0,-1,0,379.10688)" d="M 987.8222 148.17075 L 1003.72848 148.17075 C 1004.72848 148.17075 1005.22848 148.67075 1005.22848 149.67075 L 1005.22848 159.34262 C 1005.22848 160.34262 1004.72848 160.84262 1003.72848 160.84262 L 987.8222 160.84262 C 986.8222 160.84262 986.3222 160.34262 986.3222 159.34262 L 986.3222 149.67075 C 986.3222 148.67075 986.8222 148.17075 987.8222 148.17075 Z " fill="#ffffff"/>
<path transform="matrix(1,0,0,-1,0,379.10688)" stroke-width="1" stroke-linecap="butt" stroke-miterlimit="10" stroke-linejoin="miter" fill="none" stroke="#000000" d="M 987.8222 148.17075 L 1003.72848 148.17075 C 1004.72848 148.17075 1005.22848 148.67075 1005.22848 149.67075 L 1005.22848 159.34262 C 1005.22848 160.34262 1004.72848 160.84262 1003.72848 160.84262 L 987.8222 160.84262 C 986.8222 160.84262 986.3222 160.34262 986.3222 159.34262 L 986.3222 149.67075 C 986.3222 148.67075 986.8222 148.17075 987.8222 148.17075 Z "/>
<symbol id="font_10_36">
<path transform="matrix(.001,0,0,.001,-.07,.013)" d="M 330 404 C 286 404 251 388 225 358 C 199 328 186 286 186 234 C 186 181 199 139 225 109 C 251 79 286 64 330 64 C 374 64 409 79 435 109 C 461 139 474 181 474 234 C 474 286 461 328 435 358 C 409 388 374 404 330 404 M 526 713 L 526 623 C 501 635 476 644 451 650 C 425 656 400 659 376 659 C 310 659 260 637 226 593 C 192 549 172 482 168 394 C 187 422 211 444 240 459 C 269 474 301 482 336 482 C 409 482 467 459 509 415 C 551 371 573 310 573 234 C 573 159 550 99 506 54 C 462 9 403 -13 330 -13 C 246 -13 181 19 137 83 C 92 147 70 241 70 364 C 70 479 97 571 152 639 C 206 707 280 742 372 742 C 396 742 421 739 447 735 C 472 730 498 723 526 713 "/>
</symbol>
<use xlink:href="#font_10_33" transform="matrix(10,0,0,-10,988.5822,227.488)"/>
<use xlink:href="#font_10_2e" transform="matrix(10,0,0,-10,995.2522,227.358)"/>
<use xlink:href="#font_10_36" transform="matrix(10,0,0,-10,998.0622,227.488)"/>
<path transform="matrix(1,0,0,-1,0,379.10688)" d="M 594.488 148.17075 L 610.3942 148.17075 C 611.3942 148.17075 611.8942 148.67075 611.8942 149.67075 L 611.8942 159.34262 C 611.8942 160.34262 611.3942 160.84262 610.3942 160.84262 L 594.488 160.84262 C 593.488 160.84262 592.988 160.34262 592.988 159.34262 L 592.988 149.67075 C 592.988 148.67075 593.488 148.17075 594.488 148.17075 Z " fill="#ffffff"/>
<path transform="matrix(1,0,0,-1,0,379.10688)" stroke-width="1" stroke-linecap="butt" stroke-miterlimit="10" stroke-linejoin="miter" fill="none" stroke="#000000" d="M 594.488 148.17075 L 610.3942 148.17075 C 611.3942 148.17075 611.8942 148.67075 611.8942 149.67075 L 611.8942 159.34262 C 611.8942 160.34262 611.3942 160.84262 610.3942 160.84262 L 594.488 160.84262 C 593.488 160.84262 592.988 160.34262 592.988 159.34262 L 592.988 149.67075 C 592.988 148.67075 593.488 148.17075 594.488 148.17075 Z "/>
<use xlink:href="#font_10_31" transform="matrix(10,0,0,-10,595.58798,227.358)"/>
<use xlink:href="#font_10_2e" transform="matrix(10,0,0,-10,601.91799,227.358)"/>
<use xlink:href="#font_10_38" transform="matrix(10,0,0,-10,604.70797,227.488)"/>
<path transform="matrix(1,0,0,-1,0,379.10688)" d="M 397.886 148.17075 L 413.79225 148.17075 C 414.79225 148.17075 415.29225 148.67075 415.29225 149.67075 L 415.29225 159.34262 C 415.29225 160.34262 414.79225 160.84262 413.79225 160.84262 L 397.886 160.84262 C 396.886 160.84262 396.386 160.34262 396.386 159.34262 L 396.386 149.67075 C 396.386 148.67075 396.886 148.17075 397.886 148.17075 Z " fill="#ffffff"/>
<path transform="matrix(1,0,0,-1,0,379.10688)" stroke-width="1" stroke-linecap="butt" stroke-miterlimit="10" stroke-linejoin="miter" fill="none" stroke="#000000" d="M 397.886 148.17075 L 413.79225 148.17075 C 414.79225 148.17075 415.29225 148.67075 415.29225 149.67075 L 415.29225 159.34262 C 415.29225 160.34262 414.79225 160.84262 413.79225 160.84262 L 397.886 160.84262 C 396.886 160.84262 396.386 160.34262 396.386 159.34262 L 396.386 149.67075 C 396.386 148.67075 396.886 148.17075 397.886 148.17075 Z "/>
<symbol id="font_10_39">
<path transform="matrix(.001,0,0,.001,-.063,.013)" d="M 110 15 L 110 105 C 134 93 159 84 185 78 C 210 72 235 69 260 69 C 324 69 374 90 408 134 C 442 178 462 244 468 334 C 448 306 424 284 396 269 C 367 254 335 247 300 247 C 226 247 168 269 126 313 C 84 357 63 417 63 494 C 63 568 85 628 129 674 C 173 719 232 742 306 742 C 390 742 455 709 499 645 C 543 580 566 486 566 364 C 566 248 538 157 484 89 C 429 21 356 -13 264 -13 C 239 -13 214 -10 189 -6 C 163 -2 137 5 110 15 M 306 324 C 350 324 385 339 411 369 C 437 399 450 441 450 494 C 450 546 437 588 411 618 C 385 648 350 664 306 664 C 262 664 227 648 201 618 C 175 588 162 546 162 494 C 162 441 175 399 201 369 C 227 339 262 324 306 324 "/>
</symbol>
<use xlink:href="#font_10_30" transform="matrix(10,0,0,-10,398.546,227.488)"/>
<use xlink:href="#font_10_2e" transform="matrix(10,0,0,-10,405.31599,227.358)"/>
<use xlink:href="#font_10_39" transform="matrix(10,0,0,-10,408.05598,227.488)"/>
<path transform="matrix(1,0,0,-1,0,379.10688)" d="M 373.9292 107.40075 L 396.14796 107.40075 C 397.14796 107.40075 397.64796 107.90075 397.64796 108.90075 L 397.64796 118.572628 C 397.64796 119.572628 397.14796 120.072628 396.14796 120.072628 L 373.9292 120.072628 C 372.9292 120.072628 372.4292 119.572628 372.4292 118.572628 L 372.4292 108.90075 C 372.4292 107.90075 372.9292 107.40075 373.9292 107.40075 Z " fill="#ffffff"/>
<path transform="matrix(1,0,0,-1,0,379.10688)" stroke-width="1" stroke-linecap="butt" stroke-miterlimit="10" stroke-linejoin="miter" fill="none" stroke="#000000" d="M 373.9292 107.40075 L 396.14796 107.40075 C 397.14796 107.40075 397.64796 107.90075 397.64796 108.90075 L 397.64796 118.572628 C 397.64796 119.572628 397.14796 120.072628 396.14796 120.072628 L 373.9292 120.072628 C 372.9292 120.072628 372.4292 119.572628 372.4292 118.572628 L 372.4292 108.90075 C 372.4292 107.90075 372.9292 107.40075 373.9292 107.40075 Z "/>
<use xlink:href="#font_10_35" transform="matrix(10,0,0,-10,374.6992,268.258)"/>
<use xlink:href="#font_10_30" transform="matrix(10,0,0,-10,380.9492,268.258)"/>
<use xlink:href="#font_10_25" transform="matrix(10,0,0,-10,387.19917,268.258)"/>
<path transform="matrix(1,0,0,-1,0,379.10688)" d="M 495.0152 107.40075 L 517.23397 107.40075 C 518.23397 107.40075 518.73397 107.90075 518.73397 108.90075 L 518.73397 118.572628 C 518.73397 119.572628 518.23397 120.072628 517.23397 120.072628 L 495.0152 120.072628 C 494.0152 120.072628 493.5152 119.572628 493.5152 118.572628 L 493.5152 108.90075 C 493.5152 107.90075 494.0152 107.40075 495.0152 107.40075 Z " fill="#ffffff"/>
<path transform="matrix(1,0,0,-1,0,379.10688)" stroke-width="1" stroke-linecap="butt" stroke-miterlimit="10" stroke-linejoin="miter" fill="none" stroke="#000000" d="M 495.0152 107.40075 L 517.23397 107.40075 C 518.23397 107.40075 518.73397 107.90075 518.73397 108.90075 L 518.73397 118.572628 C 518.73397 119.572628 518.23397 120.072628 517.23397 120.072628 L 495.0152 120.072628 C 494.0152 120.072628 493.5152 119.572628 493.5152 118.572628 L 493.5152 108.90075 C 493.5152 107.90075 494.0152 107.40075 495.0152 107.40075 Z "/>
<use xlink:href="#font_10_34" transform="matrix(10,0,0,-10,495.5052,268.128)"/>
<use xlink:href="#font_10_35" transform="matrix(10,0,0,-10,502.14518,268.258)"/>
<use xlink:href="#font_10_25" transform="matrix(10,0,0,-10,508.28517,268.258)"/>
<path transform="matrix(1,0,0,-1,0,379.10688)" d="M 589.28 107.40075 L 621.04568 107.40075 C 622.04568 107.40075 622.54568 107.90075 622.54568 108.90075 L 622.54568 118.572628 C 622.54568 119.572628 622.04568 120.072628 621.04568 120.072628 L 589.28 120.072628 C 588.28 120.072628 587.78 119.572628 587.78 118.572628 L 587.78 108.90075 C 587.78 107.90075 588.28 107.40075 589.28 107.40075 Z " fill="#ffffff"/>
<path transform="matrix(1,0,0,-1,0,379.10688)" stroke-width="1" stroke-linecap="butt" stroke-miterlimit="10" stroke-linejoin="miter" fill="none" stroke="#000000" d="M 589.28 107.40075 L 621.04568 107.40075 C 622.04568 107.40075 622.54568 107.90075 622.54568 108.90075 L 622.54568 118.572628 C 622.54568 119.572628 622.04568 120.072628 621.04568 120.072628 L 589.28 120.072628 C 588.28 120.072628 587.78 119.572628 587.78 118.572628 L 587.78 108.90075 C 587.78 107.90075 588.28 107.40075 589.28 107.40075 Z "/>
<use xlink:href="#font_10_34" transform="matrix(10,0,0,-10,589.77,268.128)"/>
<use xlink:href="#font_10_31" transform="matrix(10,0,0,-10,596.74,268.128)"/>
<use xlink:href="#font_10_2e" transform="matrix(10,0,0,-10,603.07,268.128)"/>
<use xlink:href="#font_10_37" transform="matrix(10,0,0,-10,606,268.128)"/>
<use xlink:href="#font_10_25" transform="matrix(10,0,0,-10,612.08999,268.258)"/>
<path transform="matrix(1,0,0,-1,0,379.10688)" d="M 554.126 66.63075 L 566.8447 66.63075 C 567.8447 66.63075 568.3447 67.13075 568.3447 68.13075 L 568.3447 77.80263 C 568.3447 78.80263 567.8447 79.30263 566.8447 79.30263 L 554.126 79.30263 C 553.126 79.30263 552.626 78.80263 552.626 77.80263 L 552.626 68.13075 C 552.626 67.13075 553.126 66.63075 554.126 66.63075 Z " fill="#ffffff"/>
<path transform="matrix(1,0,0,-1,0,379.10688)" stroke-width="1" stroke-linecap="butt" stroke-miterlimit="10" stroke-linejoin="miter" fill="none" stroke="#000000" d="M 554.126 66.63075 L 566.8447 66.63075 C 567.8447 66.63075 568.3447 67.13075 568.3447 68.13075 L 568.3447 77.80263 C 568.3447 78.80263 567.8447 79.30263 566.8447 79.30263 L 554.126 79.30263 C 553.126 79.30263 552.626 78.80263 552.626 77.80263 L 552.626 68.13075 C 552.626 67.13075 553.126 66.63075 554.126 66.63075 Z "/>
<use xlink:href="#font_10_31" transform="matrix(10,0,0,-10,555.22598,308.898)"/>
<use xlink:href="#font_10_30" transform="matrix(10,0,0,-10,561.14596,309.028)"/>
<path transform="matrix(1,0,0,-1,0,379.10688)" d="M 570.6614 66.63075 L 586.5676 66.63075 C 587.5676 66.63075 588.0676 67.13075 588.0676 68.13075 L 588.0676 77.80263 C 588.0676 78.80263 587.5676 79.30263 586.5676 79.30263 L 570.6614 79.30263 C 569.6614 79.30263 569.1614 78.80263 569.1614 77.80263 L 569.1614 68.13075 C 569.1614 67.13075 569.6614 66.63075 570.6614 66.63075 Z " fill="#ffffff"/>
<path transform="matrix(1,0,0,-1,0,379.10688)" stroke-width="1" stroke-linecap="butt" stroke-miterlimit="10" stroke-linejoin="miter" fill="none" stroke="#000000" d="M 570.6614 66.63075 L 586.5676 66.63075 C 587.5676 66.63075 588.0676 67.13075 588.0676 68.13075 L 588.0676 77.80263 C 588.0676 78.80263 587.5676 79.30263 586.5676 79.30263 L 570.6614 79.30263 C 569.6614 79.30263 569.1614 78.80263 569.1614 77.80263 L 569.1614 68.13075 C 569.1614 67.13075 569.6614 66.63075 570.6614 66.63075 Z "/>
<use xlink:href="#font_10_37" transform="matrix(10,0,0,-10,571.4814,308.898)"/>
<use xlink:href="#font_10_2e" transform="matrix(10,0,0,-10,578.0914,308.898)"/>
<use xlink:href="#font_10_35" transform="matrix(10,0,0,-10,580.9714,309.028)"/>
<path transform="matrix(1,0,0,-1,0,379.10688)" d="M 594.488 66.63075 L 610.3942 66.63075 C 611.3942 66.63075 611.8942 67.13075 611.8942 68.13075 L 611.8942 77.80263 C 611.8942 78.80263 611.3942 79.30263 610.3942 79.30263 L 594.488 79.30263 C 593.488 79.30263 592.988 78.80263 592.988 77.80263 L 592.988 68.13075 C 592.988 67.13075 593.488 66.63075 594.488 66.63075 Z " fill="#ffffff"/>
<path transform="matrix(1,0,0,-1,0,379.10688)" stroke-width="1" stroke-linecap="butt" stroke-miterlimit="10" stroke-linejoin="miter" fill="none" stroke="#000000" d="M 594.488 66.63075 L 610.3942 66.63075 C 611.3942 66.63075 611.8942 67.13075 611.8942 68.13075 L 611.8942 77.80263 C 611.8942 78.80263 611.3942 79.30263 610.3942 79.30263 L 594.488 79.30263 C 593.488 79.30263 592.988 78.80263 592.988 77.80263 L 592.988 68.13075 C 592.988 67.13075 593.488 66.63075 594.488 66.63075 Z "/>
<use xlink:href="#font_10_35" transform="matrix(10,0,0,-10,595.258,309.028)"/>
<use xlink:href="#font_10_2e" transform="matrix(10,0,0,-10,601.91799,308.898)"/>
<use xlink:href="#font_10_30" transform="matrix(10,0,0,-10,604.6879,309.028)"/>
<path transform="matrix(1,0,0,-1,0,379.10688)" d="M 675.6026 66.63075 L 691.50888 66.63075 C 692.50888 66.63075 693.00888 67.13075 693.00888 68.13075 L 693.00888 77.80263 C 693.00888 78.80263 692.50888 79.30263 691.50888 79.30263 L 675.6026 79.30263 C 674.6026 79.30263 674.1026 78.80263 674.1026 77.80263 L 674.1026 68.13075 C 674.1026 67.13075 674.6026 66.63075 675.6026 66.63075 Z " fill="#ffffff"/>
<path transform="matrix(1,0,0,-1,0,379.10688)" stroke-width="1" stroke-linecap="butt" stroke-miterlimit="10" stroke-linejoin="miter" fill="none" stroke="#000000" d="M 675.6026 66.63075 L 691.50888 66.63075 C 692.50888 66.63075 693.00888 67.13075 693.00888 68.13075 L 693.00888 77.80263 C 693.00888 78.80263 692.50888 79.30263 691.50888 79.30263 L 675.6026 79.30263 C 674.6026 79.30263 674.1026 78.80263 674.1026 77.80263 L 674.1026 68.13075 C 674.1026 67.13075 674.6026 66.63075 675.6026 66.63075 Z "/>
<use xlink:href="#font_10_32" transform="matrix(10,0,0,-10,676.3326,308.898)"/>
<use xlink:href="#font_10_2e" transform="matrix(10,0,0,-10,683.0326,308.898)"/>
<use xlink:href="#font_10_35" transform="matrix(10,0,0,-10,685.9126,309.028)"/>
</g>
</g>
</svg>
