<?xml version="1.0" encoding="UTF-8" standalone="no"?>
<!DOCTYPE svg PUBLIC "-//W3C//DTD SVG 1.1//EN" "http://www.w3.org/Graphics/SVG/1.1/DTD/svg11.dtd">
<svg xmlns="http://www.w3.org/2000/svg" xmlns:xlink="http://www.w3.org/1999/xlink" version="1.1" width="1003.6pt" height="379.10688pt" viewBox="0 0 1003.6 379.10688">
<g enable-background="new">
<g>
<path transform="matrix(1,0,0,-1,0,379.10688)" d="M 0 0 L 1003.6 0 L 1003.6 379.10688 L 0 379.10688 Z " fill="#ffffff"/>
<path transform="matrix(1,0,0,-1,0,379.10688)" d="M 215.2 45.746877 L 996.4 45.746877 L 996.4 371.90687 L 215.2 371.90687 Z " fill="#ffffff"/>
<clipPath id="cp0">
<path transform="matrix(1,0,0,-1,0,379.10688)" d="M 215.2 45.746877 L 996.4 45.746877 L 996.4 371.9069 L 215.2 371.9069 Z "/>
</clipPath>
<g clip-path="url(#cp0)">
<path transform="matrix(1,0,0,-1,0,379.10688)" d="M 557.8316 55.939378 L 518.2969 55.939378 L 518.2969 76.32437 L 557.8316 76.32437 Z " fill="#008000"/>
</g>
<clipPath id="cp1">
<path transform="matrix(1,0,0,-1,0,379.10688)" d="M 215.2 45.746877 L 996.4 45.746877 L 996.4 371.9069 L 215.2 371.9069 Z "/>
</clipPath>
<g clip-path="url(#cp1)">
<path transform="matrix(1,0,0,-1,0,379.10688)" d="M 557.8316 96.70937 L 325.1892 96.70937 L 325.1892 117.094379 L 557.8316 117.094379 Z " fill="#008000"/>
</g>
<clipPath id="cp2">
<path transform="matrix(1,0,0,-1,0,379.10688)" d="M 215.2 45.746877 L 996.4 45.746877 L 996.4 371.9069 L 215.2 371.9069 Z "/>
</clipPath>
<g clip-path="url(#cp2)">
<path transform="matrix(1,0,0,-1,0,379.10688)" d="M 557.8316 137.47937 L 350.92424 137.47937 L 350.92424 157.86438 L 557.8316 157.86438 Z " fill="#008000"/>
</g>
<clipPath id="cp3">
<path transform="matrix(1,0,0,-1,0,379.10688)" d="M 215.2 45.746877 L 996.4 45.746877 L 996.4 371.9069 L 215.2 371.9069 Z "/>
</clipPath>
<g clip-path="url(#cp3)">
<path transform="matrix(1,0,0,-1,0,379.10688)" d="M 557.8316 178.24938 L 539.6037 178.24938 L 539.6037 198.63437 L 557.8316 198.63437 Z " fill="#008000"/>
</g>
<clipPath id="cp4">
<path transform="matrix(1,0,0,-1,0,379.10688)" d="M 215.2 45.746877 L 996.4 45.746877 L 996.4 371.9069 L 215.2 371.9069 Z "/>
</clipPath>
<g clip-path="url(#cp4)">
<path transform="matrix(1,0,0,-1,0,379.10688)" d="M 557.8316 219.01938 L 557.8316 219.01938 L 557.8316 239.40438 Z " fill="#008000"/>
</g>
<clipPath id="cp5">
<path transform="matrix(1,0,0,-1,0,379.10688)" d="M 215.2 45.746877 L 996.4 45.746877 L 996.4 371.9069 L 215.2 371.9069 Z "/>
</clipPath>
<g clip-path="url(#cp5)">
<path transform="matrix(1,0,0,-1,0,379.10688)" d="M 557.8316 259.78938 L 557.8316 259.78938 L 557.8316 280.17439 Z " fill="#008000"/>
</g>
<clipPath id="cp6">
<path transform="matrix(1,0,0,-1,0,379.10688)" d="M 215.2 45.746877 L 996.4 45.746877 L 996.4 371.9069 L 215.2 371.9069 Z "/>
</clipPath>
<g clip-path="url(#cp6)">
<path transform="matrix(1,0,0,-1,0,379.10688)" d="M 557.8316 300.5594 L 470.37785 300.5594 L 470.37785 320.94438 L 557.8316 320.94438 Z " fill="#008000"/>
</g>
<clipPath id="cp7">
<path transform="matrix(1,0,0,-1,0,379.10688)" d="M 215.2 45.746877 L 996.4 45.746877 L 996.4 371.9069 L 215.2 371.9069 Z "/>
</clipPath>
<g clip-path="url(#cp7)">
<path transform="matrix(1,0,0,-1,0,379.10688)" d="M 557.8316 341.32939 L 250.73679 341.32939 L 250.73679 361.7144 L 557.8316 361.7144 Z " fill="#008000"/>
</g>
<clipPath id="cp8">
<path transform="matrix(1,0,0,-1,0,379.10688)" d="M 215.2 45.746877 L 996.4 45.746877 L 996.4 371.9069 L 215.2 371.9069 Z "/>
</clipPath>
<g clip-path="url(#cp8)">
<path transform="matrix(1,0,0,-1,0,379.10688)" d="M 557.8316 55.939378 L 643.15988 55.939378 L 643.15988 76.32437 L 557.8316 76.32437 Z " fill="#ff0000"/>
</g>
<clipPath id="cp9">
<path transform="matrix(1,0,0,-1,0,379.10688)" d="M 215.2 45.746877 L 996.4 45.746877 L 996.4 371.9069 L 215.2 371.9069 Z "/>
</clipPath>
<g clip-path="url(#cp9)">
<path transform="matrix(1,0,0,-1,0,379.10688)" d="M 325.1892 96.70937 L 325.1892 96.70937 L 325.1892 117.094379 Z " fill="#ff0000"/>
</g>
<clipPath id="cp10">
<path transform="matrix(1,0,0,-1,0,379.10688)" d="M 215.2 45.746877 L 996.4 45.746877 L 996.4 371.9069 L 215.2 371.9069 Z "/>
</clipPath>
<g clip-path="url(#cp10)">
<path transform="matrix(1,0,0,-1,0,379.10688)" d="M 557.8316 137.47937 L 971.8233 137.47937 L 971.8233 157.86438 L 557.8316 157.86438 Z " fill="#ff0000"/>
</g>
<clipPath id="cp11">
<path transform="matrix(1,0,0,-1,0,379.10688)" d="M 215.2 45.746877 L 996.4 45.746877 L 996.4 371.9069 L 215.2 371.9069 Z "/>
</clipPath>
<g clip-path="url(#cp11)">
<path transform="matrix(1,0,0,-1,0,379.10688)" d="M 557.8316 178.24938 L 574.6432 178.24938 L 574.6432 198.63437 L 557.8316 198.63437 Z " fill="#ff0000"/>
</g>
<clipPath id="cp12">
<path transform="matrix(1,0,0,-1,0,379.10688)" d="M 215.2 45.746877 L 996.4 45.746877 L 996.4 371.9069 L 215.2 371.9069 Z "/>
</clipPath>
<g clip-path="url(#cp12)">
<path transform="matrix(1,0,0,-1,0,379.10688)" d="M 557.8316 219.01938 L 570.61776 219.01938 L 570.61776 239.40438 L 557.8316 239.40438 Z " fill="#ff0000"/>
</g>
<clipPath id="cp13">
<path transform="matrix(1,0,0,-1,0,379.10688)" d="M 215.2 45.746877 L 996.4 45.746877 L 996.4 371.9069 L 215.2 371.9069 Z "/>
</clipPath>
<g clip-path="url(#cp13)">
<path transform="matrix(1,0,0,-1,0,379.10688)" d="M 557.8316 259.78938 L 634.7099 259.78938 L 634.7099 280.17439 L 557.8316 280.17439 Z " fill="#ff0000"/>
</g>
<clipPath id="cp14">
<path transform="matrix(1,0,0,-1,0,379.10688)" d="M 215.2 45.746877 L 996.4 45.746877 L 996.4 371.9069 L 215.2 371.9069 Z "/>
</clipPath>
<g clip-path="url(#cp14)">
<path transform="matrix(1,0,0,-1,0,379.10688)" d="M 470.37785 300.5594 L 470.37785 300.5594 L 470.37785 320.94438 Z " fill="#ff0000"/>
</g>
<clipPath id="cp15">
<path transform="matrix(1,0,0,-1,0,379.10688)" d="M 215.2 45.746877 L 996.4 45.746877 L 996.4 371.9069 L 215.2 371.9069 Z "/>
</clipPath>
<g clip-path="url(#cp15)">
<path transform="matrix(1,0,0,-1,0,379.10688)" d="M 250.73679 341.32939 L 250.73679 341.32939 L 250.73679 361.7144 Z " fill="#ff0000"/>
</g>
<path transform="matrix(1,0,0,-1,0,379.10688)" d="M 283.72633 45.746877 L 283.72633 42.246877 "/>
<path transform="matrix(1,0,0,-1,0,379.10688)" stroke-width=".8" stroke-linecap="butt" stroke-linejoin="round" fill="none" stroke="#000000" d="M 283.72633 45.746877 L 283.72633 42.246877 "/>
<symbol id="font_10_32">
<path transform="matrix(.001,0,0,.001,-.07300001,0)" d="M 192 83 L 536 83 L 536 0 L 73 0 L 73 83 C 110 121 161 173 226 239 C 290 304 331 346 348 365 C 380 400 402 430 414 455 C 426 479 433 504 433 528 C 433 566 419 598 392 622 C 365 646 330 659 286 659 C 255 659 222 653 188 643 C 154 632 117 616 78 594 L 78 694 C 118 710 155 722 189 730 C 223 738 255 742 284 742 C 359 742 419 723 464 685 C 509 647 532 597 532 534 C 532 504 526 475 515 449 C 504 422 484 390 454 354 C 446 344 420 317 376 272 C 332 227 271 164 192 83 "/>
</symbol>
<symbol id="font_10_30">
<path transform="matrix(.001,0,0,.001,-.066,.013)" d="M 318 664 C 267 664 229 639 203 589 C 177 539 165 464 165 364 C 165 264 177 189 203 139 C 229 89 267 64 318 64 C 369 64 407 89 433 139 C 458 189 471 264 471 364 C 471 464 458 539 433 589 C 407 639 369 664 318 664 M 318 742 C 399 742 461 709 505 645 C 548 580 570 486 570 364 C 570 241 548 147 505 83 C 461 19 399 -13 318 -13 C 236 -13 173 19 130 83 C 87 147 66 241 66 364 C 66 486 87 580 130 645 C 173 709 236 742 318 742 "/>
</symbol>
<use xlink:href="#font_10_32" transform="matrix(14,0,0,-14,281.70536,351.0006)"/>
<use xlink:href="#font_10_30" transform="matrix(14,0,0,-14,290.51136,351.18263)"/>
<clipPath id="cp17">
<path transform="matrix(.014,0,0,-.014,268.95289,351.0006)" d="M -1021 -463 L 1794 -463 L 1794 1233 L -1021 1233 Z "/>
</clipPath>
<g clip-path="url(#cp17)">
<path transform="matrix(.014,0,0,-.014,268.95289,351.0006)" d="M 106 355 L 732 355 L 732 272 L 106 272 L 106 355 "/>
</g>
<path transform="matrix(1,0,0,-1,0,379.10688)" d="M 420.77897 45.746877 L 420.77897 42.246877 "/>
<path transform="matrix(1,0,0,-1,0,379.10688)" stroke-width=".8" stroke-linecap="butt" stroke-linejoin="round" fill="none" stroke="#000000" d="M 420.77897 45.746877 L 420.77897 42.246877 "/>
<symbol id="font_10_31">
<path transform="matrix(.001,0,0,.001,-.11000001,0)" d="M 124 83 L 285 83 L 285 639 L 110 604 L 110 694 L 284 729 L 383 729 L 383 83 L 544 83 L 544 0 L 124 0 L 124 83 "/>
</symbol>
<use xlink:href="#font_10_31" transform="matrix(14,0,0,-14,419.276,351.0006)"/>
<use xlink:href="#font_10_30" transform="matrix(14,0,0,-14,427.564,351.18263)"/>
<clipPath id="cp18">
<path transform="matrix(.014,0,0,-.014,406.00553,351.0006)" d="M -1021 -463 L 1794 -463 L 1794 1233 L -1021 1233 Z "/>
</clipPath>
<g clip-path="url(#cp18)">
<path transform="matrix(.014,0,0,-.014,406.00553,351.0006)" d="M 106 355 L 732 355 L 732 272 L 106 272 L 106 355 "/>
</g>
<path transform="matrix(1,0,0,-1,0,379.10688)" d="M 557.8316 45.746877 L 557.8316 42.246877 "/>
<path transform="matrix(1,0,0,-1,0,379.10688)" stroke-width=".8" stroke-linecap="butt" stroke-linejoin="round" fill="none" stroke="#000000" d="M 557.8316 45.746877 L 557.8316 42.246877 "/>
<use xlink:href="#font_10_30" transform="matrix(14,0,0,-14,554.3025,351.18263)"/>
<path transform="matrix(1,0,0,-1,0,379.10688)" d="M 694.8842 45.746877 L 694.8842 42.246877 "/>
<path transform="matrix(1,0,0,-1,0,379.10688)" stroke-width=".8" stroke-linecap="butt" stroke-linejoin="round" fill="none" stroke="#000000" d="M 694.8842 45.746877 L 694.8842 42.246877 "/>
<use xlink:href="#font_10_31" transform="matrix(14,0,0,-14,687.51797,351.0006)"/>
<use xlink:href="#font_10_30" transform="matrix(14,0,0,-14,695.80599,351.18263)"/>
<path transform="matrix(1,0,0,-1,0,379.10688)" d="M 831.9368 45.746877 L 831.9368 42.246877 "/>
<path transform="matrix(1,0,0,-1,0,379.10688)" stroke-width=".8" stroke-linecap="butt" stroke-linejoin="round" fill="none" stroke="#000000" d="M 831.9368 45.746877 L 831.9368 42.246877 "/>
<use xlink:href="#font_10_32" transform="matrix(14,0,0,-14,824.05258,351.0006)"/>
<use xlink:href="#font_10_30" transform="matrix(14,0,0,-14,832.8586,351.18263)"/>
<path transform="matrix(1,0,0,-1,0,379.10688)" d="M 968.9895 45.746877 L 968.9895 42.246877 "/>
<path transform="matrix(1,0,0,-1,0,379.10688)" stroke-width=".8" stroke-linecap="butt" stroke-linejoin="round" fill="none" stroke="#000000" d="M 968.9895 45.746877 L 968.9895 42.246877 "/>
<symbol id="font_10_33">
<path transform="matrix(.001,0,0,.001,-.076000008,.013)" d="M 406 393 C 453 383 490 362 516 330 C 542 298 556 258 556 212 C 556 140 531 84 482 45 C 432 6 362 -13 271 -13 C 240 -13 208 -10 176 -4 C 144 1 110 10 76 22 L 76 117 C 103 101 133 89 166 81 C 198 73 232 69 268 69 C 330 69 377 81 409 105 C 441 129 458 165 458 212 C 458 254 443 288 413 312 C 383 336 341 349 287 349 L 202 349 L 202 430 L 291 430 C 339 430 376 439 402 459 C 428 478 441 506 441 543 C 441 580 427 609 401 629 C 374 649 336 659 287 659 C 260 659 231 656 200 650 C 169 644 135 635 98 623 L 98 711 C 135 721 170 729 203 734 C 235 739 266 742 296 742 C 370 742 429 725 473 691 C 517 657 539 611 539 553 C 539 513 527 479 504 451 C 481 423 448 403 406 393 "/>
</symbol>
<use xlink:href="#font_10_33" transform="matrix(14,0,0,-14,961.1473,351.18263)"/>
<use xlink:href="#font_10_30" transform="matrix(14,0,0,-14,969.91128,351.18263)"/>
<symbol id="font_10_4c">
<path transform="matrix(.001,0,0,.001,-.098000008,0)" d="M 98 729 L 197 729 L 197 83 L 552 83 L 552 0 L 98 0 L 98 729 "/>
</symbol>
<symbol id="font_10_43">
<path transform="matrix(.001,0,0,.001,-.056,.013)" d="M 644 673 L 644 569 C 610 599 575 622 537 638 C 499 653 460 661 418 661 C 334 661 270 635 226 584 C 182 533 160 460 160 364 C 160 268 182 194 226 143 C 270 92 334 67 418 67 C 460 67 499 74 537 90 C 575 105 610 128 644 159 L 644 56 C 609 32 572 15 534 4 C 496 -7 455 -13 412 -13 C 302 -13 215 20 151 87 C 87 154 56 246 56 364 C 56 481 87 573 151 641 C 215 708 302 742 412 742 C 456 742 497 736 535 725 C 573 713 610 696 644 673 "/>
</symbol>
<symbol id="font_10_6f">
<path transform="matrix(.001,0,0,.001,-.055000005,.013)" d="M 306 484 C 258 484 220 465 192 427 C 164 389 150 338 150 273 C 150 207 163 156 191 118 C 219 80 257 62 306 62 C 354 62 392 80 420 118 C 448 156 462 207 462 273 C 462 337 448 389 420 427 C 392 465 354 484 306 484 M 306 560 C 384 560 445 534 490 484 C 534 433 557 363 557 273 C 557 183 534 113 490 63 C 445 12 384 -13 306 -13 C 227 -13 165 12 121 63 C 77 113 55 183 55 273 C 55 363 77 433 121 484 C 165 534 227 560 306 560 "/>
</symbol>
<symbol id="font_10_48">
<path transform="matrix(.001,0,0,.001,-.098000008,0)" d="M 98 729 L 197 729 L 197 430 L 555 430 L 555 729 L 654 729 L 654 0 L 555 0 L 555 347 L 197 347 L 197 0 L 98 0 L 98 729 "/>
</symbol>
<use xlink:href="#font_10_4c" transform="matrix(14,0,0,-14,542.672,368.5475)"/>
<use xlink:href="#font_10_43" transform="matrix(14,0,0,-14,549.8838,368.7295)"/>
<use xlink:href="#font_10_6f" transform="matrix(14,0,0,-14,559.6452,368.7295)"/>
<use xlink:href="#font_10_48" transform="matrix(14,0,0,-14,568.8126,368.5475)"/>
<use xlink:href="#font_10_32" transform="matrix(9.8,0,0,-9.8,578.8173,370.84437)"/>
<symbol id="font_10_20">
</symbol>
<symbol id="font_10_28">
<path transform="matrix(.001,0,0,.001,-.086,.13100001)" d="M 310 759 C 266 683 234 609 213 536 C 191 463 181 389 181 314 C 181 238 191 164 213 91 C 234 17 266 -56 310 -131 L 232 -131 C 183 -54 146 20 122 94 C 98 168 86 241 86 314 C 86 386 98 459 122 533 C 146 607 182 682 232 759 L 310 759 "/>
</symbol>
<symbol id="font_10_25">
<path transform="matrix(.001,0,0,.001,-.055000005,.013)" d="M 727 321 C 699 321 676 309 660 285 C 644 261 636 227 636 184 C 636 142 644 108 660 84 C 676 60 699 48 727 48 C 755 48 777 60 793 84 C 809 108 817 142 817 184 C 817 226 809 260 793 284 C 777 308 755 321 727 321 M 727 383 C 778 383 819 365 849 329 C 879 293 895 244 895 184 C 895 123 879 75 849 40 C 819 4 778 -13 727 -13 C 675 -13 633 4 603 40 C 573 75 558 123 558 184 C 558 245 573 293 603 329 C 633 365 675 383 727 383 M 223 680 C 195 680 173 667 157 643 C 141 619 133 586 133 544 C 133 500 141 467 157 443 C 173 419 195 407 223 407 C 251 407 274 419 290 443 C 306 467 314 500 314 544 C 314 586 305 619 289 643 C 273 667 251 680 223 680 M 664 742 L 742 742 L 286 -13 L 208 -13 L 664 742 M 223 742 C 274 742 315 724 346 688 C 376 652 392 604 392 544 C 392 482 376 434 346 398 C 316 362 275 345 223 345 C 171 345 130 362 100 398 C 70 434 55 482 55 544 C 55 604 70 652 100 688 C 130 724 171 742 223 742 "/>
</symbol>
<symbol id="font_10_63">
<path transform="matrix(.001,0,0,.001,-.055000005,.013)" d="M 488 526 L 488 442 C 462 456 437 466 411 473 C 385 480 360 484 334 484 C 276 484 230 465 198 428 C 166 391 150 339 150 273 C 150 206 166 154 198 117 C 230 80 276 62 334 62 C 360 62 385 65 411 72 C 437 79 462 90 488 104 L 488 21 C 462 9 436 0 410 -5 C 383 -10 354 -13 324 -13 C 242 -13 176 12 128 64 C 79 115 55 185 55 273 C 55 362 79 432 128 483 C 177 534 244 560 330 560 C 358 560 385 557 411 551 C 437 545 463 537 488 526 "/>
</symbol>
<symbol id="font_10_68">
<path transform="matrix(.001,0,0,.001,-.091000009,0)" d="M 549 330 L 549 0 L 459 0 L 459 327 C 459 379 448 417 428 443 C 408 469 378 482 338 482 C 289 482 251 466 223 435 C 195 404 181 362 181 309 L 181 0 L 91 0 L 91 760 L 181 760 L 181 462 C 202 494 227 519 257 535 C 286 551 320 560 358 560 C 420 560 468 540 500 501 C 532 462 549 405 549 330 "/>
</symbol>
<symbol id="font_10_61">
<path transform="matrix(.001,0,0,.001,-.060000004,.013)" d="M 343 275 C 270 275 220 266 192 250 C 164 233 150 205 150 165 C 150 133 160 107 181 89 C 202 70 231 61 267 61 C 317 61 357 78 387 114 C 417 149 432 196 432 255 L 432 275 L 343 275 M 522 312 L 522 0 L 432 0 L 432 83 C 411 49 385 25 355 10 C 325 -5 287 -13 243 -13 C 187 -13 142 2 109 33 C 76 64 60 106 60 159 C 60 220 80 266 122 298 C 163 329 224 345 306 345 L 432 345 L 432 354 C 432 395 418 427 391 450 C 364 472 326 484 277 484 C 245 484 215 480 185 472 C 155 464 127 453 100 439 L 100 522 C 132 534 164 544 195 550 C 226 556 256 560 286 560 C 365 560 424 539 463 498 C 502 457 522 395 522 312 "/>
</symbol>
<symbol id="font_10_6e">
<path transform="matrix(.001,0,0,.001,-.091000009,0)" d="M 549 330 L 549 0 L 459 0 L 459 327 C 459 379 448 417 428 443 C 408 469 378 482 338 482 C 289 482 251 466 223 435 C 195 404 181 362 181 309 L 181 0 L 91 0 L 91 547 L 181 547 L 181 462 C 202 494 227 519 257 535 C 286 551 320 560 358 560 C 420 560 468 540 500 501 C 532 462 549 405 549 330 "/>
</symbol>
<symbol id="font_10_67">
<path transform="matrix(.001,0,0,.001,-.055000005,.20700002)" d="M 454 280 C 454 344 440 395 414 431 C 387 467 349 485 301 485 C 253 485 215 467 188 431 C 161 395 148 344 148 280 C 148 215 161 165 188 129 C 215 93 253 75 301 75 C 349 75 387 93 414 129 C 440 165 454 215 454 280 M 544 68 C 544 -24 523 -93 482 -139 C 440 -184 377 -207 292 -207 C 260 -207 231 -204 203 -200 C 175 -195 147 -188 121 -178 L 121 -91 C 147 -105 173 -115 199 -122 C 225 -129 251 -133 278 -133 C 336 -133 380 -117 410 -87 C 439 -56 454 -10 454 52 L 454 96 C 435 64 411 40 382 24 C 353 8 319 0 279 0 C 211 0 157 25 116 76 C 75 127 55 195 55 280 C 55 364 75 432 116 483 C 157 534 211 560 279 560 C 319 560 353 552 382 536 C 411 520 435 496 454 464 L 454 547 L 544 547 L 544 68 "/>
</symbol>
<symbol id="font_10_65">
<path transform="matrix(.001,0,0,.001,-.055000005,.013)" d="M 562 296 L 562 252 L 149 252 C 153 190 171 142 205 110 C 238 78 284 62 344 62 C 378 62 412 66 444 74 C 476 82 509 95 541 113 L 541 28 C 509 14 476 3 442 -3 C 408 -9 373 -13 339 -13 C 251 -13 182 12 131 62 C 80 112 55 181 55 268 C 55 357 79 428 127 481 C 175 533 241 560 323 560 C 397 560 455 536 498 489 C 540 441 562 377 562 296 M 472 322 C 471 371 457 410 431 440 C 404 469 368 484 324 484 C 274 484 234 469 204 441 C 174 413 156 373 152 322 L 472 322 "/>
</symbol>
<symbol id="font_10_29">
<path transform="matrix(.001,0,0,.001,-.080000009,.13100001)" d="M 80 759 L 158 759 C 206 682 243 607 267 533 C 291 459 304 386 304 314 C 304 241 291 168 267 94 C 243 20 206 -54 158 -131 L 80 -131 C 123 -56 155 17 177 91 C 198 164 209 238 209 314 C 209 389 198 463 177 536 C 155 609 123 683 80 759 "/>
</symbol>
<use xlink:href="#font_10_20" transform="matrix(14,0,0,-14,570.4258,375.02949)"/>
<use xlink:href="#font_10_28" transform="matrix(14,0,0,-14,590.37399,370.3815)"/>
<use xlink:href="#font_10_25" transform="matrix(14,0,0,-14,595.4019,368.7295)"/>
<use xlink:href="#font_10_20" transform="matrix(14,0,0,-14,593.6406,375.02949)"/>
<use xlink:href="#font_10_63" transform="matrix(14,0,0,-14,613.15487,368.7295)"/>
<use xlink:href="#font_10_68" transform="matrix(14,0,0,-14,621.3561,368.5475)"/>
<use xlink:href="#font_10_61" transform="matrix(14,0,0,-14,629.79519,368.7295)"/>
<use xlink:href="#font_10_6e" transform="matrix(14,0,0,-14,638.8082,368.5475)"/>
<use xlink:href="#font_10_67" transform="matrix(14,0,0,-14,647.1773,371.4455)"/>
<use xlink:href="#font_10_65" transform="matrix(14,0,0,-14,656.064,368.7295)"/>
<use xlink:href="#font_10_29" transform="matrix(14,0,0,-14,665.0273,370.3815)"/>
<path transform="matrix(1,0,0,-1,0,379.10688)" d="M 215.2 66.131877 L 211.7 66.131877 "/>
<path transform="matrix(1,0,0,-1,0,379.10688)" stroke-width=".8" stroke-linecap="butt" stroke-linejoin="round" fill="none" stroke="#000000" d="M 215.2 66.131877 L 211.7 66.131877 "/>
<symbol id="font_10_57">
<path transform="matrix(.001,0,0,.001,-.033,0)" d="M 33 729 L 133 729 L 286 113 L 439 729 L 550 729 L 703 113 L 856 729 L 956 729 L 773 0 L 649 0 L 495 633 L 340 0 L 216 0 L 33 729 "/>
</symbol>
<symbol id="font_10_69">
<path transform="matrix(.001,0,0,.001,-.094000007,0)" d="M 94 547 L 184 547 L 184 0 L 94 0 L 94 547 M 94 760 L 184 760 L 184 646 L 94 646 L 94 760 "/>
</symbol>
<symbol id="font_10_64">
<path transform="matrix(.001,0,0,.001,-.055000005,.013)" d="M 454 464 L 454 760 L 544 760 L 544 0 L 454 0 L 454 82 C 435 49 411 25 382 10 C 353 -5 319 -13 279 -13 C 213 -13 159 13 117 65 C 75 117 55 187 55 273 C 55 359 75 428 117 481 C 159 533 213 560 279 560 C 319 560 353 552 382 536 C 411 520 435 496 454 464 M 148 273 C 148 207 161 155 188 117 C 215 79 253 61 301 61 C 348 61 385 79 413 117 C 440 155 454 207 454 273 C 454 339 440 390 413 428 C 385 466 348 485 301 485 C 253 485 215 466 188 428 C 161 390 148 339 148 273 "/>
</symbol>
<symbol id="font_10_70">
<path transform="matrix(.001,0,0,.001,-.091000009,.20700002)" d="M 181 82 L 181 -207 L 91 -207 L 91 547 L 181 547 L 181 464 C 199 496 223 520 252 536 C 281 552 316 560 356 560 C 422 560 476 533 518 481 C 559 428 580 359 580 273 C 580 187 559 117 518 65 C 476 13 422 -13 356 -13 C 316 -13 281 -5 252 10 C 223 25 199 49 181 82 M 487 273 C 487 339 473 390 446 428 C 418 466 381 485 334 485 C 286 485 249 466 222 428 C 194 390 181 339 181 273 C 181 207 194 155 222 117 C 249 79 286 61 334 61 C 381 61 418 79 446 117 C 473 155 487 207 487 273 "/>
</symbol>
<symbol id="font_10_77">
<path transform="matrix(.001,0,0,.001,-.042000005,0)" d="M 42 547 L 132 547 L 244 120 L 356 547 L 462 547 L 574 120 L 686 547 L 776 547 L 633 0 L 527 0 L 409 448 L 291 0 L 185 0 L 42 547 "/>
</symbol>
<symbol id="font_10_72">
<path transform="matrix(.001,0,0,.001,-.091000009,0)" d="M 411 463 C 401 469 390 473 378 476 C 366 478 353 480 339 480 C 288 480 249 463 222 430 C 194 397 181 350 181 288 L 181 0 L 91 0 L 91 547 L 181 547 L 181 462 C 199 495 224 520 254 536 C 284 552 321 560 365 560 C 371 560 378 559 386 559 C 393 558 401 557 411 555 L 411 463 "/>
</symbol>
<symbol id="font_10_73">
<path transform="matrix(.001,0,0,.001,-.054,.013)" d="M 443 531 L 443 446 C 417 458 391 468 364 475 C 336 481 308 485 279 485 C 234 485 200 478 178 464 C 156 450 145 430 145 403 C 145 382 153 366 169 354 C 185 342 217 330 265 320 L 296 313 C 360 299 405 279 432 255 C 458 230 472 195 472 151 C 472 100 452 60 412 31 C 372 1 316 -13 246 -13 C 216 -13 186 -10 154 -5 C 122 0 89 8 54 20 L 54 113 C 87 95 120 82 152 74 C 184 65 216 61 248 61 C 290 61 323 68 346 82 C 368 96 380 117 380 144 C 380 168 371 187 355 200 C 339 213 303 226 247 238 L 216 245 C 160 257 119 275 95 299 C 70 323 58 356 58 399 C 58 450 76 490 112 518 C 148 546 200 560 268 560 C 301 560 332 557 362 552 C 391 547 418 540 443 531 "/>
</symbol>
<symbol id="font_10_2e">
<path transform="matrix(.001,0,0,.001,-.10700001,0)" d="M 107 124 L 210 124 L 210 0 L 107 0 L 107 124 "/>
</symbol>
<symbol id="font_10_4d">
<path transform="matrix(.001,0,0,.001,-.098000008,0)" d="M 98 729 L 245 729 L 431 233 L 618 729 L 765 729 L 765 0 L 669 0 L 669 640 L 481 140 L 382 140 L 194 640 L 194 0 L 98 0 L 98 729 "/>
</symbol>
<symbol id="font_10_2f">
<path transform="matrix(.001,0,0,.001,0,.09200001)" d="M 254 729 L 337 729 L 83 -92 L 0 -92 L 254 729 "/>
</symbol>
<symbol id="font_10_6b">
<path transform="matrix(.001,0,0,.001,-.091000009,0)" d="M 91 760 L 181 760 L 181 311 L 449 547 L 564 547 L 274 291 L 576 0 L 459 0 L 181 267 L 181 0 L 91 0 L 91 760 "/>
</symbol>
<symbol id="font_10_6d">
<path transform="matrix(.001,0,0,.001,-.091000009,0)" d="M 520 442 C 542 482 569 511 600 531 C 631 550 668 560 711 560 C 767 560 811 540 842 500 C 873 460 889 403 889 330 L 889 0 L 799 0 L 799 327 C 799 379 789 418 771 444 C 752 469 724 482 686 482 C 639 482 602 466 575 435 C 548 404 535 362 535 309 L 535 0 L 445 0 L 445 327 C 445 379 435 418 417 444 C 398 469 369 482 331 482 C 285 482 248 466 221 435 C 194 404 181 362 181 309 L 181 0 L 91 0 L 91 547 L 181 547 L 181 462 C 201 495 226 520 255 536 C 283 552 317 560 357 560 C 397 560 430 550 458 530 C 486 510 506 480 520 442 "/>
</symbol>
<use xlink:href="#font_10_57" transform="matrix(14,0,0,-14,7.6619999,319.10783)"/>
<use xlink:href="#font_10_69" transform="matrix(14,0,0,-14,22.358775,319.10783)"/>
<use xlink:href="#font_10_6e" transform="matrix(14,0,0,-14,26.206423,319.10783)"/>
<use xlink:href="#font_10_64" transform="matrix(14,0,0,-14,34.57547,319.28984)"/>
<use xlink:href="#font_10_20" transform="matrix(14,0,0,-14,28.398188,325.5898)"/>
<use xlink:href="#font_10_70" transform="matrix(14,0,0,-14,48.41638,322.00584)"/>
<use xlink:href="#font_10_6f" transform="matrix(14,0,0,-14,56.799104,319.28984)"/>
<use xlink:href="#font_10_77" transform="matrix(14,0,0,-14,65.182529,319.10783)"/>
<use xlink:href="#font_10_65" transform="matrix(14,0,0,-14,76.81472,319.28984)"/>
<use xlink:href="#font_10_72" transform="matrix(14,0,0,-14,85.93201,319.10783)"/>
<use xlink:href="#font_10_20" transform="matrix(14,0,0,-14,76.119869,325.5898)"/>
<use xlink:href="#font_10_64" transform="matrix(14,0,0,-14,95.634059,319.28984)"/>
<use xlink:href="#font_10_65" transform="matrix(14,0,0,-14,104.520778,319.28984)"/>
<use xlink:href="#font_10_6e" transform="matrix(14,0,0,-14,113.63806,319.10783)"/>
<use xlink:href="#font_10_73" transform="matrix(14,0,0,-14,121.9931,319.28984)"/>
<use xlink:href="#font_10_2e" transform="matrix(14,0,0,-14,130.02906,319.10783)"/>
<use xlink:href="#font_10_20" transform="matrix(14,0,0,-14,118.68725,325.5898)"/>
<use xlink:href="#font_10_28" transform="matrix(14,0,0,-14,138.63544,320.94184)"/>
<use xlink:href="#font_10_4d" transform="matrix(14,0,0,-14,144.26535,319.10783)"/>
<use xlink:href="#font_10_57" transform="matrix(14,0,0,-14,155.43447,319.10783)"/>
<use xlink:href="#font_10_2f" transform="matrix(14,0,0,-14,168.81523,320.3958)"/>
<use xlink:href="#font_10_6b" transform="matrix(14,0,0,-14,174.80603,319.10783)"/>
<use xlink:href="#font_10_6d" transform="matrix(14,0,0,-14,182.91345,319.10783)"/>
<use xlink:href="#font_10_32" transform="matrix(9.8,0,0,-9.8,196.12653,313.74845)"/>
<use xlink:href="#font_10_29" transform="matrix(14,0,0,-14,203.149,320.94184)"/>
<path transform="matrix(1,0,0,-1,0,379.10688)" d="M 215.2 106.90188 L 211.7 106.90188 "/>
<path transform="matrix(1,0,0,-1,0,379.10688)" stroke-width=".8" stroke-linecap="butt" stroke-linejoin="round" fill="none" stroke="#000000" d="M 215.2 106.90188 L 211.7 106.90188 "/>
<symbol id="font_10_66">
<path transform="matrix(.001,0,0,.001,-.023000002,0)" d="M 371 760 L 371 685 L 285 685 C 253 685 230 678 218 665 C 205 652 199 629 199 595 L 199 547 L 347 547 L 347 477 L 199 477 L 199 0 L 109 0 L 109 477 L 23 477 L 23 547 L 109 547 L 109 585 C 109 645 123 690 151 718 C 179 746 224 760 286 760 L 371 760 "/>
</symbol>
<symbol id="font_10_74">
<path transform="matrix(.001,0,0,.001,-.027,0)" d="M 183 702 L 183 547 L 368 547 L 368 477 L 183 477 L 183 180 C 183 135 189 106 201 94 C 213 81 238 75 276 75 L 368 75 L 368 0 L 276 0 C 206 0 158 13 132 39 C 106 65 93 112 93 180 L 93 477 L 27 477 L 27 547 L 93 547 L 93 702 L 183 702 "/>
</symbol>
<symbol id="font_10_79">
<path transform="matrix(.001,0,0,.001,-.030000002,.20700002)" d="M 322 -50 C 296 -114 271 -157 247 -177 C 223 -197 191 -207 151 -207 L 79 -207 L 79 -132 L 132 -132 C 156 -132 175 -126 189 -114 C 203 -102 218 -75 235 -31 L 251 9 L 30 547 L 125 547 L 296 119 L 467 547 L 562 547 L 322 -50 "/>
</symbol>
<use xlink:href="#font_10_57" transform="matrix(14,0,0,-14,52.177629,277.52534)"/>
<use xlink:href="#font_10_69" transform="matrix(14,0,0,-14,66.87763,277.52534)"/>
<use xlink:href="#font_10_6e" transform="matrix(14,0,0,-14,70.72763,277.52534)"/>
<use xlink:href="#font_10_64" transform="matrix(14,0,0,-14,79.099628,277.70735)"/>
<use xlink:href="#font_10_20" transform="matrix(14,0,0,-14,72.92563,284.00733)"/>
<use xlink:href="#font_10_63" transform="matrix(14,0,0,-14,92.44163,277.70735)"/>
<use xlink:href="#font_10_61" transform="matrix(14,0,0,-14,100.211627,277.70735)"/>
<use xlink:href="#font_10_70" transform="matrix(14,0,0,-14,109.22763,280.42335)"/>
<use xlink:href="#font_10_2e" transform="matrix(14,0,0,-14,118.34163,277.52534)"/>
<use xlink:href="#font_10_20" transform="matrix(14,0,0,-14,107.00163,284.00733)"/>
<use xlink:href="#font_10_66" transform="matrix(14,0,0,-14,126.06963,277.52534)"/>
<use xlink:href="#font_10_61" transform="matrix(14,0,0,-14,131.51563,277.70735)"/>
<use xlink:href="#font_10_63" transform="matrix(14,0,0,-14,140.02764,277.70735)"/>
<use xlink:href="#font_10_74" transform="matrix(14,0,0,-14,147.33563,277.52534)"/>
<use xlink:href="#font_10_6f" transform="matrix(14,0,0,-14,153.21564,277.70735)"/>
<use xlink:href="#font_10_72" transform="matrix(14,0,0,-14,162.28765,277.52534)"/>
<use xlink:href="#font_10_20" transform="matrix(14,0,0,-14,152.47364,284.00733)"/>
<use xlink:href="#font_10_28" transform="matrix(14,0,0,-14,172.42363,279.35935)"/>
<use xlink:href="#font_10_25" transform="matrix(14,0,0,-14,177.44965,277.70735)"/>
<use xlink:href="#font_10_2f" transform="matrix(14,0,0,-14,189.97965,278.81333)"/>
<use xlink:href="#font_10_79" transform="matrix(14,0,0,-14,195.11765,280.42335)"/>
<use xlink:href="#font_10_29" transform="matrix(14,0,0,-14,204.10564,279.35935)"/>
<path transform="matrix(1,0,0,-1,0,379.10688)" d="M 215.2 147.67188 L 211.7 147.67188 "/>
<path transform="matrix(1,0,0,-1,0,379.10688)" stroke-width=".8" stroke-linecap="butt" stroke-linejoin="round" fill="none" stroke="#000000" d="M 215.2 147.67188 L 211.7 147.67188 "/>
<symbol id="font_10_41">
<path transform="matrix(.001,0,0,.001,-.008,0)" d="M 342 632 L 208 269 L 476 269 L 342 632 M 286 729 L 398 729 L 676 0 L 573 0 L 507 187 L 178 187 L 112 0 L 8 0 L 286 729 "/>
</symbol>
<symbol id="font_10_50">
<path transform="matrix(.001,0,0,.001,-.098000008,0)" d="M 197 648 L 197 374 L 321 374 C 367 374 402 385 427 409 C 452 433 465 467 465 511 C 465 555 452 588 427 612 C 402 636 367 648 321 648 L 197 648 M 98 729 L 321 729 C 402 729 464 710 506 673 C 548 636 569 582 569 511 C 569 439 548 384 506 348 C 464 311 402 293 321 293 L 197 293 L 197 0 L 98 0 L 98 729 "/>
</symbol>
<symbol id="font_10_45">
<path transform="matrix(.001,0,0,.001,-.098000008,0)" d="M 98 729 L 559 729 L 559 646 L 197 646 L 197 430 L 544 430 L 544 347 L 197 347 L 197 83 L 568 83 L 568 0 L 98 0 L 98 729 "/>
</symbol>
<symbol id="font_10_58">
<path transform="matrix(.001,0,0,.001,-.030000002,0)" d="M 63 729 L 169 729 L 350 458 L 532 729 L 638 729 L 404 379 L 654 0 L 548 0 L 343 310 L 136 0 L 30 0 L 290 389 L 63 729 "/>
</symbol>
<use xlink:href="#font_10_57" transform="matrix(14,0,0,-14,55.708879,236.75531)"/>
<use xlink:href="#font_10_69" transform="matrix(14,0,0,-14,70.40888,236.75531)"/>
<use xlink:href="#font_10_6e" transform="matrix(14,0,0,-14,74.25888,236.75531)"/>
<use xlink:href="#font_10_64" transform="matrix(14,0,0,-14,82.630878,236.93732)"/>
<use xlink:href="#font_10_20" transform="matrix(14,0,0,-14,76.45688,243.2373)"/>
<use xlink:href="#font_10_43" transform="matrix(14,0,0,-14,95.98688,236.93732)"/>
<use xlink:href="#font_10_41" transform="matrix(14,0,0,-14,105.086879,236.75531)"/>
<use xlink:href="#font_10_50" transform="matrix(14,0,0,-14,115.922878,236.75531)"/>
<use xlink:href="#font_10_45" transform="matrix(14,0,0,-14,124.364879,236.75531)"/>
<use xlink:href="#font_10_58" transform="matrix(14,0,0,-14,132.26088,236.75531)"/>
<use xlink:href="#font_10_20" transform="matrix(14,0,0,-14,127.13688,243.2373)"/>
<use xlink:href="#font_10_28" transform="matrix(14,0,0,-14,147.08689,238.58931)"/>
<use xlink:href="#font_10_4d" transform="matrix(14,0,0,-14,152.71488,236.75531)"/>
<use xlink:href="#font_10_2f" transform="matrix(14,0,0,-14,172.02227,238.0433)"/>
<use xlink:href="#font_10_4d" transform="matrix(14,0,0,-14,178.11226,236.75531)"/>
<use xlink:href="#font_10_57" transform="matrix(14,0,0,-14,189.28427,236.75531)"/>
<use xlink:href="#font_10_29" transform="matrix(14,0,0,-14,203.78826,238.58931)"/>
<clipPath id="cp19">
<path transform="matrix(.014,0,0,-.014,163.11504,236.75531)" d="M -1021 -463 L 1794 -463 L 1794 1233 L -1021 1233 Z "/>
</clipPath>
<g clip-path="url(#cp19)">
<path transform="matrix(.014,0,0,-.014,163.11504,236.75531)" d="M 570 673 L 570 569 C 540 603 511 627 484 642 C 456 656 426 664 393 664 C 341 664 299 647 267 615 C 234 582 212 535 202 475 L 484 475 L 457 415 L 194 415 C 193 407 193 399 193 392 C 193 384 193 375 193 364 C 193 353 193 344 193 337 C 193 329 193 322 194 314 L 412 314 L 385 254 L 202 254 C 212 193 234 146 267 113 C 299 80 341 64 393 64 C 426 64 456 71 484 86 C 511 100 540 125 570 159 L 570 56 C 540 32 511 15 481 4 C 451 -7 420 -13 389 -13 C 311 -13 248 10 198 57 C 148 103 116 169 103 254 L 0 254 L 27 314 L 95 314 C 95 321 94 328 94 336 C 94 344 94 353 94 364 C 94 375 94 384 94 392 C 94 400 95 407 95 415 L 0 415 L 27 475 L 103 475 C 116 559 148 624 198 671 C 248 718 312 742 389 742 C 421 742 452 736 482 725 C 512 713 541 696 570 673 "/>
</g>
<path transform="matrix(1,0,0,-1,0,379.10688)" d="M 215.2 188.44188 L 211.7 188.44188 "/>
<path transform="matrix(1,0,0,-1,0,379.10688)" stroke-width=".8" stroke-linecap="butt" stroke-linejoin="round" fill="none" stroke="#000000" d="M 215.2 188.44188 L 211.7 188.44188 "/>
<symbol id="font_10_44">
<path transform="matrix(.001,0,0,.001,-.098000008,0)" d="M 197 648 L 197 81 L 316 81 C 416 81 490 103 537 149 C 583 195 607 267 607 365 C 607 463 583 534 537 580 C 490 625 416 648 316 648 L 197 648 M 98 729 L 301 729 C 442 729 546 699 612 641 C 678 582 711 490 711 365 C 711 239 677 147 611 88 C 545 29 441 0 301 0 L 98 0 L 98 729 "/>
</symbol>
<symbol id="font_10_54">
<path transform="matrix(.001,0,0,.001,.002,0)" d="M -2 729 L 614 729 L 614 646 L 355 646 L 355 0 L 256 0 L 256 646 L -2 646 L -2 729 "/>
</symbol>
<use xlink:href="#font_10_44" transform="matrix(14,0,0,-14,90.54075,195.9853)"/>
<use xlink:href="#font_10_65" transform="matrix(14,0,0,-14,100.71874,196.16732)"/>
<use xlink:href="#font_10_6d" transform="matrix(14,0,0,-14,109.83275,195.9853)"/>
<use xlink:href="#font_10_61" transform="matrix(14,0,0,-14,123.034748,196.16732)"/>
<use xlink:href="#font_10_6e" transform="matrix(14,0,0,-14,132.05075,195.9853)"/>
<use xlink:href="#font_10_64" transform="matrix(14,0,0,-14,140.42276,196.16732)"/>
<use xlink:href="#font_10_20" transform="matrix(14,0,0,-14,134.24875,202.4673)"/>
<use xlink:href="#font_10_28" transform="matrix(14,0,0,-14,154.19875,197.8193)"/>
<use xlink:href="#font_10_54" transform="matrix(14,0,0,-14,158.42676,195.9853)"/>
<use xlink:href="#font_10_57" transform="matrix(14,0,0,-14,167.47077,195.9853)"/>
<use xlink:href="#font_10_68" transform="matrix(14,0,0,-14,182.12877,195.9853)"/>
<use xlink:href="#font_10_2f" transform="matrix(14,0,0,-14,189.73078,197.2733)"/>
<use xlink:href="#font_10_79" transform="matrix(14,0,0,-14,194.86878,198.8833)"/>
<use xlink:href="#font_10_29" transform="matrix(14,0,0,-14,203.85677,197.8193)"/>
<path transform="matrix(1,0,0,-1,0,379.10688)" d="M 215.2 229.21187 L 211.7 229.21187 "/>
<path transform="matrix(1,0,0,-1,0,379.10688)" stroke-width=".8" stroke-linecap="butt" stroke-linejoin="round" fill="none" stroke="#000000" d="M 215.2 229.21187 L 211.7 229.21187 "/>
<symbol id="font_10_56">
<path transform="matrix(.001,0,0,.001,-.008,0)" d="M 286 0 L 8 729 L 111 729 L 342 115 L 573 729 L 676 729 L 398 0 L 286 0 "/>
</symbol>
<symbol id="font_10_62">
<path transform="matrix(.001,0,0,.001,-.091000009,.013)" d="M 487 273 C 487 339 473 390 446 428 C 418 466 381 485 334 485 C 286 485 249 466 222 428 C 194 390 181 339 181 273 C 181 207 194 155 222 117 C 249 79 286 61 334 61 C 381 61 418 79 446 117 C 473 155 487 207 487 273 M 181 464 C 199 496 223 520 252 536 C 281 552 316 560 356 560 C 422 560 476 533 518 481 C 559 428 580 359 580 273 C 580 187 559 117 518 65 C 476 13 422 -13 356 -13 C 316 -13 281 -5 252 10 C 223 25 199 49 181 82 L 181 0 L 91 0 L 91 760 L 181 760 L 181 464 "/>
</symbol>
<symbol id="font_10_6c">
<path transform="matrix(.001,0,0,.001,-.094000007,0)" d="M 94 760 L 184 760 L 184 0 L 94 0 L 94 760 "/>
</symbol>
<use xlink:href="#font_10_56" transform="matrix(14,0,0,-14,43.858877,155.21532)"/>
<use xlink:href="#font_10_61" transform="matrix(14,0,0,-14,54.162878,155.39733)"/>
<use xlink:href="#font_10_72" transform="matrix(14,0,0,-14,63.178876,155.21532)"/>
<use xlink:href="#font_10_2e" transform="matrix(14,0,0,-14,69.156879,155.21532)"/>
<use xlink:href="#font_10_20" transform="matrix(14,0,0,-14,57.81688,161.69731)"/>
<use xlink:href="#font_10_63" transform="matrix(14,0,0,-14,77.33288,155.39733)"/>
<use xlink:href="#font_10_61" transform="matrix(14,0,0,-14,85.102878,155.39733)"/>
<use xlink:href="#font_10_62" transform="matrix(14,0,0,-14,94.11888,155.39733)"/>
<use xlink:href="#font_10_6c" transform="matrix(14,0,0,-14,103.05088,155.21532)"/>
<use xlink:href="#font_10_65" transform="matrix(14,0,0,-14,106.39687,155.39733)"/>
<use xlink:href="#font_10_20" transform="matrix(14,0,0,-14,99.94288,161.69731)"/>
<use xlink:href="#font_10_63" transform="matrix(14,0,0,-14,119.458889,155.39733)"/>
<use xlink:href="#font_10_6f" transform="matrix(14,0,0,-14,127.15888,155.39733)"/>
<use xlink:href="#font_10_73" transform="matrix(14,0,0,-14,135.71288,155.39733)"/>
<use xlink:href="#font_10_74" transform="matrix(14,0,0,-14,142.62889,155.21532)"/>
<use xlink:href="#font_10_20" transform="matrix(14,0,0,-14,133.44487,161.69731)"/>
<use xlink:href="#font_10_28" transform="matrix(14,0,0,-14,153.39488,157.04932)"/>
<use xlink:href="#font_10_4d" transform="matrix(14,0,0,-14,159.02288,155.21532)"/>
<use xlink:href="#font_10_2f" transform="matrix(14,0,0,-14,176.26055,156.50331)"/>
<use xlink:href="#font_10_6b" transform="matrix(14,0,0,-14,182.25255,155.21532)"/>
<use xlink:href="#font_10_6d" transform="matrix(14,0,0,-14,190.35855,155.21532)"/>
<use xlink:href="#font_10_29" transform="matrix(14,0,0,-14,203.84055,157.04932)"/>
<clipPath id="cp20">
<path transform="matrix(.014,0,0,-.014,167.35332,155.21532)" d="M -1021 -463 L 1794 -463 L 1794 1233 L -1021 1233 Z "/>
</clipPath>
<g clip-path="url(#cp20)">
<path transform="matrix(.014,0,0,-.014,167.35332,155.21532)" d="M 570 673 L 570 569 C 540 603 511 627 484 642 C 456 656 426 664 393 664 C 341 664 299 647 267 615 C 234 582 212 535 202 475 L 484 475 L 457 415 L 194 415 C 193 407 193 399 193 392 C 193 384 193 375 193 364 C 193 353 193 344 193 337 C 193 329 193 322 194 314 L 412 314 L 385 254 L 202 254 C 212 193 234 146 267 113 C 299 80 341 64 393 64 C 426 64 456 71 484 86 C 511 100 540 125 570 159 L 570 56 C 540 32 511 15 481 4 C 451 -7 420 -13 389 -13 C 311 -13 248 10 198 57 C 148 103 116 169 103 254 L 0 254 L 27 314 L 95 314 C 95 321 94 328 94 336 C 94 344 94 353 94 364 C 94 375 94 384 94 392 C 94 400 95 407 95 415 L 0 415 L 27 475 L 103 475 C 116 559 148 624 198 671 C 248 718 312 742 389 742 C 421 742 452 736 482 725 C 512 713 541 696 570 673 "/>
</g>
<path transform="matrix(1,0,0,-1,0,379.10688)" d="M 215.2 269.98188 L 211.7 269.98188 "/>
<path transform="matrix(1,0,0,-1,0,379.10688)" stroke-width=".8" stroke-linecap="butt" stroke-linejoin="round" fill="none" stroke="#000000" d="M 215.2 269.98188 L 211.7 269.98188 "/>
<symbol id="font_10_46">
<path transform="matrix(.001,0,0,.001,-.098000008,0)" d="M 98 729 L 517 729 L 517 646 L 197 646 L 197 431 L 486 431 L 486 348 L 197 348 L 197 0 L 98 0 L 98 729 "/>
</symbol>
<symbol id="font_10_78">
<path transform="matrix(.001,0,0,.001,-.029000001,0)" d="M 549 547 L 351 281 L 559 0 L 453 0 L 294 215 L 135 0 L 29 0 L 241 286 L 47 547 L 153 547 L 298 352 L 443 547 L 549 547 "/>
</symbol>
<use xlink:href="#font_10_46" transform="matrix(14,0,0,-14,61.228254,114.44531)"/>
<use xlink:href="#font_10_69" transform="matrix(14,0,0,-14,69.22225,114.44531)"/>
<use xlink:href="#font_10_78" transform="matrix(14,0,0,-14,72.20425,114.44531)"/>
<use xlink:href="#font_10_65" transform="matrix(14,0,0,-14,80.85625,114.62731)"/>
<use xlink:href="#font_10_64" transform="matrix(14,0,0,-14,89.46625,114.62731)"/>
<use xlink:href="#font_10_20" transform="matrix(14,0,0,-14,83.29226,120.927318)"/>
<use xlink:href="#font_10_63" transform="matrix(14,0,0,-14,102.80825,114.62731)"/>
<use xlink:href="#font_10_61" transform="matrix(14,0,0,-14,110.57825,114.62731)"/>
<use xlink:href="#font_10_62" transform="matrix(14,0,0,-14,119.59425,114.62731)"/>
<use xlink:href="#font_10_6c" transform="matrix(14,0,0,-14,128.52625,114.44531)"/>
<use xlink:href="#font_10_65" transform="matrix(14,0,0,-14,131.87226,114.62731)"/>
<use xlink:href="#font_10_20" transform="matrix(14,0,0,-14,125.41825,120.927318)"/>
<use xlink:href="#font_10_63" transform="matrix(14,0,0,-14,144.93427,114.62731)"/>
<use xlink:href="#font_10_6f" transform="matrix(14,0,0,-14,152.63426,114.62731)"/>
<use xlink:href="#font_10_73" transform="matrix(14,0,0,-14,161.18825,114.62731)"/>
<use xlink:href="#font_10_74" transform="matrix(14,0,0,-14,168.10427,114.44531)"/>
<use xlink:href="#font_10_20" transform="matrix(14,0,0,-14,158.92024,120.927318)"/>
<use xlink:href="#font_10_28" transform="matrix(14,0,0,-14,178.87026,116.27931)"/>
<use xlink:href="#font_10_4d" transform="matrix(14,0,0,-14,184.49825,114.44531)"/>
<use xlink:href="#font_10_29" transform="matrix(14,0,0,-14,203.77703,116.27931)"/>
<clipPath id="cp21">
<path transform="matrix(.014,0,0,-.014,193.7498,114.44531)" d="M -1021 -463 L 1794 -463 L 1794 1233 L -1021 1233 Z "/>
</clipPath>
<g clip-path="url(#cp21)">
<path transform="matrix(.014,0,0,-.014,193.7498,114.44531)" d="M 570 673 L 570 569 C 540 603 511 627 484 642 C 456 656 426 664 393 664 C 341 664 299 647 267 615 C 234 582 212 535 202 475 L 484 475 L 457 415 L 194 415 C 193 407 193 399 193 392 C 193 384 193 375 193 364 C 193 353 193 344 193 337 C 193 329 193 322 194 314 L 412 314 L 385 254 L 202 254 C 212 193 234 146 267 113 C 299 80 341 64 393 64 C 426 64 456 71 484 86 C 511 100 540 125 570 159 L 570 56 C 540 32 511 15 481 4 C 451 -7 420 -13 389 -13 C 311 -13 248 10 198 57 C 148 103 116 169 103 254 L 0 254 L 27 314 L 95 314 C 95 321 94 328 94 336 C 94 344 94 353 94 364 C 94 375 94 384 94 392 C 94 400 95 407 95 415 L 0 415 L 27 475 L 103 475 C 116 559 148 624 198 671 C 248 718 312 742 389 742 C 421 742 452 736 482 725 C 512 713 541 696 570 673 "/>
</g>
<path transform="matrix(1,0,0,-1,0,379.10688)" d="M 215.2 310.75187 L 211.7 310.75187 "/>
<path transform="matrix(1,0,0,-1,0,379.10688)" stroke-width=".8" stroke-linecap="butt" stroke-linejoin="round" fill="none" stroke="#000000" d="M 215.2 310.75187 L 211.7 310.75187 "/>
<use xlink:href="#font_10_45" transform="matrix(14,0,0,-14,75.49387,73.67532)"/>
<use xlink:href="#font_10_6c" transform="matrix(14,0,0,-14,84.28587,73.67532)"/>
<use xlink:href="#font_10_65" transform="matrix(14,0,0,-14,87.63187,73.85732)"/>
<use xlink:href="#font_10_63" transform="matrix(14,0,0,-14,96.24187,73.85732)"/>
<use xlink:href="#font_10_2e" transform="matrix(14,0,0,-14,104.66987,73.67532)"/>
<use xlink:href="#font_10_20" transform="matrix(14,0,0,-14,93.32987,80.157329)"/>
<use xlink:href="#font_10_65" transform="matrix(14,0,0,-14,112.84587,73.85732)"/>
<use xlink:href="#font_10_66" transform="matrix(14,0,0,-14,121.00787,73.67532)"/>
<use xlink:href="#font_10_66" transform="matrix(14,0,0,-14,125.935878,73.67532)"/>
<use xlink:href="#font_10_69" transform="matrix(14,0,0,-14,131.85787,73.67532)"/>
<use xlink:href="#font_10_63" transform="matrix(14,0,0,-14,135.20388,73.85732)"/>
<use xlink:href="#font_10_69" transform="matrix(14,0,0,-14,143.44986,73.67532)"/>
<use xlink:href="#font_10_65" transform="matrix(14,0,0,-14,146.79587,73.85732)"/>
<use xlink:href="#font_10_6e" transform="matrix(14,0,0,-14,155.90987,73.67532)"/>
<use xlink:href="#font_10_63" transform="matrix(14,0,0,-14,164.28188,73.85732)"/>
<use xlink:href="#font_10_79" transform="matrix(14,0,0,-14,171.63187,76.573329)"/>
<use xlink:href="#font_10_20" transform="matrix(14,0,0,-14,165.20586,80.157329)"/>
<use xlink:href="#font_10_28" transform="matrix(14,0,0,-14,185.15586,75.50932)"/>
<use xlink:href="#font_10_25" transform="matrix(14,0,0,-14,190.18187,73.85732)"/>
<use xlink:href="#font_10_29" transform="matrix(14,0,0,-14,203.83187,75.50932)"/>
<path transform="matrix(1,0,0,-1,0,379.10688)" d="M 215.2 351.52189 L 211.7 351.52189 "/>
<path transform="matrix(1,0,0,-1,0,379.10688)" stroke-width=".8" stroke-linecap="butt" stroke-linejoin="round" fill="none" stroke="#000000" d="M 215.2 351.52189 L 211.7 351.52189 "/>
<use xlink:href="#font_10_45" transform="matrix(14,0,0,-14,74.41575,32.905305)"/>
<use xlink:href="#font_10_6c" transform="matrix(14,0,0,-14,83.20775,32.905305)"/>
<use xlink:href="#font_10_65" transform="matrix(14,0,0,-14,86.55374,33.087305)"/>
<use xlink:href="#font_10_63" transform="matrix(14,0,0,-14,95.16375,33.087305)"/>
<use xlink:href="#font_10_2e" transform="matrix(14,0,0,-14,103.59175,32.905305)"/>
<use xlink:href="#font_10_20" transform="matrix(14,0,0,-14,92.25175,39.387308)"/>
<use xlink:href="#font_10_43" transform="matrix(14,0,0,-14,111.781749,33.087305)"/>
<use xlink:href="#font_10_41" transform="matrix(14,0,0,-14,120.881748,32.905305)"/>
<use xlink:href="#font_10_50" transform="matrix(14,0,0,-14,131.71775,32.905305)"/>
<use xlink:href="#font_10_45" transform="matrix(14,0,0,-14,140.15975,32.905305)"/>
<use xlink:href="#font_10_58" transform="matrix(14,0,0,-14,148.05574,32.905305)"/>
<use xlink:href="#font_10_20" transform="matrix(14,0,0,-14,142.93175,39.387308)"/>
<use xlink:href="#font_10_28" transform="matrix(14,0,0,-14,162.88176,34.739305)"/>
<use xlink:href="#font_10_2f" transform="matrix(14,0,0,-14,176.04082,34.193307)"/>
<use xlink:href="#font_10_6b" transform="matrix(14,0,0,-14,182.03282,32.905305)"/>
<use xlink:href="#font_10_57" transform="matrix(14,0,0,-14,189.32683,32.905305)"/>
<use xlink:href="#font_10_29" transform="matrix(14,0,0,-14,203.83083,34.739305)"/>
<clipPath id="cp22">
<path transform="matrix(.014,0,0,-.014,167.13359,32.905305)" d="M -1021 -463 L 1794 -463 L 1794 1233 L -1021 1233 Z "/>
</clipPath>
<g clip-path="url(#cp22)">
<path transform="matrix(.014,0,0,-.014,167.13359,32.905305)" d="M 570 673 L 570 569 C 540 603 511 627 484 642 C 456 656 426 664 393 664 C 341 664 299 647 267 615 C 234 582 212 535 202 475 L 484 475 L 457 415 L 194 415 C 193 407 193 399 193 392 C 193 384 193 375 193 364 C 193 353 193 344 193 337 C 193 329 193 322 194 314 L 412 314 L 385 254 L 202 254 C 212 193 234 146 267 113 C 299 80 341 64 393 64 C 426 64 456 71 484 86 C 511 100 540 125 570 159 L 570 56 C 540 32 511 15 481 4 C 451 -7 420 -13 389 -13 C 311 -13 248 10 198 57 C 148 103 116 169 103 254 L 0 254 L 27 314 L 95 314 C 95 321 94 328 94 336 C 94 344 94 353 94 364 C 94 375 94 384 94 392 C 94 400 95 407 95 415 L 0 415 L 27 475 L 103 475 C 116 559 148 624 198 671 C 248 718 312 742 389 742 C 421 742 452 736 482 725 C 512 713 541 696 570 673 "/>
</g>
<clipPath id="cp23">
<path transform="matrix(1,0,0,-1,0,379.10688)" d="M 215.2 45.746877 L 996.4 45.746877 L 996.4 371.9069 L 215.2 371.9069 Z "/>
</clipPath>
<g clip-path="url(#cp23)">
<path transform="matrix(1,0,0,-1,0,379.10688)" stroke-width="1" stroke-linecap="butt" stroke-linejoin="round" fill="none" stroke="#929292" d="M 557.8316 -1 L 557.8316 380.10688 "/>
</g>
<path transform="matrix(1,0,0,-1,0,379.10688)" stroke-width=".8" stroke-linecap="square" stroke-miterlimit="10" stroke-linejoin="miter" fill="none" stroke="#000000" d="M 215.2 45.746877 L 215.2 371.90687 "/>
<path transform="matrix(1,0,0,-1,0,379.10688)" stroke-width=".8" stroke-linecap="square" stroke-miterlimit="10" stroke-linejoin="miter" fill="none" stroke="#000000" d="M 996.4 45.746877 L 996.4 371.90687 "/>
<path transform="matrix(1,0,0,-1,0,379.10688)" stroke-width=".8" stroke-linecap="square" stroke-miterlimit="10" stroke-linejoin="miter" fill="none" stroke="#000000" d="M 215.2 45.746877 L 996.4 45.746877 "/>
<path transform="matrix(1,0,0,-1,0,379.10688)" stroke-width=".8" stroke-linecap="square" stroke-miterlimit="10" stroke-linejoin="miter" fill="none" stroke="#000000" d="M 215.2 371.90687 L 996.4 371.90687 "/>
<path transform="matrix(1,0,0,-1,0,379.10688)" d="M 242.47348 352.02076 L 261.5516 352.02076 C 262.5516 352.02076 263.0516 352.52076 263.0516 353.52076 L 263.0516 363.19264 C 263.0516 364.19264 262.5516 364.69264 261.5516 364.69264 L 242.47348 364.69264 C 241.47348 364.69264 240.97348 364.19264 240.97348 363.19264 L 240.97348 353.52076 C 240.97348 352.52076 241.47348 352.02076 242.47348 352.02076 Z " fill="#ffffff"/>
<path transform="matrix(1,0,0,-1,0,379.10688)" stroke-width="1" stroke-linecap="butt" stroke-miterlimit="10" stroke-linejoin="miter" fill="none" stroke="#000000" d="M 242.47348 352.02076 L 261.5516 352.02076 C 262.5516 352.02076 263.0516 352.52076 263.0516 353.52076 L 263.0516 363.19264 C 263.0516 364.19264 262.5516 364.69264 261.5516 364.69264 L 242.47348 364.69264 C 241.47348 364.69264 240.97348 364.19264 240.97348 363.19264 L 240.97348 353.52076 C 240.97348 352.52076 241.47348 352.02076 242.47348 352.02076 Z "/>
<symbol id="font_10_37">
<path transform="matrix(.001,0,0,.001,-.082,0)" d="M 82 729 L 551 729 L 551 687 L 286 0 L 183 0 L 432 646 L 82 646 L 82 729 "/>
</symbol>
<symbol id="font_10_35">
<path transform="matrix(.001,0,0,.001,-.07700001,.013)" d="M 108 729 L 495 729 L 495 646 L 198 646 L 198 467 C 212 472 227 476 241 478 C 255 480 270 482 284 482 C 365 482 429 459 477 415 C 525 370 549 310 549 234 C 549 155 524 94 475 51 C 426 8 357 -13 269 -13 C 238 -13 207 -10 175 -6 C 143 -1 111 6 77 17 L 77 116 C 106 100 136 88 168 80 C 199 72 232 69 267 69 C 323 69 368 83 401 113 C 433 143 450 183 450 234 C 450 284 433 324 401 354 C 368 384 323 399 267 399 C 241 399 214 396 188 390 C 162 384 135 375 108 363 L 108 729 "/>
</symbol>
<use xlink:href="#font_10_33" transform="matrix(10,0,0,-10,243.23348,23.637995)"/>
<use xlink:href="#font_10_37" transform="matrix(10,0,0,-10,249.65349,23.507996)"/>
<use xlink:href="#font_10_35" transform="matrix(10,0,0,-10,255.96349,23.637995)"/>
<path transform="matrix(1,0,0,-1,0,379.10688)" d="M 549.6084 352.02076 L 568.6865 352.02076 C 569.6865 352.02076 570.1865 352.52076 570.1865 353.52076 L 570.1865 363.19264 C 570.1865 364.19264 569.6865 364.69264 568.6865 364.69264 L 549.6084 364.69264 C 548.6084 364.69264 548.1084 364.19264 548.1084 363.19264 L 548.1084 353.52076 C 548.1084 352.52076 548.6084 352.02076 549.6084 352.02076 Z " fill="#ffffff"/>
<path transform="matrix(1,0,0,-1,0,379.10688)" stroke-width="1" stroke-linecap="butt" stroke-miterlimit="10" stroke-linejoin="miter" fill="none" stroke="#000000" d="M 549.6084 352.02076 L 568.6865 352.02076 C 569.6865 352.02076 570.1865 352.52076 570.1865 353.52076 L 570.1865 363.19264 C 570.1865 364.19264 569.6865 364.69264 568.6865 364.69264 L 549.6084 364.69264 C 548.6084 364.69264 548.1084 364.19264 548.1084 363.19264 L 548.1084 353.52076 C 548.1084 352.52076 548.6084 352.02076 549.6084 352.02076 Z "/>
<use xlink:href="#font_10_37" transform="matrix(10,0,0,-10,550.4284,23.507996)"/>
<use xlink:href="#font_10_35" transform="matrix(10,0,0,-10,556.7384,23.637995)"/>
<use xlink:href="#font_10_30" transform="matrix(10,0,0,-10,562.98837,23.637995)"/>
<path transform="matrix(1,0,0,-1,0,379.10688)" d="M 462.16886 311.25077 L 484.3876 311.25077 C 485.3876 311.25077 485.8876 311.75077 485.8876 312.75077 L 485.8876 322.42265 C 485.8876 323.42265 485.3876 323.92265 484.3876 323.92265 L 462.16886 323.92265 C 461.16886 323.92265 460.66886 323.42265 460.66886 322.42265 L 460.66886 312.75077 C 460.66886 311.75077 461.16886 311.25077 462.16886 311.25077 Z " fill="#ffffff"/>
<path transform="matrix(1,0,0,-1,0,379.10688)" stroke-width="1" stroke-linecap="butt" stroke-miterlimit="10" stroke-linejoin="miter" fill="none" stroke="#000000" d="M 462.16886 311.25077 L 484.3876 311.25077 C 485.3876 311.25077 485.8876 311.75077 485.8876 312.75077 L 485.8876 322.42265 C 485.8876 323.42265 485.3876 323.92265 484.3876 323.92265 L 462.16886 323.92265 C 461.16886 323.92265 460.66886 323.42265 460.66886 322.42265 L 460.66886 312.75077 C 460.66886 311.75077 461.16886 311.25077 462.16886 311.25077 Z "/>
<symbol id="font_10_38">
<path transform="matrix(.001,0,0,.001,-.068,.013)" d="M 318 346 C 271 346 234 333 207 308 C 180 283 167 249 167 205 C 167 161 180 126 207 101 C 234 76 271 64 318 64 C 364 64 401 76 428 102 C 455 127 469 161 469 205 C 469 249 455 283 429 308 C 402 333 365 346 318 346 M 219 388 C 177 398 144 418 120 447 C 96 476 85 511 85 553 C 85 611 105 657 147 691 C 188 725 245 742 318 742 C 390 742 447 725 489 691 C 530 657 551 611 551 553 C 551 511 539 476 515 447 C 491 418 459 398 417 388 C 464 377 501 355 528 323 C 554 291 568 251 568 205 C 568 134 546 80 503 43 C 459 5 398 -13 318 -13 C 237 -13 175 5 132 43 C 89 80 68 134 68 205 C 68 251 81 291 108 323 C 134 355 171 377 219 388 M 183 544 C 183 506 194 476 218 455 C 242 434 275 424 318 424 C 360 424 393 434 417 455 C 441 476 453 506 453 544 C 453 582 441 611 417 632 C 393 653 360 664 318 664 C 275 664 242 653 218 632 C 194 611 183 582 183 544 "/>
</symbol>
<use xlink:href="#font_10_38" transform="matrix(10,0,0,-10,462.84886,64.40798)"/>
<use xlink:href="#font_10_30" transform="matrix(10,0,0,-10,469.18888,64.40798)"/>
<use xlink:href="#font_10_25" transform="matrix(10,0,0,-10,475.43885,64.40798)"/>
<path transform="matrix(1,0,0,-1,0,379.10688)" d="M 549.6084 311.25077 L 571.82717 311.25077 C 572.82717 311.25077 573.32717 311.75077 573.32717 312.75077 L 573.32717 322.42265 C 573.32717 323.42265 572.82717 323.92265 571.82717 323.92265 L 549.6084 323.92265 C 548.6084 323.92265 548.1084 323.42265 548.1084 322.42265 L 548.1084 312.75077 C 548.1084 311.75077 548.6084 311.25077 549.6084 311.25077 Z " fill="#ffffff"/>
<path transform="matrix(1,0,0,-1,0,379.10688)" stroke-width="1" stroke-linecap="butt" stroke-miterlimit="10" stroke-linejoin="miter" fill="none" stroke="#000000" d="M 549.6084 311.25077 L 571.82717 311.25077 C 572.82717 311.25077 573.32717 311.75077 573.32717 312.75077 L 573.32717 322.42265 C 573.32717 323.42265 572.82717 323.92265 571.82717 323.92265 L 549.6084 323.92265 C 548.6084 323.92265 548.1084 323.42265 548.1084 322.42265 L 548.1084 312.75077 C 548.1084 311.75077 548.6084 311.25077 549.6084 311.25077 Z "/>
<use xlink:href="#font_10_37" transform="matrix(10,0,0,-10,550.4284,64.277988)"/>
<use xlink:href="#font_10_35" transform="matrix(10,0,0,-10,556.7384,64.40798)"/>
<use xlink:href="#font_10_25" transform="matrix(10,0,0,-10,562.87838,64.40798)"/>
<path transform="matrix(1,0,0,-1,0,379.10688)" d="M 626.49496 270.48075 L 645.57308 270.48075 C 646.57308 270.48075 647.07308 270.98075 647.07308 271.98075 L 647.07308 281.65263 C 647.07308 282.65263 646.57308 283.15263 645.57308 283.15263 L 626.49496 283.15263 C 625.49496 283.15263 624.99496 282.65263 624.99496 281.65263 L 624.99496 271.98075 C 624.99496 270.98075 625.49496 270.48075 626.49496 270.48075 Z " fill="#ffffff"/>
<path transform="matrix(1,0,0,-1,0,379.10688)" stroke-width="1" stroke-linecap="butt" stroke-miterlimit="10" stroke-linejoin="miter" fill="none" stroke="#000000" d="M 626.49496 270.48075 L 645.57308 270.48075 C 646.57308 270.48075 647.07308 270.98075 647.07308 271.98075 L 647.07308 281.65263 C 647.07308 282.65263 646.57308 283.15263 645.57308 283.15263 L 626.49496 283.15263 C 625.49496 283.15263 624.99496 282.65263 624.99496 281.65263 L 624.99496 271.98075 C 624.99496 270.98075 625.49496 270.48075 626.49496 270.48075 Z "/>
<symbol id="font_10_34">
<path transform="matrix(.001,0,0,.001,-.049000004,0)" d="M 378 643 L 129 254 L 378 254 L 378 643 M 352 729 L 476 729 L 476 254 L 580 254 L 580 172 L 476 172 L 476 0 L 378 0 L 378 172 L 49 172 L 49 267 L 352 729 "/>
</symbol>
<use xlink:href="#font_10_34" transform="matrix(10,0,0,-10,626.9849,105.048007)"/>
<use xlink:href="#font_10_30" transform="matrix(10,0,0,-10,633.5149,105.178)"/>
<use xlink:href="#font_10_30" transform="matrix(10,0,0,-10,639.8749,105.178)"/>
<path transform="matrix(1,0,0,-1,0,379.10688)" d="M 549.6084 270.48075 L 568.6865 270.48075 C 569.6865 270.48075 570.1865 270.98075 570.1865 271.98075 L 570.1865 281.65263 C 570.1865 282.65263 569.6865 283.15263 568.6865 283.15263 L 549.6084 283.15263 C 548.6084 283.15263 548.1084 282.65263 548.1084 281.65263 L 548.1084 271.98075 C 548.1084 270.98075 548.6084 270.48075 549.6084 270.48075 Z " fill="#ffffff"/>
<path transform="matrix(1,0,0,-1,0,379.10688)" stroke-width="1" stroke-linecap="butt" stroke-miterlimit="10" stroke-linejoin="miter" fill="none" stroke="#000000" d="M 549.6084 270.48075 L 568.6865 270.48075 C 569.6865 270.48075 570.1865 270.98075 570.1865 271.98075 L 570.1865 281.65263 C 570.1865 282.65263 569.6865 283.15263 568.6865 283.15263 L 549.6084 283.15263 C 548.6084 283.15263 548.1084 282.65263 548.1084 281.65263 L 548.1084 271.98075 C 548.1084 270.98075 548.6084 270.48075 549.6084 270.48075 Z "/>
<use xlink:href="#font_10_32" transform="matrix(10,0,0,-10,550.3384,105.048007)"/>
<use xlink:href="#font_10_30" transform="matrix(10,0,0,-10,556.62838,105.178)"/>
<use xlink:href="#font_10_30" transform="matrix(10,0,0,-10,562.98837,105.178)"/>
<path transform="matrix(1,0,0,-1,0,379.10688)" d="M 567.8364 229.71076 L 574.1958 229.71076 C 575.1958 229.71076 575.6958 230.21076 575.6958 231.21076 L 575.6958 240.88263 C 575.6958 241.88263 575.1958 242.38263 574.1958 242.38263 L 567.8364 242.38263 C 566.8364 242.38263 566.3364 241.88263 566.3364 240.88263 L 566.3364 231.21076 C 566.3364 230.21076 566.8364 229.71076 567.8364 229.71076 Z " fill="#ffffff"/>
<path transform="matrix(1,0,0,-1,0,379.10688)" stroke-width="1" stroke-linecap="butt" stroke-miterlimit="10" stroke-linejoin="miter" fill="none" stroke="#000000" d="M 567.8364 229.71076 L 574.1958 229.71076 C 575.1958 229.71076 575.6958 230.21076 575.6958 231.21076 L 575.6958 240.88263 C 575.6958 241.88263 575.1958 242.38263 574.1958 242.38263 L 567.8364 242.38263 C 566.8364 242.38263 566.3364 241.88263 566.3364 240.88263 L 566.3364 231.21076 C 566.3364 230.21076 566.8364 229.71076 567.8364 229.71076 Z "/>
<use xlink:href="#font_10_31" transform="matrix(10,0,0,-10,568.9364,145.818)"/>
<path transform="matrix(1,0,0,-1,0,379.10688)" d="M 546.8674 229.71076 L 562.7736 229.71076 C 563.7736 229.71076 564.2736 230.21076 564.2736 231.21076 L 564.2736 240.88263 C 564.2736 241.88263 563.7736 242.38263 562.7736 242.38263 L 546.8674 242.38263 C 545.8674 242.38263 545.3674 241.88263 545.3674 240.88263 L 545.3674 231.21076 C 545.3674 230.21076 545.8674 229.71076 546.8674 229.71076 Z " fill="#ffffff"/>
<path transform="matrix(1,0,0,-1,0,379.10688)" stroke-width="1" stroke-linecap="butt" stroke-miterlimit="10" stroke-linejoin="miter" fill="none" stroke="#000000" d="M 546.8674 229.71076 L 562.7736 229.71076 C 563.7736 229.71076 564.2736 230.21076 564.2736 231.21076 L 564.2736 240.88263 C 564.2736 241.88263 563.7736 242.38263 562.7736 242.38263 L 546.8674 242.38263 C 545.8674 242.38263 545.3674 241.88263 545.3674 240.88263 L 545.3674 231.21076 C 545.3674 230.21076 545.8674 229.71076 546.8674 229.71076 Z "/>
<use xlink:href="#font_10_30" transform="matrix(10,0,0,-10,547.52737,145.948)"/>
<use xlink:href="#font_10_2e" transform="matrix(10,0,0,-10,554.29739,145.818)"/>
<use xlink:href="#font_10_34" transform="matrix(10,0,0,-10,556.89736,145.818)"/>
<path transform="matrix(1,0,0,-1,0,379.10688)" d="M 568.7958 188.94075 L 587.8739 188.94075 C 588.8739 188.94075 589.3739 189.44075 589.3739 190.44075 L 589.3739 200.11263 C 589.3739 201.11263 588.8739 201.61263 587.8739 201.61263 L 568.7958 201.61263 C 567.7958 201.61263 567.2958 201.11263 567.2958 200.11263 L 567.2958 190.44075 C 567.2958 189.44075 567.7958 188.94075 568.7958 188.94075 Z " fill="#ffffff"/>
<path transform="matrix(1,0,0,-1,0,379.10688)" stroke-width="1" stroke-linecap="butt" stroke-miterlimit="10" stroke-linejoin="miter" fill="none" stroke="#000000" d="M 568.7958 188.94075 L 587.8739 188.94075 C 588.8739 188.94075 589.3739 189.44075 589.3739 190.44075 L 589.3739 200.11263 C 589.3739 201.11263 588.8739 201.61263 587.8739 201.61263 L 568.7958 201.61263 C 567.7958 201.61263 567.2958 201.11263 567.2958 200.11263 L 567.2958 190.44075 C 567.2958 189.44075 567.7958 188.94075 568.7958 188.94075 Z "/>
<use xlink:href="#font_10_31" transform="matrix(10,0,0,-10,569.89578,186.588)"/>
<use xlink:href="#font_10_33" transform="matrix(10,0,0,-10,575.9158,186.718)"/>
<use xlink:href="#font_10_31" transform="matrix(10,0,0,-10,582.6157,186.588)"/>
<path transform="matrix(1,0,0,-1,0,379.10688)" d="M 551.6642 188.94075 L 564.38296 188.94075 C 565.38296 188.94075 565.88296 189.44075 565.88296 190.44075 L 565.88296 200.11263 C 565.88296 201.11263 565.38296 201.61263 564.38296 201.61263 L 551.6642 201.61263 C 550.6642 201.61263 550.1642 201.11263 550.1642 200.11263 L 550.1642 190.44075 C 550.1642 189.44075 550.6642 188.94075 551.6642 188.94075 Z " fill="#ffffff"/>
<path transform="matrix(1,0,0,-1,0,379.10688)" stroke-width="1" stroke-linecap="butt" stroke-miterlimit="10" stroke-linejoin="miter" fill="none" stroke="#000000" d="M 551.6642 188.94075 L 564.38296 188.94075 C 565.38296 188.94075 565.88296 189.44075 565.88296 190.44075 L 565.88296 200.11263 C 565.88296 201.11263 565.38296 201.61263 564.38296 201.61263 L 551.6642 201.61263 C 550.6642 201.61263 550.1642 201.11263 550.1642 200.11263 L 550.1642 190.44075 C 550.1642 189.44075 550.6642 188.94075 551.6642 188.94075 Z "/>
<use xlink:href="#font_10_38" transform="matrix(10,0,0,-10,552.3442,186.718)"/>
<use xlink:href="#font_10_38" transform="matrix(10,0,0,-10,558.70419,186.718)"/>
<path transform="matrix(1,0,0,-1,0,379.10688)" d="M 534.12149 188.94075 L 546.8402 188.94075 C 547.8402 188.94075 548.3402 189.44075 548.3402 190.44075 L 548.3402 200.11263 C 548.3402 201.11263 547.8402 201.61263 546.8402 201.61263 L 534.12149 201.61263 C 533.12149 201.61263 532.62149 201.11263 532.62149 200.11263 L 532.62149 190.44075 C 532.62149 189.44075 533.12149 188.94075 534.12149 188.94075 Z " fill="#ffffff"/>
<path transform="matrix(1,0,0,-1,0,379.10688)" stroke-width="1" stroke-linecap="butt" stroke-miterlimit="10" stroke-linejoin="miter" fill="none" stroke="#000000" d="M 534.12149 188.94075 L 546.8402 188.94075 C 547.8402 188.94075 548.3402 189.44075 548.3402 190.44075 L 548.3402 200.11263 C 548.3402 201.11263 547.8402 201.61263 546.8402 201.61263 L 534.12149 201.61263 C 533.12149 201.61263 532.62149 201.11263 532.62149 200.11263 L 532.62149 190.44075 C 532.62149 189.44075 533.12149 188.94075 534.12149 188.94075 Z "/>
<use xlink:href="#font_10_34" transform="matrix(10,0,0,-10,534.61148,186.588)"/>
<use xlink:href="#font_10_34" transform="matrix(10,0,0,-10,540.97146,186.588)"/>
<path transform="matrix(1,0,0,-1,0,379.10688)" d="M 963.6444 148.17075 L 979.55068 148.17075 C 980.55068 148.17075 981.05068 148.67075 981.05068 149.67075 L 981.05068 159.34262 C 981.05068 160.34262 980.55068 160.84262 979.55068 160.84262 L 963.6444 160.84262 C 962.6444 160.84262 962.1444 160.34262 962.1444 159.34262 L 962.1444 149.67075 C 962.1444 148.67075 962.6444 148.17075 963.6444 148.17075 Z " fill="#ffffff"/>
<path transform="matrix(1,0,0,-1,0,379.10688)" stroke-width="1" stroke-linecap="butt" stroke-miterlimit="10" stroke-linejoin="miter" fill="none" stroke="#000000" d="M 963.6444 148.17075 L 979.55068 148.17075 C 980.55068 148.17075 981.05068 148.67075 981.05068 149.67075 L 981.05068 159.34262 C 981.05068 160.34262 980.55068 160.84262 979.55068 160.84262 L 963.6444 160.84262 C 962.6444 160.84262 962.1444 160.34262 962.1444 159.34262 L 962.1444 149.67075 C 962.1444 148.67075 962.6444 148.17075 963.6444 148.17075 Z "/>
<symbol id="font_10_36">
<path transform="matrix(.001,0,0,.001,-.07,.013)" d="M 330 404 C 286 404 251 388 225 358 C 199 328 186 286 186 234 C 186 181 199 139 225 109 C 251 79 286 64 330 64 C 374 64 409 79 435 109 C 461 139 474 181 474 234 C 474 286 461 328 435 358 C 409 388 374 404 330 404 M 526 713 L 526 623 C 501 635 476 644 451 650 C 425 656 400 659 376 659 C 310 659 260 637 226 593 C 192 549 172 482 168 394 C 187 422 211 444 240 459 C 269 474 301 482 336 482 C 409 482 467 459 509 415 C 551 371 573 310 573 234 C 573 159 550 99 506 54 C 462 9 403 -13 330 -13 C 246 -13 181 19 137 83 C 92 147 70 241 70 364 C 70 479 97 571 152 639 C 206 707 280 742 372 742 C 396 742 421 739 447 735 C 472 730 498 723 526 713 "/>
</symbol>
<use xlink:href="#font_10_33" transform="matrix(10,0,0,-10,964.4044,227.488)"/>
<use xlink:href="#font_10_2e" transform="matrix(10,0,0,-10,971.0744,227.358)"/>
<use xlink:href="#font_10_36" transform="matrix(10,0,0,-10,973.8844,227.488)"/>
<path transform="matrix(1,0,0,-1,0,379.10688)" d="M 549.6084 148.17075 L 565.51467 148.17075 C 566.51467 148.17075 567.01467 148.67075 567.01467 149.67075 L 567.01467 159.34262 C 567.01467 160.34262 566.51467 160.84262 565.51467 160.84262 L 549.6084 160.84262 C 548.6084 160.84262 548.1084 160.34262 548.1084 159.34262 L 548.1084 149.67075 C 548.1084 148.67075 548.6084 148.17075 549.6084 148.17075 Z " fill="#ffffff"/>
<path transform="matrix(1,0,0,-1,0,379.10688)" stroke-width="1" stroke-linecap="butt" stroke-miterlimit="10" stroke-linejoin="miter" fill="none" stroke="#000000" d="M 549.6084 148.17075 L 565.51467 148.17075 C 566.51467 148.17075 567.01467 148.67075 567.01467 149.67075 L 567.01467 159.34262 C 567.01467 160.34262 566.51467 160.84262 565.51467 160.84262 L 549.6084 160.84262 C 548.6084 160.84262 548.1084 160.34262 548.1084 159.34262 L 548.1084 149.67075 C 548.1084 148.67075 548.6084 148.17075 549.6084 148.17075 Z "/>
<use xlink:href="#font_10_31" transform="matrix(10,0,0,-10,550.7084,227.358)"/>
<use xlink:href="#font_10_2e" transform="matrix(10,0,0,-10,557.0384,227.358)"/>
<use xlink:href="#font_10_38" transform="matrix(10,0,0,-10,559.82839,227.488)"/>
<path transform="matrix(1,0,0,-1,0,379.10688)" d="M 342.65895 148.17075 L 358.5652 148.17075 C 359.5652 148.17075 360.0652 148.67075 360.0652 149.67075 L 360.0652 159.34262 C 360.0652 160.34262 359.5652 160.84262 358.5652 160.84262 L 342.65895 160.84262 C 341.65895 160.84262 341.15895 160.34262 341.15895 159.34262 L 341.15895 149.67075 C 341.15895 148.67075 341.65895 148.17075 342.65895 148.17075 Z " fill="#ffffff"/>
<path transform="matrix(1,0,0,-1,0,379.10688)" stroke-width="1" stroke-linecap="butt" stroke-miterlimit="10" stroke-linejoin="miter" fill="none" stroke="#000000" d="M 342.65895 148.17075 L 358.5652 148.17075 C 359.5652 148.17075 360.0652 148.67075 360.0652 149.67075 L 360.0652 159.34262 C 360.0652 160.34262 359.5652 160.84262 358.5652 160.84262 L 342.65895 160.84262 C 341.65895 160.84262 341.15895 160.34262 341.15895 159.34262 L 341.15895 149.67075 C 341.15895 148.67075 341.65895 148.17075 342.65895 148.17075 Z "/>
<symbol id="font_10_39">
<path transform="matrix(.001,0,0,.001,-.063,.013)" d="M 110 15 L 110 105 C 134 93 159 84 185 78 C 210 72 235 69 260 69 C 324 69 374 90 408 134 C 442 178 462 244 468 334 C 448 306 424 284 396 269 C 367 254 335 247 300 247 C 226 247 168 269 126 313 C 84 357 63 417 63 494 C 63 568 85 628 129 674 C 173 719 232 742 306 742 C 390 742 455 709 499 645 C 543 580 566 486 566 364 C 566 248 538 157 484 89 C 429 21 356 -13 264 -13 C 239 -13 214 -10 189 -6 C 163 -2 137 5 110 15 M 306 324 C 350 324 385 339 411 369 C 437 399 450 441 450 494 C 450 546 437 588 411 618 C 385 648 350 664 306 664 C 262 664 227 648 201 618 C 175 588 162 546 162 494 C 162 441 175 399 201 369 C 227 339 262 324 306 324 "/>
</symbol>
<use xlink:href="#font_10_30" transform="matrix(10,0,0,-10,343.31895,227.488)"/>
<use xlink:href="#font_10_2e" transform="matrix(10,0,0,-10,350.08894,227.358)"/>
<use xlink:href="#font_10_39" transform="matrix(10,0,0,-10,352.82893,227.488)"/>
<path transform="matrix(1,0,0,-1,0,379.10688)" d="M 317.44126 107.40075 L 339.66 107.40075 C 340.66 107.40075 341.16 107.90075 341.16 108.90075 L 341.16 118.572628 C 341.16 119.572628 340.66 120.072628 339.66 120.072628 L 317.44126 120.072628 C 316.44126 120.072628 315.94126 119.572628 315.94126 118.572628 L 315.94126 108.90075 C 315.94126 107.90075 316.44126 107.40075 317.44126 107.40075 Z " fill="#ffffff"/>
<path transform="matrix(1,0,0,-1,0,379.10688)" stroke-width="1" stroke-linecap="butt" stroke-miterlimit="10" stroke-linejoin="miter" fill="none" stroke="#000000" d="M 317.44126 107.40075 L 339.66 107.40075 C 340.66 107.40075 341.16 107.90075 341.16 108.90075 L 341.16 118.572628 C 341.16 119.572628 340.66 120.072628 339.66 120.072628 L 317.44126 120.072628 C 316.44126 120.072628 315.94126 119.572628 315.94126 118.572628 L 315.94126 108.90075 C 315.94126 107.90075 316.44126 107.40075 317.44126 107.40075 Z "/>
<use xlink:href="#font_10_35" transform="matrix(10,0,0,-10,318.21125,268.258)"/>
<use xlink:href="#font_10_30" transform="matrix(10,0,0,-10,324.46128,268.258)"/>
<use xlink:href="#font_10_25" transform="matrix(10,0,0,-10,330.71125,268.258)"/>
<path transform="matrix(1,0,0,-1,0,379.10688)" d="M 444.9002 107.40075 L 467.11897 107.40075 C 468.11897 107.40075 468.61897 107.90075 468.61897 108.90075 L 468.61897 118.572628 C 468.61897 119.572628 468.11897 120.072628 467.11897 120.072628 L 444.9002 120.072628 C 443.9002 120.072628 443.4002 119.572628 443.4002 118.572628 L 443.4002 108.90075 C 443.4002 107.90075 443.9002 107.40075 444.9002 107.40075 Z " fill="#ffffff"/>
<path transform="matrix(1,0,0,-1,0,379.10688)" stroke-width="1" stroke-linecap="butt" stroke-miterlimit="10" stroke-linejoin="miter" fill="none" stroke="#000000" d="M 444.9002 107.40075 L 467.11897 107.40075 C 468.11897 107.40075 468.61897 107.90075 468.61897 108.90075 L 468.61897 118.572628 C 468.61897 119.572628 468.11897 120.072628 467.11897 120.072628 L 444.9002 120.072628 C 443.9002 120.072628 443.4002 119.572628 443.4002 118.572628 L 443.4002 108.90075 C 443.4002 107.90075 443.9002 107.40075 444.9002 107.40075 Z "/>
<use xlink:href="#font_10_34" transform="matrix(10,0,0,-10,445.3902,268.128)"/>
<use xlink:href="#font_10_35" transform="matrix(10,0,0,-10,452.03019,268.258)"/>
<use xlink:href="#font_10_25" transform="matrix(10,0,0,-10,458.17018,268.258)"/>
<path transform="matrix(1,0,0,-1,0,379.10688)" d="M 544.12637 107.40075 L 575.89199 107.40075 C 576.89199 107.40075 577.39199 107.90075 577.39199 108.90075 L 577.39199 118.572628 C 577.39199 119.572628 576.89199 120.072628 575.89199 120.072628 L 544.12637 120.072628 C 543.12637 120.072628 542.62637 119.572628 542.62637 118.572628 L 542.62637 108.90075 C 542.62637 107.90075 543.12637 107.40075 544.12637 107.40075 Z " fill="#ffffff"/>
<path transform="matrix(1,0,0,-1,0,379.10688)" stroke-width="1" stroke-linecap="butt" stroke-miterlimit="10" stroke-linejoin="miter" fill="none" stroke="#000000" d="M 544.12637 107.40075 L 575.89199 107.40075 C 576.89199 107.40075 577.39199 107.90075 577.39199 108.90075 L 577.39199 118.572628 C 577.39199 119.572628 576.89199 120.072628 575.89199 120.072628 L 544.12637 120.072628 C 543.12637 120.072628 542.62637 119.572628 542.62637 118.572628 L 542.62637 108.90075 C 542.62637 107.90075 543.12637 107.40075 544.12637 107.40075 Z "/>
<use xlink:href="#font_10_34" transform="matrix(10,0,0,-10,544.61636,268.128)"/>
<use xlink:href="#font_10_31" transform="matrix(10,0,0,-10,551.5863,268.128)"/>
<use xlink:href="#font_10_2e" transform="matrix(10,0,0,-10,557.9163,268.128)"/>
<use xlink:href="#font_10_37" transform="matrix(10,0,0,-10,560.8463,268.128)"/>
<use xlink:href="#font_10_25" transform="matrix(10,0,0,-10,566.9363,268.258)"/>
<path transform="matrix(1,0,0,-1,0,379.10688)" d="M 507.1221 66.63075 L 519.8409 66.63075 C 520.8409 66.63075 521.3409 67.13075 521.3409 68.13075 L 521.3409 77.80263 C 521.3409 78.80263 520.8409 79.30263 519.8409 79.30263 L 507.1221 79.30263 C 506.1221 79.30263 505.6221 78.80263 505.6221 77.80263 L 505.6221 68.13075 C 505.6221 67.13075 506.1221 66.63075 507.1221 66.63075 Z " fill="#ffffff"/>
<path transform="matrix(1,0,0,-1,0,379.10688)" stroke-width="1" stroke-linecap="butt" stroke-miterlimit="10" stroke-linejoin="miter" fill="none" stroke="#000000" d="M 507.1221 66.63075 L 519.8409 66.63075 C 520.8409 66.63075 521.3409 67.13075 521.3409 68.13075 L 521.3409 77.80263 C 521.3409 78.80263 520.8409 79.30263 519.8409 79.30263 L 507.1221 79.30263 C 506.1221 79.30263 505.6221 78.80263 505.6221 77.80263 L 505.6221 68.13075 C 505.6221 67.13075 506.1221 66.63075 507.1221 66.63075 Z "/>
<use xlink:href="#font_10_31" transform="matrix(10,0,0,-10,508.2221,308.898)"/>
<use xlink:href="#font_10_30" transform="matrix(10,0,0,-10,514.1421,309.028)"/>
<path transform="matrix(1,0,0,-1,0,379.10688)" d="M 524.5278 66.63075 L 540.434 66.63075 C 541.434 66.63075 541.934 67.13075 541.934 68.13075 L 541.934 77.80263 C 541.934 78.80263 541.434 79.30263 540.434 79.30263 L 524.5278 79.30263 C 523.5278 79.30263 523.0278 78.80263 523.0278 77.80263 L 523.0278 68.13075 C 523.0278 67.13075 523.5278 66.63075 524.5278 66.63075 Z " fill="#ffffff"/>
<path transform="matrix(1,0,0,-1,0,379.10688)" stroke-width="1" stroke-linecap="butt" stroke-miterlimit="10" stroke-linejoin="miter" fill="none" stroke="#000000" d="M 524.5278 66.63075 L 540.434 66.63075 C 541.434 66.63075 541.934 67.13075 541.934 68.13075 L 541.934 77.80263 C 541.934 78.80263 541.434 79.30263 540.434 79.30263 L 524.5278 79.30263 C 523.5278 79.30263 523.0278 78.80263 523.0278 77.80263 L 523.0278 68.13075 C 523.0278 67.13075 523.5278 66.63075 524.5278 66.63075 Z "/>
<use xlink:href="#font_10_37" transform="matrix(10,0,0,-10,525.3478,308.898)"/>
<use xlink:href="#font_10_2e" transform="matrix(10,0,0,-10,531.95779,308.898)"/>
<use xlink:href="#font_10_35" transform="matrix(10,0,0,-10,534.83779,309.028)"/>
<path transform="matrix(1,0,0,-1,0,379.10688)" d="M 549.6084 66.63075 L 565.51467 66.63075 C 566.51467 66.63075 567.01467 67.13075 567.01467 68.13075 L 567.01467 77.80263 C 567.01467 78.80263 566.51467 79.30263 565.51467 79.30263 L 549.6084 79.30263 C 548.6084 79.30263 548.1084 78.80263 548.1084 77.80263 L 548.1084 68.13075 C 548.1084 67.13075 548.6084 66.63075 549.6084 66.63075 Z " fill="#ffffff"/>
<path transform="matrix(1,0,0,-1,0,379.10688)" stroke-width="1" stroke-linecap="butt" stroke-miterlimit="10" stroke-linejoin="miter" fill="none" stroke="#000000" d="M 549.6084 66.63075 L 565.51467 66.63075 C 566.51467 66.63075 567.01467 67.13075 567.01467 68.13075 L 567.01467 77.80263 C 567.01467 78.80263 566.51467 79.30263 565.51467 79.30263 L 549.6084 79.30263 C 548.6084 79.30263 548.1084 78.80263 548.1084 77.80263 L 548.1084 68.13075 C 548.1084 67.13075 548.6084 66.63075 549.6084 66.63075 Z "/>
<use xlink:href="#font_10_35" transform="matrix(10,0,0,-10,550.3784,309.028)"/>
<use xlink:href="#font_10_2e" transform="matrix(10,0,0,-10,557.0384,308.898)"/>
<use xlink:href="#font_10_30" transform="matrix(10,0,0,-10,559.80838,309.028)"/>
<path transform="matrix(1,0,0,-1,0,379.10688)" d="M 634.9922 66.63075 L 650.89846 66.63075 C 651.89846 66.63075 652.39846 67.13075 652.39846 68.13075 L 652.39846 77.80263 C 652.39846 78.80263 651.89846 79.30263 650.89846 79.30263 L 634.9922 79.30263 C 633.9922 79.30263 633.4922 78.80263 633.4922 77.80263 L 633.4922 68.13075 C 633.4922 67.13075 633.9922 66.63075 634.9922 66.63075 Z " fill="#ffffff"/>
<path transform="matrix(1,0,0,-1,0,379.10688)" stroke-width="1" stroke-linecap="butt" stroke-miterlimit="10" stroke-linejoin="miter" fill="none" stroke="#000000" d="M 634.9922 66.63075 L 650.89846 66.63075 C 651.89846 66.63075 652.39846 67.13075 652.39846 68.13075 L 652.39846 77.80263 C 652.39846 78.80263 651.89846 79.30263 650.89846 79.30263 L 634.9922 79.30263 C 633.9922 79.30263 633.4922 78.80263 633.4922 77.80263 L 633.4922 68.13075 C 633.4922 67.13075 633.9922 66.63075 634.9922 66.63075 Z "/>
<use xlink:href="#font_10_32" transform="matrix(10,0,0,-10,635.72219,308.898)"/>
<use xlink:href="#font_10_2e" transform="matrix(10,0,0,-10,642.4222,308.898)"/>
<use xlink:href="#font_10_35" transform="matrix(10,0,0,-10,645.3022,309.028)"/>
</g>
</g>
</svg>
