<?xml version="1.0" encoding="UTF-8" standalone="no"?>
<!DOCTYPE svg PUBLIC "-//W3C//DTD SVG 1.1//EN" "http://www.w3.org/Graphics/SVG/1.1/DTD/svg11.dtd">
<svg xmlns="http://www.w3.org/2000/svg" xmlns:xlink="http://www.w3.org/1999/xlink" version="1.1" width="462.57814pt" height="375.23188pt" viewBox="0 0 462.57814 375.23188">
<g enable-background="new">
<g>
<path transform="matrix(1,0,0,-1,0,375.23188)" d="M 0 0 L 462.57814 0 L 462.57814 375.23188 L 0 375.23188 Z " fill="#ffffff"/>
<path transform="matrix(1,0,0,-1,0,375.23188)" d="M 56.825 41.871877 L 447.425 41.871877 L 447.425 368.03187 L 56.825 368.03187 Z " fill="#ffffff"/>
<path transform="matrix(1,0,0,-1,0,375.23188)" d="M 56.825 41.871877 L 56.825 38.371877 "/>
<path transform="matrix(1,0,0,-1,0,375.23188)" stroke-width=".8" stroke-linecap="butt" stroke-linejoin="round" fill="none" stroke="#000000" d="M 56.825 41.871877 L 56.825 38.371877 "/>
<symbol id="font_0_33">
<path transform="matrix(.001,0,0,.001,-.076000008,.013)" d="M 406 393 C 453 383 490 362 516 330 C 542 298 556 258 556 212 C 556 140 531 84 482 45 C 432 6 362 -13 271 -13 C 240 -13 208 -10 176 -4 C 144 1 110 10 76 22 L 76 117 C 103 101 133 89 166 81 C 198 73 232 69 268 69 C 330 69 377 81 409 105 C 441 129 458 165 458 212 C 458 254 443 288 413 312 C 383 336 341 349 287 349 L 202 349 L 202 430 L 291 430 C 339 430 376 439 402 459 C 428 478 441 506 441 543 C 441 580 427 609 401 629 C 374 649 336 659 287 659 C 260 659 231 656 200 650 C 169 644 135 635 98 623 L 98 711 C 135 721 170 729 203 734 C 235 739 266 742 296 742 C 370 742 429 725 473 691 C 517 657 539 611 539 553 C 539 513 527 479 504 451 C 481 423 448 403 406 393 "/>
</symbol>
<symbol id="font_0_2e">
<path transform="matrix(.001,0,0,.001,-.10700001,0)" d="M 107 124 L 210 124 L 210 0 L 107 0 L 107 124 "/>
</symbol>
<symbol id="font_0_35">
<path transform="matrix(.001,0,0,.001,-.07700001,.013)" d="M 108 729 L 495 729 L 495 646 L 198 646 L 198 467 C 212 472 227 476 241 478 C 255 480 270 482 284 482 C 365 482 429 459 477 415 C 525 370 549 310 549 234 C 549 155 524 94 475 51 C 426 8 357 -13 269 -13 C 238 -13 207 -10 175 -6 C 143 -1 111 6 77 17 L 77 116 C 106 100 136 88 168 80 C 199 72 232 69 267 69 C 323 69 368 83 401 113 C 433 143 450 183 450 234 C 450 284 433 324 401 354 C 368 384 323 399 267 399 C 241 399 214 396 188 390 C 162 384 135 375 108 363 L 108 729 "/>
</symbol>
<use xlink:href="#font_0_33" transform="matrix(10,0,0,-10,49.631875,348.08375)"/>
<use xlink:href="#font_0_2e" transform="matrix(10,0,0,-10,56.301877,347.95375)"/>
<use xlink:href="#font_0_35" transform="matrix(10,0,0,-10,59.181879,348.08375)"/>
<path transform="matrix(1,0,0,-1,0,375.23188)" d="M 134.945 41.871877 L 134.945 38.371877 "/>
<path transform="matrix(1,0,0,-1,0,375.23188)" stroke-width=".8" stroke-linecap="butt" stroke-linejoin="round" fill="none" stroke="#000000" d="M 134.945 41.871877 L 134.945 38.371877 "/>
<symbol id="font_0_34">
<path transform="matrix(.001,0,0,.001,-.049000004,0)" d="M 378 643 L 129 254 L 378 254 L 378 643 M 352 729 L 476 729 L 476 254 L 580 254 L 580 172 L 476 172 L 476 0 L 378 0 L 378 172 L 49 172 L 49 267 L 352 729 "/>
</symbol>
<symbol id="font_0_30">
<path transform="matrix(.001,0,0,.001,-.066,.013)" d="M 318 664 C 267 664 229 639 203 589 C 177 539 165 464 165 364 C 165 264 177 189 203 139 C 229 89 267 64 318 64 C 369 64 407 89 433 139 C 458 189 471 264 471 364 C 471 464 458 539 433 589 C 407 639 369 664 318 664 M 318 742 C 399 742 461 709 505 645 C 548 580 570 486 570 364 C 570 241 548 147 505 83 C 461 19 399 -13 318 -13 C 236 -13 173 19 130 83 C 87 147 66 241 66 364 C 66 486 87 580 130 645 C 173 709 236 742 318 742 "/>
</symbol>
<use xlink:href="#font_0_34" transform="matrix(10,0,0,-10,127.48187,347.95375)"/>
<use xlink:href="#font_0_2e" transform="matrix(10,0,0,-10,134.42188,347.95375)"/>
<use xlink:href="#font_0_30" transform="matrix(10,0,0,-10,137.19187,348.08375)"/>
<path transform="matrix(1,0,0,-1,0,375.23188)" d="M 213.065 41.871877 L 213.065 38.371877 "/>
<path transform="matrix(1,0,0,-1,0,375.23188)" stroke-width=".8" stroke-linecap="butt" stroke-linejoin="round" fill="none" stroke="#000000" d="M 213.065 41.871877 L 213.065 38.371877 "/>
<use xlink:href="#font_0_34" transform="matrix(10,0,0,-10,205.60189,347.95375)"/>
<use xlink:href="#font_0_2e" transform="matrix(10,0,0,-10,212.54189,347.95375)"/>
<use xlink:href="#font_0_35" transform="matrix(10,0,0,-10,215.42189,348.08375)"/>
<path transform="matrix(1,0,0,-1,0,375.23188)" d="M 291.185 41.871877 L 291.185 38.371877 "/>
<path transform="matrix(1,0,0,-1,0,375.23188)" stroke-width=".8" stroke-linecap="butt" stroke-linejoin="round" fill="none" stroke="#000000" d="M 291.185 41.871877 L 291.185 38.371877 "/>
<use xlink:href="#font_0_35" transform="matrix(10,0,0,-10,284.00187,348.08375)"/>
<use xlink:href="#font_0_2e" transform="matrix(10,0,0,-10,290.66188,347.95375)"/>
<use xlink:href="#font_0_30" transform="matrix(10,0,0,-10,293.43186,348.08375)"/>
<path transform="matrix(1,0,0,-1,0,375.23188)" d="M 369.305 41.871877 L 369.305 38.371877 "/>
<path transform="matrix(1,0,0,-1,0,375.23188)" stroke-width=".8" stroke-linecap="butt" stroke-linejoin="round" fill="none" stroke="#000000" d="M 369.305 41.871877 L 369.305 38.371877 "/>
<use xlink:href="#font_0_35" transform="matrix(10,0,0,-10,362.12187,348.08375)"/>
<use xlink:href="#font_0_2e" transform="matrix(10,0,0,-10,368.78187,347.95375)"/>
<use xlink:href="#font_0_35" transform="matrix(10,0,0,-10,371.66184,348.08375)"/>
<path transform="matrix(1,0,0,-1,0,375.23188)" d="M 447.425 41.871877 L 447.425 38.371877 "/>
<path transform="matrix(1,0,0,-1,0,375.23188)" stroke-width=".8" stroke-linecap="butt" stroke-linejoin="round" fill="none" stroke="#000000" d="M 447.425 41.871877 L 447.425 38.371877 "/>
<symbol id="font_0_36">
<path transform="matrix(.001,0,0,.001,-.07,.013)" d="M 330 404 C 286 404 251 388 225 358 C 199 328 186 286 186 234 C 186 181 199 139 225 109 C 251 79 286 64 330 64 C 374 64 409 79 435 109 C 461 139 474 181 474 234 C 474 286 461 328 435 358 C 409 388 374 404 330 404 M 526 713 L 526 623 C 501 635 476 644 451 650 C 425 656 400 659 376 659 C 310 659 260 637 226 593 C 192 549 172 482 168 394 C 187 422 211 444 240 459 C 269 474 301 482 336 482 C 409 482 467 459 509 415 C 551 371 573 310 573 234 C 573 159 550 99 506 54 C 462 9 403 -13 330 -13 C 246 -13 181 19 137 83 C 92 147 70 241 70 364 C 70 479 97 571 152 639 C 206 707 280 742 372 742 C 396 742 421 739 447 735 C 472 730 498 723 526 713 "/>
</symbol>
<use xlink:href="#font_0_36" transform="matrix(10,0,0,-10,440.17189,348.08375)"/>
<use xlink:href="#font_0_2e" transform="matrix(10,0,0,-10,446.90187,347.95375)"/>
<use xlink:href="#font_0_30" transform="matrix(10,0,0,-10,449.67185,348.08375)"/>
<symbol id="font_0_20">
</symbol>
<symbol id="font_0_28">
<path transform="matrix(.001,0,0,.001,-.086,.13100001)" d="M 310 759 C 266 683 234 609 213 536 C 191 463 181 389 181 314 C 181 238 191 164 213 91 C 234 17 266 -56 310 -131 L 232 -131 C 183 -54 146 20 122 94 C 98 168 86 241 86 314 C 86 386 98 459 122 533 C 146 607 182 682 232 759 L 310 759 "/>
</symbol>
<symbol id="font_0_2f">
<path transform="matrix(.001,0,0,.001,0,.09200001)" d="M 254 729 L 337 729 L 83 -92 L 0 -92 L 254 729 "/>
</symbol>
<symbol id="font_0_6b">
<path transform="matrix(.001,0,0,.001,-.091000009,0)" d="M 91 760 L 181 760 L 181 311 L 449 547 L 564 547 L 274 291 L 576 0 L 459 0 L 181 267 L 181 0 L 91 0 L 91 760 "/>
</symbol>
<symbol id="font_0_67">
<path transform="matrix(.001,0,0,.001,-.055000005,.20700002)" d="M 454 280 C 454 344 440 395 414 431 C 387 467 349 485 301 485 C 253 485 215 467 188 431 C 161 395 148 344 148 280 C 148 215 161 165 188 129 C 215 93 253 75 301 75 C 349 75 387 93 414 129 C 440 165 454 215 454 280 M 544 68 C 544 -24 523 -93 482 -139 C 440 -184 377 -207 292 -207 C 260 -207 231 -204 203 -200 C 175 -195 147 -188 121 -178 L 121 -91 C 147 -105 173 -115 199 -122 C 225 -129 251 -133 278 -133 C 336 -133 380 -117 410 -87 C 439 -56 454 -10 454 52 L 454 96 C 435 64 411 40 382 24 C 353 8 319 0 279 0 C 211 0 157 25 116 76 C 75 127 55 195 55 280 C 55 364 75 432 116 483 C 157 534 211 560 279 560 C 319 560 353 552 382 536 C 411 520 435 496 454 464 L 454 547 L 544 547 L 544 68 "/>
</symbol>
<symbol id="font_0_29">
<path transform="matrix(.001,0,0,.001,-.080000009,.13100001)" d="M 80 759 L 158 759 C 206 682 243 607 267 533 C 291 459 304 386 304 314 C 304 241 291 168 267 94 C 243 20 206 -54 158 -131 L 80 -131 C 123 -56 155 17 177 91 C 198 164 209 238 209 314 C 209 389 198 463 177 536 C 155 609 123 683 80 759 "/>
</symbol>
<use xlink:href="#font_0_20" transform="matrix(14,0,0,-14,218.61615,371.15449)"/>
<use xlink:href="#font_0_28" transform="matrix(14,0,0,-14,238.56435,366.5065)"/>
<use xlink:href="#font_0_2f" transform="matrix(14,0,0,-14,251.72949,365.96049)"/>
<use xlink:href="#font_0_6b" transform="matrix(14,0,0,-14,257.72029,364.6725)"/>
<use xlink:href="#font_0_67" transform="matrix(14,0,0,-14,265.3237,367.5705)"/>
<use xlink:href="#font_0_29" transform="matrix(14,0,0,-14,274.56044,366.5065)"/>
<clipPath id="cp1">
<path transform="matrix(.014,0,0,-.014,224.625,364.6725)" d="M -1016 -351 L 1660 -351 L 1660 1068 L -1016 1068 Z "/>
</clipPath>
<g clip-path="url(#cp1)">
<path transform="matrix(.014,0,0,-.014,224.625,364.6725)" d="M 367 674 L 488 0 L 393 0 L 318 404 L 51 0 L -43 0 L 297 524 L 280 621 C 273 662 252 683 217 683 L 170 683 L 185 760 L 242 759 C 315 757 357 729 367 674 "/>
</g>
<clipPath id="cp2">
<path transform="matrix(.014,0,0,-.014,242.82227,364.6725)" d="M -1021 -463 L 1794 -463 L 1794 1233 L -1021 1233 Z "/>
</clipPath>
<g clip-path="url(#cp2)">
<path transform="matrix(.014,0,0,-.014,242.82227,364.6725)" d="M 570 673 L 570 569 C 540 603 511 627 484 642 C 456 656 426 664 393 664 C 341 664 299 647 267 615 C 234 582 212 535 202 475 L 484 475 L 457 415 L 194 415 C 193 407 193 399 193 392 C 193 384 193 375 193 364 C 193 353 193 344 193 337 C 193 329 193 322 194 314 L 412 314 L 385 254 L 202 254 C 212 193 234 146 267 113 C 299 80 341 64 393 64 C 426 64 456 71 484 86 C 511 100 540 125 570 159 L 570 56 C 540 32 511 15 481 4 C 451 -7 420 -13 389 -13 C 311 -13 248 10 198 57 C 148 103 116 169 103 254 L 0 254 L 27 314 L 95 314 C 95 321 94 328 94 336 C 94 344 94 353 94 364 C 94 375 94 384 94 392 C 94 400 95 407 95 415 L 0 415 L 27 475 L 103 475 C 116 559 148 624 198 671 C 248 718 312 742 389 742 C 421 742 452 736 482 725 C 512 713 541 696 570 673 "/>
</g>
<path transform="matrix(1,0,0,-1,0,375.23188)" d="M 56.825 41.871877 L 53.325 41.871877 "/>
<path transform="matrix(1,0,0,-1,0,375.23188)" stroke-width=".8" stroke-linecap="butt" stroke-linejoin="round" fill="none" stroke="#000000" d="M 56.825 41.871877 L 53.325 41.871877 "/>
<use xlink:href="#font_0_30" transform="matrix(10,0,0,-10,44.125627,337.28688)"/>
<path transform="matrix(1,0,0,-1,0,375.23188)" d="M 56.825 104.02668 L 53.325 104.02668 "/>
<path transform="matrix(1,0,0,-1,0,375.23188)" stroke-width=".8" stroke-linecap="butt" stroke-linejoin="round" fill="none" stroke="#000000" d="M 56.825 104.02668 L 53.325 104.02668 "/>
<symbol id="font_0_32">
<path transform="matrix(.001,0,0,.001,-.07300001,0)" d="M 192 83 L 536 83 L 536 0 L 73 0 L 73 83 C 110 121 161 173 226 239 C 290 304 331 346 348 365 C 380 400 402 430 414 455 C 426 479 433 504 433 528 C 433 566 419 598 392 622 C 365 646 330 659 286 659 C 255 659 222 653 188 643 C 154 632 117 616 78 594 L 78 694 C 118 710 155 722 189 730 C 223 738 255 742 284 742 C 359 742 419 723 464 685 C 509 647 532 597 532 534 C 532 504 526 475 515 449 C 504 422 484 390 454 354 C 446 344 420 317 376 272 C 332 227 271 164 192 83 "/>
</symbol>
<use xlink:href="#font_0_32" transform="matrix(10,0,0,-10,37.83625,275.00209)"/>
<use xlink:href="#font_0_30" transform="matrix(10,0,0,-10,44.12625,275.13209)"/>
<path transform="matrix(1,0,0,-1,0,375.23188)" d="M 56.825 166.18149 L 53.325 166.18149 "/>
<path transform="matrix(1,0,0,-1,0,375.23188)" stroke-width=".8" stroke-linecap="butt" stroke-linejoin="round" fill="none" stroke="#000000" d="M 56.825 166.18149 L 53.325 166.18149 "/>
<use xlink:href="#font_0_34" transform="matrix(10,0,0,-10,37.596254,212.84726)"/>
<use xlink:href="#font_0_30" transform="matrix(10,0,0,-10,44.12625,212.97727)"/>
<path transform="matrix(1,0,0,-1,0,375.23188)" d="M 56.825 228.33629 L 53.325 228.33629 "/>
<path transform="matrix(1,0,0,-1,0,375.23188)" stroke-width=".8" stroke-linecap="butt" stroke-linejoin="round" fill="none" stroke="#000000" d="M 56.825 228.33629 L 53.325 228.33629 "/>
<use xlink:href="#font_0_36" transform="matrix(10,0,0,-10,37.80625,150.82247)"/>
<use xlink:href="#font_0_30" transform="matrix(10,0,0,-10,44.12625,150.82247)"/>
<path transform="matrix(1,0,0,-1,0,375.23188)" d="M 56.825 290.4911 L 53.325 290.4911 "/>
<path transform="matrix(1,0,0,-1,0,375.23188)" stroke-width=".8" stroke-linecap="butt" stroke-linejoin="round" fill="none" stroke="#000000" d="M 56.825 290.4911 L 53.325 290.4911 "/>
<symbol id="font_0_38">
<path transform="matrix(.001,0,0,.001,-.068,.013)" d="M 318 346 C 271 346 234 333 207 308 C 180 283 167 249 167 205 C 167 161 180 126 207 101 C 234 76 271 64 318 64 C 364 64 401 76 428 102 C 455 127 469 161 469 205 C 469 249 455 283 429 308 C 402 333 365 346 318 346 M 219 388 C 177 398 144 418 120 447 C 96 476 85 511 85 553 C 85 611 105 657 147 691 C 188 725 245 742 318 742 C 390 742 447 725 489 691 C 530 657 551 611 551 553 C 551 511 539 476 515 447 C 491 418 459 398 417 388 C 464 377 501 355 528 323 C 554 291 568 251 568 205 C 568 134 546 80 503 43 C 459 5 398 -13 318 -13 C 237 -13 175 5 132 43 C 89 80 68 134 68 205 C 68 251 81 291 108 323 C 134 355 171 377 219 388 M 183 544 C 183 506 194 476 218 455 C 242 434 275 424 318 424 C 360 424 393 434 417 455 C 441 476 453 506 453 544 C 453 582 441 611 417 632 C 393 653 360 664 318 664 C 275 664 242 653 218 632 C 194 611 183 582 183 544 "/>
</symbol>
<use xlink:href="#font_0_38" transform="matrix(10,0,0,-10,37.78625,88.667659)"/>
<use xlink:href="#font_0_30" transform="matrix(10,0,0,-10,44.12625,88.667659)"/>
<path transform="matrix(1,0,0,-1,0,375.23188)" d="M 56.825 352.6459 L 53.325 352.6459 "/>
<path transform="matrix(1,0,0,-1,0,375.23188)" stroke-width=".8" stroke-linecap="butt" stroke-linejoin="round" fill="none" stroke="#000000" d="M 56.825 352.6459 L 53.325 352.6459 "/>
<symbol id="font_0_31">
<path transform="matrix(.001,0,0,.001,-.11000001,0)" d="M 124 83 L 285 83 L 285 639 L 110 604 L 110 694 L 284 729 L 383 729 L 383 83 L 544 83 L 544 0 L 124 0 L 124 83 "/>
</symbol>
<use xlink:href="#font_0_31" transform="matrix(10,0,0,-10,31.846877,26.382843)"/>
<use xlink:href="#font_0_30" transform="matrix(10,0,0,-10,37.766878,26.512843)"/>
<use xlink:href="#font_0_30" transform="matrix(10,0,0,-10,44.126878,26.512843)"/>
<symbol id="font_0_45">
<path transform="matrix(.001,0,0,.001,-.098000008,0)" d="M 98 729 L 559 729 L 559 646 L 197 646 L 197 430 L 544 430 L 544 347 L 197 347 L 197 83 L 568 83 L 568 0 L 98 0 L 98 729 "/>
</symbol>
<symbol id="font_0_78">
<path transform="matrix(.001,0,0,.001,-.029000001,0)" d="M 549 547 L 351 281 L 559 0 L 453 0 L 294 215 L 135 0 L 29 0 L 241 286 L 47 547 L 153 547 L 298 352 L 443 547 L 549 547 "/>
</symbol>
<symbol id="font_0_70">
<path transform="matrix(.001,0,0,.001,-.091000009,.20700002)" d="M 181 82 L 181 -207 L 91 -207 L 91 547 L 181 547 L 181 464 C 199 496 223 520 252 536 C 281 552 316 560 356 560 C 422 560 476 533 518 481 C 559 428 580 359 580 273 C 580 187 559 117 518 65 C 476 13 422 -13 356 -13 C 316 -13 281 -5 252 10 C 223 25 199 49 181 82 M 487 273 C 487 339 473 390 446 428 C 418 466 381 485 334 485 C 286 485 249 466 222 428 C 194 390 181 339 181 273 C 181 207 194 155 222 117 C 249 79 286 61 334 61 C 381 61 418 79 446 117 C 473 155 487 207 487 273 "/>
</symbol>
<symbol id="font_0_69">
<path transform="matrix(.001,0,0,.001,-.094000007,0)" d="M 94 547 L 184 547 L 184 0 L 94 0 L 94 547 M 94 760 L 184 760 L 184 646 L 94 646 L 94 760 "/>
</symbol>
<symbol id="font_0_6d">
<path transform="matrix(.001,0,0,.001,-.091000009,0)" d="M 520 442 C 542 482 569 511 600 531 C 631 550 668 560 711 560 C 767 560 811 540 842 500 C 873 460 889 403 889 330 L 889 0 L 799 0 L 799 327 C 799 379 789 418 771 444 C 752 469 724 482 686 482 C 639 482 602 466 575 435 C 548 404 535 362 535 309 L 535 0 L 445 0 L 445 327 C 445 379 435 418 417 444 C 398 469 369 482 331 482 C 285 482 248 466 221 435 C 194 404 181 362 181 309 L 181 0 L 91 0 L 91 547 L 181 547 L 181 462 C 201 495 226 520 255 536 C 283 552 317 560 357 560 C 397 560 430 550 458 530 C 486 510 506 480 520 442 "/>
</symbol>
<symbol id="font_0_6f">
<path transform="matrix(.001,0,0,.001,-.055000005,.013)" d="M 306 484 C 258 484 220 465 192 427 C 164 389 150 338 150 273 C 150 207 163 156 191 118 C 219 80 257 62 306 62 C 354 62 392 80 420 118 C 448 156 462 207 462 273 C 462 337 448 389 420 427 C 392 465 354 484 306 484 M 306 560 C 384 560 445 534 490 484 C 534 433 557 363 557 273 C 557 183 534 113 490 63 C 445 12 384 -13 306 -13 C 227 -13 165 12 121 63 C 77 113 55 183 55 273 C 55 363 77 433 121 484 C 165 534 227 560 306 560 "/>
</symbol>
<symbol id="font_0_72">
<path transform="matrix(.001,0,0,.001,-.091000009,0)" d="M 411 463 C 401 469 390 473 378 476 C 366 478 353 480 339 480 C 288 480 249 463 222 430 C 194 397 181 350 181 288 L 181 0 L 91 0 L 91 547 L 181 547 L 181 462 C 199 495 224 520 254 536 C 284 552 321 560 365 560 C 371 560 378 559 386 559 C 393 558 401 557 411 555 L 411 463 "/>
</symbol>
<symbol id="font_0_74">
<path transform="matrix(.001,0,0,.001,-.027,0)" d="M 183 702 L 183 547 L 368 547 L 368 477 L 183 477 L 183 180 C 183 135 189 106 201 94 C 213 81 238 75 276 75 L 368 75 L 368 0 L 276 0 C 206 0 158 13 132 39 C 106 65 93 112 93 180 L 93 477 L 27 477 L 27 547 L 93 547 L 93 702 L 183 702 "/>
</symbol>
<symbol id="font_0_73">
<path transform="matrix(.001,0,0,.001,-.054,.013)" d="M 443 531 L 443 446 C 417 458 391 468 364 475 C 336 481 308 485 279 485 C 234 485 200 478 178 464 C 156 450 145 430 145 403 C 145 382 153 366 169 354 C 185 342 217 330 265 320 L 296 313 C 360 299 405 279 432 255 C 458 230 472 195 472 151 C 472 100 452 60 412 31 C 372 1 316 -13 246 -13 C 216 -13 186 -10 154 -5 C 122 0 89 8 54 20 L 54 113 C 87 95 120 82 152 74 C 184 65 216 61 248 61 C 290 61 323 68 346 82 C 368 96 380 117 380 144 C 380 168 371 187 355 200 C 339 213 303 226 247 238 L 216 245 C 160 257 119 275 95 299 C 70 323 58 356 58 399 C 58 450 76 490 112 518 C 148 546 200 560 268 560 C 301 560 332 557 362 552 C 391 547 418 540 443 531 "/>
</symbol>
<symbol id="font_0_25">
<path transform="matrix(.001,0,0,.001,-.055000005,.013)" d="M 727 321 C 699 321 676 309 660 285 C 644 261 636 227 636 184 C 636 142 644 108 660 84 C 676 60 699 48 727 48 C 755 48 777 60 793 84 C 809 108 817 142 817 184 C 817 226 809 260 793 284 C 777 308 755 321 727 321 M 727 383 C 778 383 819 365 849 329 C 879 293 895 244 895 184 C 895 123 879 75 849 40 C 819 4 778 -13 727 -13 C 675 -13 633 4 603 40 C 573 75 558 123 558 184 C 558 245 573 293 603 329 C 633 365 675 383 727 383 M 223 680 C 195 680 173 667 157 643 C 141 619 133 586 133 544 C 133 500 141 467 157 443 C 173 419 195 407 223 407 C 251 407 274 419 290 443 C 306 467 314 500 314 544 C 314 586 305 619 289 643 C 273 667 251 680 223 680 M 664 742 L 742 742 L 286 -13 L 208 -13 L 664 742 M 223 742 C 274 742 315 724 346 688 C 376 652 392 604 392 544 C 392 482 376 434 346 398 C 316 362 275 345 223 345 C 171 345 130 362 100 398 C 70 434 55 482 55 544 C 55 604 70 652 100 688 C 130 724 171 742 223 742 "/>
</symbol>
<symbol id="font_0_66">
<path transform="matrix(.001,0,0,.001,-.023000002,0)" d="M 371 760 L 371 685 L 285 685 C 253 685 230 678 218 665 C 205 652 199 629 199 595 L 199 547 L 347 547 L 347 477 L 199 477 L 199 0 L 109 0 L 109 477 L 23 477 L 23 547 L 109 547 L 109 585 C 109 645 123 690 151 718 C 179 746 224 760 286 760 L 371 760 "/>
</symbol>
<symbol id="font_0_64">
<path transform="matrix(.001,0,0,.001,-.055000005,.013)" d="M 454 464 L 454 760 L 544 760 L 544 0 L 454 0 L 454 82 C 435 49 411 25 382 10 C 353 -5 319 -13 279 -13 C 213 -13 159 13 117 65 C 75 117 55 187 55 273 C 55 359 75 428 117 481 C 159 533 213 560 279 560 C 319 560 353 552 382 536 C 411 520 435 496 454 464 M 148 273 C 148 207 161 155 188 117 C 215 79 253 61 301 61 C 348 61 385 79 413 117 C 440 155 454 207 454 273 C 454 339 440 390 413 428 C 385 466 348 485 301 485 C 253 485 215 466 188 428 C 161 390 148 339 148 273 "/>
</symbol>
<symbol id="font_0_65">
<path transform="matrix(.001,0,0,.001,-.055000005,.013)" d="M 562 296 L 562 252 L 149 252 C 153 190 171 142 205 110 C 238 78 284 62 344 62 C 378 62 412 66 444 74 C 476 82 509 95 541 113 L 541 28 C 509 14 476 3 442 -3 C 408 -9 373 -13 339 -13 C 251 -13 182 12 131 62 C 80 112 55 181 55 268 C 55 357 79 428 127 481 C 175 533 241 560 323 560 C 397 560 455 536 498 489 C 540 441 562 377 562 296 M 472 322 C 471 371 457 410 431 440 C 404 469 368 484 324 484 C 274 484 234 469 204 441 C 174 413 156 373 152 322 L 472 322 "/>
</symbol>
<symbol id="font_0_61">
<path transform="matrix(.001,0,0,.001,-.060000004,.013)" d="M 343 275 C 270 275 220 266 192 250 C 164 233 150 205 150 165 C 150 133 160 107 181 89 C 202 70 231 61 267 61 C 317 61 357 78 387 114 C 417 149 432 196 432 255 L 432 275 L 343 275 M 522 312 L 522 0 L 432 0 L 432 83 C 411 49 385 25 355 10 C 325 -5 287 -13 243 -13 C 187 -13 142 2 109 33 C 76 64 60 106 60 159 C 60 220 80 266 122 298 C 163 329 224 345 306 345 L 432 345 L 432 354 C 432 395 418 427 391 450 C 364 472 326 484 277 484 C 245 484 215 480 185 472 C 155 464 127 453 100 439 L 100 522 C 132 534 164 544 195 550 C 226 556 256 560 286 560 C 365 560 424 539 463 498 C 502 457 522 395 522 312 "/>
</symbol>
<symbol id="font_0_6e">
<path transform="matrix(.001,0,0,.001,-.091000009,0)" d="M 549 330 L 549 0 L 459 0 L 459 327 C 459 379 448 417 428 443 C 408 469 378 482 338 482 C 289 482 251 466 223 435 C 195 404 181 362 181 309 L 181 0 L 91 0 L 91 547 L 181 547 L 181 462 C 202 494 227 519 257 535 C 286 551 320 560 358 560 C 420 560 468 540 500 501 C 532 462 549 405 549 330 "/>
</symbol>
<use xlink:href="#font_0_45" transform="matrix(0,-14,-14,-0,17.840626,267.4158)"/>
<use xlink:href="#font_0_78" transform="matrix(0,-14,-14,-0,17.840626,259.5338)"/>
<use xlink:href="#font_0_70" transform="matrix(0,-14,-14,-0,20.738627,250.3778)"/>
<use xlink:href="#font_0_2e" transform="matrix(0,-14,-14,-0,17.840626,241.26381)"/>
<use xlink:href="#font_0_20" transform="matrix(0,-14,-14,-0,24.322627,252.60382)"/>
<use xlink:href="#font_0_69" transform="matrix(0,-14,-14,-0,17.840626,232.54183)"/>
<use xlink:href="#font_0_6d" transform="matrix(0,-14,-14,-0,17.840626,228.69182)"/>
<use xlink:href="#font_0_70" transform="matrix(0,-14,-14,-0,20.738627,215.05582)"/>
<use xlink:href="#font_0_6f" transform="matrix(0,-14,-14,-0,18.022625,206.66982)"/>
<use xlink:href="#font_0_72" transform="matrix(0,-14,-14,-0,17.840626,197.59783)"/>
<use xlink:href="#font_0_74" transform="matrix(0,-14,-14,-0,17.840626,192.73983)"/>
<use xlink:href="#font_0_73" transform="matrix(0,-14,-14,-0,18.022625,186.87383)"/>
<use xlink:href="#font_0_20" transform="matrix(0,-14,-14,-0,24.322627,194.62982)"/>
<use xlink:href="#font_0_28" transform="matrix(0,-14,-14,-0,19.674626,174.67983)"/>
<use xlink:href="#font_0_25" transform="matrix(0,-14,-14,-0,18.022625,169.65381)"/>
<use xlink:href="#font_0_20" transform="matrix(0,-14,-14,-0,24.322627,171.41782)"/>
<use xlink:href="#font_0_6f" transform="matrix(0,-14,-14,-0,18.022625,151.90181)"/>
<use xlink:href="#font_0_66" transform="matrix(0,-14,-14,-0,17.840626,143.78182)"/>
<use xlink:href="#font_0_20" transform="matrix(0,-14,-14,-0,24.322627,153.46984)"/>
<use xlink:href="#font_0_64" transform="matrix(0,-14,-14,-0,18.022625,133.95383)"/>
<use xlink:href="#font_0_65" transform="matrix(0,-14,-14,-0,18.022625,125.063838)"/>
<use xlink:href="#font_0_6d" transform="matrix(0,-14,-14,-0,17.840626,115.949817)"/>
<use xlink:href="#font_0_61" transform="matrix(0,-14,-14,-0,18.022625,102.74783)"/>
<use xlink:href="#font_0_6e" transform="matrix(0,-14,-14,-0,17.840626,93.73183)"/>
<use xlink:href="#font_0_64" transform="matrix(0,-14,-14,-0,18.022625,85.359828)"/>
<use xlink:href="#font_0_29" transform="matrix(0,-14,-14,-0,19.674626,76.119808)"/>
<clipPath id="cp3">
<path transform="matrix(1,0,0,-1,0,375.23188)" d="M 56.825 41.871877 L 447.42503 41.871877 L 447.42503 368.0319 L 56.825 368.0319 Z "/>
</clipPath>
<g clip-path="url(#cp3)">
<path transform="matrix(1,0,0,-1,0,375.23188)" stroke-width="2" stroke-linecap="butt" stroke-linejoin="round" fill="none" stroke="#1f77b4" d="M 56.825 352.6459 L 56.825 352.6459 "/>
<path transform="matrix(1,0,0,-1,0,375.23188)" stroke-width="2" stroke-linecap="butt" stroke-linejoin="round" fill="none" stroke="#1f77b4" d="M 100.225 352.6459 L 100.225 352.6459 "/>
<path transform="matrix(1,0,0,-1,0,375.23188)" stroke-width="2" stroke-linecap="butt" stroke-linejoin="round" fill="none" stroke="#1f77b4" d="M 143.625 352.6459 L 143.625 352.6459 "/>
<path transform="matrix(1,0,0,-1,0,375.23188)" stroke-width="2" stroke-linecap="butt" stroke-linejoin="round" fill="none" stroke="#1f77b4" d="M 187.025 119.99128 L 187.025 138.52036 "/>
<path transform="matrix(1,0,0,-1,0,375.23188)" stroke-width="2" stroke-linecap="butt" stroke-linejoin="round" fill="none" stroke="#1f77b4" d="M 230.425 50.735303 L 230.425 58.65392 "/>
<path transform="matrix(1,0,0,-1,0,375.23188)" stroke-width="2" stroke-linecap="butt" stroke-linejoin="round" fill="none" stroke="#1f77b4" d="M 273.825 47.642477 L 273.825 55.257047 "/>
<path transform="matrix(1,0,0,-1,0,375.23188)" stroke-width="2" stroke-linecap="butt" stroke-linejoin="round" fill="none" stroke="#1f77b4" d="M 317.225 45.892255 L 317.225 52.303976 "/>
<path transform="matrix(1,0,0,-1,0,375.23188)" stroke-width="2" stroke-linecap="butt" stroke-linejoin="round" fill="none" stroke="#1f77b4" d="M 360.625 45.475145 L 360.625 51.376585 "/>
<path transform="matrix(1,0,0,-1,0,375.23188)" stroke-width="2" stroke-linecap="butt" stroke-linejoin="round" fill="none" stroke="#1f77b4" d="M 404.025 44.95109 L 404.025 49.095285 "/>
<path transform="matrix(1,0,0,-1,0,375.23188)" stroke-width="2" stroke-linecap="butt" stroke-linejoin="round" fill="none" stroke="#1f77b4" d="M 447.425 44.92661 L 447.425 47.977388 "/>
</g>
<clipPath id="cp4">
<path transform="matrix(1,0,0,-1,0,375.23188)" d="M 56.825 41.871877 L 447.42503 41.871877 L 447.42503 368.0319 L 56.825 368.0319 Z "/>
</clipPath>
<g clip-path="url(#cp4)">
<path transform="matrix(1,0,0,-1,0,375.23188)" stroke-width="2" stroke-linecap="square" stroke-linejoin="round" fill="none" stroke="#1f77b4" d="M 56.825 352.6459 L 100.225 352.6459 L 143.625 352.6459 L 187.025 130.9604 L 230.425 53.61058 L 273.825 51.23658 L 317.225 48.853647 L 360.625 48.18782 L 404.025 47.041154 L 447.425 46.636884 "/>
</g>
<path transform="matrix(1,0,0,-1,0,375.23188)" stroke-width=".8" stroke-linecap="square" stroke-miterlimit="10" stroke-linejoin="miter" fill="none" stroke="#000000" d="M 56.825 41.871877 L 56.825 368.03187 "/>
<path transform="matrix(1,0,0,-1,0,375.23188)" stroke-width=".8" stroke-linecap="square" stroke-miterlimit="10" stroke-linejoin="miter" fill="none" stroke="#000000" d="M 447.425 41.871877 L 447.425 368.03187 "/>
<path transform="matrix(1,0,0,-1,0,375.23188)" stroke-width=".8" stroke-linecap="square" stroke-miterlimit="10" stroke-linejoin="miter" fill="none" stroke="#000000" d="M 56.825 41.871877 L 447.425 41.871877 "/>
<path transform="matrix(1,0,0,-1,0,375.23188)" stroke-width=".8" stroke-linecap="square" stroke-miterlimit="10" stroke-linejoin="miter" fill="none" stroke="#000000" d="M 56.825 368.03187 L 447.425 368.03187 "/>
<g>
<path transform="matrix(1,0,0,-1,0,375.23188)" d="M 345.26564 340.8069 L 439.025 340.8069 C 440.625 340.8069 441.425 341.60688 441.425 343.20689 L 441.425 359.63188 C 441.425 361.23188 440.625 362.03187 439.025 362.03187 L 345.26564 362.03187 C 343.66563 362.03187 342.86564 361.23188 342.86564 359.63188 L 342.86564 343.20689 C 342.86564 341.60688 343.66563 340.8069 345.26564 340.8069 Z " fill="#ffffff" fill-opacity=".8"/>
<path transform="matrix(1,0,0,-1,0,375.23188)" stroke-width="1" stroke-linecap="butt" stroke-miterlimit="10" stroke-linejoin="miter" fill="none" stroke="#d5d6d5" stroke-opacity=".8" d="M 345.26564 340.8069 L 439.025 340.8069 C 440.625 340.8069 441.425 341.60688 441.425 343.20689 L 441.425 359.63188 C 441.425 361.23188 440.625 362.03187 439.025 362.03187 L 345.26564 362.03187 C 343.66563 362.03187 342.86564 361.23188 342.86564 359.63188 L 342.86564 343.20689 C 342.86564 341.60688 343.66563 340.8069 345.26564 340.8069 Z "/>
</g>
<path transform="matrix(1,0,0,-1,0,375.23188)" stroke-width="2" stroke-linecap="butt" stroke-linejoin="round" fill="none" stroke="#1f77b4" d="M 359.66563 346.3069 L 359.66563 358.3069 "/>
<path transform="matrix(1,0,0,-1,0,375.23188)" stroke-width="2" stroke-linecap="square" stroke-linejoin="round" fill="none" stroke="#1f77b4" d="M 347.66563 352.3069 L 371.66563 352.3069 "/>
<symbol id="font_0_52">
<path transform="matrix(.001,0,0,.001,-.098000008,0)" d="M 444 342 C 465 334 486 319 506 296 C 526 272 546 240 566 199 L 666 0 L 560 0 L 467 187 C 443 235 419 268 397 284 C 374 300 343 308 304 308 L 197 308 L 197 0 L 98 0 L 98 729 L 321 729 C 404 729 466 711 507 677 C 548 642 569 589 569 519 C 569 473 558 434 537 404 C 515 374 484 353 444 342 M 197 648 L 197 389 L 321 389 C 368 389 404 400 428 422 C 452 444 465 476 465 519 C 465 561 452 593 428 615 C 404 637 368 648 321 648 L 197 648 "/>
</symbol>
<symbol id="font_0_63">
<path transform="matrix(.001,0,0,.001,-.055000005,.013)" d="M 488 526 L 488 442 C 462 456 437 466 411 473 C 385 480 360 484 334 484 C 276 484 230 465 198 428 C 166 391 150 339 150 273 C 150 206 166 154 198 117 C 230 80 276 62 334 62 C 360 62 385 65 411 72 C 437 79 462 90 488 104 L 488 21 C 462 9 436 0 410 -5 C 383 -10 354 -13 324 -13 C 242 -13 176 12 128 64 C 79 115 55 185 55 273 C 55 362 79 432 128 483 C 177 534 244 560 330 560 C 358 560 385 557 411 551 C 437 545 463 537 488 526 "/>
</symbol>
<symbol id="font_0_75">
<path transform="matrix(.001,0,0,.001,-.085,.013)" d="M 85 216 L 85 547 L 175 547 L 175 219 C 175 167 185 129 205 103 C 225 77 255 64 296 64 C 344 64 383 79 411 110 C 439 141 453 183 453 237 L 453 547 L 543 547 L 543 0 L 453 0 L 453 84 C 431 50 405 26 377 10 C 348 -5 315 -13 277 -13 C 214 -13 166 6 134 45 C 101 83 85 140 85 216 M 311 560 L 311 560 "/>
</symbol>
<use xlink:href="#font_0_52" transform="matrix(12,0,0,-12,382.44163,27.125)"/>
<use xlink:href="#font_0_65" transform="matrix(12,0,0,-12,390.26564,27.281)"/>
<use xlink:href="#font_0_63" transform="matrix(12,0,0,-12,397.64564,27.281)"/>
<use xlink:href="#font_0_6f" transform="matrix(12,0,0,-12,404.24565,27.281)"/>
<use xlink:href="#font_0_75" transform="matrix(12,0,0,-12,411.94963,27.281)"/>
<use xlink:href="#font_0_72" transform="matrix(12,0,0,-12,419.62965,27.125)"/>
<use xlink:href="#font_0_73" transform="matrix(12,0,0,-12,424.11766,27.281)"/>
<use xlink:href="#font_0_65" transform="matrix(12,0,0,-12,430.38166,27.281)"/>
</g>
</g>
</svg>
