<?xml version="1.0" encoding="utf-8" standalone="no"?>
<!DOCTYPE svg PUBLIC "-//W3C//DTD SVG 1.1//EN"
  "http://www.w3.org/Graphics/SVG/1.1/DTD/svg11.dtd">
<svg height="360pt" version="1.1" viewBox="0 0 1152 360" width="1152pt" xmlns="http://www.w3.org/2000/svg" xmlns:xlink="http://www.w3.org/1999/xlink">
 <metadata>
  <rdf:RDF xmlns:cc="http://creativecommons.org/ns#" xmlns:dc="http://purl.org/dc/elements/1.1/" xmlns:rdf="http://www.w3.org/1999/02/22-rdf-syntax-ns#">
   <cc:Work>
    <dc:type rdf:resource="http://purl.org/dc/dcmitype/StillImage"/>
    <dc:date>2021-11-30T13:38:00.481699</dc:date>
    <dc:format>image/svg+xml</dc:format>
    <dc:creator>
     <cc:Agent>
      <dc:title>Matplotlib v3.4.3, https://matplotlib.org/</dc:title>
     </cc:Agent>
    </dc:creator>
   </cc:Work>
  </rdf:RDF>
 </metadata>
 <defs>
  <style type="text/css">*{stroke-linecap:butt;stroke-linejoin:round;}</style>
 </defs>
 <g id="figure_1">
  <g id="patch_1">
   <path d="M 0 360 
L 1152 360 
L 1152 0 
L 0 0 
z
" style="fill:none;"/>
  </g>
  <g id="axes_1">
   <g id="patch_2">
    <path d="M 69.05 329.2 
L 302.51875 329.2 
L 302.51875 31.8 
L 69.05 31.8 
z
" style="fill:none;"/>
   </g>
   <g id="PolyCollection_1">
    <defs>
     <path d="M 69.05 -30.8 
L 69.05 -306.200331 
L 92.396875 -287.531541 
L 115.74375 -288.641835 
L 139.090625 -281.829392 
L 162.4375 -269.473413 
L 185.784375 -274.231813 
L 209.13125 -278.546096 
L 232.478125 -279.862587 
L 255.825 -276.174827 
L 279.171875 -271.709861 
L 302.51875 -263.747472 
L 302.51875 -30.8 
L 302.51875 -30.8 
L 279.171875 -30.8 
L 255.825 -30.8 
L 232.478125 -30.8 
L 209.13125 -30.8 
L 185.784375 -30.8 
L 162.4375 -30.8 
L 139.090625 -30.8 
L 115.74375 -30.8 
L 92.396875 -30.8 
L 69.05 -30.8 
z
" id="m47320314b2"/>
    </defs>
    <g clip-path="url(#pb2f617b576)">
     <use style="fill:#bfbbd9;fill-opacity:0.25;" x="0" xlink:href="#m47320314b2" y="360"/>
    </g>
   </g>
   <g id="matplotlib.axis_1">
    <g id="xtick_1">
     <g id="line2d_1">
      <defs>
       <path d="M 0 0 
L 0 3.5 
" id="mf2041fe235" style="stroke:#ffffff;stroke-width:0.8;"/>
      </defs>
      <g>
       <use style="fill:#ffffff;stroke:#ffffff;stroke-width:0.8;" x="69.05" xlink:href="#mf2041fe235" y="329.2"/>
      </g>
     </g>
     <g id="text_1">
      <!-- 2010 -->
      <g style="fill:#ffffff;" transform="translate(53.78 345.318125)scale(0.12 -0.12)">
       <defs>
        <path d="M 819 3553 
L 469 3553 
L 469 4384 
Q 803 4563 1142 4656 
Q 1481 4750 1806 4750 
Q 2534 4750 2956 4397 
Q 3378 4044 3378 3438 
Q 3378 2753 2422 1800 
Q 2347 1728 2309 1691 
L 1131 513 
L 3078 513 
L 3078 1088 
L 3444 1088 
L 3444 0 
L 434 0 
L 434 341 
L 1850 1753 
Q 2319 2222 2519 2614 
Q 2719 3006 2719 3438 
Q 2719 3909 2473 4175 
Q 2228 4441 1797 4441 
Q 1350 4441 1106 4219 
Q 863 3997 819 3553 
z
" id="DejaVuSerif-32" transform="scale(0.015625)"/>
        <path d="M 2034 219 
Q 2513 219 2750 744 
Q 2988 1269 2988 2328 
Q 2988 3391 2750 3916 
Q 2513 4441 2034 4441 
Q 1556 4441 1318 3916 
Q 1081 3391 1081 2328 
Q 1081 1269 1318 744 
Q 1556 219 2034 219 
z
M 2034 -91 
Q 1275 -91 848 546 
Q 422 1184 422 2328 
Q 422 3475 848 4112 
Q 1275 4750 2034 4750 
Q 2797 4750 3222 4112 
Q 3647 3475 3647 2328 
Q 3647 1184 3222 546 
Q 2797 -91 2034 -91 
z
" id="DejaVuSerif-30" transform="scale(0.015625)"/>
        <path d="M 909 0 
L 909 331 
L 1722 331 
L 1722 4213 
L 781 3603 
L 781 4013 
L 1919 4750 
L 2350 4750 
L 2350 331 
L 3163 331 
L 3163 0 
L 909 0 
z
" id="DejaVuSerif-31" transform="scale(0.015625)"/>
       </defs>
       <use xlink:href="#DejaVuSerif-32"/>
       <use x="63.623047" xlink:href="#DejaVuSerif-30"/>
       <use x="127.246094" xlink:href="#DejaVuSerif-31"/>
       <use x="190.869141" xlink:href="#DejaVuSerif-30"/>
      </g>
     </g>
    </g>
    <g id="xtick_2">
     <g id="line2d_2">
      <g>
       <use style="fill:#ffffff;stroke:#ffffff;stroke-width:0.8;" x="115.74375" xlink:href="#mf2041fe235" y="329.2"/>
      </g>
     </g>
     <g id="text_2">
      <!-- 2012 -->
      <g style="fill:#ffffff;" transform="translate(100.47375 345.318125)scale(0.12 -0.12)">
       <use xlink:href="#DejaVuSerif-32"/>
       <use x="63.623047" xlink:href="#DejaVuSerif-30"/>
       <use x="127.246094" xlink:href="#DejaVuSerif-31"/>
       <use x="190.869141" xlink:href="#DejaVuSerif-32"/>
      </g>
     </g>
    </g>
    <g id="xtick_3">
     <g id="line2d_3">
      <g>
       <use style="fill:#ffffff;stroke:#ffffff;stroke-width:0.8;" x="162.4375" xlink:href="#mf2041fe235" y="329.2"/>
      </g>
     </g>
     <g id="text_3">
      <!-- 2014 -->
      <g style="fill:#ffffff;" transform="translate(147.1675 345.318125)scale(0.12 -0.12)">
       <defs>
        <path d="M 2234 1581 
L 2234 4063 
L 641 1581 
L 2234 1581 
z
M 3609 0 
L 1484 0 
L 1484 331 
L 2234 331 
L 2234 1247 
L 197 1247 
L 197 1588 
L 2241 4750 
L 2859 4750 
L 2859 1581 
L 3750 1581 
L 3750 1247 
L 2859 1247 
L 2859 331 
L 3609 331 
L 3609 0 
z
" id="DejaVuSerif-34" transform="scale(0.015625)"/>
       </defs>
       <use xlink:href="#DejaVuSerif-32"/>
       <use x="63.623047" xlink:href="#DejaVuSerif-30"/>
       <use x="127.246094" xlink:href="#DejaVuSerif-31"/>
       <use x="190.869141" xlink:href="#DejaVuSerif-34"/>
      </g>
     </g>
    </g>
    <g id="xtick_4">
     <g id="line2d_4">
      <g>
       <use style="fill:#ffffff;stroke:#ffffff;stroke-width:0.8;" x="209.13125" xlink:href="#mf2041fe235" y="329.2"/>
      </g>
     </g>
     <g id="text_4">
      <!-- 2016 -->
      <g style="fill:#ffffff;" transform="translate(193.86125 345.318125)scale(0.12 -0.12)">
       <defs>
        <path d="M 2094 219 
Q 2534 219 2771 542 
Q 3009 866 3009 1472 
Q 3009 2078 2771 2401 
Q 2534 2725 2094 2725 
Q 1647 2725 1412 2412 
Q 1178 2100 1178 1509 
Q 1178 888 1415 553 
Q 1653 219 2094 219 
z
M 1075 2569 
Q 1288 2803 1556 2918 
Q 1825 3034 2163 3034 
Q 2859 3034 3264 2615 
Q 3669 2197 3669 1472 
Q 3669 763 3233 336 
Q 2797 -91 2069 -91 
Q 1278 -91 853 498 
Q 428 1088 428 2181 
Q 428 3406 931 4078 
Q 1434 4750 2350 4750 
Q 2597 4750 2869 4703 
Q 3141 4656 3425 4563 
L 3425 3794 
L 3072 3794 
Q 3034 4109 2831 4275 
Q 2628 4441 2284 4441 
Q 1678 4441 1381 3981 
Q 1084 3522 1075 2569 
z
" id="DejaVuSerif-36" transform="scale(0.015625)"/>
       </defs>
       <use xlink:href="#DejaVuSerif-32"/>
       <use x="63.623047" xlink:href="#DejaVuSerif-30"/>
       <use x="127.246094" xlink:href="#DejaVuSerif-31"/>
       <use x="190.869141" xlink:href="#DejaVuSerif-36"/>
      </g>
     </g>
    </g>
    <g id="xtick_5">
     <g id="line2d_5">
      <g>
       <use style="fill:#ffffff;stroke:#ffffff;stroke-width:0.8;" x="255.825" xlink:href="#mf2041fe235" y="329.2"/>
      </g>
     </g>
     <g id="text_5">
      <!-- 2018 -->
      <g style="fill:#ffffff;" transform="translate(240.555 345.318125)scale(0.12 -0.12)">
       <defs>
        <path d="M 2981 1275 
Q 2981 1775 2732 2051 
Q 2484 2328 2034 2328 
Q 1584 2328 1336 2051 
Q 1088 1775 1088 1275 
Q 1088 772 1336 495 
Q 1584 219 2034 219 
Q 2484 219 2732 495 
Q 2981 772 2981 1275 
z
M 2853 3541 
Q 2853 3966 2637 4203 
Q 2422 4441 2034 4441 
Q 1650 4441 1433 4203 
Q 1216 3966 1216 3541 
Q 1216 3113 1433 2875 
Q 1650 2638 2034 2638 
Q 2422 2638 2637 2875 
Q 2853 3113 2853 3541 
z
M 2516 2484 
Q 3047 2413 3344 2092 
Q 3641 1772 3641 1275 
Q 3641 619 3225 264 
Q 2809 -91 2034 -91 
Q 1263 -91 845 264 
Q 428 619 428 1275 
Q 428 1772 725 2092 
Q 1022 2413 1556 2484 
Q 1084 2569 832 2842 
Q 581 3116 581 3541 
Q 581 4103 968 4426 
Q 1356 4750 2034 4750 
Q 2713 4750 3100 4426 
Q 3488 4103 3488 3541 
Q 3488 3116 3236 2842 
Q 2984 2569 2516 2484 
z
" id="DejaVuSerif-38" transform="scale(0.015625)"/>
       </defs>
       <use xlink:href="#DejaVuSerif-32"/>
       <use x="63.623047" xlink:href="#DejaVuSerif-30"/>
       <use x="127.246094" xlink:href="#DejaVuSerif-31"/>
       <use x="190.869141" xlink:href="#DejaVuSerif-38"/>
      </g>
     </g>
    </g>
    <g id="xtick_6">
     <g id="line2d_6">
      <g>
       <use style="fill:#ffffff;stroke:#ffffff;stroke-width:0.8;" x="302.51875" xlink:href="#mf2041fe235" y="329.2"/>
      </g>
     </g>
     <g id="text_6">
      <!-- 2020 -->
      <g style="fill:#ffffff;" transform="translate(287.24875 345.318125)scale(0.12 -0.12)">
       <use xlink:href="#DejaVuSerif-32"/>
       <use x="63.623047" xlink:href="#DejaVuSerif-30"/>
       <use x="127.246094" xlink:href="#DejaVuSerif-32"/>
       <use x="190.869141" xlink:href="#DejaVuSerif-30"/>
      </g>
     </g>
    </g>
   </g>
   <g id="matplotlib.axis_2">
    <g id="ytick_1">
     <g id="line2d_7">
      <defs>
       <path d="M 0 0 
L -3.5 0 
" id="m1082a30331" style="stroke:#ffffff;stroke-width:0.8;"/>
      </defs>
      <g>
       <use style="fill:#ffffff;stroke:#ffffff;stroke-width:0.8;" x="69.05" xlink:href="#m1082a30331" y="329.2"/>
      </g>
     </g>
     <g id="text_7">
      <!-- 0 -->
      <g style="fill:#ffffff;" transform="translate(54.415 333.759062)scale(0.12 -0.12)">
       <use xlink:href="#DejaVuSerif-30"/>
      </g>
     </g>
    </g>
    <g id="ytick_2">
     <g id="line2d_8">
      <g>
       <use style="fill:#ffffff;stroke:#ffffff;stroke-width:0.8;" x="69.05" xlink:href="#m1082a30331" y="289.546667"/>
      </g>
     </g>
     <g id="text_8">
      <!-- 500 -->
      <g style="fill:#ffffff;" transform="translate(39.145 294.105729)scale(0.12 -0.12)">
       <defs>
        <path d="M 3219 4666 
L 3219 4153 
L 1081 4153 
L 1081 2816 
Q 1244 2928 1461 2984 
Q 1678 3041 1947 3041 
Q 2703 3041 3140 2622 
Q 3578 2203 3578 1478 
Q 3578 738 3136 323 
Q 2694 -91 1894 -91 
Q 1572 -91 1234 -12 
Q 897 66 544 225 
L 544 1131 
L 897 1131 
Q 925 688 1179 453 
Q 1434 219 1894 219 
Q 2388 219 2653 544 
Q 2919 869 2919 1478 
Q 2919 2084 2655 2407 
Q 2391 2731 1894 2731 
Q 1613 2731 1398 2631 
Q 1184 2531 1019 2322 
L 750 2322 
L 750 4666 
L 3219 4666 
z
" id="DejaVuSerif-35" transform="scale(0.015625)"/>
       </defs>
       <use xlink:href="#DejaVuSerif-35"/>
       <use x="63.623047" xlink:href="#DejaVuSerif-30"/>
       <use x="127.246094" xlink:href="#DejaVuSerif-30"/>
      </g>
     </g>
    </g>
    <g id="ytick_3">
     <g id="line2d_9">
      <g>
       <use style="fill:#ffffff;stroke:#ffffff;stroke-width:0.8;" x="69.05" xlink:href="#m1082a30331" y="249.893333"/>
      </g>
     </g>
     <g id="text_9">
      <!-- 1000 -->
      <g style="fill:#ffffff;" transform="translate(31.51 254.452396)scale(0.12 -0.12)">
       <use xlink:href="#DejaVuSerif-31"/>
       <use x="63.623047" xlink:href="#DejaVuSerif-30"/>
       <use x="127.246094" xlink:href="#DejaVuSerif-30"/>
       <use x="190.869141" xlink:href="#DejaVuSerif-30"/>
      </g>
     </g>
    </g>
    <g id="ytick_4">
     <g id="line2d_10">
      <g>
       <use style="fill:#ffffff;stroke:#ffffff;stroke-width:0.8;" x="69.05" xlink:href="#m1082a30331" y="210.24"/>
      </g>
     </g>
     <g id="text_10">
      <!-- 1500 -->
      <g style="fill:#ffffff;" transform="translate(31.51 214.799062)scale(0.12 -0.12)">
       <use xlink:href="#DejaVuSerif-31"/>
       <use x="63.623047" xlink:href="#DejaVuSerif-35"/>
       <use x="127.246094" xlink:href="#DejaVuSerif-30"/>
       <use x="190.869141" xlink:href="#DejaVuSerif-30"/>
      </g>
     </g>
    </g>
    <g id="ytick_5">
     <g id="line2d_11">
      <g>
       <use style="fill:#ffffff;stroke:#ffffff;stroke-width:0.8;" x="69.05" xlink:href="#m1082a30331" y="170.586667"/>
      </g>
     </g>
     <g id="text_11">
      <!-- 2000 -->
      <g style="fill:#ffffff;" transform="translate(31.51 175.145729)scale(0.12 -0.12)">
       <use xlink:href="#DejaVuSerif-32"/>
       <use x="63.623047" xlink:href="#DejaVuSerif-30"/>
       <use x="127.246094" xlink:href="#DejaVuSerif-30"/>
       <use x="190.869141" xlink:href="#DejaVuSerif-30"/>
      </g>
     </g>
    </g>
    <g id="ytick_6">
     <g id="line2d_12">
      <g>
       <use style="fill:#ffffff;stroke:#ffffff;stroke-width:0.8;" x="69.05" xlink:href="#m1082a30331" y="130.933333"/>
      </g>
     </g>
     <g id="text_12">
      <!-- 2500 -->
      <g style="fill:#ffffff;" transform="translate(31.51 135.492396)scale(0.12 -0.12)">
       <use xlink:href="#DejaVuSerif-32"/>
       <use x="63.623047" xlink:href="#DejaVuSerif-35"/>
       <use x="127.246094" xlink:href="#DejaVuSerif-30"/>
       <use x="190.869141" xlink:href="#DejaVuSerif-30"/>
      </g>
     </g>
    </g>
    <g id="ytick_7">
     <g id="line2d_13">
      <g>
       <use style="fill:#ffffff;stroke:#ffffff;stroke-width:0.8;" x="69.05" xlink:href="#m1082a30331" y="91.28"/>
      </g>
     </g>
     <g id="text_13">
      <!-- 3000 -->
      <g style="fill:#ffffff;" transform="translate(31.51 95.839062)scale(0.12 -0.12)">
       <defs>
        <path d="M 622 4469 
Q 988 4606 1323 4678 
Q 1659 4750 1953 4750 
Q 2638 4750 3022 4454 
Q 3406 4159 3406 3634 
Q 3406 3213 3140 2930 
Q 2875 2647 2388 2547 
Q 2963 2466 3280 2130 
Q 3597 1794 3597 1259 
Q 3597 606 3158 257 
Q 2719 -91 1894 -91 
Q 1528 -91 1179 -12 
Q 831 66 488 225 
L 488 1131 
L 838 1131 
Q 869 681 1141 450 
Q 1413 219 1906 219 
Q 2384 219 2661 495 
Q 2938 772 2938 1253 
Q 2938 1803 2653 2086 
Q 2369 2369 1819 2369 
L 1522 2369 
L 1522 2688 
L 1678 2688 
Q 2225 2688 2498 2914 
Q 2772 3141 2772 3597 
Q 2772 4006 2547 4223 
Q 2322 4441 1900 4441 
Q 1478 4441 1245 4241 
Q 1013 4041 972 3647 
L 622 3647 
L 622 4469 
z
" id="DejaVuSerif-33" transform="scale(0.015625)"/>
       </defs>
       <use xlink:href="#DejaVuSerif-33"/>
       <use x="63.623047" xlink:href="#DejaVuSerif-30"/>
       <use x="127.246094" xlink:href="#DejaVuSerif-30"/>
       <use x="190.869141" xlink:href="#DejaVuSerif-30"/>
      </g>
     </g>
    </g>
    <g id="ytick_8">
     <g id="line2d_14">
      <g>
       <use style="fill:#ffffff;stroke:#ffffff;stroke-width:0.8;" x="69.05" xlink:href="#m1082a30331" y="51.626667"/>
      </g>
     </g>
     <g id="text_14">
      <!-- 3500 -->
      <g style="fill:#ffffff;" transform="translate(31.51 56.185729)scale(0.12 -0.12)">
       <use xlink:href="#DejaVuSerif-33"/>
       <use x="63.623047" xlink:href="#DejaVuSerif-35"/>
       <use x="127.246094" xlink:href="#DejaVuSerif-30"/>
       <use x="190.869141" xlink:href="#DejaVuSerif-30"/>
      </g>
     </g>
    </g>
    <g id="text_15">
     <!-- Annual energy production (PJ) -->
     <g style="fill:#ffffff;" transform="translate(23.955 303.86875)rotate(-90)scale(0.16 -0.16)">
      <defs>
       <path d="M 1281 1691 
L 2994 1691 
L 2138 3909 
L 1281 1691 
z
M -38 0 
L -38 331 
L 372 331 
L 2034 4666 
L 2559 4666 
L 4225 331 
L 4684 331 
L 4684 0 
L 2988 0 
L 2988 331 
L 3506 331 
L 3116 1356 
L 1153 1356 
L 763 331 
L 1275 331 
L 1275 0 
L -38 0 
z
" id="DejaVuSerif-41" transform="scale(0.015625)"/>
       <path d="M 263 0 
L 263 331 
L 781 331 
L 781 2988 
L 231 2988 
L 231 3322 
L 1356 3322 
L 1356 2731 
Q 1516 3069 1770 3241 
Q 2025 3413 2363 3413 
Q 2913 3413 3172 3097 
Q 3431 2781 3431 2113 
L 3431 331 
L 3944 331 
L 3944 0 
L 2356 0 
L 2356 331 
L 2853 331 
L 2853 1931 
Q 2853 2541 2703 2767 
Q 2553 2994 2175 2994 
Q 1775 2994 1565 2701 
Q 1356 2409 1356 1850 
L 1356 331 
L 1856 331 
L 1856 0 
L 263 0 
z
" id="DejaVuSerif-6e" transform="scale(0.015625)"/>
       <path d="M 2266 3322 
L 3341 3322 
L 3341 331 
L 3884 331 
L 3884 0 
L 2766 0 
L 2766 588 
Q 2606 256 2353 82 
Q 2100 -91 1766 -91 
Q 1213 -91 952 223 
Q 691 538 691 1209 
L 691 2988 
L 172 2988 
L 172 3322 
L 1269 3322 
L 1269 1388 
Q 1269 781 1417 556 
Q 1566 331 1947 331 
Q 2347 331 2556 625 
Q 2766 919 2766 1478 
L 2766 2988 
L 2266 2988 
L 2266 3322 
z
" id="DejaVuSerif-75" transform="scale(0.015625)"/>
       <path d="M 2547 1044 
L 2547 1747 
L 1806 1747 
Q 1378 1747 1168 1562 
Q 959 1378 959 997 
Q 959 650 1171 447 
Q 1384 244 1747 244 
Q 2106 244 2326 466 
Q 2547 688 2547 1044 
z
M 3122 2075 
L 3122 331 
L 3634 331 
L 3634 0 
L 2547 0 
L 2547 359 
Q 2356 128 2106 18 
Q 1856 -91 1522 -91 
Q 969 -91 644 203 
Q 319 497 319 997 
Q 319 1513 691 1797 
Q 1063 2081 1741 2081 
L 2547 2081 
L 2547 2309 
Q 2547 2688 2317 2895 
Q 2088 3103 1672 3103 
Q 1328 3103 1125 2947 
Q 922 2791 872 2484 
L 575 2484 
L 575 3156 
Q 875 3284 1158 3348 
Q 1441 3413 1709 3413 
Q 2400 3413 2761 3070 
Q 3122 2728 3122 2075 
z
" id="DejaVuSerif-61" transform="scale(0.015625)"/>
       <path d="M 1313 331 
L 1856 331 
L 1856 0 
L 184 0 
L 184 331 
L 738 331 
L 738 4531 
L 184 4531 
L 184 4863 
L 1313 4863 
L 1313 331 
z
" id="DejaVuSerif-6c" transform="scale(0.015625)"/>
       <path id="DejaVuSerif-20" transform="scale(0.015625)"/>
       <path d="M 3469 1600 
L 991 1600 
L 991 1575 
Q 991 903 1244 561 
Q 1497 219 1991 219 
Q 2369 219 2611 417 
Q 2853 616 2950 1006 
L 3413 1006 
Q 3275 459 2904 184 
Q 2534 -91 1931 -91 
Q 1203 -91 761 389 
Q 319 869 319 1663 
Q 319 2450 753 2931 
Q 1188 3413 1894 3413 
Q 2647 3413 3050 2948 
Q 3453 2484 3469 1600 
z
M 2791 1931 
Q 2772 2513 2545 2808 
Q 2319 3103 1894 3103 
Q 1497 3103 1269 2806 
Q 1041 2509 991 1931 
L 2791 1931 
z
" id="DejaVuSerif-65" transform="scale(0.015625)"/>
       <path d="M 3059 3328 
L 3059 2497 
L 2728 2497 
Q 2713 2744 2591 2866 
Q 2469 2988 2234 2988 
Q 1809 2988 1582 2694 
Q 1356 2400 1356 1850 
L 1356 331 
L 2022 331 
L 2022 0 
L 263 0 
L 263 331 
L 781 331 
L 781 2994 
L 231 2994 
L 231 3322 
L 1356 3322 
L 1356 2731 
Q 1525 3078 1790 3245 
Q 2056 3413 2438 3413 
Q 2578 3413 2733 3391 
Q 2888 3369 3059 3328 
z
" id="DejaVuSerif-72" transform="scale(0.015625)"/>
       <path d="M 3359 2988 
L 3359 72 
Q 3359 -644 2965 -1033 
Q 2572 -1422 1844 -1422 
Q 1516 -1422 1216 -1362 
Q 916 -1303 641 -1184 
L 641 -488 
L 941 -488 
Q 997 -813 1206 -963 
Q 1416 -1113 1806 -1113 
Q 2313 -1113 2548 -827 
Q 2784 -541 2784 72 
L 2784 519 
Q 2616 206 2355 57 
Q 2094 -91 1709 -91 
Q 1097 -91 708 395 
Q 319 881 319 1663 
Q 319 2444 706 2928 
Q 1094 3413 1709 3413 
Q 2094 3413 2355 3264 
Q 2616 3116 2784 2803 
L 2784 3322 
L 3909 3322 
L 3909 2988 
L 3359 2988 
z
M 2784 1825 
Q 2784 2422 2554 2737 
Q 2325 3053 1888 3053 
Q 1444 3053 1217 2703 
Q 991 2353 991 1663 
Q 991 975 1217 622 
Q 1444 269 1888 269 
Q 2325 269 2554 583 
Q 2784 897 2784 1497 
L 2784 1825 
z
" id="DejaVuSerif-67" transform="scale(0.015625)"/>
       <path d="M 1381 -609 
L 1600 -56 
L 359 2988 
L -19 2988 
L -19 3322 
L 1509 3322 
L 1509 2988 
L 978 2988 
L 1913 703 
L 2847 2988 
L 2350 2988 
L 2350 3322 
L 3597 3322 
L 3597 2988 
L 3225 2988 
L 1703 -750 
Q 1547 -1138 1356 -1280 
Q 1166 -1422 819 -1422 
Q 672 -1422 517 -1397 
Q 363 -1372 206 -1325 
L 206 -691 
L 500 -691 
Q 519 -903 608 -995 
Q 697 -1088 884 -1088 
Q 1056 -1088 1161 -992 
Q 1266 -897 1381 -609 
z
" id="DejaVuSerif-79" transform="scale(0.015625)"/>
       <path d="M 1313 1825 
L 1313 1497 
Q 1313 897 1542 583 
Q 1772 269 2209 269 
Q 2650 269 2876 622 
Q 3103 975 3103 1663 
Q 3103 2353 2876 2703 
Q 2650 3053 2209 3053 
Q 1772 3053 1542 2737 
Q 1313 2422 1313 1825 
z
M 738 2988 
L 184 2988 
L 184 3322 
L 1313 3322 
L 1313 2803 
Q 1481 3116 1742 3264 
Q 2003 3413 2388 3413 
Q 3000 3413 3387 2928 
Q 3775 2444 3775 1663 
Q 3775 881 3387 395 
Q 3000 -91 2388 -91 
Q 2003 -91 1742 57 
Q 1481 206 1313 519 
L 1313 -997 
L 1856 -997 
L 1856 -1331 
L 184 -1331 
L 184 -997 
L 738 -997 
L 738 2988 
z
" id="DejaVuSerif-70" transform="scale(0.015625)"/>
       <path d="M 1925 219 
Q 2388 219 2623 584 
Q 2859 950 2859 1663 
Q 2859 2375 2623 2739 
Q 2388 3103 1925 3103 
Q 1463 3103 1227 2739 
Q 991 2375 991 1663 
Q 991 950 1228 584 
Q 1466 219 1925 219 
z
M 1925 -91 
Q 1200 -91 759 389 
Q 319 869 319 1663 
Q 319 2456 758 2934 
Q 1197 3413 1925 3413 
Q 2653 3413 3092 2934 
Q 3531 2456 3531 1663 
Q 3531 869 3092 389 
Q 2653 -91 1925 -91 
z
" id="DejaVuSerif-6f" transform="scale(0.015625)"/>
       <path d="M 3359 331 
L 3909 331 
L 3909 0 
L 2784 0 
L 2784 519 
Q 2616 206 2355 57 
Q 2094 -91 1709 -91 
Q 1097 -91 708 395 
Q 319 881 319 1663 
Q 319 2444 706 2928 
Q 1094 3413 1709 3413 
Q 2094 3413 2355 3264 
Q 2616 3116 2784 2803 
L 2784 4531 
L 2241 4531 
L 2241 4863 
L 3359 4863 
L 3359 331 
z
M 2784 1497 
L 2784 1825 
Q 2784 2422 2554 2737 
Q 2325 3053 1888 3053 
Q 1444 3053 1217 2703 
Q 991 2353 991 1663 
Q 991 975 1217 622 
Q 1444 269 1888 269 
Q 2325 269 2554 583 
Q 2784 897 2784 1497 
z
" id="DejaVuSerif-64" transform="scale(0.015625)"/>
       <path d="M 3291 997 
Q 3169 466 2822 187 
Q 2475 -91 1925 -91 
Q 1200 -91 759 389 
Q 319 869 319 1663 
Q 319 2459 759 2936 
Q 1200 3413 1925 3413 
Q 2241 3413 2553 3339 
Q 2866 3266 3181 3116 
L 3181 2266 
L 2847 2266 
Q 2781 2703 2561 2903 
Q 2341 3103 1931 3103 
Q 1466 3103 1228 2742 
Q 991 2381 991 1663 
Q 991 944 1227 581 
Q 1463 219 1931 219 
Q 2303 219 2525 412 
Q 2747 606 2828 997 
L 3291 997 
z
" id="DejaVuSerif-63" transform="scale(0.015625)"/>
       <path d="M 691 2988 
L 184 2988 
L 184 3322 
L 691 3322 
L 691 4353 
L 1269 4353 
L 1269 3322 
L 2350 3322 
L 2350 2988 
L 1269 2988 
L 1269 878 
Q 1269 456 1350 337 
Q 1431 219 1650 219 
Q 1875 219 1978 351 
Q 2081 484 2088 781 
L 2522 781 
Q 2497 328 2275 118 
Q 2053 -91 1600 -91 
Q 1103 -91 897 129 
Q 691 350 691 878 
L 691 2988 
z
" id="DejaVuSerif-74" transform="scale(0.015625)"/>
       <path d="M 622 4353 
Q 622 4497 726 4603 
Q 831 4709 978 4709 
Q 1122 4709 1226 4603 
Q 1331 4497 1331 4353 
Q 1331 4206 1228 4103 
Q 1125 4000 978 4000 
Q 831 4000 726 4103 
Q 622 4206 622 4353 
z
M 1356 331 
L 1900 331 
L 1900 0 
L 231 0 
L 231 331 
L 781 331 
L 781 2988 
L 231 2988 
L 231 3322 
L 1356 3322 
L 1356 331 
z
" id="DejaVuSerif-69" transform="scale(0.015625)"/>
       <path d="M 2041 -997 
Q 1281 -656 893 83 
Q 506 822 506 1931 
Q 506 3044 893 3783 
Q 1281 4522 2041 4863 
L 2041 4556 
Q 1559 4225 1350 3623 
Q 1141 3022 1141 1931 
Q 1141 844 1350 242 
Q 1559 -359 2041 -691 
L 2041 -997 
z
" id="DejaVuSerif-28" transform="scale(0.015625)"/>
       <path d="M 1581 2375 
L 2406 2375 
Q 2872 2375 3115 2626 
Q 3359 2878 3359 3353 
Q 3359 3831 3115 4081 
Q 2872 4331 2406 4331 
L 1581 4331 
L 1581 2375 
z
M 353 0 
L 353 331 
L 947 331 
L 947 4331 
L 353 4331 
L 353 4666 
L 2559 4666 
Q 3259 4666 3668 4311 
Q 4078 3956 4078 3353 
Q 4078 2753 3668 2397 
Q 3259 2041 2559 2041 
L 1581 2041 
L 1581 331 
L 2303 331 
L 2303 0 
L 353 0 
z
" id="DejaVuSerif-50" transform="scale(0.015625)"/>
       <path d="M -538 -1119 
L -538 -384 
L -181 -384 
Q -172 -694 -34 -845 
Q 103 -997 378 -997 
Q 750 -997 897 -762 
Q 1044 -528 1044 153 
L 1044 4331 
L 319 4331 
L 319 4666 
L 2272 4666 
L 2272 4331 
L 1678 4331 
L 1678 128 
Q 1678 -644 1368 -987 
Q 1059 -1331 372 -1331 
Q 150 -1331 -79 -1278 
Q -309 -1225 -538 -1119 
z
" id="DejaVuSerif-4a" transform="scale(0.015625)"/>
       <path d="M 453 -997 
L 453 -691 
Q 934 -359 1145 242 
Q 1356 844 1356 1931 
Q 1356 3022 1145 3623 
Q 934 4225 453 4556 
L 453 4863 
Q 1216 4522 1603 3783 
Q 1991 3044 1991 1931 
Q 1991 822 1603 83 
Q 1216 -656 453 -997 
z
" id="DejaVuSerif-29" transform="scale(0.015625)"/>
      </defs>
      <use xlink:href="#DejaVuSerif-41"/>
      <use x="72.216797" xlink:href="#DejaVuSerif-6e"/>
      <use x="136.621094" xlink:href="#DejaVuSerif-6e"/>
      <use x="201.025391" xlink:href="#DejaVuSerif-75"/>
      <use x="265.429688" xlink:href="#DejaVuSerif-61"/>
      <use x="325.048828" xlink:href="#DejaVuSerif-6c"/>
      <use x="357.03125" xlink:href="#DejaVuSerif-20"/>
      <use x="388.818359" xlink:href="#DejaVuSerif-65"/>
      <use x="447.998047" xlink:href="#DejaVuSerif-6e"/>
      <use x="512.402344" xlink:href="#DejaVuSerif-65"/>
      <use x="571.582031" xlink:href="#DejaVuSerif-72"/>
      <use x="619.384766" xlink:href="#DejaVuSerif-67"/>
      <use x="683.398438" xlink:href="#DejaVuSerif-79"/>
      <use x="739.892578" xlink:href="#DejaVuSerif-20"/>
      <use x="771.679688" xlink:href="#DejaVuSerif-70"/>
      <use x="835.693359" xlink:href="#DejaVuSerif-72"/>
      <use x="883.496094" xlink:href="#DejaVuSerif-6f"/>
      <use x="943.701172" xlink:href="#DejaVuSerif-64"/>
      <use x="1007.714844" xlink:href="#DejaVuSerif-75"/>
      <use x="1072.119141" xlink:href="#DejaVuSerif-63"/>
      <use x="1128.125" xlink:href="#DejaVuSerif-74"/>
      <use x="1168.310547" xlink:href="#DejaVuSerif-69"/>
      <use x="1200.292969" xlink:href="#DejaVuSerif-6f"/>
      <use x="1260.498047" xlink:href="#DejaVuSerif-6e"/>
      <use x="1324.902344" xlink:href="#DejaVuSerif-20"/>
      <use x="1356.689453" xlink:href="#DejaVuSerif-28"/>
      <use x="1395.703125" xlink:href="#DejaVuSerif-50"/>
      <use x="1462.988281" xlink:href="#DejaVuSerif-4a"/>
      <use x="1503.076172" xlink:href="#DejaVuSerif-29"/>
     </g>
    </g>
   </g>
   <g id="line2d_15">
    <path clip-path="url(#pb2f617b576)" d="M 69.05 304.178747 
L 92.396875 304.503904 
L 115.74375 302.140565 
L 139.090625 302.013675 
L 162.4375 299.158635 
L 185.784375 292.465152 
L 209.13125 295.145717 
L 232.478125 298.659003 
L 255.825 301.759893 
L 279.171875 307.882368 
L 302.51875 315.464085 
" style="fill:none;stroke:#8dd3c7;stroke-linecap:square;stroke-width:3;"/>
   </g>
   <g id="patch_3">
    <path d="M 69.05 329.2 
L 69.05 31.8 
" style="fill:none;stroke:#ffffff;stroke-linecap:square;stroke-linejoin:miter;stroke-width:0.8;"/>
   </g>
   <g id="patch_4">
    <path d="M 302.51875 329.2 
L 302.51875 31.8 
" style="fill:none;stroke:#ffffff;stroke-linecap:square;stroke-linejoin:miter;stroke-width:0.8;"/>
   </g>
   <g id="patch_5">
    <path d="M 69.05 329.2 
L 302.51875 329.2 
" style="fill:none;stroke:#ffffff;stroke-linecap:square;stroke-linejoin:miter;stroke-width:0.8;"/>
   </g>
   <g id="patch_6">
    <path d="M 69.05 31.8 
L 302.51875 31.8 
" style="fill:none;stroke:#ffffff;stroke-linecap:square;stroke-linejoin:miter;stroke-width:0.8;"/>
   </g>
   <g id="text_16">
    <g id="patch_7">
     <path d="M 293.000313 324.87096 
L 312.037188 324.87096 
Q 315.637188 324.87096 315.637188 321.27096 
L 315.637188 309.65721 
Q 315.637188 306.05721 312.037188 306.05721 
L 293.000313 306.05721 
Q 289.400313 306.05721 289.400313 309.65721 
L 289.400313 321.27096 
Q 289.400313 324.87096 293.000313 324.87096 
z
" style="fill:#ffffff;stroke:#ffffff;stroke-linejoin:miter;"/>
    </g>
    <!-- 6% -->
    <g transform="translate(293.000313 318.775335)scale(0.12 -0.12)">
     <defs>
      <path d="M 1434 4459 
Q 1159 4459 1004 4200 
Q 850 3941 850 3475 
Q 850 3016 1008 2753 
Q 1166 2491 1434 2491 
Q 1700 2491 1854 2752 
Q 2009 3013 2009 3475 
Q 2009 3938 1854 4198 
Q 1700 4459 1434 4459 
z
M 4653 2169 
Q 4381 2169 4226 1906 
Q 4072 1644 4072 1178 
Q 4072 719 4228 458 
Q 4384 197 4653 197 
Q 4922 197 5075 458 
Q 5228 719 5228 1178 
Q 5228 1641 5073 1905 
Q 4919 2169 4653 2169 
z
M 4653 2450 
Q 5147 2450 5437 2106 
Q 5728 1763 5728 1178 
Q 5728 594 5436 251 
Q 5144 -91 4653 -91 
Q 4153 -91 3862 251 
Q 3572 594 3572 1178 
Q 3572 1766 3864 2108 
Q 4156 2450 4653 2450 
z
M 4263 4750 
L 4738 4750 
L 1819 -91 
L 1344 -91 
L 4263 4750 
z
M 1428 4750 
Q 1922 4750 2215 4408 
Q 2509 4066 2509 3481 
Q 2509 2891 2217 2550 
Q 1925 2209 1428 2209 
Q 931 2209 642 2551 
Q 353 2894 353 3481 
Q 353 4063 643 4406 
Q 934 4750 1428 4750 
z
" id="DejaVuSerif-25" transform="scale(0.015625)"/>
     </defs>
     <use xlink:href="#DejaVuSerif-36"/>
     <use x="63.623047" xlink:href="#DejaVuSerif-25"/>
    </g>
   </g>
   <g id="text_17">
    <!-- Coal and derivatives -->
    <g style="fill:#ffffff;" transform="translate(81.9625 25.8)scale(0.2 -0.2)">
     <defs>
      <path d="M 4513 1234 
Q 4306 581 3820 245 
Q 3334 -91 2591 -91 
Q 2134 -91 1743 65 
Q 1353 222 1050 525 
Q 700 875 529 1320 
Q 359 1766 359 2328 
Q 359 3416 987 4083 
Q 1616 4750 2644 4750 
Q 3025 4750 3456 4650 
Q 3888 4550 4384 4347 
L 4384 3272 
L 4031 3272 
Q 3916 3859 3567 4137 
Q 3219 4416 2591 4416 
Q 1844 4416 1459 3886 
Q 1075 3356 1075 2328 
Q 1075 1303 1459 773 
Q 1844 244 2591 244 
Q 3113 244 3450 492 
Q 3788 741 3938 1234 
L 4513 1234 
z
" id="DejaVuSerif-43" transform="scale(0.015625)"/>
      <path d="M 1581 0 
L 359 2988 
L -19 2988 
L -19 3322 
L 1509 3322 
L 1509 2988 
L 978 2988 
L 1913 703 
L 2847 2988 
L 2350 2988 
L 2350 3322 
L 3597 3322 
L 3597 2988 
L 3225 2988 
L 2003 0 
L 1581 0 
z
" id="DejaVuSerif-76" transform="scale(0.015625)"/>
      <path d="M 359 184 
L 359 959 
L 691 959 
Q 703 588 923 403 
Q 1144 219 1575 219 
Q 1963 219 2166 364 
Q 2369 509 2369 788 
Q 2369 1006 2220 1140 
Q 2072 1275 1594 1428 
L 1178 1569 
Q 750 1706 558 1912 
Q 366 2119 366 2438 
Q 366 2894 700 3153 
Q 1034 3413 1625 3413 
Q 1888 3413 2178 3344 
Q 2469 3275 2778 3144 
L 2778 2419 
L 2447 2419 
Q 2434 2741 2221 2922 
Q 2009 3103 1644 3103 
Q 1281 3103 1095 2975 
Q 909 2847 909 2591 
Q 909 2381 1050 2254 
Q 1191 2128 1613 1997 
L 2069 1856 
Q 2541 1709 2748 1489 
Q 2956 1269 2956 922 
Q 2956 450 2595 179 
Q 2234 -91 1600 -91 
Q 1278 -91 972 -22 
Q 666 47 359 184 
z
" id="DejaVuSerif-73" transform="scale(0.015625)"/>
     </defs>
     <use xlink:href="#DejaVuSerif-43"/>
     <use x="76.513672" xlink:href="#DejaVuSerif-6f"/>
     <use x="136.71875" xlink:href="#DejaVuSerif-61"/>
     <use x="196.337891" xlink:href="#DejaVuSerif-6c"/>
     <use x="228.320312" xlink:href="#DejaVuSerif-20"/>
     <use x="260.107422" xlink:href="#DejaVuSerif-61"/>
     <use x="319.726562" xlink:href="#DejaVuSerif-6e"/>
     <use x="384.130859" xlink:href="#DejaVuSerif-64"/>
     <use x="448.144531" xlink:href="#DejaVuSerif-20"/>
     <use x="479.931641" xlink:href="#DejaVuSerif-64"/>
     <use x="543.945312" xlink:href="#DejaVuSerif-65"/>
     <use x="603.125" xlink:href="#DejaVuSerif-72"/>
     <use x="650.927734" xlink:href="#DejaVuSerif-69"/>
     <use x="682.910156" xlink:href="#DejaVuSerif-76"/>
     <use x="739.404297" xlink:href="#DejaVuSerif-61"/>
     <use x="799.023438" xlink:href="#DejaVuSerif-74"/>
     <use x="839.208984" xlink:href="#DejaVuSerif-69"/>
     <use x="871.191406" xlink:href="#DejaVuSerif-76"/>
     <use x="927.685547" xlink:href="#DejaVuSerif-65"/>
     <use x="986.865234" xlink:href="#DejaVuSerif-73"/>
    </g>
   </g>
  </g>
  <g id="axes_2">
   <g id="patch_8">
    <path d="M 343.56875 329.2 
L 577.0375 329.2 
L 577.0375 31.8 
L 343.56875 31.8 
z
" style="fill:none;"/>
   </g>
   <g id="PolyCollection_2">
    <defs>
     <path d="M 343.56875 -30.8 
L 343.56875 -306.200331 
L 366.915625 -287.531541 
L 390.2625 -288.641835 
L 413.609375 -281.829392 
L 436.95625 -269.473413 
L 460.303125 -274.231813 
L 483.65 -278.546096 
L 506.996875 -279.862587 
L 530.34375 -276.174827 
L 553.690625 -271.709861 
L 577.0375 -263.747472 
L 577.0375 -30.8 
L 577.0375 -30.8 
L 553.690625 -30.8 
L 530.34375 -30.8 
L 506.996875 -30.8 
L 483.65 -30.8 
L 460.303125 -30.8 
L 436.95625 -30.8 
L 413.609375 -30.8 
L 390.2625 -30.8 
L 366.915625 -30.8 
L 343.56875 -30.8 
z
" id="m62e2ebd525"/>
    </defs>
    <g clip-path="url(#p0fdcc4a36b)">
     <use style="fill:#bfbbd9;fill-opacity:0.25;" x="0" xlink:href="#m62e2ebd525" y="360"/>
    </g>
   </g>
   <g id="matplotlib.axis_3">
    <g id="xtick_7">
     <g id="line2d_16">
      <g>
       <use style="fill:#ffffff;stroke:#ffffff;stroke-width:0.8;" x="343.56875" xlink:href="#mf2041fe235" y="329.2"/>
      </g>
     </g>
     <g id="text_18">
      <!-- 2010 -->
      <g style="fill:#ffffff;" transform="translate(328.29875 345.318125)scale(0.12 -0.12)">
       <use xlink:href="#DejaVuSerif-32"/>
       <use x="63.623047" xlink:href="#DejaVuSerif-30"/>
       <use x="127.246094" xlink:href="#DejaVuSerif-31"/>
       <use x="190.869141" xlink:href="#DejaVuSerif-30"/>
      </g>
     </g>
    </g>
    <g id="xtick_8">
     <g id="line2d_17">
      <g>
       <use style="fill:#ffffff;stroke:#ffffff;stroke-width:0.8;" x="390.2625" xlink:href="#mf2041fe235" y="329.2"/>
      </g>
     </g>
     <g id="text_19">
      <!-- 2012 -->
      <g style="fill:#ffffff;" transform="translate(374.9925 345.318125)scale(0.12 -0.12)">
       <use xlink:href="#DejaVuSerif-32"/>
       <use x="63.623047" xlink:href="#DejaVuSerif-30"/>
       <use x="127.246094" xlink:href="#DejaVuSerif-31"/>
       <use x="190.869141" xlink:href="#DejaVuSerif-32"/>
      </g>
     </g>
    </g>
    <g id="xtick_9">
     <g id="line2d_18">
      <g>
       <use style="fill:#ffffff;stroke:#ffffff;stroke-width:0.8;" x="436.95625" xlink:href="#mf2041fe235" y="329.2"/>
      </g>
     </g>
     <g id="text_20">
      <!-- 2014 -->
      <g style="fill:#ffffff;" transform="translate(421.68625 345.318125)scale(0.12 -0.12)">
       <use xlink:href="#DejaVuSerif-32"/>
       <use x="63.623047" xlink:href="#DejaVuSerif-30"/>
       <use x="127.246094" xlink:href="#DejaVuSerif-31"/>
       <use x="190.869141" xlink:href="#DejaVuSerif-34"/>
      </g>
     </g>
    </g>
    <g id="xtick_10">
     <g id="line2d_19">
      <g>
       <use style="fill:#ffffff;stroke:#ffffff;stroke-width:0.8;" x="483.65" xlink:href="#mf2041fe235" y="329.2"/>
      </g>
     </g>
     <g id="text_21">
      <!-- 2016 -->
      <g style="fill:#ffffff;" transform="translate(468.38 345.318125)scale(0.12 -0.12)">
       <use xlink:href="#DejaVuSerif-32"/>
       <use x="63.623047" xlink:href="#DejaVuSerif-30"/>
       <use x="127.246094" xlink:href="#DejaVuSerif-31"/>
       <use x="190.869141" xlink:href="#DejaVuSerif-36"/>
      </g>
     </g>
    </g>
    <g id="xtick_11">
     <g id="line2d_20">
      <g>
       <use style="fill:#ffffff;stroke:#ffffff;stroke-width:0.8;" x="530.34375" xlink:href="#mf2041fe235" y="329.2"/>
      </g>
     </g>
     <g id="text_22">
      <!-- 2018 -->
      <g style="fill:#ffffff;" transform="translate(515.07375 345.318125)scale(0.12 -0.12)">
       <use xlink:href="#DejaVuSerif-32"/>
       <use x="63.623047" xlink:href="#DejaVuSerif-30"/>
       <use x="127.246094" xlink:href="#DejaVuSerif-31"/>
       <use x="190.869141" xlink:href="#DejaVuSerif-38"/>
      </g>
     </g>
    </g>
    <g id="xtick_12">
     <g id="line2d_21">
      <g>
       <use style="fill:#ffffff;stroke:#ffffff;stroke-width:0.8;" x="577.0375" xlink:href="#mf2041fe235" y="329.2"/>
      </g>
     </g>
     <g id="text_23">
      <!-- 2020 -->
      <g style="fill:#ffffff;" transform="translate(561.7675 345.318125)scale(0.12 -0.12)">
       <use xlink:href="#DejaVuSerif-32"/>
       <use x="63.623047" xlink:href="#DejaVuSerif-30"/>
       <use x="127.246094" xlink:href="#DejaVuSerif-32"/>
       <use x="190.869141" xlink:href="#DejaVuSerif-30"/>
      </g>
     </g>
    </g>
   </g>
   <g id="matplotlib.axis_4">
    <g id="ytick_9">
     <g id="line2d_22">
      <g>
       <use style="fill:#ffffff;stroke:#ffffff;stroke-width:0.8;" x="343.56875" xlink:href="#m1082a30331" y="329.2"/>
      </g>
     </g>
    </g>
    <g id="ytick_10">
     <g id="line2d_23">
      <g>
       <use style="fill:#ffffff;stroke:#ffffff;stroke-width:0.8;" x="343.56875" xlink:href="#m1082a30331" y="289.546667"/>
      </g>
     </g>
    </g>
    <g id="ytick_11">
     <g id="line2d_24">
      <g>
       <use style="fill:#ffffff;stroke:#ffffff;stroke-width:0.8;" x="343.56875" xlink:href="#m1082a30331" y="249.893333"/>
      </g>
     </g>
    </g>
    <g id="ytick_12">
     <g id="line2d_25">
      <g>
       <use style="fill:#ffffff;stroke:#ffffff;stroke-width:0.8;" x="343.56875" xlink:href="#m1082a30331" y="210.24"/>
      </g>
     </g>
    </g>
    <g id="ytick_13">
     <g id="line2d_26">
      <g>
       <use style="fill:#ffffff;stroke:#ffffff;stroke-width:0.8;" x="343.56875" xlink:href="#m1082a30331" y="170.586667"/>
      </g>
     </g>
    </g>
    <g id="ytick_14">
     <g id="line2d_27">
      <g>
       <use style="fill:#ffffff;stroke:#ffffff;stroke-width:0.8;" x="343.56875" xlink:href="#m1082a30331" y="130.933333"/>
      </g>
     </g>
    </g>
    <g id="ytick_15">
     <g id="line2d_28">
      <g>
       <use style="fill:#ffffff;stroke:#ffffff;stroke-width:0.8;" x="343.56875" xlink:href="#m1082a30331" y="91.28"/>
      </g>
     </g>
    </g>
    <g id="ytick_16">
     <g id="line2d_29">
      <g>
       <use style="fill:#ffffff;stroke:#ffffff;stroke-width:0.8;" x="343.56875" xlink:href="#m1082a30331" y="51.626667"/>
      </g>
     </g>
    </g>
   </g>
   <g id="line2d_30">
    <path clip-path="url(#p0fdcc4a36b)" d="M 343.56875 229.535312 
L 366.915625 233.722704 
L 390.2625 232.659995 
L 413.609375 238.695232 
L 436.95625 239.662773 
L 460.303125 239.26624 
L 483.65 236.355685 
L 506.996875 235.332629 
L 530.34375 237.648384 
L 553.690625 241.502688 
L 577.0375 244.26256 
" style="fill:none;stroke:#8dd3c7;stroke-linecap:square;stroke-width:3;"/>
   </g>
   <g id="patch_9">
    <path d="M 343.56875 329.2 
L 343.56875 31.8 
" style="fill:none;stroke:#ffffff;stroke-linecap:square;stroke-linejoin:miter;stroke-width:0.8;"/>
   </g>
   <g id="patch_10">
    <path d="M 577.0375 329.2 
L 577.0375 31.8 
" style="fill:none;stroke:#ffffff;stroke-linecap:square;stroke-linejoin:miter;stroke-width:0.8;"/>
   </g>
   <g id="patch_11">
    <path d="M 343.56875 329.2 
L 577.0375 329.2 
" style="fill:none;stroke:#ffffff;stroke-linecap:square;stroke-linejoin:miter;stroke-width:0.8;"/>
   </g>
   <g id="patch_12">
    <path d="M 343.56875 31.8 
L 577.0375 31.8 
" style="fill:none;stroke:#ffffff;stroke-linecap:square;stroke-linejoin:miter;stroke-width:0.8;"/>
   </g>
   <g id="text_24">
    <g id="patch_13">
     <path d="M 563.701563 253.669435 
L 590.373438 253.669435 
Q 593.973438 253.669435 593.973438 250.069435 
L 593.973438 238.455685 
Q 593.973438 234.855685 590.373438 234.855685 
L 563.701563 234.855685 
Q 560.101563 234.855685 560.101563 238.455685 
L 560.101563 250.069435 
Q 560.101563 253.669435 563.701563 253.669435 
z
" style="fill:#ffffff;stroke:#ffffff;stroke-linejoin:miter;"/>
    </g>
    <!-- 36% -->
    <g transform="translate(563.701563 247.57381)scale(0.12 -0.12)">
     <use xlink:href="#DejaVuSerif-33"/>
     <use x="63.623047" xlink:href="#DejaVuSerif-36"/>
     <use x="127.246094" xlink:href="#DejaVuSerif-25"/>
    </g>
   </g>
   <g id="text_25">
    <!-- Oil and derivatives -->
    <g style="fill:#ffffff;" transform="translate(364.71875 25.8)scale(0.2 -0.2)">
     <defs>
      <path d="M 2625 244 
Q 3391 244 3781 770 
Q 4172 1297 4172 2328 
Q 4172 3363 3781 3889 
Q 3391 4416 2625 4416 
Q 1856 4416 1465 3889 
Q 1075 3363 1075 2328 
Q 1075 1297 1465 770 
Q 1856 244 2625 244 
z
M 2625 -91 
Q 2150 -91 1751 65 
Q 1353 222 1050 525 
Q 700 875 529 1319 
Q 359 1763 359 2328 
Q 359 2894 529 3339 
Q 700 3784 1050 4134 
Q 1356 4441 1750 4595 
Q 2144 4750 2625 4750 
Q 3641 4750 4266 4084 
Q 4891 3419 4891 2328 
Q 4891 1769 4719 1320 
Q 4547 872 4197 525 
Q 3891 219 3497 64 
Q 3103 -91 2625 -91 
z
" id="DejaVuSerif-4f" transform="scale(0.015625)"/>
     </defs>
     <use xlink:href="#DejaVuSerif-4f"/>
     <use x="81.982422" xlink:href="#DejaVuSerif-69"/>
     <use x="113.964844" xlink:href="#DejaVuSerif-6c"/>
     <use x="145.947266" xlink:href="#DejaVuSerif-20"/>
     <use x="177.734375" xlink:href="#DejaVuSerif-61"/>
     <use x="237.353516" xlink:href="#DejaVuSerif-6e"/>
     <use x="301.757812" xlink:href="#DejaVuSerif-64"/>
     <use x="365.771484" xlink:href="#DejaVuSerif-20"/>
     <use x="397.558594" xlink:href="#DejaVuSerif-64"/>
     <use x="461.572266" xlink:href="#DejaVuSerif-65"/>
     <use x="520.751953" xlink:href="#DejaVuSerif-72"/>
     <use x="568.554688" xlink:href="#DejaVuSerif-69"/>
     <use x="600.537109" xlink:href="#DejaVuSerif-76"/>
     <use x="657.03125" xlink:href="#DejaVuSerif-61"/>
     <use x="716.650391" xlink:href="#DejaVuSerif-74"/>
     <use x="756.835938" xlink:href="#DejaVuSerif-69"/>
     <use x="788.818359" xlink:href="#DejaVuSerif-76"/>
     <use x="845.3125" xlink:href="#DejaVuSerif-65"/>
     <use x="904.492188" xlink:href="#DejaVuSerif-73"/>
    </g>
   </g>
  </g>
  <g id="axes_3">
   <g id="patch_14">
    <path d="M 618.0875 329.2 
L 851.55625 329.2 
L 851.55625 31.8 
L 618.0875 31.8 
z
" style="fill:none;"/>
   </g>
   <g id="PolyCollection_3">
    <defs>
     <path d="M 618.0875 -30.8 
L 618.0875 -306.200331 
L 641.434375 -287.531541 
L 664.78125 -288.641835 
L 688.128125 -281.829392 
L 711.475 -269.473413 
L 734.821875 -274.231813 
L 758.16875 -278.546096 
L 781.515625 -279.862587 
L 804.8625 -276.174827 
L 828.209375 -271.709861 
L 851.55625 -263.747472 
L 851.55625 -30.8 
L 851.55625 -30.8 
L 828.209375 -30.8 
L 804.8625 -30.8 
L 781.515625 -30.8 
L 758.16875 -30.8 
L 734.821875 -30.8 
L 711.475 -30.8 
L 688.128125 -30.8 
L 664.78125 -30.8 
L 641.434375 -30.8 
L 618.0875 -30.8 
z
" id="mfbaf659059"/>
    </defs>
    <g clip-path="url(#pe680ae938a)">
     <use style="fill:#bfbbd9;fill-opacity:0.25;" x="0" xlink:href="#mfbaf659059" y="360"/>
    </g>
   </g>
   <g id="matplotlib.axis_5">
    <g id="xtick_13">
     <g id="line2d_31">
      <g>
       <use style="fill:#ffffff;stroke:#ffffff;stroke-width:0.8;" x="618.0875" xlink:href="#mf2041fe235" y="329.2"/>
      </g>
     </g>
     <g id="text_26">
      <!-- 2010 -->
      <g style="fill:#ffffff;" transform="translate(602.8175 345.318125)scale(0.12 -0.12)">
       <use xlink:href="#DejaVuSerif-32"/>
       <use x="63.623047" xlink:href="#DejaVuSerif-30"/>
       <use x="127.246094" xlink:href="#DejaVuSerif-31"/>
       <use x="190.869141" xlink:href="#DejaVuSerif-30"/>
      </g>
     </g>
    </g>
    <g id="xtick_14">
     <g id="line2d_32">
      <g>
       <use style="fill:#ffffff;stroke:#ffffff;stroke-width:0.8;" x="664.78125" xlink:href="#mf2041fe235" y="329.2"/>
      </g>
     </g>
     <g id="text_27">
      <!-- 2012 -->
      <g style="fill:#ffffff;" transform="translate(649.51125 345.318125)scale(0.12 -0.12)">
       <use xlink:href="#DejaVuSerif-32"/>
       <use x="63.623047" xlink:href="#DejaVuSerif-30"/>
       <use x="127.246094" xlink:href="#DejaVuSerif-31"/>
       <use x="190.869141" xlink:href="#DejaVuSerif-32"/>
      </g>
     </g>
    </g>
    <g id="xtick_15">
     <g id="line2d_33">
      <g>
       <use style="fill:#ffffff;stroke:#ffffff;stroke-width:0.8;" x="711.475" xlink:href="#mf2041fe235" y="329.2"/>
      </g>
     </g>
     <g id="text_28">
      <!-- 2014 -->
      <g style="fill:#ffffff;" transform="translate(696.205 345.318125)scale(0.12 -0.12)">
       <use xlink:href="#DejaVuSerif-32"/>
       <use x="63.623047" xlink:href="#DejaVuSerif-30"/>
       <use x="127.246094" xlink:href="#DejaVuSerif-31"/>
       <use x="190.869141" xlink:href="#DejaVuSerif-34"/>
      </g>
     </g>
    </g>
    <g id="xtick_16">
     <g id="line2d_34">
      <g>
       <use style="fill:#ffffff;stroke:#ffffff;stroke-width:0.8;" x="758.16875" xlink:href="#mf2041fe235" y="329.2"/>
      </g>
     </g>
     <g id="text_29">
      <!-- 2016 -->
      <g style="fill:#ffffff;" transform="translate(742.89875 345.318125)scale(0.12 -0.12)">
       <use xlink:href="#DejaVuSerif-32"/>
       <use x="63.623047" xlink:href="#DejaVuSerif-30"/>
       <use x="127.246094" xlink:href="#DejaVuSerif-31"/>
       <use x="190.869141" xlink:href="#DejaVuSerif-36"/>
      </g>
     </g>
    </g>
    <g id="xtick_17">
     <g id="line2d_35">
      <g>
       <use style="fill:#ffffff;stroke:#ffffff;stroke-width:0.8;" x="804.8625" xlink:href="#mf2041fe235" y="329.2"/>
      </g>
     </g>
     <g id="text_30">
      <!-- 2018 -->
      <g style="fill:#ffffff;" transform="translate(789.5925 345.318125)scale(0.12 -0.12)">
       <use xlink:href="#DejaVuSerif-32"/>
       <use x="63.623047" xlink:href="#DejaVuSerif-30"/>
       <use x="127.246094" xlink:href="#DejaVuSerif-31"/>
       <use x="190.869141" xlink:href="#DejaVuSerif-38"/>
      </g>
     </g>
    </g>
    <g id="xtick_18">
     <g id="line2d_36">
      <g>
       <use style="fill:#ffffff;stroke:#ffffff;stroke-width:0.8;" x="851.55625" xlink:href="#mf2041fe235" y="329.2"/>
      </g>
     </g>
     <g id="text_31">
      <!-- 2020 -->
      <g style="fill:#ffffff;" transform="translate(836.28625 345.318125)scale(0.12 -0.12)">
       <use xlink:href="#DejaVuSerif-32"/>
       <use x="63.623047" xlink:href="#DejaVuSerif-30"/>
       <use x="127.246094" xlink:href="#DejaVuSerif-32"/>
       <use x="190.869141" xlink:href="#DejaVuSerif-30"/>
      </g>
     </g>
    </g>
   </g>
   <g id="matplotlib.axis_6">
    <g id="ytick_17">
     <g id="line2d_37">
      <g>
       <use style="fill:#ffffff;stroke:#ffffff;stroke-width:0.8;" x="618.0875" xlink:href="#m1082a30331" y="329.2"/>
      </g>
     </g>
    </g>
    <g id="ytick_18">
     <g id="line2d_38">
      <g>
       <use style="fill:#ffffff;stroke:#ffffff;stroke-width:0.8;" x="618.0875" xlink:href="#m1082a30331" y="289.546667"/>
      </g>
     </g>
    </g>
    <g id="ytick_19">
     <g id="line2d_39">
      <g>
       <use style="fill:#ffffff;stroke:#ffffff;stroke-width:0.8;" x="618.0875" xlink:href="#m1082a30331" y="249.893333"/>
      </g>
     </g>
    </g>
    <g id="ytick_20">
     <g id="line2d_40">
      <g>
       <use style="fill:#ffffff;stroke:#ffffff;stroke-width:0.8;" x="618.0875" xlink:href="#m1082a30331" y="210.24"/>
      </g>
     </g>
    </g>
    <g id="ytick_21">
     <g id="line2d_41">
      <g>
       <use style="fill:#ffffff;stroke:#ffffff;stroke-width:0.8;" x="618.0875" xlink:href="#m1082a30331" y="170.586667"/>
      </g>
     </g>
    </g>
    <g id="ytick_22">
     <g id="line2d_42">
      <g>
       <use style="fill:#ffffff;stroke:#ffffff;stroke-width:0.8;" x="618.0875" xlink:href="#m1082a30331" y="130.933333"/>
      </g>
     </g>
    </g>
    <g id="ytick_23">
     <g id="line2d_43">
      <g>
       <use style="fill:#ffffff;stroke:#ffffff;stroke-width:0.8;" x="618.0875" xlink:href="#m1082a30331" y="91.28"/>
      </g>
     </g>
    </g>
    <g id="ytick_24">
     <g id="line2d_44">
      <g>
       <use style="fill:#ffffff;stroke:#ffffff;stroke-width:0.8;" x="618.0875" xlink:href="#m1082a30331" y="51.626667"/>
      </g>
     </g>
    </g>
   </g>
   <g id="line2d_45">
    <path clip-path="url(#pe680ae938a)" d="M 618.0875 196.155136 
L 641.434375 212.841259 
L 664.78125 218.012053 
L 688.128125 218.361003 
L 711.475 232.572757 
L 734.821875 234.15096 
L 758.16875 229.495659 
L 781.515625 226.148917 
L 804.8625 227.156112 
L 828.209375 222.802176 
L 851.55625 224.824496 
" style="fill:none;stroke:#8dd3c7;stroke-linecap:square;stroke-width:3;"/>
   </g>
   <g id="patch_15">
    <path d="M 618.0875 329.2 
L 618.0875 31.8 
" style="fill:none;stroke:#ffffff;stroke-linecap:square;stroke-linejoin:miter;stroke-width:0.8;"/>
   </g>
   <g id="patch_16">
    <path d="M 851.55625 329.2 
L 851.55625 31.8 
" style="fill:none;stroke:#ffffff;stroke-linecap:square;stroke-linejoin:miter;stroke-width:0.8;"/>
   </g>
   <g id="patch_17">
    <path d="M 618.0875 329.2 
L 851.55625 329.2 
" style="fill:none;stroke:#ffffff;stroke-linecap:square;stroke-linejoin:miter;stroke-width:0.8;"/>
   </g>
   <g id="patch_18">
    <path d="M 618.0875 31.8 
L 851.55625 31.8 
" style="fill:none;stroke:#ffffff;stroke-linecap:square;stroke-linejoin:miter;stroke-width:0.8;"/>
   </g>
   <g id="text_32">
    <g id="patch_19">
     <path d="M 838.220313 234.231371 
L 864.892188 234.231371 
Q 868.492188 234.231371 868.492188 230.631371 
L 868.492188 219.017621 
Q 868.492188 215.417621 864.892188 215.417621 
L 838.220313 215.417621 
Q 834.620313 215.417621 834.620313 219.017621 
L 834.620313 230.631371 
Q 834.620313 234.231371 838.220313 234.231371 
z
" style="fill:#ffffff;stroke:#ffffff;stroke-linejoin:miter;"/>
    </g>
    <!-- 45% -->
    <g transform="translate(838.220313 228.135746)scale(0.12 -0.12)">
     <use xlink:href="#DejaVuSerif-34"/>
     <use x="63.623047" xlink:href="#DejaVuSerif-35"/>
     <use x="127.246094" xlink:href="#DejaVuSerif-25"/>
    </g>
   </g>
   <g id="text_33">
    <!-- Natural gas -->
    <g style="fill:#ffffff;" transform="translate(675.035938 25.8)scale(0.2 -0.2)">
     <defs>
      <path d="M 313 0 
L 313 331 
L 941 331 
L 941 4331 
L 313 4331 
L 313 4666 
L 1509 4666 
L 4306 984 
L 4306 4331 
L 3681 4331 
L 3681 4666 
L 5319 4666 
L 5319 4331 
L 4691 4331 
L 4691 -91 
L 4313 -91 
L 1325 3841 
L 1325 331 
L 1953 331 
L 1953 0 
L 313 0 
z
" id="DejaVuSerif-4e" transform="scale(0.015625)"/>
     </defs>
     <use xlink:href="#DejaVuSerif-4e"/>
     <use x="87.5" xlink:href="#DejaVuSerif-61"/>
     <use x="147.119141" xlink:href="#DejaVuSerif-74"/>
     <use x="187.304688" xlink:href="#DejaVuSerif-75"/>
     <use x="251.708984" xlink:href="#DejaVuSerif-72"/>
     <use x="299.511719" xlink:href="#DejaVuSerif-61"/>
     <use x="359.130859" xlink:href="#DejaVuSerif-6c"/>
     <use x="391.113281" xlink:href="#DejaVuSerif-20"/>
     <use x="422.900391" xlink:href="#DejaVuSerif-67"/>
     <use x="486.914062" xlink:href="#DejaVuSerif-61"/>
     <use x="546.533203" xlink:href="#DejaVuSerif-73"/>
    </g>
   </g>
  </g>
  <g id="axes_4">
   <g id="patch_20">
    <path d="M 892.60625 329.2 
L 1126.075 329.2 
L 1126.075 31.8 
L 892.60625 31.8 
z
" style="fill:none;"/>
   </g>
   <g id="PolyCollection_4">
    <defs>
     <path d="M 892.60625 -30.8 
L 892.60625 -306.200331 
L 915.953125 -287.531541 
L 939.3 -288.641835 
L 962.646875 -281.829392 
L 985.99375 -269.473413 
L 1009.340625 -274.231813 
L 1032.6875 -278.546096 
L 1056.034375 -279.862587 
L 1079.38125 -276.174827 
L 1102.728125 -271.709861 
L 1126.075 -263.747472 
L 1126.075 -30.8 
L 1126.075 -30.8 
L 1102.728125 -30.8 
L 1079.38125 -30.8 
L 1056.034375 -30.8 
L 1032.6875 -30.8 
L 1009.340625 -30.8 
L 985.99375 -30.8 
L 962.646875 -30.8 
L 939.3 -30.8 
L 915.953125 -30.8 
L 892.60625 -30.8 
z
" id="m13918c8cf9"/>
    </defs>
    <g clip-path="url(#pfbf62a680c)">
     <use style="fill:#bfbbd9;fill-opacity:0.25;" x="0" xlink:href="#m13918c8cf9" y="360"/>
    </g>
   </g>
   <g id="matplotlib.axis_7">
    <g id="xtick_19">
     <g id="line2d_46">
      <g>
       <use style="fill:#ffffff;stroke:#ffffff;stroke-width:0.8;" x="892.60625" xlink:href="#mf2041fe235" y="329.2"/>
      </g>
     </g>
     <g id="text_34">
      <!-- 2010 -->
      <g style="fill:#ffffff;" transform="translate(877.33625 345.318125)scale(0.12 -0.12)">
       <use xlink:href="#DejaVuSerif-32"/>
       <use x="63.623047" xlink:href="#DejaVuSerif-30"/>
       <use x="127.246094" xlink:href="#DejaVuSerif-31"/>
       <use x="190.869141" xlink:href="#DejaVuSerif-30"/>
      </g>
     </g>
    </g>
    <g id="xtick_20">
     <g id="line2d_47">
      <g>
       <use style="fill:#ffffff;stroke:#ffffff;stroke-width:0.8;" x="939.3" xlink:href="#mf2041fe235" y="329.2"/>
      </g>
     </g>
     <g id="text_35">
      <!-- 2012 -->
      <g style="fill:#ffffff;" transform="translate(924.03 345.318125)scale(0.12 -0.12)">
       <use xlink:href="#DejaVuSerif-32"/>
       <use x="63.623047" xlink:href="#DejaVuSerif-30"/>
       <use x="127.246094" xlink:href="#DejaVuSerif-31"/>
       <use x="190.869141" xlink:href="#DejaVuSerif-32"/>
      </g>
     </g>
    </g>
    <g id="xtick_21">
     <g id="line2d_48">
      <g>
       <use style="fill:#ffffff;stroke:#ffffff;stroke-width:0.8;" x="985.99375" xlink:href="#mf2041fe235" y="329.2"/>
      </g>
     </g>
     <g id="text_36">
      <!-- 2014 -->
      <g style="fill:#ffffff;" transform="translate(970.72375 345.318125)scale(0.12 -0.12)">
       <use xlink:href="#DejaVuSerif-32"/>
       <use x="63.623047" xlink:href="#DejaVuSerif-30"/>
       <use x="127.246094" xlink:href="#DejaVuSerif-31"/>
       <use x="190.869141" xlink:href="#DejaVuSerif-34"/>
      </g>
     </g>
    </g>
    <g id="xtick_22">
     <g id="line2d_49">
      <g>
       <use style="fill:#ffffff;stroke:#ffffff;stroke-width:0.8;" x="1032.6875" xlink:href="#mf2041fe235" y="329.2"/>
      </g>
     </g>
     <g id="text_37">
      <!-- 2016 -->
      <g style="fill:#ffffff;" transform="translate(1017.4175 345.318125)scale(0.12 -0.12)">
       <use xlink:href="#DejaVuSerif-32"/>
       <use x="63.623047" xlink:href="#DejaVuSerif-30"/>
       <use x="127.246094" xlink:href="#DejaVuSerif-31"/>
       <use x="190.869141" xlink:href="#DejaVuSerif-36"/>
      </g>
     </g>
    </g>
    <g id="xtick_23">
     <g id="line2d_50">
      <g>
       <use style="fill:#ffffff;stroke:#ffffff;stroke-width:0.8;" x="1079.38125" xlink:href="#mf2041fe235" y="329.2"/>
      </g>
     </g>
     <g id="text_38">
      <!-- 2018 -->
      <g style="fill:#ffffff;" transform="translate(1064.11125 345.318125)scale(0.12 -0.12)">
       <use xlink:href="#DejaVuSerif-32"/>
       <use x="63.623047" xlink:href="#DejaVuSerif-30"/>
       <use x="127.246094" xlink:href="#DejaVuSerif-31"/>
       <use x="190.869141" xlink:href="#DejaVuSerif-38"/>
      </g>
     </g>
    </g>
    <g id="xtick_24">
     <g id="line2d_51">
      <g>
       <use style="fill:#ffffff;stroke:#ffffff;stroke-width:0.8;" x="1126.075" xlink:href="#mf2041fe235" y="329.2"/>
      </g>
     </g>
     <g id="text_39">
      <!-- 2020 -->
      <g style="fill:#ffffff;" transform="translate(1110.805 345.318125)scale(0.12 -0.12)">
       <use xlink:href="#DejaVuSerif-32"/>
       <use x="63.623047" xlink:href="#DejaVuSerif-30"/>
       <use x="127.246094" xlink:href="#DejaVuSerif-32"/>
       <use x="190.869141" xlink:href="#DejaVuSerif-30"/>
      </g>
     </g>
    </g>
   </g>
   <g id="matplotlib.axis_8">
    <g id="ytick_25">
     <g id="line2d_52">
      <g>
       <use style="fill:#ffffff;stroke:#ffffff;stroke-width:0.8;" x="892.60625" xlink:href="#m1082a30331" y="329.2"/>
      </g>
     </g>
    </g>
    <g id="ytick_26">
     <g id="line2d_53">
      <g>
       <use style="fill:#ffffff;stroke:#ffffff;stroke-width:0.8;" x="892.60625" xlink:href="#m1082a30331" y="289.546667"/>
      </g>
     </g>
    </g>
    <g id="ytick_27">
     <g id="line2d_54">
      <g>
       <use style="fill:#ffffff;stroke:#ffffff;stroke-width:0.8;" x="892.60625" xlink:href="#m1082a30331" y="249.893333"/>
      </g>
     </g>
    </g>
    <g id="ytick_28">
     <g id="line2d_55">
      <g>
       <use style="fill:#ffffff;stroke:#ffffff;stroke-width:0.8;" x="892.60625" xlink:href="#m1082a30331" y="210.24"/>
      </g>
     </g>
    </g>
    <g id="ytick_29">
     <g id="line2d_56">
      <g>
       <use style="fill:#ffffff;stroke:#ffffff;stroke-width:0.8;" x="892.60625" xlink:href="#m1082a30331" y="170.586667"/>
      </g>
     </g>
    </g>
    <g id="ytick_30">
     <g id="line2d_57">
      <g>
       <use style="fill:#ffffff;stroke:#ffffff;stroke-width:0.8;" x="892.60625" xlink:href="#m1082a30331" y="130.933333"/>
      </g>
     </g>
    </g>
    <g id="ytick_31">
     <g id="line2d_58">
      <g>
       <use style="fill:#ffffff;stroke:#ffffff;stroke-width:0.8;" x="892.60625" xlink:href="#m1082a30331" y="91.28"/>
      </g>
     </g>
    </g>
    <g id="ytick_32">
     <g id="line2d_59">
      <g>
       <use style="fill:#ffffff;stroke:#ffffff;stroke-width:0.8;" x="892.60625" xlink:href="#m1082a30331" y="51.626667"/>
      </g>
     </g>
    </g>
   </g>
   <g id="line2d_60">
    <path clip-path="url(#pfbf62a680c)" d="M 892.60625 318.311195 
L 915.953125 317.851216 
L 939.3 317.256416 
L 962.646875 317.399168 
L 985.99375 317.399168 
L 1009.340625 316.677477 
L 1032.6875 316.328528 
L 1056.034375 315.012037 
L 1079.38125 313.61624 
L 1102.728125 310.666032 
L 1126.075 305.423861 
" style="fill:none;stroke:#8dd3c7;stroke-linecap:square;stroke-width:3;"/>
   </g>
   <g id="patch_21">
    <path d="M 892.60625 329.2 
L 892.60625 31.8 
" style="fill:none;stroke:#ffffff;stroke-linecap:square;stroke-linejoin:miter;stroke-width:0.8;"/>
   </g>
   <g id="patch_22">
    <path d="M 1126.075 329.2 
L 1126.075 31.8 
" style="fill:none;stroke:#ffffff;stroke-linecap:square;stroke-linejoin:miter;stroke-width:0.8;"/>
   </g>
   <g id="patch_23">
    <path d="M 892.60625 329.2 
L 1126.075 329.2 
" style="fill:none;stroke:#ffffff;stroke-linecap:square;stroke-linejoin:miter;stroke-width:0.8;"/>
   </g>
   <g id="patch_24">
    <path d="M 892.60625 31.8 
L 1126.075 31.8 
" style="fill:none;stroke:#ffffff;stroke-linecap:square;stroke-linejoin:miter;stroke-width:0.8;"/>
   </g>
   <g id="text_40">
    <g id="patch_25">
     <path d="M 1112.739063 314.830736 
L 1139.410938 314.830736 
Q 1143.010938 314.830736 1143.010938 311.230736 
L 1143.010938 299.616986 
Q 1143.010938 296.016986 1139.410938 296.016986 
L 1112.739063 296.016986 
Q 1109.139063 296.016986 1109.139063 299.616986 
L 1109.139063 311.230736 
Q 1109.139063 314.830736 1112.739063 314.830736 
z
" style="fill:#ffffff;stroke:#ffffff;stroke-linejoin:miter;"/>
    </g>
    <!-- 10% -->
    <g transform="translate(1112.739063 308.735111)scale(0.12 -0.12)">
     <use xlink:href="#DejaVuSerif-31"/>
     <use x="63.623047" xlink:href="#DejaVuSerif-30"/>
     <use x="127.246094" xlink:href="#DejaVuSerif-25"/>
    </g>
   </g>
   <g id="text_41">
    <!-- Renewables -->
    <g style="fill:#ffffff;" transform="translate(948.360938 25.8)scale(0.2 -0.2)">
     <defs>
      <path d="M 3066 2316 
Q 3284 2256 3442 2114 
Q 3600 1972 3725 1716 
L 4403 331 
L 4972 331 
L 4972 0 
L 3872 0 
L 3144 1484 
Q 2934 1916 2759 2042 
Q 2584 2169 2278 2169 
L 1581 2169 
L 1581 331 
L 2241 331 
L 2241 0 
L 353 0 
L 353 331 
L 947 331 
L 947 4331 
L 353 4331 
L 353 4666 
L 2719 4666 
Q 3400 4666 3770 4341 
Q 4141 4016 4141 3419 
Q 4141 2938 3870 2661 
Q 3600 2384 3066 2316 
z
M 1581 2503 
L 2503 2503 
Q 2975 2503 3200 2726 
Q 3425 2950 3425 3419 
Q 3425 3888 3200 4109 
Q 2975 4331 2503 4331 
L 1581 4331 
L 1581 2503 
z
" id="DejaVuSerif-52" transform="scale(0.015625)"/>
      <path d="M 3072 3322 
L 3922 728 
L 4672 2988 
L 4191 2988 
L 4191 3322 
L 5394 3322 
L 5394 2988 
L 5025 2988 
L 4038 0 
L 3559 0 
L 2741 2484 
L 1919 0 
L 1459 0 
L 475 2988 
L 103 2988 
L 103 3322 
L 1606 3322 
L 1606 2988 
L 1069 2988 
L 1813 728 
L 2669 3322 
L 3072 3322 
z
" id="DejaVuSerif-77" transform="scale(0.015625)"/>
      <path d="M 738 331 
L 738 4531 
L 184 4531 
L 184 4863 
L 1313 4863 
L 1313 2803 
Q 1481 3116 1742 3264 
Q 2003 3413 2388 3413 
Q 3000 3413 3387 2928 
Q 3775 2444 3775 1663 
Q 3775 881 3387 395 
Q 3000 -91 2388 -91 
Q 2003 -91 1742 57 
Q 1481 206 1313 519 
L 1313 0 
L 184 0 
L 184 331 
L 738 331 
z
M 1313 1497 
Q 1313 897 1542 583 
Q 1772 269 2209 269 
Q 2650 269 2876 622 
Q 3103 975 3103 1663 
Q 3103 2353 2876 2703 
Q 2650 3053 2209 3053 
Q 1772 3053 1542 2737 
Q 1313 2422 1313 1825 
L 1313 1497 
z
" id="DejaVuSerif-62" transform="scale(0.015625)"/>
     </defs>
     <use xlink:href="#DejaVuSerif-52"/>
     <use x="75.292969" xlink:href="#DejaVuSerif-65"/>
     <use x="134.472656" xlink:href="#DejaVuSerif-6e"/>
     <use x="198.876953" xlink:href="#DejaVuSerif-65"/>
     <use x="258.056641" xlink:href="#DejaVuSerif-77"/>
     <use x="343.652344" xlink:href="#DejaVuSerif-61"/>
     <use x="403.271484" xlink:href="#DejaVuSerif-62"/>
     <use x="467.285156" xlink:href="#DejaVuSerif-6c"/>
     <use x="499.267578" xlink:href="#DejaVuSerif-65"/>
     <use x="558.447266" xlink:href="#DejaVuSerif-73"/>
    </g>
   </g>
  </g>
 </g>
 <defs>
  <clipPath id="pb2f617b576">
   <rect height="297.4" width="233.46875" x="69.05" y="31.8"/>
  </clipPath>
  <clipPath id="p0fdcc4a36b">
   <rect height="297.4" width="233.46875" x="343.56875" y="31.8"/>
  </clipPath>
  <clipPath id="pe680ae938a">
   <rect height="297.4" width="233.46875" x="618.0875" y="31.8"/>
  </clipPath>
  <clipPath id="pfbf62a680c">
   <rect height="297.4" width="233.46875" x="892.60625" y="31.8"/>
  </clipPath>
 </defs>
</svg>
