<?xml version="1.0" encoding="utf-8" standalone="no"?>
<!DOCTYPE svg PUBLIC "-//W3C//DTD SVG 1.1//EN"
  "http://www.w3.org/Graphics/SVG/1.1/DTD/svg11.dtd">
<svg xmlns:xlink="http://www.w3.org/1999/xlink" width="720pt" height="540pt" viewBox="0 0 720 540" xmlns="http://www.w3.org/2000/svg" version="1.1">
 <metadata>
  <rdf:RDF xmlns:dc="http://purl.org/dc/elements/1.1/" xmlns:cc="http://creativecommons.org/ns#" xmlns:rdf="http://www.w3.org/1999/02/22-rdf-syntax-ns#">
   <cc:Work>
    <dc:type rdf:resource="http://purl.org/dc/dcmitype/StillImage"/>
    <dc:date>2022-11-26T19:11:10.355916</dc:date>
    <dc:format>image/svg+xml</dc:format>
    <dc:creator>
     <cc:Agent>
      <dc:title>Matplotlib v3.6.1, https://matplotlib.org/</dc:title>
     </cc:Agent>
    </dc:creator>
   </cc:Work>
  </rdf:RDF>
 </metadata>
 <defs>
  <style type="text/css">*{stroke-linejoin: round; stroke-linecap: butt}</style>
 </defs>
 <g id="figure_1">
  <g id="patch_1">
   <path d="M 0 540 
L 720 540 
L 720 0 
L 0 0 
L 0 540 
z
" style="fill: none"/>
  </g>
  <g id="axes_1">
   <g id="patch_2">
    <path d="M 10.8 529.2 
L 709.2 529.2 
L 709.2 52.608 
L 10.8 52.608 
L 10.8 529.2 
z
" style="fill: none"/>
   </g>
   <g id="PathCollection_1">
    <defs>
     <path id="mbedd3a850d" d="M 0 2.165064 
C 0.574182 2.165064 1.124923 1.936939 1.530931 1.530931 
C 1.936939 1.124923 2.165064 0.574182 2.165064 0 
C 2.165064 -0.574182 1.936939 -1.124923 1.530931 -1.530931 
C 1.124923 -1.936939 0.574182 -2.165064 0 -2.165064 
C -0.574182 -2.165064 -1.124923 -1.936939 -1.530931 -1.530931 
C -1.936939 -1.124923 -2.165064 -0.574182 -2.165064 0 
C -2.165064 0.574182 -1.936939 1.124923 -1.530931 1.530931 
C -1.124923 1.936939 -0.574182 2.165064 0 2.165064 
z
" style="stroke: #000000"/>
    </defs>
    <g clip-path="url(#p1ecf073016)">
     <use xlink:href="#mbedd3a850d" x="557.8218" y="408.741372" style="fill: #7f7f7f; stroke: #000000"/>
     <use xlink:href="#mbedd3a850d" x="354.7038" y="224.061972" style="fill: #7f7f7f; stroke: #000000"/>
     <use xlink:href="#mbedd3a850d" x="270.4884" y="268.504176" style="fill: #7f7f7f; stroke: #000000"/>
     <use xlink:href="#mbedd3a850d" x="620.5614" y="425.660388" style="fill: #7f7f7f; stroke: #000000"/>
     <use xlink:href="#mbedd3a850d" x="242.2032" y="369.184236" style="fill: #7f7f7f; stroke: #000000"/>
     <use xlink:href="#mbedd3a850d" x="179.4054" y="398.256348" style="fill: #7f7f7f; stroke: #000000"/>
     <use xlink:href="#mbedd3a850d" x="539.838" y="324.980328" style="fill: #7f7f7f; stroke: #000000"/>
     <use xlink:href="#mbedd3a850d" x="385.4334" y="416.485992" style="fill: #7f7f7f; stroke: #000000"/>
     <use xlink:href="#mbedd3a850d" x="690.1104" y="332.486652" style="fill: #7f7f7f; stroke: #000000"/>
     <use xlink:href="#mbedd3a850d" x="425.0676" y="397.303164" style="fill: #7f7f7f; stroke: #000000"/>
     <use xlink:href="#mbedd3a850d" x="385.4334" y="416.485992" style="fill: #7f7f7f; stroke: #000000"/>
    </g>
   </g>
   <g id="matplotlib.axis_1">
    <g id="xtick_1">
     <g id="line2d_1">
      <path d="M 10.8 529.2 
L 10.8 52.608 
" clip-path="url(#p1ecf073016)" style="fill: none; stroke-dasharray: 0.925,0.4; stroke-dashoffset: 0; stroke: #808080; stroke-width: 0.25"/>
     </g>
    </g>
    <g id="xtick_2">
     <g id="line2d_2">
      <path d="M 127.2 529.2 
L 127.2 52.608 
" clip-path="url(#p1ecf073016)" style="fill: none; stroke-dasharray: 0.925,0.4; stroke-dashoffset: 0; stroke: #808080; stroke-width: 0.25"/>
     </g>
    </g>
    <g id="xtick_3">
     <g id="line2d_3">
      <path d="M 243.6 529.2 
L 243.6 52.608 
" clip-path="url(#p1ecf073016)" style="fill: none; stroke-dasharray: 0.925,0.4; stroke-dashoffset: 0; stroke: #808080; stroke-width: 0.25"/>
     </g>
    </g>
    <g id="xtick_4">
     <g id="line2d_4">
      <path d="M 360 529.2 
L 360 52.608 
" clip-path="url(#p1ecf073016)" style="fill: none; stroke-dasharray: 0.925,0.4; stroke-dashoffset: 0; stroke: #808080; stroke-width: 0.25"/>
     </g>
    </g>
    <g id="xtick_5">
     <g id="line2d_5">
      <path d="M 476.4 529.2 
L 476.4 52.608 
" clip-path="url(#p1ecf073016)" style="fill: none; stroke-dasharray: 0.925,0.4; stroke-dashoffset: 0; stroke: #808080; stroke-width: 0.25"/>
     </g>
    </g>
    <g id="xtick_6">
     <g id="line2d_6">
      <path d="M 592.8 529.2 
L 592.8 52.608 
" clip-path="url(#p1ecf073016)" style="fill: none; stroke-dasharray: 0.925,0.4; stroke-dashoffset: 0; stroke: #808080; stroke-width: 0.25"/>
     </g>
    </g>
    <g id="xtick_7">
     <g id="line2d_7">
      <path d="M 709.2 529.2 
L 709.2 52.608 
" clip-path="url(#p1ecf073016)" style="fill: none; stroke-dasharray: 0.925,0.4; stroke-dashoffset: 0; stroke: #808080; stroke-width: 0.25"/>
     </g>
    </g>
   </g>
   <g id="matplotlib.axis_2">
    <g id="ytick_1">
     <g id="line2d_8">
      <path d="M 10.8 529.2 
L 709.2 529.2 
" clip-path="url(#p1ecf073016)" style="fill: none; stroke-dasharray: 0.925,0.4; stroke-dashoffset: 0; stroke: #808080; stroke-width: 0.25"/>
     </g>
    </g>
    <g id="ytick_2">
     <g id="line2d_9">
      <path d="M 10.8 469.626 
L 709.2 469.626 
" clip-path="url(#p1ecf073016)" style="fill: none; stroke-dasharray: 0.925,0.4; stroke-dashoffset: 0; stroke: #808080; stroke-width: 0.25"/>
     </g>
    </g>
    <g id="ytick_3">
     <g id="line2d_10">
      <path d="M 10.8 410.052 
L 709.2 410.052 
" clip-path="url(#p1ecf073016)" style="fill: none; stroke-dasharray: 0.925,0.4; stroke-dashoffset: 0; stroke: #808080; stroke-width: 0.25"/>
     </g>
    </g>
    <g id="ytick_4">
     <g id="line2d_11">
      <path d="M 10.8 350.478 
L 709.2 350.478 
" clip-path="url(#p1ecf073016)" style="fill: none; stroke-dasharray: 0.925,0.4; stroke-dashoffset: 0; stroke: #808080; stroke-width: 0.25"/>
     </g>
    </g>
    <g id="ytick_5">
     <g id="line2d_12">
      <path d="M 10.8 290.904 
L 709.2 290.904 
" clip-path="url(#p1ecf073016)" style="fill: none; stroke-dasharray: 0.925,0.4; stroke-dashoffset: 0; stroke: #808080; stroke-width: 0.25"/>
     </g>
    </g>
    <g id="ytick_6">
     <g id="line2d_13">
      <path d="M 10.8 231.33 
L 709.2 231.33 
" clip-path="url(#p1ecf073016)" style="fill: none; stroke-dasharray: 0.925,0.4; stroke-dashoffset: 0; stroke: #808080; stroke-width: 0.25"/>
     </g>
    </g>
    <g id="ytick_7">
     <g id="line2d_14">
      <path d="M 10.8 171.756 
L 709.2 171.756 
" clip-path="url(#p1ecf073016)" style="fill: none; stroke-dasharray: 0.925,0.4; stroke-dashoffset: 0; stroke: #808080; stroke-width: 0.25"/>
     </g>
    </g>
    <g id="ytick_8">
     <g id="line2d_15">
      <path d="M 10.8 112.182 
L 709.2 112.182 
" clip-path="url(#p1ecf073016)" style="fill: none; stroke-dasharray: 0.925,0.4; stroke-dashoffset: 0; stroke: #808080; stroke-width: 0.25"/>
     </g>
    </g>
    <g id="ytick_9">
     <g id="line2d_16">
      <path d="M 10.8 52.608 
L 709.2 52.608 
" clip-path="url(#p1ecf073016)" style="fill: none; stroke-dasharray: 0.925,0.4; stroke-dashoffset: 0; stroke: #808080; stroke-width: 0.25"/>
     </g>
    </g>
   </g>
   <g id="line2d_17"/>
   <g id="line2d_18"/>
   <g id="patch_3">
    <path d="M 10.8 529.2 
L 10.8 52.608 
" style="fill: none; stroke: #ffffff; stroke-width: 0.8; stroke-linejoin: miter; stroke-linecap: square"/>
   </g>
   <g id="patch_4">
    <path d="M 709.2 529.2 
L 709.2 52.608 
" style="fill: none; stroke: #ffffff; stroke-width: 0.8; stroke-linejoin: miter; stroke-linecap: square"/>
   </g>
   <g id="patch_5">
    <path d="M 10.8 529.2 
L 709.2 529.2 
" style="fill: none; stroke: #ffffff; stroke-width: 0.8; stroke-linejoin: miter; stroke-linecap: square"/>
   </g>
   <g id="patch_6">
    <path d="M 10.8 52.608 
L 709.2 52.608 
" style="fill: none; stroke: #ffffff; stroke-width: 0.8; stroke-linejoin: miter; stroke-linecap: square"/>
   </g>
   <g id="PathCollection_2">
    <defs>
     <path id="m5214136b7d" d="M 0 4.330127 
C 1.148363 4.330127 2.249847 3.873878 3.061862 3.061862 
C 3.873878 2.249847 4.330127 1.148363 4.330127 0 
C 4.330127 -1.148363 3.873878 -2.249847 3.061862 -3.061862 
C 2.249847 -3.873878 1.148363 -4.330127 0 -4.330127 
C -1.148363 -4.330127 -2.249847 -3.873878 -3.061862 -3.061862 
C -3.873878 -2.249847 -4.330127 -1.148363 -4.330127 0 
C -4.330127 1.148363 -3.873878 2.249847 -3.061862 3.061862 
C -2.249847 3.873878 -1.148363 4.330127 0 4.330127 
z
" style="stroke: #000000"/>
    </defs>
    <g clip-path="url(#p1ecf073016)">
     <use xlink:href="#m5214136b7d" x="459.6966" y="288.044448" style="fill: #d62728; stroke: #000000"/>
    </g>
   </g>
   <g id="PathCollection_3">
    <defs>
     <path id="m59606ba32b" d="M 0 4.330127 
C 1.148363 4.330127 2.249847 3.873878 3.061862 3.061862 
C 3.873878 2.249847 4.330127 1.148363 4.330127 0 
C 4.330127 -1.148363 3.873878 -2.249847 3.061862 -3.061862 
C 2.249847 -3.873878 1.148363 -4.330127 0 -4.330127 
C -1.148363 -4.330127 -2.249847 -3.873878 -3.061862 -3.061862 
C -3.873878 -2.249847 -4.330127 -1.148363 -4.330127 0 
C -4.330127 1.148363 -3.873878 2.249847 -3.061862 3.061862 
C -2.249847 3.873878 -1.148363 4.330127 0 4.330127 
z
" style="stroke: #000000"/>
    </defs>
    <g clip-path="url(#p1ecf073016)">
     <use xlink:href="#m59606ba32b" x="217.701" y="421.37106" style="fill: #ffffff; stroke: #000000"/>
     <use xlink:href="#m59606ba32b" x="445.7286" y="350.239704" style="fill: #ffffff; stroke: #000000"/>
     <use xlink:href="#m59606ba32b" x="653.6772" y="402.426528" style="fill: #ffffff; stroke: #000000"/>
     <use xlink:href="#m59606ba32b" x="531.2826" y="288.878484" style="fill: #ffffff; stroke: #000000"/>
     <use xlink:href="#m59606ba32b" x="224.9178" y="356.316252" style="fill: #ffffff; stroke: #000000"/>
     <use xlink:href="#m59606ba32b" x="416.8032" y="403.260564" style="fill: #ffffff; stroke: #000000"/>
     <use xlink:href="#m59606ba32b" x="164.9718" y="410.052" style="fill: #ffffff; stroke: #000000"/>
     <use xlink:href="#m59606ba32b" x="640.233" y="314.018712" style="fill: #ffffff; stroke: #000000"/>
     <use xlink:href="#m59606ba32b" x="265.0176" y="366.801276" style="fill: #ffffff; stroke: #000000"/>
     <use xlink:href="#m59606ba32b" x="449.6862" y="341.661048" style="fill: #ffffff; stroke: #000000"/>
    </g>
   </g>
   <g id="PathCollection_4"/>
   <g id="text_1">
    <!--  -->
    <g style="fill: #ffffff" transform="translate(360 19.73325) scale(0.12 -0.12)"/>
    <!-- We sample future requests to obtain a simulated instance. -->
    <g style="fill: #ffffff" transform="translate(183.995625 33.170625) scale(0.12 -0.12)">
     <defs>
      <path id="DejaVuSans-57" d="M 213 4666 
L 850 4666 
L 1831 722 
L 2809 4666 
L 3519 4666 
L 4500 722 
L 5478 4666 
L 6119 4666 
L 4947 0 
L 4153 0 
L 3169 4050 
L 2175 0 
L 1381 0 
L 213 4666 
z
" transform="scale(0.015625)"/>
      <path id="DejaVuSans-65" d="M 3597 1894 
L 3597 1613 
L 953 1613 
Q 991 1019 1311 708 
Q 1631 397 2203 397 
Q 2534 397 2845 478 
Q 3156 559 3463 722 
L 3463 178 
Q 3153 47 2828 -22 
Q 2503 -91 2169 -91 
Q 1331 -91 842 396 
Q 353 884 353 1716 
Q 353 2575 817 3079 
Q 1281 3584 2069 3584 
Q 2775 3584 3186 3129 
Q 3597 2675 3597 1894 
z
M 3022 2063 
Q 3016 2534 2758 2815 
Q 2500 3097 2075 3097 
Q 1594 3097 1305 2825 
Q 1016 2553 972 2059 
L 3022 2063 
z
" transform="scale(0.015625)"/>
      <path id="DejaVuSans-20" transform="scale(0.015625)"/>
      <path id="DejaVuSans-73" d="M 2834 3397 
L 2834 2853 
Q 2591 2978 2328 3040 
Q 2066 3103 1784 3103 
Q 1356 3103 1142 2972 
Q 928 2841 928 2578 
Q 928 2378 1081 2264 
Q 1234 2150 1697 2047 
L 1894 2003 
Q 2506 1872 2764 1633 
Q 3022 1394 3022 966 
Q 3022 478 2636 193 
Q 2250 -91 1575 -91 
Q 1294 -91 989 -36 
Q 684 19 347 128 
L 347 722 
Q 666 556 975 473 
Q 1284 391 1588 391 
Q 1994 391 2212 530 
Q 2431 669 2431 922 
Q 2431 1156 2273 1281 
Q 2116 1406 1581 1522 
L 1381 1569 
Q 847 1681 609 1914 
Q 372 2147 372 2553 
Q 372 3047 722 3315 
Q 1072 3584 1716 3584 
Q 2034 3584 2315 3537 
Q 2597 3491 2834 3397 
z
" transform="scale(0.015625)"/>
      <path id="DejaVuSans-61" d="M 2194 1759 
Q 1497 1759 1228 1600 
Q 959 1441 959 1056 
Q 959 750 1161 570 
Q 1363 391 1709 391 
Q 2188 391 2477 730 
Q 2766 1069 2766 1631 
L 2766 1759 
L 2194 1759 
z
M 3341 1997 
L 3341 0 
L 2766 0 
L 2766 531 
Q 2569 213 2275 61 
Q 1981 -91 1556 -91 
Q 1019 -91 701 211 
Q 384 513 384 1019 
Q 384 1609 779 1909 
Q 1175 2209 1959 2209 
L 2766 2209 
L 2766 2266 
Q 2766 2663 2505 2880 
Q 2244 3097 1772 3097 
Q 1472 3097 1187 3025 
Q 903 2953 641 2809 
L 641 3341 
Q 956 3463 1253 3523 
Q 1550 3584 1831 3584 
Q 2591 3584 2966 3190 
Q 3341 2797 3341 1997 
z
" transform="scale(0.015625)"/>
      <path id="DejaVuSans-6d" d="M 3328 2828 
Q 3544 3216 3844 3400 
Q 4144 3584 4550 3584 
Q 5097 3584 5394 3201 
Q 5691 2819 5691 2113 
L 5691 0 
L 5113 0 
L 5113 2094 
Q 5113 2597 4934 2840 
Q 4756 3084 4391 3084 
Q 3944 3084 3684 2787 
Q 3425 2491 3425 1978 
L 3425 0 
L 2847 0 
L 2847 2094 
Q 2847 2600 2669 2842 
Q 2491 3084 2119 3084 
Q 1678 3084 1418 2786 
Q 1159 2488 1159 1978 
L 1159 0 
L 581 0 
L 581 3500 
L 1159 3500 
L 1159 2956 
Q 1356 3278 1631 3431 
Q 1906 3584 2284 3584 
Q 2666 3584 2933 3390 
Q 3200 3197 3328 2828 
z
" transform="scale(0.015625)"/>
      <path id="DejaVuSans-70" d="M 1159 525 
L 1159 -1331 
L 581 -1331 
L 581 3500 
L 1159 3500 
L 1159 2969 
Q 1341 3281 1617 3432 
Q 1894 3584 2278 3584 
Q 2916 3584 3314 3078 
Q 3713 2572 3713 1747 
Q 3713 922 3314 415 
Q 2916 -91 2278 -91 
Q 1894 -91 1617 61 
Q 1341 213 1159 525 
z
M 3116 1747 
Q 3116 2381 2855 2742 
Q 2594 3103 2138 3103 
Q 1681 3103 1420 2742 
Q 1159 2381 1159 1747 
Q 1159 1113 1420 752 
Q 1681 391 2138 391 
Q 2594 391 2855 752 
Q 3116 1113 3116 1747 
z
" transform="scale(0.015625)"/>
      <path id="DejaVuSans-6c" d="M 603 4863 
L 1178 4863 
L 1178 0 
L 603 0 
L 603 4863 
z
" transform="scale(0.015625)"/>
      <path id="DejaVuSans-66" d="M 2375 4863 
L 2375 4384 
L 1825 4384 
Q 1516 4384 1395 4259 
Q 1275 4134 1275 3809 
L 1275 3500 
L 2222 3500 
L 2222 3053 
L 1275 3053 
L 1275 0 
L 697 0 
L 697 3053 
L 147 3053 
L 147 3500 
L 697 3500 
L 697 3744 
Q 697 4328 969 4595 
Q 1241 4863 1831 4863 
L 2375 4863 
z
" transform="scale(0.015625)"/>
      <path id="DejaVuSans-75" d="M 544 1381 
L 544 3500 
L 1119 3500 
L 1119 1403 
Q 1119 906 1312 657 
Q 1506 409 1894 409 
Q 2359 409 2629 706 
Q 2900 1003 2900 1516 
L 2900 3500 
L 3475 3500 
L 3475 0 
L 2900 0 
L 2900 538 
Q 2691 219 2414 64 
Q 2138 -91 1772 -91 
Q 1169 -91 856 284 
Q 544 659 544 1381 
z
M 1991 3584 
L 1991 3584 
z
" transform="scale(0.015625)"/>
      <path id="DejaVuSans-74" d="M 1172 4494 
L 1172 3500 
L 2356 3500 
L 2356 3053 
L 1172 3053 
L 1172 1153 
Q 1172 725 1289 603 
Q 1406 481 1766 481 
L 2356 481 
L 2356 0 
L 1766 0 
Q 1100 0 847 248 
Q 594 497 594 1153 
L 594 3053 
L 172 3053 
L 172 3500 
L 594 3500 
L 594 4494 
L 1172 4494 
z
" transform="scale(0.015625)"/>
      <path id="DejaVuSans-72" d="M 2631 2963 
Q 2534 3019 2420 3045 
Q 2306 3072 2169 3072 
Q 1681 3072 1420 2755 
Q 1159 2438 1159 1844 
L 1159 0 
L 581 0 
L 581 3500 
L 1159 3500 
L 1159 2956 
Q 1341 3275 1631 3429 
Q 1922 3584 2338 3584 
Q 2397 3584 2469 3576 
Q 2541 3569 2628 3553 
L 2631 2963 
z
" transform="scale(0.015625)"/>
      <path id="DejaVuSans-71" d="M 947 1747 
Q 947 1113 1208 752 
Q 1469 391 1925 391 
Q 2381 391 2643 752 
Q 2906 1113 2906 1747 
Q 2906 2381 2643 2742 
Q 2381 3103 1925 3103 
Q 1469 3103 1208 2742 
Q 947 2381 947 1747 
z
M 2906 525 
Q 2725 213 2448 61 
Q 2172 -91 1784 -91 
Q 1150 -91 751 415 
Q 353 922 353 1747 
Q 353 2572 751 3078 
Q 1150 3584 1784 3584 
Q 2172 3584 2448 3432 
Q 2725 3281 2906 2969 
L 2906 3500 
L 3481 3500 
L 3481 -1331 
L 2906 -1331 
L 2906 525 
z
" transform="scale(0.015625)"/>
      <path id="DejaVuSans-6f" d="M 1959 3097 
Q 1497 3097 1228 2736 
Q 959 2375 959 1747 
Q 959 1119 1226 758 
Q 1494 397 1959 397 
Q 2419 397 2687 759 
Q 2956 1122 2956 1747 
Q 2956 2369 2687 2733 
Q 2419 3097 1959 3097 
z
M 1959 3584 
Q 2709 3584 3137 3096 
Q 3566 2609 3566 1747 
Q 3566 888 3137 398 
Q 2709 -91 1959 -91 
Q 1206 -91 779 398 
Q 353 888 353 1747 
Q 353 2609 779 3096 
Q 1206 3584 1959 3584 
z
" transform="scale(0.015625)"/>
      <path id="DejaVuSans-62" d="M 3116 1747 
Q 3116 2381 2855 2742 
Q 2594 3103 2138 3103 
Q 1681 3103 1420 2742 
Q 1159 2381 1159 1747 
Q 1159 1113 1420 752 
Q 1681 391 2138 391 
Q 2594 391 2855 752 
Q 3116 1113 3116 1747 
z
M 1159 2969 
Q 1341 3281 1617 3432 
Q 1894 3584 2278 3584 
Q 2916 3584 3314 3078 
Q 3713 2572 3713 1747 
Q 3713 922 3314 415 
Q 2916 -91 2278 -91 
Q 1894 -91 1617 61 
Q 1341 213 1159 525 
L 1159 0 
L 581 0 
L 581 4863 
L 1159 4863 
L 1159 2969 
z
" transform="scale(0.015625)"/>
      <path id="DejaVuSans-69" d="M 603 3500 
L 1178 3500 
L 1178 0 
L 603 0 
L 603 3500 
z
M 603 4863 
L 1178 4863 
L 1178 4134 
L 603 4134 
L 603 4863 
z
" transform="scale(0.015625)"/>
      <path id="DejaVuSans-6e" d="M 3513 2113 
L 3513 0 
L 2938 0 
L 2938 2094 
Q 2938 2591 2744 2837 
Q 2550 3084 2163 3084 
Q 1697 3084 1428 2787 
Q 1159 2491 1159 1978 
L 1159 0 
L 581 0 
L 581 3500 
L 1159 3500 
L 1159 2956 
Q 1366 3272 1645 3428 
Q 1925 3584 2291 3584 
Q 2894 3584 3203 3211 
Q 3513 2838 3513 2113 
z
" transform="scale(0.015625)"/>
      <path id="DejaVuSans-64" d="M 2906 2969 
L 2906 4863 
L 3481 4863 
L 3481 0 
L 2906 0 
L 2906 525 
Q 2725 213 2448 61 
Q 2172 -91 1784 -91 
Q 1150 -91 751 415 
Q 353 922 353 1747 
Q 353 2572 751 3078 
Q 1150 3584 1784 3584 
Q 2172 3584 2448 3432 
Q 2725 3281 2906 2969 
z
M 947 1747 
Q 947 1113 1208 752 
Q 1469 391 1925 391 
Q 2381 391 2643 752 
Q 2906 1113 2906 1747 
Q 2906 2381 2643 2742 
Q 2381 3103 1925 3103 
Q 1469 3103 1208 2742 
Q 947 2381 947 1747 
z
" transform="scale(0.015625)"/>
      <path id="DejaVuSans-63" d="M 3122 3366 
L 3122 2828 
Q 2878 2963 2633 3030 
Q 2388 3097 2138 3097 
Q 1578 3097 1268 2742 
Q 959 2388 959 1747 
Q 959 1106 1268 751 
Q 1578 397 2138 397 
Q 2388 397 2633 464 
Q 2878 531 3122 666 
L 3122 134 
Q 2881 22 2623 -34 
Q 2366 -91 2075 -91 
Q 1284 -91 818 406 
Q 353 903 353 1747 
Q 353 2603 823 3093 
Q 1294 3584 2113 3584 
Q 2378 3584 2631 3529 
Q 2884 3475 3122 3366 
z
" transform="scale(0.015625)"/>
      <path id="DejaVuSans-2e" d="M 684 794 
L 1344 794 
L 1344 0 
L 684 0 
L 684 794 
z
" transform="scale(0.015625)"/>
     </defs>
     <use xlink:href="#DejaVuSans-57"/>
     <use xlink:href="#DejaVuSans-65" x="93.001953"/>
     <use xlink:href="#DejaVuSans-20" x="154.525391"/>
     <use xlink:href="#DejaVuSans-73" x="186.3125"/>
     <use xlink:href="#DejaVuSans-61" x="238.412109"/>
     <use xlink:href="#DejaVuSans-6d" x="299.691406"/>
     <use xlink:href="#DejaVuSans-70" x="397.103516"/>
     <use xlink:href="#DejaVuSans-6c" x="460.580078"/>
     <use xlink:href="#DejaVuSans-65" x="488.363281"/>
     <use xlink:href="#DejaVuSans-20" x="549.886719"/>
     <use xlink:href="#DejaVuSans-66" x="581.673828"/>
     <use xlink:href="#DejaVuSans-75" x="616.878906"/>
     <use xlink:href="#DejaVuSans-74" x="680.257812"/>
     <use xlink:href="#DejaVuSans-75" x="719.466797"/>
     <use xlink:href="#DejaVuSans-72" x="782.845703"/>
     <use xlink:href="#DejaVuSans-65" x="821.708984"/>
     <use xlink:href="#DejaVuSans-20" x="883.232422"/>
     <use xlink:href="#DejaVuSans-72" x="915.019531"/>
     <use xlink:href="#DejaVuSans-65" x="953.882812"/>
     <use xlink:href="#DejaVuSans-71" x="1015.40625"/>
     <use xlink:href="#DejaVuSans-75" x="1078.882812"/>
     <use xlink:href="#DejaVuSans-65" x="1142.261719"/>
     <use xlink:href="#DejaVuSans-73" x="1203.785156"/>
     <use xlink:href="#DejaVuSans-74" x="1255.884766"/>
     <use xlink:href="#DejaVuSans-73" x="1295.09375"/>
     <use xlink:href="#DejaVuSans-20" x="1347.193359"/>
     <use xlink:href="#DejaVuSans-74" x="1378.980469"/>
     <use xlink:href="#DejaVuSans-6f" x="1418.189453"/>
     <use xlink:href="#DejaVuSans-20" x="1479.371094"/>
     <use xlink:href="#DejaVuSans-6f" x="1511.158203"/>
     <use xlink:href="#DejaVuSans-62" x="1572.339844"/>
     <use xlink:href="#DejaVuSans-74" x="1635.816406"/>
     <use xlink:href="#DejaVuSans-61" x="1675.025391"/>
     <use xlink:href="#DejaVuSans-69" x="1736.304688"/>
     <use xlink:href="#DejaVuSans-6e" x="1764.087891"/>
     <use xlink:href="#DejaVuSans-20" x="1827.466797"/>
     <use xlink:href="#DejaVuSans-61" x="1859.253906"/>
     <use xlink:href="#DejaVuSans-20" x="1920.533203"/>
     <use xlink:href="#DejaVuSans-73" x="1952.320312"/>
     <use xlink:href="#DejaVuSans-69" x="2004.419922"/>
     <use xlink:href="#DejaVuSans-6d" x="2032.203125"/>
     <use xlink:href="#DejaVuSans-75" x="2129.615234"/>
     <use xlink:href="#DejaVuSans-6c" x="2192.994141"/>
     <use xlink:href="#DejaVuSans-61" x="2220.777344"/>
     <use xlink:href="#DejaVuSans-74" x="2282.056641"/>
     <use xlink:href="#DejaVuSans-65" x="2321.265625"/>
     <use xlink:href="#DejaVuSans-64" x="2382.789062"/>
     <use xlink:href="#DejaVuSans-20" x="2446.265625"/>
     <use xlink:href="#DejaVuSans-69" x="2478.052734"/>
     <use xlink:href="#DejaVuSans-6e" x="2505.835938"/>
     <use xlink:href="#DejaVuSans-73" x="2569.214844"/>
     <use xlink:href="#DejaVuSans-74" x="2621.314453"/>
     <use xlink:href="#DejaVuSans-61" x="2660.523438"/>
     <use xlink:href="#DejaVuSans-6e" x="2721.802734"/>
     <use xlink:href="#DejaVuSans-63" x="2785.181641"/>
     <use xlink:href="#DejaVuSans-65" x="2840.162109"/>
     <use xlink:href="#DejaVuSans-2e" x="2901.685547"/>
    </g>
    <!-- Each simulated request has a nonzero release date. -->
    <g style="fill: #ffffff" transform="translate(203.925938 46.608) scale(0.12 -0.12)">
     <defs>
      <path id="DejaVuSans-45" d="M 628 4666 
L 3578 4666 
L 3578 4134 
L 1259 4134 
L 1259 2753 
L 3481 2753 
L 3481 2222 
L 1259 2222 
L 1259 531 
L 3634 531 
L 3634 0 
L 628 0 
L 628 4666 
z
" transform="scale(0.015625)"/>
      <path id="DejaVuSans-68" d="M 3513 2113 
L 3513 0 
L 2938 0 
L 2938 2094 
Q 2938 2591 2744 2837 
Q 2550 3084 2163 3084 
Q 1697 3084 1428 2787 
Q 1159 2491 1159 1978 
L 1159 0 
L 581 0 
L 581 4863 
L 1159 4863 
L 1159 2956 
Q 1366 3272 1645 3428 
Q 1925 3584 2291 3584 
Q 2894 3584 3203 3211 
Q 3513 2838 3513 2113 
z
" transform="scale(0.015625)"/>
      <path id="DejaVuSans-7a" d="M 353 3500 
L 3084 3500 
L 3084 2975 
L 922 459 
L 3084 459 
L 3084 0 
L 275 0 
L 275 525 
L 2438 3041 
L 353 3041 
L 353 3500 
z
" transform="scale(0.015625)"/>
     </defs>
     <use xlink:href="#DejaVuSans-45"/>
     <use xlink:href="#DejaVuSans-61" x="63.183594"/>
     <use xlink:href="#DejaVuSans-63" x="124.462891"/>
     <use xlink:href="#DejaVuSans-68" x="179.443359"/>
     <use xlink:href="#DejaVuSans-20" x="242.822266"/>
     <use xlink:href="#DejaVuSans-73" x="274.609375"/>
     <use xlink:href="#DejaVuSans-69" x="326.708984"/>
     <use xlink:href="#DejaVuSans-6d" x="354.492188"/>
     <use xlink:href="#DejaVuSans-75" x="451.904297"/>
     <use xlink:href="#DejaVuSans-6c" x="515.283203"/>
     <use xlink:href="#DejaVuSans-61" x="543.066406"/>
     <use xlink:href="#DejaVuSans-74" x="604.345703"/>
     <use xlink:href="#DejaVuSans-65" x="643.554688"/>
     <use xlink:href="#DejaVuSans-64" x="705.078125"/>
     <use xlink:href="#DejaVuSans-20" x="768.554688"/>
     <use xlink:href="#DejaVuSans-72" x="800.341797"/>
     <use xlink:href="#DejaVuSans-65" x="839.205078"/>
     <use xlink:href="#DejaVuSans-71" x="900.728516"/>
     <use xlink:href="#DejaVuSans-75" x="964.205078"/>
     <use xlink:href="#DejaVuSans-65" x="1027.583984"/>
     <use xlink:href="#DejaVuSans-73" x="1089.107422"/>
     <use xlink:href="#DejaVuSans-74" x="1141.207031"/>
     <use xlink:href="#DejaVuSans-20" x="1180.416016"/>
     <use xlink:href="#DejaVuSans-68" x="1212.203125"/>
     <use xlink:href="#DejaVuSans-61" x="1275.582031"/>
     <use xlink:href="#DejaVuSans-73" x="1336.861328"/>
     <use xlink:href="#DejaVuSans-20" x="1388.960938"/>
     <use xlink:href="#DejaVuSans-61" x="1420.748047"/>
     <use xlink:href="#DejaVuSans-20" x="1482.027344"/>
     <use xlink:href="#DejaVuSans-6e" x="1513.814453"/>
     <use xlink:href="#DejaVuSans-6f" x="1577.193359"/>
     <use xlink:href="#DejaVuSans-6e" x="1638.375"/>
     <use xlink:href="#DejaVuSans-7a" x="1701.753906"/>
     <use xlink:href="#DejaVuSans-65" x="1754.244141"/>
     <use xlink:href="#DejaVuSans-72" x="1815.767578"/>
     <use xlink:href="#DejaVuSans-6f" x="1854.630859"/>
     <use xlink:href="#DejaVuSans-20" x="1915.8125"/>
     <use xlink:href="#DejaVuSans-72" x="1947.599609"/>
     <use xlink:href="#DejaVuSans-65" x="1986.462891"/>
     <use xlink:href="#DejaVuSans-6c" x="2047.986328"/>
     <use xlink:href="#DejaVuSans-65" x="2075.769531"/>
     <use xlink:href="#DejaVuSans-61" x="2137.292969"/>
     <use xlink:href="#DejaVuSans-73" x="2198.572266"/>
     <use xlink:href="#DejaVuSans-65" x="2250.671875"/>
     <use xlink:href="#DejaVuSans-20" x="2312.195312"/>
     <use xlink:href="#DejaVuSans-64" x="2343.982422"/>
     <use xlink:href="#DejaVuSans-61" x="2407.458984"/>
     <use xlink:href="#DejaVuSans-74" x="2468.738281"/>
     <use xlink:href="#DejaVuSans-65" x="2507.947266"/>
     <use xlink:href="#DejaVuSans-2e" x="2569.470703"/>
    </g>
   </g>
   <g id="PathCollection_5">
    <defs>
     <path id="m0174e05770" d="M 0 -11.18034 
L -2.510143 -3.454915 
L -10.633135 -3.454915 
L -4.061496 1.31966 
L -6.571639 9.045085 
L -0 4.27051 
L 6.571639 9.045085 
L 4.061496 1.31966 
L 10.633135 -3.454915 
L 2.510143 -3.454915 
z
" style="stroke: #000000"/>
    </defs>
    <g clip-path="url(#p1ecf073016)">
     <use xlink:href="#m0174e05770" x="360" y="410.052" style="fill: #1f77b4; stroke: #000000"/>
    </g>
   </g>
   <g id="legend_1">
    <g id="PathCollection_6">
     <g>
      <use xlink:href="#m0174e05770" x="581.221875" y="66.581437" style="fill: #1f77b4; stroke: #000000"/>
     </g>
    </g>
    <g id="text_2">
     <!-- depot -->
     <g style="fill: #ffffff" transform="translate(599.221875 69.206437) scale(0.1 -0.1)">
      <use xlink:href="#DejaVuSans-64"/>
      <use xlink:href="#DejaVuSans-65" x="63.476562"/>
      <use xlink:href="#DejaVuSans-70" x="125"/>
      <use xlink:href="#DejaVuSans-6f" x="188.476562"/>
      <use xlink:href="#DejaVuSans-74" x="249.658203"/>
     </g>
    </g>
    <g id="PathCollection_7">
     <g>
      <use xlink:href="#m5214136b7d" x="581.221875" y="81.259563" style="fill: #d62728; stroke: #000000"/>
     </g>
    </g>
    <g id="text_3">
     <!-- must-dispatch -->
     <g style="fill: #ffffff" transform="translate(599.221875 83.884563) scale(0.1 -0.1)">
      <defs>
       <path id="DejaVuSans-2d" d="M 313 2009 
L 1997 2009 
L 1997 1497 
L 313 1497 
L 313 2009 
z
" transform="scale(0.015625)"/>
      </defs>
      <use xlink:href="#DejaVuSans-6d"/>
      <use xlink:href="#DejaVuSans-75" x="97.412109"/>
      <use xlink:href="#DejaVuSans-73" x="160.791016"/>
      <use xlink:href="#DejaVuSans-74" x="212.890625"/>
      <use xlink:href="#DejaVuSans-2d" x="252.099609"/>
      <use xlink:href="#DejaVuSans-64" x="288.183594"/>
      <use xlink:href="#DejaVuSans-69" x="351.660156"/>
      <use xlink:href="#DejaVuSans-73" x="379.443359"/>
      <use xlink:href="#DejaVuSans-70" x="431.542969"/>
      <use xlink:href="#DejaVuSans-61" x="495.019531"/>
      <use xlink:href="#DejaVuSans-74" x="556.298828"/>
      <use xlink:href="#DejaVuSans-63" x="595.507812"/>
      <use xlink:href="#DejaVuSans-68" x="650.488281"/>
     </g>
    </g>
    <g id="PathCollection_8">
     <g>
      <use xlink:href="#m59606ba32b" x="581.221875" y="95.937687" style="fill: #ffffff; stroke: #000000"/>
     </g>
    </g>
    <g id="text_4">
     <!-- optional -->
     <g style="fill: #ffffff" transform="translate(599.221875 98.562687) scale(0.1 -0.1)">
      <use xlink:href="#DejaVuSans-6f"/>
      <use xlink:href="#DejaVuSans-70" x="61.181641"/>
      <use xlink:href="#DejaVuSans-74" x="124.658203"/>
      <use xlink:href="#DejaVuSans-69" x="163.867188"/>
      <use xlink:href="#DejaVuSans-6f" x="191.650391"/>
      <use xlink:href="#DejaVuSans-6e" x="252.832031"/>
      <use xlink:href="#DejaVuSans-61" x="316.210938"/>
      <use xlink:href="#DejaVuSans-6c" x="377.490234"/>
     </g>
    </g>
    <g id="PathCollection_9">
     <defs>
      <path id="mcbf274d301" d="M 0 4.330127 
C 1.148363 4.330127 2.249847 3.873878 3.061862 3.061862 
C 3.873878 2.249847 4.330127 1.148363 4.330127 0 
C 4.330127 -1.148363 3.873878 -2.249847 3.061862 -3.061862 
C 2.249847 -3.873878 1.148363 -4.330127 0 -4.330127 
C -1.148363 -4.330127 -2.249847 -3.873878 -3.061862 -3.061862 
C -3.873878 -2.249847 -4.330127 -1.148363 -4.330127 0 
C -4.330127 1.148363 -3.873878 2.249847 -3.061862 3.061862 
C -2.249847 3.873878 -1.148363 4.330127 0 4.330127 
z
" style="stroke: #000000"/>
     </defs>
     <g>
      <use xlink:href="#mcbf274d301" x="581.221875" y="110.615813" style="fill: #2ca02c; stroke: #000000"/>
     </g>
    </g>
    <g id="text_5">
     <!-- postponed -->
     <g style="fill: #ffffff" transform="translate(599.221875 113.240813) scale(0.1 -0.1)">
      <use xlink:href="#DejaVuSans-70"/>
      <use xlink:href="#DejaVuSans-6f" x="63.476562"/>
      <use xlink:href="#DejaVuSans-73" x="124.658203"/>
      <use xlink:href="#DejaVuSans-74" x="176.757812"/>
      <use xlink:href="#DejaVuSans-70" x="215.966797"/>
      <use xlink:href="#DejaVuSans-6f" x="279.443359"/>
      <use xlink:href="#DejaVuSans-6e" x="340.625"/>
      <use xlink:href="#DejaVuSans-65" x="404.003906"/>
      <use xlink:href="#DejaVuSans-64" x="465.527344"/>
     </g>
    </g>
    <g id="PathCollection_10">
     <g>
      <use xlink:href="#mbedd3a850d" x="581.221875" y="125.293937" style="fill: #7f7f7f; stroke: #000000"/>
     </g>
    </g>
    <g id="text_6">
     <!-- simulated -->
     <g style="fill: #ffffff" transform="translate(599.221875 127.918937) scale(0.1 -0.1)">
      <use xlink:href="#DejaVuSans-73"/>
      <use xlink:href="#DejaVuSans-69" x="52.099609"/>
      <use xlink:href="#DejaVuSans-6d" x="79.882812"/>
      <use xlink:href="#DejaVuSans-75" x="177.294922"/>
      <use xlink:href="#DejaVuSans-6c" x="240.673828"/>
      <use xlink:href="#DejaVuSans-61" x="268.457031"/>
      <use xlink:href="#DejaVuSans-74" x="329.736328"/>
      <use xlink:href="#DejaVuSans-65" x="368.945312"/>
      <use xlink:href="#DejaVuSans-64" x="430.46875"/>
     </g>
    </g>
    <g id="line2d_19">
     <path d="M 571.221875 139.097062 
L 581.221875 139.097062 
L 591.221875 139.097062 
" style="fill: none; stroke: #d62728; stroke-opacity: 0.75; stroke-width: 1.5; stroke-linecap: square"/>
    </g>
    <g id="text_7">
     <!-- must-dispatch route -->
     <g style="fill: #ffffff" transform="translate(599.221875 142.597062) scale(0.1 -0.1)">
      <use xlink:href="#DejaVuSans-6d"/>
      <use xlink:href="#DejaVuSans-75" x="97.412109"/>
      <use xlink:href="#DejaVuSans-73" x="160.791016"/>
      <use xlink:href="#DejaVuSans-74" x="212.890625"/>
      <use xlink:href="#DejaVuSans-2d" x="252.099609"/>
      <use xlink:href="#DejaVuSans-64" x="288.183594"/>
      <use xlink:href="#DejaVuSans-69" x="351.660156"/>
      <use xlink:href="#DejaVuSans-73" x="379.443359"/>
      <use xlink:href="#DejaVuSans-70" x="431.542969"/>
      <use xlink:href="#DejaVuSans-61" x="495.019531"/>
      <use xlink:href="#DejaVuSans-74" x="556.298828"/>
      <use xlink:href="#DejaVuSans-63" x="595.507812"/>
      <use xlink:href="#DejaVuSans-68" x="650.488281"/>
      <use xlink:href="#DejaVuSans-20" x="713.867188"/>
      <use xlink:href="#DejaVuSans-72" x="745.654297"/>
      <use xlink:href="#DejaVuSans-6f" x="784.517578"/>
      <use xlink:href="#DejaVuSans-75" x="845.699219"/>
      <use xlink:href="#DejaVuSans-74" x="909.078125"/>
      <use xlink:href="#DejaVuSans-65" x="948.287109"/>
     </g>
    </g>
    <g id="line2d_20">
     <path d="M 571.221875 153.775188 
L 581.221875 153.775188 
L 591.221875 153.775188 
" style="fill: none; stroke: #7f7f7f; stroke-opacity: 0.5; stroke-width: 1.5; stroke-linecap: square"/>
    </g>
    <g id="text_8">
     <!-- postponed route -->
     <g style="fill: #ffffff" transform="translate(599.221875 157.275188) scale(0.1 -0.1)">
      <use xlink:href="#DejaVuSans-70"/>
      <use xlink:href="#DejaVuSans-6f" x="63.476562"/>
      <use xlink:href="#DejaVuSans-73" x="124.658203"/>
      <use xlink:href="#DejaVuSans-74" x="176.757812"/>
      <use xlink:href="#DejaVuSans-70" x="215.966797"/>
      <use xlink:href="#DejaVuSans-6f" x="279.443359"/>
      <use xlink:href="#DejaVuSans-6e" x="340.625"/>
      <use xlink:href="#DejaVuSans-65" x="404.003906"/>
      <use xlink:href="#DejaVuSans-64" x="465.527344"/>
      <use xlink:href="#DejaVuSans-20" x="529.003906"/>
      <use xlink:href="#DejaVuSans-72" x="560.791016"/>
      <use xlink:href="#DejaVuSans-6f" x="599.654297"/>
      <use xlink:href="#DejaVuSans-75" x="660.835938"/>
      <use xlink:href="#DejaVuSans-74" x="724.214844"/>
      <use xlink:href="#DejaVuSans-65" x="763.423828"/>
     </g>
    </g>
   </g>
  </g>
 </g>
 <defs>
  <clipPath id="p1ecf073016">
   <rect x="10.8" y="52.608" width="698.4" height="476.592"/>
  </clipPath>
 </defs>
</svg>
